<svg width="327" height="232" viewBox="0 0 327 232" fill="none" xmlns="http://www.w3.org/2000/svg">
<path d="M299.947 35.0001L298.162 32.5101C283.119 11.5101 255.917 -1.0899 227.238 0.410104C223.548 0.607607 219.88 1.03473 216.262 1.6881C190.187 6.4161 167.493 23.1021 158.092 44.4801C152.562 57.0501 151.015 71.5221 140.515 81.5001C126.858 94.4841 103.667 94.8921 83.276 94.3581C62.885 93.8241 39.68 94.2741 26.1 107.312C17.588 115.478 14.9 127.112 15.6 138.026C17.413 166.976 29.964 192.476 60.274 205.346C90.584 218.216 137.554 219.746 170.727 214.082C217.158 206.156 261.349 184.4 287.9 150.752C314.451 117.104 321.199 71.3001 299.947 35.0001Z" fill="#EBEBEB"/>
<path d="M40.982 171.698C44.65 170.078 48.962 169.868 53.029 170.444C55.213 170.756 57.488 171.314 58.979 172.724C60.47 174.134 60.743 176.606 59.035 177.812C58.02 178.532 56.606 178.64 55.29 178.628C52.105 178.598 48.57 178.118 46.029 179.756C44.573 180.698 43.607 182.252 41.878 182.714C40.149 183.176 38.259 182.306 37.363 180.992C36.535 179.625 36.352 178.038 36.852 176.558C37.0569 175.53 37.5363 174.557 38.2528 173.714C38.9692 172.87 39.9032 172.181 40.982 171.698Z" fill="#00274C"/>
<path d="M32.589 157.814C34.829 160.556 39.183 159.644 41.206 157.976C43.229 156.308 44.076 153.872 44.853 151.562C46.624 146.276 48.416 140.762 47.093 135.362C46.7775 133.731 45.9416 132.207 44.678 130.958C44.0394 130.341 43.2227 129.879 42.3098 129.617C41.3969 129.356 40.42 129.305 39.477 129.47C37.279 129.968 35.921 131.81 34.934 133.568C32.0266 138.743 30.5033 144.409 30.475 150.152C30.475 152.822 30.832 155.624 32.575 157.832" fill="#00274C"/>
<path d="M26.436 161.75C28.872 159.272 29.334 155.666 28.249 152.564C27.164 149.462 24.749 146.828 21.907 144.674C18.591 142.146 14.7321 140.195 10.546 138.932C8.92587 138.369 7.18213 138.115 5.43598 138.188C4.56388 138.23 3.71708 138.455 2.96924 138.842C2.2214 139.229 1.59516 139.766 1.14498 140.408C-0.0520153 142.364 1.09598 144.734 2.33498 146.672C4.52069 150.081 7.01571 153.337 9.79698 156.41C12.037 158.882 14.599 161.318 18.008 162.41C21.417 163.502 24.959 163.4 26.8 161.396" fill="#00274C"/>
<path d="M32.442 199.178C32.5583 198.771 32.6263 198.355 32.645 197.936C32.743 197.024 32.876 195.89 33.03 194.534C33.2254 192.858 33.5221 191.192 33.919 189.542C34.4372 187.536 35.1394 185.568 36.019 183.656C36.8878 181.748 38.066 179.954 39.519 178.328C40.705 177.006 42.2214 175.927 43.957 175.172C45.1394 174.679 46.406 174.351 47.709 174.2C48.1979 174.183 48.6835 174.123 49.158 174.02C48.6695 173.973 48.1764 173.973 47.688 174.02C46.3388 174.108 45.0186 174.4 43.789 174.884C41.9652 175.624 40.365 176.714 39.113 178.07C37.5965 179.719 36.3723 181.551 35.48 183.506C34.5779 185.45 33.8752 187.458 33.38 189.506C33.0033 191.175 32.7438 192.862 32.603 194.558C32.477 196.004 32.435 197.174 32.407 197.984C32.3684 198.382 32.3801 198.782 32.442 199.178Z" fill="#263238"/>
<path d="M32.715 196.562C32.7413 196.363 32.7413 196.161 32.715 195.962V194.306C32.715 192.872 32.715 190.796 32.799 188.234C32.946 183.104 33.499 177.584 34.458 169.802C35.396 162.488 36.663 153.968 38 148.436C38.28 147.176 38.574 146.036 38.84 145.052C39.106 144.068 39.323 143.198 39.54 142.502C39.757 141.806 39.876 141.302 39.995 140.9C40.0642 140.705 40.1042 140.504 40.114 140.3C40.0066 140.47 39.9266 140.652 39.876 140.84C39.729 141.254 39.547 141.782 39.316 142.424C39.085 143.066 38.812 143.96 38.525 144.956C38.238 145.952 37.902 147.074 37.587 148.328C35.9386 154.867 34.6956 161.476 33.863 168.128C32.869 175.928 32.421 183.026 32.379 188.162C32.379 190.736 32.379 192.818 32.484 194.252C32.533 194.924 32.575 195.452 32.603 195.902C32.6052 196.125 32.6429 196.347 32.715 196.562Z" fill="#263238"/>
<path d="M32.75 182.87C32.8034 182.295 32.8034 181.717 32.75 181.142C32.636 179.574 32.4304 178.012 32.134 176.462C31.6951 174.163 31.1038 171.888 30.363 169.646C29.4895 166.895 28.3708 164.205 27.017 161.6C24.6997 156.781 21.379 152.363 17.217 148.562C16.4959 147.913 15.7291 147.302 14.921 146.732C14.564 146.48 14.256 146.222 13.934 146.024L13.045 145.496C12.5268 145.142 11.9768 144.823 11.4 144.542C11.302 144.65 13.801 145.916 16.958 148.79C20.9666 152.626 24.1836 157.019 26.471 161.78C27.7907 164.378 28.9085 167.048 29.817 169.772C30.685 172.28 31.266 174.572 31.7 176.522C32.134 178.472 32.358 180.056 32.505 181.16C32.5398 181.734 32.6216 182.306 32.75 182.87Z" fill="#263238"/>
<path d="M17.315 207.026L18.911 225.824H47.086L48.689 207.026H17.315Z" fill="#263238"/>
<path d="M52.049 199.616H14.592V207.026H52.049V199.616Z" fill="#263238"/>
<path d="M14.592 225.104V227.156H16.349H51.433V225.104H14.592Z" fill="#455A64"/>
<path d="M18.078 230.774L16.349 227.156H50.089L48.073 230.774H18.078Z" fill="#455A64"/>
<path d="M48.164 213.2C48.129 213.261 48.0842 213.318 48.031 213.368C47.919 213.5 47.786 213.656 47.611 213.848L45.973 215.648L45.896 215.732L45.826 215.648L41.794 210.848H42.025L38.056 215.648L37.93 215.798L37.79 215.66L33.086 210.86H33.359C33.275 210.944 33.184 211.04 33.1 211.136L28.9 215.66L28.76 215.81L28.634 215.654L24.658 210.854H24.889C22.936 212.768 21.27 214.388 19.989 215.654L19.905 215.738L19.842 215.642C19.191 214.718 18.68 213.974 18.309 213.44C18.148 213.2 18.015 213.008 17.917 212.84C17.8638 212.775 17.8214 212.705 17.791 212.63C17.791 212.63 17.854 212.69 17.959 212.816L18.393 213.38L20.003 215.546H19.849L24.658 210.71L24.784 210.59L24.889 210.722L28.9 215.522H28.62L32.82 210.992L33.079 210.716L33.219 210.572L33.352 210.71C35.004 212.396 36.586 214.022 38.049 215.51H37.783L41.794 210.71L41.913 210.572L42.025 210.71L45.973 215.546H45.833L47.541 213.8L47.996 213.344C48.1033 213.22 48.1593 213.172 48.164 213.2Z" fill="#E0E0E0"/>
<path d="M49.081 206.9C49.081 206.984 42.018 207.05 33.317 207.05C24.616 207.05 17.546 206.984 17.546 206.9C17.546 206.816 24.602 206.75 33.317 206.75C42.032 206.75 49.081 206.816 49.081 206.9Z" fill="#455A64"/>
<path d="M50.502 227.36C50.502 227.444 42.802 227.51 33.366 227.51C23.93 227.51 16.23 227.444 16.23 227.36C16.23 227.276 23.93 227.21 33.366 227.21C42.802 227.21 50.502 227.276 50.502 227.36Z" fill="#263238"/>
<path d="M243.17 151.466H308.641C311.45 151.466 314.144 152.423 316.13 154.125C318.116 155.827 319.232 158.136 319.232 160.544V231.116H232.6V160.544C232.6 158.14 233.713 155.833 235.695 154.131C237.676 152.429 240.365 151.471 243.17 151.466Z" fill="#455A64"/>
<path d="M311.938 151.874C312.043 151.874 312.12 169.604 312.12 191.474C312.12 213.344 312.043 231.074 311.938 231.074C311.833 231.074 311.756 213.344 311.756 191.474C311.756 169.604 311.84 151.874 311.938 151.874Z" fill="#263238"/>
<path d="M269.252 65C277.219 74.777 281.788 86.2907 282.426 98.204C282.832 106.184 281.579 114.686 285.996 121.718C292.338 131.81 306.051 131.468 310.251 142.346C312.078 147.08 308.711 157.49 307.801 162.416C306.772 168.008 310.762 172.706 309.733 178.304C308.788 183.434 304.308 187.094 298.932 189.482C294.144 191.606 289.72 191.666 284.743 189.896C275.251 186.53 267.355 182.978 260.6 176.354C251.108 167.054 248.238 154.154 246.6 141.896C243.026 114.787 243.748 87.3886 248.749 60.446" fill="#263238"/>
<path d="M289.545 191.042C289.644 191.015 289.744 190.993 289.846 190.976C290.049 190.934 290.357 190.892 290.749 190.79C293.702 190.102 296.348 188.675 298.351 186.692C299.105 185.936 299.68 185.062 300.045 184.118C300.394 183.044 300.594 181.938 300.64 180.824C300.691 178.254 300.385 175.688 299.73 173.18C299.121 170.456 298.33 167.552 298.092 164.402C297.976 162.794 298.11 161.18 298.491 159.602C298.93 157.963 299.524 156.358 300.269 154.802C301.031 153.206 301.699 151.578 302.271 149.924C302.864 148.234 303.031 146.454 302.761 144.704C302.435 142.963 301.657 141.306 300.486 139.856C299.341 138.445 298.009 137.152 296.517 136.004C293.626 133.688 290.497 131.804 287.823 129.632C283.053 125.848 279.203 121.293 276.497 116.228C275.448 114.289 274.578 112.283 273.893 110.228C273.557 109.334 273.361 108.47 273.123 107.69C272.885 106.91 272.78 106.178 272.626 105.53C272.409 104.216 272.241 103.202 272.199 102.53C272.199 102.194 272.143 101.93 272.129 101.738C272.115 101.546 272.129 101.468 272.129 101.468C272.129 101.468 272.129 101.558 272.178 101.738C272.227 101.918 272.241 102.188 272.29 102.524C272.353 103.214 272.542 104.228 272.78 105.524C272.941 106.172 273.116 106.892 273.305 107.678C273.494 108.464 273.753 109.304 274.103 110.198C274.806 112.233 275.688 114.218 276.742 116.138C279.467 121.157 283.313 125.67 288.061 129.422C290.721 131.546 293.857 133.448 296.776 135.776C298.288 136.941 299.639 138.252 300.801 139.682C302.003 141.172 302.8 142.873 303.132 144.662C303.411 146.454 303.242 148.277 302.635 150.008C302.089 151.712 301.326 153.326 300.619 154.91C299.88 156.447 299.286 158.032 298.841 159.65C298.463 161.206 298.329 162.798 298.442 164.384C298.631 167.492 299.443 170.384 300.045 173.126C300.689 175.655 300.981 178.242 300.913 180.83C300.854 181.963 300.643 183.087 300.283 184.178C299.894 185.139 299.298 186.028 298.526 186.8C297.291 188.028 295.788 189.037 294.102 189.77C293.051 190.248 291.934 190.611 290.777 190.85C290.373 190.941 289.961 191.005 289.545 191.042Z" fill="#455A64"/>
<path d="M159.212 212.48L192.812 198.806C192.812 198.806 205.895 144.356 208.373 140.27C210.851 136.184 221.183 132.65 221.183 132.65L219.454 206.378L216.374 223.4L168.998 227.246L159.212 212.48Z" fill="#00274C"/>
<path d="M130.547 225.38C130.358 225.38 129.427 225.872 130.204 227.138C130.981 228.404 136.679 232.586 138.352 231.128C140.025 229.67 137.47 227.894 137.47 227.894L130.547 225.38Z" fill="#FFBE9D"/>
<path d="M137.708 227.948C137.708 227.948 144.582 228.692 147.221 229.556C150.098 230.492 153.598 229.85 155.95 228.488C157.287 227.725 158.534 226.853 159.674 225.884L168.438 225.764C169.698 224.499 170.524 222.96 170.826 221.318C171.127 219.675 170.892 217.993 170.146 216.458C169.677 215.39 169 214.398 168.144 213.524C167.101 212.558 165.456 211.778 162.614 211.358L152.205 213.284C152.205 213.284 136.105 212.294 133.207 213.458C133.207 213.458 129.602 215.288 128.489 216.056C128.069 216.35 126.788 219.866 129.413 221.696C129.413 221.696 127.131 223.25 128.37 224.648L128.958 225.248C128.958 225.248 127.425 226.952 128.216 227.696C129.007 228.44 135.916 231.896 138.373 231.08C140.83 230.264 138.8 228.29 137.708 227.93" fill="#FFBE9D"/>
<path d="M131.142 218.654C131.433 218.727 131.718 218.815 131.996 218.918C132.535 219.092 133.326 219.344 134.32 219.614C134.81 219.752 135.356 219.89 135.951 220.022C136.546 220.154 137.183 220.268 137.848 220.454C138.571 220.624 139.226 220.962 139.738 221.432C140.02 221.692 140.216 222.013 140.305 222.36C140.393 222.707 140.372 223.068 140.242 223.406C140.078 223.746 139.777 224.024 139.395 224.192C139.035 224.343 138.646 224.437 138.247 224.468C137.515 224.505 136.779 224.471 136.056 224.366C134.844 224.198 133.654 223.933 132.5 223.574C131.513 223.274 130.736 222.974 130.197 222.794C129.912 222.705 129.637 222.593 129.378 222.458C129.671 222.525 129.958 222.607 130.239 222.704C130.785 222.872 131.576 223.13 132.563 223.406C133.703 223.737 134.874 223.984 136.063 224.144C136.757 224.237 137.462 224.265 138.163 224.228C138.526 224.2 138.88 224.115 139.206 223.976C139.523 223.834 139.771 223.6 139.906 223.316C140.019 223.024 140.041 222.712 139.97 222.411C139.899 222.11 139.737 221.83 139.5 221.6C139.023 221.162 138.415 220.845 137.743 220.682C137.099 220.496 136.455 220.376 135.867 220.232C135.279 220.088 134.726 219.938 134.236 219.794C133.242 219.5 132.465 219.194 131.933 219.02C131.657 218.919 131.392 218.797 131.142 218.654Z" fill="#EB996E"/>
<path d="M131.758 214.4C132.048 214.469 132.331 214.558 132.605 214.664C133.151 214.844 133.935 215.102 134.915 215.378C135.895 215.654 137.078 215.978 138.415 216.236C139.148 216.335 139.845 216.577 140.452 216.944C140.773 217.173 140.985 217.495 141.047 217.85C141.108 218.207 141.048 218.572 140.872 218.9C140.694 219.213 140.442 219.491 140.133 219.716C139.823 219.941 139.462 220.108 139.073 220.208C138.367 220.405 137.616 220.456 136.882 220.358C135.688 220.153 134.517 219.86 133.382 219.482L131.065 218.786C130.778 218.709 130.497 218.615 130.225 218.504C130.522 218.547 130.815 218.611 131.1 218.696L133.445 219.296C134.586 219.644 135.756 219.917 136.945 220.112C137.638 220.197 138.345 220.144 139.01 219.956C139.364 219.863 139.691 219.709 139.972 219.502C140.253 219.296 140.48 219.042 140.641 218.756C140.806 218.483 140.862 218.172 140.8 217.869C140.738 217.567 140.562 217.29 140.298 217.082C139.725 216.739 139.07 216.512 138.38 216.416C137.043 216.128 135.86 215.816 134.88 215.504C133.9 215.192 133.13 214.904 132.598 214.712C132.309 214.628 132.028 214.523 131.758 214.4Z" fill="#EB996E"/>
<path d="M135.069 215.6C134.926 215.208 134.82 214.807 134.754 214.4C134.596 214.01 134.481 213.608 134.411 213.2C134.745 213.512 134.962 213.903 135.034 214.322C135.209 214.733 135.221 215.182 135.069 215.6Z" fill="#EB996E"/>
<path d="M159.31 215.792L153.185 213.8C153.185 213.8 136.182 206.996 135.895 207.368C135.608 207.74 134.684 207.692 134.887 209.468C135.09 211.244 144.995 214.832 145.31 215.468C145.625 216.104 145.1 219.2 148.761 221.426C152.422 223.652 155.061 223.706 155.061 223.706" fill="#FFBE9D"/>
<path d="M155.061 223.652H154.9L154.48 223.616C153.941 223.543 153.409 223.432 152.891 223.286C150.982 222.729 149.218 221.859 147.697 220.724C146.667 219.897 145.938 218.832 145.597 217.658C145.421 217.012 145.3 216.357 145.233 215.696C145.221 215.62 145.2 215.546 145.17 215.474C145.13 215.416 145.075 215.367 145.009 215.33C144.849 215.23 144.683 215.138 144.512 215.054C144.169 214.88 143.812 214.712 143.434 214.544C141.964 213.866 140.389 213.188 138.807 212.408C137.996 212.016 137.209 211.59 136.448 211.13C136.054 210.893 135.684 210.628 135.342 210.338C135.16 210.189 135.002 210.019 134.873 209.834C134.804 209.732 134.756 209.62 134.733 209.504C134.719 209.396 134.719 209.288 134.733 209.18C134.677 208.745 134.767 208.306 134.992 207.914C135.131 207.729 135.315 207.571 135.531 207.452C135.619 207.403 135.699 207.345 135.769 207.278C135.769 207.278 135.769 207.278 135.825 207.224C135.859 207.202 135.901 207.191 135.944 207.194C135.984 207.19 136.023 207.19 136.063 207.194L136.252 207.236C137.169 207.476 138.016 207.794 138.863 208.094C140.543 208.694 142.146 209.294 143.672 209.894C146.731 211.094 149.461 212.162 151.757 213.086C152.331 213.308 152.87 213.542 153.388 213.734L154.886 214.238L157.287 215.054L158.799 215.576L159.184 215.72C159.275 215.72 159.317 215.768 159.317 215.774C159.317 215.78 159.268 215.774 159.177 215.738L158.778 215.624L157.245 215.138L154.823 214.4L153.311 213.914C152.779 213.728 152.24 213.5 151.666 213.278L143.56 210.14C142.027 209.54 140.424 208.94 138.744 208.34C137.904 208.046 137.05 207.74 136.168 207.494L136.014 207.464H135.958C135.958 207.464 135.958 207.428 135.958 207.404C136.154 207.512 136.007 207.44 136.049 207.464C135.965 207.553 135.866 207.63 135.755 207.692C135.568 207.79 135.41 207.924 135.293 208.082C135.096 208.435 135.018 208.827 135.069 209.216C135.065 209.404 135.115 209.589 135.216 209.756C135.333 209.923 135.474 210.076 135.636 210.212C135.967 210.492 136.325 210.746 136.707 210.974C137.463 211.442 138.254 211.85 139.038 212.24C140.613 213.02 142.174 213.704 143.651 214.382C144.022 214.556 144.351 214.724 144.736 214.91C144.917 214.998 145.092 215.094 145.261 215.198C145.363 215.257 145.445 215.337 145.499 215.432C145.534 215.519 145.558 215.61 145.569 215.702C145.635 216.356 145.75 217.005 145.912 217.646C146.232 218.789 146.927 219.83 147.914 220.646C149.406 221.777 151.132 222.659 153.003 223.244C153.512 223.398 154.034 223.52 154.564 223.61C154.746 223.646 154.886 223.658 154.984 223.67L155.061 223.652Z" fill="#EB996E"/>
<path d="M136.308 224.336C136.534 224.359 136.754 224.414 136.959 224.498C137.534 224.696 138.074 224.963 138.562 225.29C138.902 225.518 139.212 225.778 139.486 226.064C139.658 226.225 139.791 226.415 139.876 226.621C139.961 226.827 139.998 227.046 139.983 227.264C139.927 227.512 139.791 227.742 139.591 227.928C139.39 228.113 139.133 228.247 138.849 228.314C138.264 228.451 137.645 228.434 137.071 228.266C135.124 227.772 133.235 227.123 131.429 226.328C130.885 226.085 130.357 225.816 129.847 225.524C129.651 225.428 129.47 225.311 129.308 225.176C129.516 225.246 129.716 225.335 129.903 225.44C130.281 225.626 130.827 225.884 131.52 226.172C133.329 226.913 135.201 227.535 137.12 228.032C137.643 228.187 138.208 228.206 138.744 228.086C138.98 228.033 139.194 227.925 139.363 227.775C139.532 227.625 139.649 227.438 139.703 227.234C139.718 227.041 139.689 226.847 139.617 226.664C139.545 226.481 139.432 226.312 139.283 226.166C139.026 225.886 138.735 225.631 138.415 225.404C137.768 224.973 137.06 224.614 136.308 224.336Z" fill="#EB996E"/>
<g opacity="0.3">
<path d="M216.136 223.4C210.634 207.494 205.783 187.01 200.281 171.104C198.265 185.786 200.785 205.172 203.935 219.704C204.306 221.408 204.474 223.076 206.035 224.198L216.136 223.4Z" fill="black"/>
</g>
<path d="M207.127 212.48C207.05 212.48 206.819 211.442 206.07 209.852C205.63 208.925 205.103 208.03 204.495 207.176C203.736 206.139 202.869 205.163 201.905 204.26C200.927 203.367 199.853 202.553 198.699 201.83C197.753 201.243 196.75 200.725 195.703 200.282C193.911 199.526 192.707 199.25 192.728 199.19C193.02 199.219 193.306 199.278 193.582 199.364C193.914 199.436 194.239 199.528 194.555 199.64C194.984 199.769 195.405 199.917 195.815 200.084C196.893 200.507 197.924 201.013 198.895 201.596C200.079 202.319 201.179 203.139 202.178 204.044C203.157 204.97 204.029 205.974 204.782 207.044C205.387 207.917 205.9 208.835 206.315 209.786C206.504 210.188 206.616 210.566 206.735 210.896C206.843 211.176 206.927 211.463 206.987 211.754C207.061 211.992 207.108 212.235 207.127 212.48Z" fill="#263238"/>
<path d="M217.613 131.906C217.613 131.906 200.022 165.596 200.022 171.8C200.022 178.004 213.203 220.958 213.203 220.958C213.077 222.668 212.566 231.23 212.566 231.23L286.479 231.452L287.606 217.832L281.838 204.854L287.599 168.164C287.599 168.164 291.477 146.864 291.799 140.906C292.233 133.454 262.777 124.814 263.582 123.782L258.5 117.926L229.373 138.2L223.612 123.944L216.71 129.53L217.613 131.906Z" fill="#00274C"/>
<path d="M266.018 140.87C258.017 152.468 243.38 173.6 243.38 173.6L217.144 199.244C217.144 199.244 215.429 212.27 218.859 216.266C222.289 220.262 228.176 222.992 228.176 222.992C228.176 222.992 235.099 222.992 243.898 216.686C252.697 210.38 276.966 184.322 276.966 184.322L285.303 175.7C285.303 175.7 295.243 154.772 293.388 144.122C292.688 140.012 290.63 138.308 287.914 136.424C281.075 131.702 270.491 134.384 266.018 140.87Z" fill="#00274C"/>
<path d="M288.39 168.44C288.355 168.522 288.313 168.603 288.264 168.68C288.173 168.848 288.04 169.07 287.879 169.364C287.529 169.964 286.997 170.834 286.269 171.938C284.82 174.152 282.566 177.278 279.626 181.052C278.149 182.936 276.504 184.982 274.691 187.154C272.878 189.326 270.82 191.564 269.126 194.18C267.432 196.796 265.892 199.652 264.037 202.508C262.131 205.467 259.897 208.262 257.366 210.854C254.834 213.457 251.855 215.714 248.532 217.55C245.418 219.253 241.939 220.408 238.298 220.946C235.003 221.447 231.62 221.324 228.386 220.586C226.922 220.247 225.512 219.757 224.186 219.128C222.952 218.57 221.792 217.898 220.728 217.124C219.752 216.431 218.878 215.639 218.124 214.766C217.445 213.99 216.868 213.153 216.402 212.27C215.682 210.849 215.211 209.345 215.002 207.806C214.882 206.836 214.842 205.859 214.883 204.884C214.883 204.56 214.925 204.284 214.939 204.122C214.932 204.036 214.932 203.95 214.939 203.864C214.947 203.95 214.947 204.036 214.939 204.122C214.939 204.308 214.939 204.56 214.939 204.884C214.926 205.854 214.986 206.824 215.121 207.788C215.356 209.31 215.846 210.796 216.577 212.198C217.048 213.064 217.625 213.885 218.299 214.646C219.049 215.504 219.919 216.279 220.889 216.956C221.943 217.715 223.091 218.373 224.312 218.918C225.62 219.531 227.009 220.009 228.449 220.34C231.649 221.056 234.994 221.167 238.249 220.664C241.841 220.124 245.272 218.978 248.343 217.292C251.637 215.47 254.589 213.23 257.1 210.65C259.617 208.076 261.837 205.299 263.729 202.358C265.584 199.52 267.082 196.64 268.839 194.036C270.555 191.604 272.424 189.255 274.439 186.998C276.259 184.838 277.939 182.798 279.402 180.926C282.37 177.176 284.652 174.068 286.136 171.878C286.885 170.78 287.438 169.922 287.802 169.334L288.229 168.662C288.273 168.583 288.327 168.508 288.39 168.44Z" fill="#263238"/>
<path d="M215.8 198.098C215.8 198.14 215.429 198.338 214.946 198.8C214.303 199.385 213.907 200.137 213.82 200.938C213.734 201.738 213.963 202.54 214.47 203.216C214.841 203.744 215.17 204.002 215.17 204.038C215.17 204.074 214.729 203.87 214.267 203.342C213.663 202.642 213.382 201.776 213.476 200.909C213.57 200.043 214.034 199.236 214.778 198.644C215.049 198.38 215.404 198.19 215.8 198.098Z" fill="#263238"/>
<path d="M220.651 204.902C220.792 204.918 220.93 204.946 221.064 204.986L221.554 205.1L222.254 205.208C223.708 205.372 225.187 205.253 226.58 204.86C228.653 204.265 230.559 203.309 232.18 202.052C234.106 200.467 235.852 198.73 237.395 196.862C238.962 194.979 240.767 193.251 242.778 191.708C243.73 191.024 244.661 190.418 245.438 189.764C246.178 189.182 246.773 188.478 247.188 187.694C247.466 187.121 247.575 186.499 247.505 185.881C247.436 185.264 247.19 184.671 246.789 184.154C246.451 183.799 246.016 183.52 245.522 183.344C245.661 183.366 245.797 183.401 245.928 183.446C246.305 183.591 246.638 183.809 246.901 184.082C247.345 184.61 247.626 185.226 247.719 185.872C247.812 186.518 247.713 187.173 247.433 187.778C247.016 188.597 246.411 189.335 245.655 189.95C244.864 190.622 243.926 191.246 242.995 191.93C241.018 193.471 239.239 195.188 237.689 197.054C236.128 198.938 234.355 200.686 232.397 202.274C230.742 203.538 228.796 204.491 226.685 205.07C225.252 205.454 223.734 205.543 222.254 205.328L221.554 205.19C221.358 205.142 221.197 205.082 221.071 205.046C220.925 205.013 220.784 204.964 220.651 204.902Z" fill="#263238"/>
<path d="M269.581 137.306C269.493 137.431 269.394 137.552 269.287 137.666C269.056 137.918 268.762 138.266 268.391 138.668C267.593 139.52 266.494 140.792 265.15 142.376C261.724 146.538 258.608 150.88 255.819 155.378C252.515 160.634 249.785 165.512 247.692 168.992C246.656 170.738 245.802 172.142 245.179 173.102L244.5 174.2C244.424 174.331 244.332 174.456 244.227 174.572C244.28 174.433 244.348 174.298 244.43 174.17L245.088 173.036L247.489 168.89C249.519 165.38 252.221 160.49 255.525 155.222C258.317 150.71 261.475 146.371 264.975 142.238C266.375 140.672 267.474 139.412 268.307 138.584L269.259 137.618C269.353 137.504 269.461 137.4 269.581 137.306Z" fill="#263238"/>
<g opacity="0.3">
<path d="M214.96 203.864C218.369 205.448 222.121 205.28 225.929 204.644C229.774 203.985 233.235 202.209 235.729 199.616C235.153 202.504 233.575 205.176 231.2 207.284C228.778 209.318 225.264 210.494 221.932 209.972C218.6 209.45 215.226 206.762 214.932 203.864" fill="black"/>
</g>
<g opacity="0.3">
<path d="M247.23 186.548C249.394 189.407 250.149 192.885 249.33 196.22C252.221 192.428 252.9 187.628 252.13 183.146C251.36 178.664 249.225 174.434 246.859 170.384C246.859 170.384 244.255 174.164 244.227 174.584C244.101 176.768 245.039 180.872 245.529 183.014C246.183 183.552 246.67 184.221 246.947 184.96C247.225 185.699 247.283 186.486 247.118 187.25" fill="black"/>
</g>
<g opacity="0.3">
<path d="M226.524 219.56C233.482 224.21 243.807 224.426 251.416 220.61C258.745 216.932 263.26 210.308 267.446 203.978C273.935 194.174 281.845 182.048 286.479 171.5C286.479 171.5 273.494 186.686 269.581 193.232C266.972 197.657 264.011 201.923 260.719 206C256.993 210.594 251.957 214.292 246.089 216.743C240.222 219.193 233.719 220.314 227.203 219.998" fill="black"/>
</g>
<path d="M212.566 231.2C212.555 231.138 212.555 231.076 212.566 231.014C212.566 230.87 212.566 230.69 212.566 230.468C212.566 229.958 212.615 229.268 212.657 228.386C212.755 226.586 212.888 224.006 213.056 220.928V221C211.803 217.4 210.333 213.032 208.807 208.316C206.791 202.064 205.09 196.376 203.942 192.242C203.375 190.178 202.927 188.498 202.647 187.334C202.514 186.776 202.409 186.326 202.332 185.996C202.291 185.84 202.26 185.681 202.241 185.522C202.312 185.669 202.366 185.822 202.402 185.978L202.787 187.31C203.13 188.51 203.606 190.154 204.187 192.188C205.398 196.31 207.141 201.986 209.157 208.232C210.676 212.948 212.125 217.316 213.357 220.922V220.964C213.14 224.042 212.958 226.604 212.825 228.428C212.755 229.298 212.699 229.994 212.657 230.504C212.657 230.72 212.615 230.9 212.601 231.044C212.597 231.097 212.585 231.149 212.566 231.2Z" fill="#263238"/>
<path d="M286.5 136.076C286.5 136.124 285.744 135.896 284.533 135.638C282.954 135.296 281.337 135.095 279.71 135.038C278.082 135 276.454 135.108 274.852 135.362C273.62 135.56 272.871 135.74 272.857 135.692C273.013 135.606 273.183 135.541 273.361 135.5C273.832 135.361 274.311 135.243 274.796 135.146C276.401 134.825 278.048 134.684 279.696 134.726C281.356 134.769 283.003 134.994 284.596 135.398C285.073 135.517 285.54 135.661 285.996 135.83C286.346 135.98 286.5 136.052 286.5 136.076Z" fill="#263238"/>
<path d="M263.099 125C263.048 125.109 262.985 125.214 262.91 125.312L262.315 126.17C261.79 126.914 261.013 127.97 260.026 129.284C258.045 131.882 255.21 135.428 251.857 139.196C249.162 142.238 246.551 144.968 244.416 147.104L244.262 147.254L244.171 147.074C243.149 145.166 242.309 143.582 241.7 142.436C241.427 141.908 241.21 141.476 241.035 141.146C240.949 140.998 240.881 140.844 240.832 140.684C240.944 140.819 241.041 140.964 241.119 141.116C241.308 141.44 241.546 141.86 241.854 142.376C242.491 143.51 243.373 145.076 244.43 146.972L244.192 146.942C246.292 144.782 248.875 142.046 251.57 139.01C254.916 135.242 257.772 131.726 259.809 129.158L262.196 126.104L262.847 125.276C262.916 125.175 263.001 125.082 263.099 125Z" fill="#263238"/>
<path d="M280.116 221.762C280.011 221.762 280.333 218.636 280.816 214.802C281.299 210.968 281.796 207.872 281.894 207.884C281.992 207.896 281.67 211.004 281.194 214.838C280.718 218.672 280.2 221.768 280.116 221.762Z" fill="#263238"/>
<path d="M229.45 220.94C229.848 222.668 230.126 224.415 230.283 226.172C230.566 227.916 230.723 229.673 230.752 231.434C230.358 229.705 230.08 227.958 229.919 226.202C229.644 224.457 229.487 222.7 229.45 220.94Z" fill="#263238"/>
<path d="M266.837 152.414C266.803 152.295 266.736 152.184 266.642 152.092C266.548 151.999 266.43 151.928 266.297 151.882C266.164 151.837 266.021 151.82 265.878 151.832C265.736 151.844 265.599 151.885 265.479 151.952L265.43 151.988C265.32 152.072 265.238 152.179 265.191 152.298C265.144 152.418 265.134 152.546 265.163 152.669C265.191 152.793 265.256 152.908 265.352 153.004C265.448 153.099 265.572 153.172 265.71 153.214C265.849 153.256 265.998 153.266 266.143 153.244C266.288 153.222 266.423 153.168 266.536 153.087C266.649 153.007 266.736 152.902 266.787 152.784C266.839 152.666 266.853 152.538 266.83 152.414H266.837Z" fill="white"/>
<path d="M259.536 137.162C259.502 137.043 259.435 136.932 259.341 136.84C259.247 136.747 259.129 136.676 258.996 136.63C258.863 136.585 258.72 136.568 258.577 136.58C258.435 136.592 258.298 136.633 258.178 136.7L258.136 136.736C258.026 136.82 257.944 136.927 257.897 137.046C257.85 137.166 257.84 137.294 257.869 137.417C257.897 137.541 257.962 137.656 258.058 137.752C258.154 137.847 258.278 137.92 258.416 137.962C258.555 138.004 258.704 138.014 258.849 137.992C258.994 137.97 259.129 137.916 259.242 137.835C259.355 137.755 259.442 137.65 259.493 137.532C259.545 137.414 259.559 137.286 259.536 137.162Z" fill="white"/>
<path d="M242.785 149.444C242.751 149.325 242.684 149.214 242.59 149.122C242.496 149.029 242.378 148.958 242.245 148.912C242.112 148.867 241.969 148.85 241.826 148.862C241.684 148.874 241.547 148.915 241.427 148.982H241.385C241.275 149.065 241.193 149.172 241.146 149.291C241.099 149.411 241.088 149.538 241.116 149.662C241.144 149.786 241.209 149.901 241.304 149.996C241.4 150.092 241.523 150.165 241.661 150.207C241.799 150.25 241.948 150.261 242.093 150.24C242.237 150.218 242.373 150.165 242.486 150.085C242.6 150.005 242.687 149.901 242.739 149.783C242.792 149.666 242.807 149.538 242.785 149.414V149.444Z" fill="white"/>
<path d="M224.676 143.276C224.643 143.157 224.577 143.047 224.484 142.954C224.391 142.861 224.273 142.789 224.14 142.744C224.008 142.699 223.865 142.682 223.723 142.694C223.581 142.706 223.444 142.747 223.325 142.814L223.276 142.85C223.166 142.934 223.084 143.041 223.037 143.16C222.99 143.28 222.98 143.408 223.009 143.531C223.037 143.655 223.102 143.77 223.198 143.866C223.294 143.961 223.418 144.034 223.556 144.076C223.695 144.118 223.844 144.129 223.989 144.106C224.134 144.084 224.269 144.03 224.382 143.949C224.495 143.869 224.582 143.764 224.633 143.646C224.685 143.528 224.699 143.4 224.676 143.276Z" fill="white"/>
<path d="M221.477 137.198C221.443 137.079 221.376 136.968 221.282 136.876C221.188 136.784 221.07 136.712 220.937 136.666C220.804 136.621 220.661 136.604 220.518 136.616C220.376 136.628 220.239 136.669 220.119 136.736L220.07 136.772C219.957 136.856 219.872 136.964 219.823 137.084C219.773 137.205 219.762 137.335 219.79 137.461C219.817 137.587 219.883 137.704 219.98 137.801C220.077 137.899 220.203 137.972 220.343 138.015C220.484 138.058 220.635 138.068 220.782 138.045C220.929 138.022 221.067 137.967 221.181 137.884C221.295 137.801 221.381 137.695 221.432 137.574C221.483 137.454 221.496 137.324 221.47 137.198H221.477Z" fill="white"/>
<path d="M222.87 130.178C222.836 130.059 222.769 129.948 222.675 129.856C222.581 129.764 222.463 129.692 222.33 129.646C222.197 129.601 222.054 129.584 221.911 129.596C221.769 129.608 221.632 129.649 221.512 129.716L221.463 129.746C221.353 129.83 221.271 129.936 221.224 130.056C221.177 130.175 221.166 130.302 221.194 130.426C221.222 130.55 221.287 130.665 221.382 130.761C221.478 130.856 221.601 130.929 221.739 130.972C221.877 131.014 222.026 131.025 222.171 131.004C222.315 130.982 222.451 130.929 222.564 130.849C222.678 130.769 222.765 130.665 222.817 130.547C222.87 130.43 222.885 130.302 222.863 130.178H222.87Z" fill="white"/>
<path d="M212.839 139.838C212.805 139.719 212.738 139.608 212.644 139.516C212.55 139.423 212.432 139.352 212.299 139.306C212.166 139.261 212.023 139.244 211.88 139.256C211.738 139.268 211.601 139.309 211.481 139.376L211.432 139.406C211.322 139.49 211.24 139.596 211.193 139.715C211.146 139.835 211.135 139.962 211.163 140.086C211.191 140.21 211.256 140.325 211.351 140.42C211.447 140.516 211.57 140.589 211.708 140.631C211.846 140.674 211.995 140.685 212.14 140.664C212.284 140.642 212.42 140.589 212.533 140.509C212.647 140.429 212.734 140.325 212.786 140.207C212.839 140.09 212.854 139.962 212.832 139.838H212.839Z" fill="white"/>
<path d="M236.1 142.622C236.067 142.503 236.001 142.393 235.908 142.3C235.815 142.207 235.697 142.135 235.564 142.09C235.432 142.045 235.289 142.028 235.147 142.04C235.005 142.052 234.868 142.093 234.749 142.16L234.7 142.196C234.59 142.28 234.508 142.387 234.461 142.506C234.414 142.626 234.404 142.754 234.433 142.877C234.461 143.001 234.526 143.116 234.622 143.212C234.718 143.307 234.842 143.38 234.98 143.422C235.119 143.464 235.268 143.474 235.413 143.452C235.558 143.43 235.693 143.376 235.806 143.295C235.919 143.215 236.006 143.11 236.057 142.992C236.109 142.874 236.123 142.746 236.1 142.622Z" fill="white"/>
<path d="M216.402 155.144C216.368 155.025 216.301 154.915 216.207 154.822C216.113 154.73 215.995 154.658 215.862 154.613C215.729 154.567 215.586 154.55 215.443 154.562C215.301 154.574 215.164 154.615 215.044 154.682H214.995C214.885 154.766 214.803 154.872 214.756 154.992C214.709 155.111 214.698 155.239 214.726 155.362C214.754 155.486 214.819 155.601 214.914 155.697C215.01 155.792 215.133 155.865 215.271 155.908C215.409 155.95 215.558 155.961 215.703 155.94C215.847 155.918 215.983 155.865 216.096 155.785C216.21 155.705 216.297 155.601 216.349 155.483C216.402 155.366 216.417 155.238 216.395 155.114L216.402 155.144Z" fill="white"/>
<path d="M198.398 191.156C198.364 191.037 198.297 190.927 198.203 190.834C198.109 190.742 197.991 190.67 197.858 190.624C197.725 190.579 197.582 190.562 197.439 190.574C197.297 190.586 197.16 190.627 197.04 190.694L196.998 190.724C196.888 190.808 196.806 190.914 196.759 191.034C196.712 191.153 196.701 191.28 196.729 191.404C196.757 191.528 196.822 191.643 196.917 191.739C197.013 191.834 197.136 191.907 197.274 191.95C197.412 191.992 197.561 192.003 197.706 191.982C197.85 191.96 197.986 191.907 198.099 191.827C198.213 191.747 198.3 191.643 198.352 191.525C198.405 191.408 198.42 191.28 198.398 191.156Z" fill="white"/>
<path d="M204.824 170.384C204.79 170.265 204.723 170.155 204.629 170.062C204.535 169.97 204.417 169.898 204.284 169.853C204.151 169.807 204.008 169.79 203.865 169.802C203.723 169.814 203.586 169.855 203.466 169.922L203.417 169.958C203.307 170.042 203.225 170.149 203.178 170.268C203.131 170.388 203.121 170.516 203.15 170.64C203.178 170.763 203.243 170.878 203.339 170.974C203.435 171.069 203.559 171.142 203.697 171.184C203.836 171.226 203.985 171.237 204.13 171.214C204.275 171.192 204.41 171.138 204.523 171.057C204.636 170.977 204.723 170.872 204.774 170.754C204.826 170.636 204.84 170.508 204.817 170.384H204.824Z" fill="white"/>
<path d="M252.2 133.916C252.166 133.797 252.099 133.687 252.005 133.594C251.911 133.502 251.793 133.43 251.66 133.384C251.527 133.339 251.384 133.322 251.241 133.334C251.099 133.346 250.962 133.387 250.842 133.454L250.793 133.484C250.683 133.568 250.601 133.674 250.554 133.794C250.507 133.913 250.496 134.04 250.524 134.164C250.552 134.288 250.617 134.403 250.712 134.499C250.808 134.594 250.931 134.667 251.069 134.71C251.207 134.752 251.356 134.763 251.501 134.742C251.645 134.72 251.781 134.667 251.894 134.587C252.008 134.507 252.095 134.403 252.147 134.285C252.2 134.168 252.215 134.04 252.193 133.916H252.2Z" fill="white"/>
<path d="M274.768 175.268C274.734 175.149 274.667 175.038 274.573 174.946C274.479 174.853 274.361 174.782 274.228 174.736C274.095 174.691 273.952 174.674 273.809 174.686C273.667 174.698 273.53 174.739 273.41 174.806L273.361 174.842C273.248 174.926 273.163 175.033 273.114 175.154C273.064 175.275 273.053 175.405 273.081 175.531C273.108 175.657 273.174 175.774 273.271 175.871C273.368 175.968 273.494 176.042 273.634 176.085C273.775 176.128 273.926 176.138 274.073 176.115C274.22 176.092 274.358 176.037 274.472 175.954C274.586 175.871 274.672 175.764 274.723 175.644C274.774 175.524 274.787 175.394 274.761 175.268H274.768Z" fill="white"/>
<path d="M283.567 139.682C283.534 139.563 283.468 139.453 283.375 139.36C283.282 139.267 283.164 139.195 283.031 139.15C282.899 139.105 282.756 139.088 282.614 139.1C282.472 139.112 282.335 139.153 282.216 139.22L282.167 139.25C282.057 139.334 281.975 139.44 281.928 139.559C281.881 139.679 281.87 139.806 281.898 139.93C281.926 140.054 281.991 140.169 282.086 140.265C282.182 140.36 282.305 140.433 282.443 140.475C282.581 140.518 282.73 140.529 282.875 140.508C283.019 140.486 283.155 140.433 283.268 140.353C283.382 140.273 283.469 140.169 283.521 140.051C283.574 139.934 283.589 139.806 283.567 139.682Z" fill="white"/>
<path d="M280.116 162.986C280.082 162.867 280.015 162.756 279.921 162.664C279.827 162.571 279.709 162.5 279.576 162.454C279.443 162.409 279.3 162.392 279.157 162.404C279.015 162.416 278.878 162.457 278.758 162.524L278.709 162.56C278.596 162.644 278.511 162.751 278.462 162.872C278.412 162.993 278.401 163.123 278.429 163.249C278.456 163.375 278.522 163.492 278.619 163.589C278.716 163.686 278.842 163.76 278.982 163.803C279.123 163.846 279.274 163.856 279.421 163.833C279.568 163.81 279.706 163.755 279.82 163.672C279.934 163.589 280.02 163.482 280.071 163.362C280.122 163.242 280.135 163.112 280.109 162.986H280.116Z" fill="white"/>
<path d="M260.369 179.816C260.335 179.697 260.268 179.586 260.174 179.494C260.08 179.401 259.962 179.33 259.829 179.284C259.696 179.239 259.553 179.222 259.41 179.234C259.268 179.246 259.131 179.287 259.011 179.354L258.962 179.39C258.852 179.474 258.77 179.581 258.723 179.7C258.676 179.82 258.666 179.948 258.695 180.071C258.723 180.195 258.788 180.31 258.884 180.406C258.98 180.501 259.104 180.574 259.242 180.616C259.381 180.658 259.53 180.669 259.675 180.646C259.82 180.624 259.955 180.57 260.068 180.489C260.181 180.409 260.268 180.304 260.319 180.186C260.371 180.068 260.385 179.94 260.362 179.816H260.369Z" fill="white"/>
<path d="M261.202 165.8C261.168 165.681 261.101 165.57 261.007 165.478C260.913 165.385 260.795 165.314 260.662 165.268C260.529 165.223 260.386 165.206 260.243 165.218C260.101 165.23 259.964 165.271 259.844 165.338L259.795 165.374C259.682 165.458 259.597 165.565 259.548 165.686C259.498 165.807 259.487 165.937 259.515 166.063C259.542 166.189 259.608 166.306 259.705 166.403C259.802 166.5 259.928 166.574 260.068 166.617C260.209 166.66 260.36 166.67 260.507 166.647C260.654 166.624 260.792 166.569 260.906 166.486C261.02 166.403 261.106 166.296 261.157 166.176C261.208 166.056 261.221 165.926 261.195 165.8H261.202Z" fill="white"/>
<path d="M273.109 139.802C273.076 139.683 273.01 139.572 272.917 139.48C272.824 139.387 272.706 139.315 272.573 139.27C272.441 139.225 272.298 139.207 272.156 139.22C272.014 139.232 271.877 139.273 271.758 139.34L271.709 139.376C271.599 139.46 271.517 139.567 271.47 139.686C271.423 139.806 271.413 139.934 271.442 140.057C271.47 140.181 271.535 140.296 271.631 140.392C271.727 140.487 271.851 140.56 271.989 140.602C272.128 140.644 272.277 140.654 272.422 140.632C272.567 140.61 272.702 140.556 272.815 140.475C272.928 140.394 273.015 140.29 273.066 140.172C273.118 140.054 273.132 139.926 273.109 139.802Z" fill="white"/>
<path d="M257.1 126.23C257.067 126.111 257.001 126.001 256.908 125.908C256.815 125.816 256.697 125.744 256.564 125.698C256.432 125.653 256.289 125.636 256.147 125.648C256.005 125.66 255.868 125.701 255.749 125.768L255.7 125.798C255.59 125.882 255.508 125.988 255.461 126.108C255.414 126.227 255.403 126.354 255.431 126.478C255.459 126.602 255.524 126.717 255.619 126.813C255.715 126.908 255.838 126.981 255.976 127.024C256.114 127.066 256.263 127.077 256.408 127.056C256.552 127.034 256.688 126.981 256.801 126.901C256.915 126.821 257.002 126.717 257.054 126.599C257.107 126.482 257.122 126.354 257.1 126.23Z" fill="white"/>
<path d="M256.491 148.112C256.458 147.992 256.393 147.881 256.299 147.787C256.205 147.694 256.087 147.622 255.953 147.576C255.82 147.531 255.675 147.514 255.532 147.527C255.39 147.539 255.253 147.582 255.133 147.65L255.091 147.68C254.981 147.764 254.899 147.87 254.852 147.989C254.804 148.109 254.794 148.236 254.822 148.36C254.85 148.484 254.915 148.599 255.01 148.694C255.106 148.79 255.229 148.863 255.367 148.905C255.505 148.948 255.654 148.959 255.799 148.938C255.943 148.916 256.079 148.863 256.192 148.783C256.306 148.703 256.393 148.599 256.445 148.481C256.498 148.364 256.513 148.236 256.491 148.112Z" fill="white"/>
<path d="M236.023 214.862C235.989 214.747 235.923 214.64 235.832 214.55C235.74 214.46 235.626 214.39 235.497 214.345C235.369 214.3 235.229 214.282 235.091 214.291C234.953 214.301 234.819 214.338 234.7 214.4L234.651 214.43C234.541 214.514 234.459 214.62 234.412 214.74C234.365 214.859 234.354 214.986 234.382 215.11C234.41 215.234 234.475 215.349 234.57 215.445C234.666 215.54 234.789 215.613 234.927 215.656C235.065 215.698 235.214 215.709 235.359 215.688C235.503 215.666 235.639 215.613 235.752 215.533C235.866 215.453 235.953 215.349 236.005 215.231C236.058 215.114 236.073 214.986 236.051 214.862H236.023Z" fill="white"/>
<path d="M212.538 203.882C212.504 203.763 212.437 203.652 212.343 203.56C212.249 203.467 212.131 203.396 211.998 203.35C211.865 203.305 211.722 203.288 211.579 203.3C211.437 203.312 211.3 203.353 211.18 203.42L211.131 203.456C211.021 203.54 210.939 203.647 210.892 203.766C210.845 203.886 210.835 204.014 210.864 204.137C210.892 204.261 210.957 204.376 211.053 204.472C211.149 204.567 211.273 204.64 211.411 204.682C211.55 204.724 211.699 204.734 211.844 204.712C211.989 204.69 212.124 204.636 212.237 204.555C212.35 204.475 212.437 204.37 212.488 204.252C212.54 204.134 212.554 204.006 212.531 203.882H212.538Z" fill="white"/>
<path d="M193.547 209.264C193.513 209.145 193.446 209.034 193.352 208.942C193.258 208.849 193.14 208.778 193.007 208.732C192.874 208.687 192.731 208.67 192.588 208.682C192.446 208.694 192.309 208.735 192.189 208.802L192.147 208.832C192.037 208.916 191.955 209.022 191.908 209.141C191.861 209.261 191.85 209.388 191.878 209.512C191.906 209.636 191.971 209.751 192.066 209.847C192.162 209.942 192.285 210.015 192.423 210.057C192.561 210.1 192.71 210.111 192.855 210.09C192.999 210.068 193.135 210.015 193.248 209.935C193.362 209.855 193.449 209.751 193.501 209.633C193.554 209.516 193.569 209.388 193.547 209.264Z" fill="white"/>
<path d="M191.517 218.534C191.483 218.415 191.416 218.304 191.322 218.212C191.228 218.119 191.11 218.048 190.977 218.002C190.844 217.957 190.701 217.94 190.558 217.952C190.416 217.964 190.279 218.005 190.159 218.072L190.11 218.102C190 218.186 189.918 218.292 189.871 218.411C189.824 218.531 189.813 218.658 189.841 218.782C189.869 218.906 189.934 219.021 190.029 219.117C190.125 219.212 190.248 219.285 190.386 219.328C190.524 219.37 190.673 219.381 190.818 219.36C190.962 219.338 191.098 219.285 191.211 219.205C191.325 219.125 191.412 219.021 191.464 218.903C191.517 218.786 191.532 218.658 191.51 218.534H191.517Z" fill="white"/>
<path d="M209.318 221.636C209.284 221.517 209.217 221.406 209.123 221.314C209.029 221.222 208.911 221.15 208.778 221.104C208.645 221.059 208.502 221.042 208.359 221.054C208.217 221.066 208.08 221.107 207.96 221.174L207.918 221.21C207.808 221.294 207.726 221.401 207.679 221.52C207.632 221.64 207.622 221.768 207.651 221.891C207.679 222.015 207.744 222.13 207.84 222.226C207.936 222.321 208.06 222.394 208.198 222.436C208.337 222.478 208.486 222.489 208.631 222.466C208.776 222.444 208.911 222.39 209.024 222.309C209.137 222.229 209.224 222.124 209.275 222.006C209.327 221.888 209.341 221.76 209.318 221.636Z" fill="white"/>
<path d="M203.368 200.876C203.334 200.757 203.267 200.646 203.173 200.554C203.079 200.462 202.961 200.39 202.828 200.344C202.695 200.299 202.552 200.282 202.409 200.294C202.267 200.306 202.13 200.347 202.01 200.414L201.961 200.45C201.848 200.534 201.763 200.641 201.714 200.762C201.664 200.883 201.653 201.013 201.681 201.139C201.708 201.265 201.774 201.382 201.871 201.479C201.968 201.577 202.094 201.65 202.234 201.693C202.375 201.736 202.526 201.746 202.673 201.723C202.82 201.7 202.958 201.645 203.072 201.562C203.186 201.479 203.272 201.373 203.323 201.252C203.374 201.132 203.387 201.002 203.361 200.876H203.368Z" fill="white"/>
<path d="M225.208 206.156C225.175 206.036 225.11 205.925 225.016 205.831C224.922 205.738 224.804 205.666 224.67 205.62C224.537 205.575 224.392 205.558 224.249 205.571C224.107 205.583 223.97 205.626 223.85 205.694L223.808 205.724C223.698 205.807 223.616 205.914 223.569 206.033C223.522 206.153 223.511 206.28 223.539 206.404C223.567 206.528 223.632 206.643 223.727 206.738C223.823 206.834 223.946 206.907 224.084 206.949C224.222 206.992 224.371 207.003 224.516 206.982C224.66 206.96 224.796 206.907 224.909 206.827C225.023 206.747 225.11 206.643 225.162 206.525C225.215 206.407 225.23 206.28 225.208 206.156Z" fill="white"/>
<path d="M277.127 200.846C277.096 200.726 277.03 200.615 276.938 200.521C276.845 200.428 276.726 200.355 276.593 200.31C276.46 200.264 276.316 200.247 276.174 200.26C276.032 200.273 275.895 200.316 275.776 200.384L275.727 200.414C275.617 200.498 275.535 200.604 275.488 200.723C275.441 200.843 275.43 200.97 275.458 201.094C275.486 201.218 275.551 201.333 275.646 201.428C275.742 201.524 275.865 201.597 276.003 201.639C276.141 201.682 276.29 201.693 276.435 201.672C276.579 201.65 276.715 201.597 276.828 201.517C276.942 201.437 277.029 201.333 277.081 201.215C277.134 201.098 277.149 200.97 277.127 200.846Z" fill="white"/>
<path d="M245.004 227.228C244.97 227.109 244.903 226.998 244.809 226.906C244.715 226.813 244.597 226.741 244.464 226.696C244.331 226.651 244.188 226.634 244.045 226.646C243.903 226.658 243.766 226.699 243.646 226.766L243.597 226.802C243.487 226.886 243.405 226.993 243.358 227.112C243.311 227.232 243.301 227.36 243.33 227.483C243.358 227.607 243.423 227.722 243.519 227.818C243.615 227.913 243.739 227.986 243.877 228.028C244.016 228.07 244.165 228.08 244.31 228.058C244.455 228.036 244.59 227.982 244.703 227.901C244.816 227.82 244.903 227.716 244.954 227.598C245.006 227.48 245.02 227.352 244.997 227.228H245.004Z" fill="white"/>
<path d="M258.703 212.54C258.67 212.421 258.604 212.31 258.511 212.218C258.418 212.125 258.3 212.053 258.167 212.008C258.035 211.963 257.892 211.945 257.75 211.958C257.608 211.97 257.471 212.011 257.352 212.078L257.303 212.114C257.193 212.198 257.111 212.305 257.064 212.424C257.017 212.544 257.007 212.672 257.036 212.795C257.064 212.919 257.129 213.034 257.225 213.13C257.321 213.225 257.445 213.298 257.583 213.34C257.722 213.382 257.871 213.392 258.016 213.37C258.161 213.348 258.296 213.294 258.409 213.213C258.522 213.133 258.609 213.028 258.66 212.91C258.712 212.792 258.726 212.664 258.703 212.54Z" fill="white"/>
<path d="M266.844 224.486C266.813 224.367 266.749 224.255 266.657 224.162C266.566 224.068 266.449 223.994 266.318 223.946C266.186 223.899 266.044 223.879 265.901 223.888C265.759 223.898 265.621 223.936 265.5 224L265.458 224.036C265.348 224.12 265.266 224.227 265.219 224.346C265.172 224.466 265.162 224.594 265.191 224.717C265.219 224.841 265.284 224.956 265.38 225.052C265.476 225.147 265.6 225.22 265.738 225.262C265.877 225.304 266.026 225.315 266.171 225.292C266.316 225.27 266.451 225.216 266.564 225.135C266.677 225.055 266.764 224.95 266.815 224.832C266.867 224.714 266.881 224.586 266.858 224.462L266.844 224.486Z" fill="white"/>
<path d="M244.199 161.93C244.165 161.811 244.098 161.7 244.004 161.608C243.91 161.515 243.792 161.444 243.659 161.398C243.526 161.353 243.383 161.336 243.24 161.348C243.098 161.36 242.961 161.401 242.841 161.468L242.792 161.504C242.682 161.588 242.6 161.695 242.553 161.814C242.506 161.934 242.496 162.062 242.525 162.185C242.553 162.309 242.618 162.424 242.714 162.52C242.811 162.615 242.934 162.688 243.072 162.73C243.211 162.772 243.36 162.783 243.505 162.76C243.65 162.738 243.785 162.684 243.898 162.603C244.011 162.523 244.098 162.418 244.149 162.3C244.201 162.182 244.215 162.054 244.192 161.93H244.199Z" fill="white"/>
<path d="M262.63 192.428C262.596 192.309 262.529 192.198 262.435 192.106C262.341 192.014 262.223 191.942 262.09 191.896C261.957 191.851 261.814 191.834 261.671 191.846C261.529 191.858 261.392 191.899 261.272 191.966L261.223 191.996C261.113 192.08 261.031 192.186 260.984 192.306C260.937 192.425 260.926 192.552 260.954 192.676C260.982 192.8 261.047 192.915 261.142 193.011C261.238 193.106 261.361 193.179 261.499 193.222C261.637 193.264 261.786 193.275 261.931 193.254C262.075 193.232 262.211 193.179 262.324 193.099C262.438 193.019 262.525 192.915 262.577 192.797C262.63 192.68 262.645 192.552 262.623 192.428H262.63Z" fill="white"/>
<path d="M256.652 203.978C256.618 203.859 256.551 203.749 256.457 203.656C256.363 203.564 256.245 203.492 256.112 203.447C255.979 203.401 255.836 203.384 255.693 203.396C255.551 203.408 255.414 203.449 255.294 203.516L255.245 203.546C255.135 203.63 255.053 203.736 255.006 203.856C254.958 203.975 254.948 204.103 254.976 204.226C255.004 204.35 255.069 204.465 255.164 204.561C255.26 204.656 255.383 204.729 255.521 204.772C255.659 204.814 255.808 204.825 255.953 204.804C256.097 204.782 256.233 204.729 256.346 204.649C256.46 204.569 256.547 204.465 256.599 204.347C256.652 204.23 256.667 204.102 256.645 203.978H256.652Z" fill="white"/>
<path d="M276.301 213.254C276.267 213.135 276.2 213.024 276.106 212.932C276.012 212.839 275.894 212.768 275.761 212.722C275.628 212.677 275.485 212.66 275.342 212.672C275.2 212.684 275.063 212.725 274.943 212.792L274.894 212.828C274.784 212.912 274.702 213.019 274.655 213.138C274.608 213.258 274.598 213.386 274.627 213.509C274.655 213.633 274.72 213.748 274.816 213.844C274.912 213.939 275.036 214.012 275.174 214.054C275.313 214.096 275.462 214.107 275.607 214.084C275.752 214.062 275.887 214.008 276 213.927C276.113 213.847 276.2 213.742 276.251 213.624C276.303 213.506 276.317 213.378 276.294 213.254H276.301Z" fill="white"/>
<path d="M222.534 226.652C222.501 226.532 222.436 226.421 222.342 226.327C222.248 226.234 222.13 226.162 221.996 226.116C221.863 226.071 221.718 226.054 221.575 226.067C221.433 226.079 221.296 226.122 221.176 226.19L221.127 226.22C221.017 226.304 220.935 226.41 220.888 226.529C220.841 226.649 220.83 226.776 220.858 226.9C220.886 227.024 220.951 227.139 221.046 227.235C221.142 227.33 221.265 227.403 221.403 227.445C221.541 227.488 221.69 227.499 221.835 227.478C221.979 227.456 222.115 227.403 222.228 227.323C222.342 227.243 222.429 227.139 222.481 227.021C222.534 226.904 222.549 226.776 222.527 226.652H222.534Z" fill="white"/>
<path d="M177.734 223.142C177.7 223.023 177.633 222.912 177.539 222.82C177.445 222.727 177.327 222.656 177.194 222.61C177.061 222.565 176.918 222.548 176.775 222.56C176.633 222.572 176.496 222.613 176.376 222.68L176.327 222.716C176.214 222.8 176.129 222.907 176.08 223.028C176.03 223.149 176.019 223.279 176.047 223.405C176.074 223.531 176.14 223.648 176.237 223.745C176.334 223.842 176.46 223.916 176.6 223.959C176.741 224.002 176.892 224.012 177.039 223.989C177.186 223.966 177.324 223.911 177.438 223.828C177.552 223.745 177.638 223.638 177.689 223.518C177.74 223.398 177.753 223.268 177.727 223.142H177.734Z" fill="white"/>
<path d="M217.2 216.836C217.166 216.717 217.099 216.606 217.005 216.514C216.911 216.422 216.793 216.35 216.66 216.304C216.527 216.259 216.384 216.242 216.241 216.254C216.099 216.266 215.962 216.307 215.842 216.374L215.793 216.41C215.68 216.494 215.595 216.601 215.546 216.722C215.496 216.843 215.485 216.973 215.513 217.099C215.54 217.225 215.606 217.342 215.703 217.439C215.8 217.537 215.926 217.61 216.066 217.653C216.207 217.696 216.358 217.706 216.505 217.683C216.652 217.66 216.79 217.605 216.904 217.522C217.018 217.439 217.104 217.333 217.155 217.212C217.206 217.092 217.219 216.962 217.193 216.836H217.2Z" fill="white"/>
<path d="M179.4 209.978C179.367 209.858 179.302 209.747 179.208 209.653C179.114 209.56 178.996 209.488 178.862 209.442C178.729 209.397 178.584 209.38 178.441 209.393C178.299 209.405 178.162 209.448 178.042 209.516L178 209.546C177.89 209.629 177.808 209.736 177.761 209.855C177.714 209.975 177.703 210.102 177.731 210.226C177.759 210.35 177.824 210.465 177.919 210.56C178.015 210.656 178.138 210.729 178.276 210.771C178.414 210.814 178.563 210.825 178.708 210.804C178.852 210.782 178.988 210.729 179.101 210.649C179.215 210.569 179.302 210.465 179.354 210.347C179.407 210.23 179.422 210.102 179.4 209.978Z" fill="white"/>
<path d="M242.54 188.198C242.506 188.079 242.439 187.968 242.345 187.876C242.251 187.784 242.133 187.712 242 187.666C241.867 187.621 241.724 187.604 241.581 187.616C241.439 187.628 241.302 187.669 241.182 187.736L241.133 187.766C241.023 187.85 240.941 187.956 240.894 188.076C240.847 188.195 240.836 188.322 240.864 188.446C240.892 188.57 240.957 188.685 241.052 188.781C241.148 188.876 241.271 188.949 241.409 188.992C241.547 189.034 241.696 189.045 241.841 189.024C241.985 189.002 242.121 188.949 242.234 188.869C242.348 188.789 242.435 188.685 242.487 188.567C242.54 188.45 242.555 188.322 242.533 188.198H242.54Z" fill="white"/>
<path d="M229.324 155.144C229.29 155.025 229.223 154.915 229.129 154.822C229.035 154.73 228.917 154.658 228.784 154.613C228.651 154.567 228.508 154.55 228.365 154.562C228.223 154.574 228.086 154.615 227.966 154.682H227.917C227.807 154.766 227.725 154.872 227.678 154.992C227.631 155.111 227.62 155.239 227.648 155.362C227.676 155.486 227.741 155.601 227.836 155.697C227.932 155.792 228.055 155.865 228.193 155.908C228.331 155.95 228.48 155.961 228.625 155.94C228.769 155.918 228.905 155.865 229.018 155.785C229.132 155.705 229.219 155.601 229.271 155.483C229.324 155.366 229.339 155.238 229.317 155.114L229.324 155.144Z" fill="white"/>
<path d="M226.02 183.8C225.986 183.681 225.919 183.57 225.825 183.478C225.731 183.385 225.613 183.314 225.48 183.268C225.347 183.223 225.204 183.206 225.061 183.218C224.919 183.23 224.782 183.271 224.662 183.338L224.62 183.374C224.51 183.458 224.428 183.565 224.381 183.684C224.334 183.804 224.324 183.932 224.353 184.055C224.381 184.179 224.446 184.294 224.542 184.39C224.638 184.485 224.762 184.558 224.9 184.6C225.039 184.642 225.188 184.652 225.333 184.63C225.478 184.608 225.613 184.554 225.726 184.473C225.839 184.392 225.926 184.288 225.977 184.17C226.029 184.052 226.043 183.924 226.02 183.8Z" fill="white"/>
<path d="M220.644 174.458C220.61 174.339 220.543 174.229 220.449 174.136C220.355 174.044 220.237 173.972 220.104 173.926C219.971 173.881 219.828 173.864 219.685 173.876C219.543 173.888 219.406 173.929 219.286 173.996H219.244C219.134 174.08 219.052 174.186 219.005 174.306C218.958 174.425 218.947 174.552 218.975 174.676C219.003 174.8 219.068 174.915 219.163 175.011C219.259 175.106 219.382 175.179 219.52 175.222C219.658 175.264 219.807 175.275 219.952 175.254C220.096 175.232 220.232 175.179 220.345 175.099C220.459 175.019 220.546 174.915 220.598 174.797C220.651 174.68 220.666 174.552 220.644 174.428V174.458Z" fill="white"/>
<path d="M244.423 203.846C244.389 203.727 244.322 203.616 244.228 203.524C244.134 203.432 244.016 203.36 243.883 203.314C243.75 203.269 243.607 203.252 243.464 203.264C243.322 203.276 243.185 203.317 243.065 203.384L243.016 203.42C242.903 203.504 242.818 203.611 242.769 203.732C242.719 203.853 242.708 203.983 242.736 204.109C242.763 204.235 242.829 204.352 242.926 204.449C243.023 204.547 243.149 204.62 243.289 204.663C243.43 204.706 243.581 204.716 243.728 204.693C243.875 204.67 244.013 204.615 244.127 204.532C244.241 204.449 244.327 204.343 244.378 204.222C244.429 204.102 244.442 203.972 244.416 203.846H244.423Z" fill="white"/>
<path d="M227.658 198.08C227.628 197.959 227.564 197.845 227.472 197.75C227.379 197.654 227.261 197.58 227.127 197.532C226.993 197.485 226.848 197.467 226.704 197.478C226.56 197.49 226.421 197.532 226.3 197.6L226.251 197.636C226.141 197.72 226.059 197.827 226.012 197.946C225.965 198.066 225.955 198.194 225.984 198.317C226.012 198.441 226.077 198.556 226.173 198.652C226.269 198.747 226.393 198.82 226.531 198.862C226.67 198.904 226.819 198.915 226.964 198.892C227.109 198.87 227.244 198.816 227.357 198.735C227.47 198.655 227.557 198.55 227.608 198.432C227.66 198.314 227.674 198.186 227.651 198.062L227.658 198.08Z" fill="white"/>
<path d="M234.833 166.43C234.8 166.311 234.734 166.201 234.641 166.108C234.548 166.016 234.43 165.944 234.297 165.898C234.165 165.853 234.022 165.836 233.88 165.848C233.738 165.86 233.601 165.901 233.482 165.968L233.433 165.998C233.323 166.082 233.241 166.188 233.194 166.308C233.147 166.427 233.136 166.554 233.164 166.678C233.192 166.802 233.257 166.917 233.352 167.013C233.448 167.108 233.571 167.181 233.709 167.224C233.847 167.266 233.996 167.277 234.141 167.256C234.285 167.234 234.421 167.181 234.534 167.101C234.648 167.021 234.735 166.917 234.787 166.799C234.84 166.682 234.855 166.554 234.833 166.43Z" fill="white"/>
<path d="M209.318 188.84C209.284 188.721 209.217 188.61 209.123 188.518C209.029 188.425 208.911 188.354 208.778 188.308C208.645 188.263 208.502 188.246 208.359 188.258C208.217 188.27 208.08 188.311 207.96 188.378L207.918 188.414C207.808 188.498 207.726 188.605 207.679 188.724C207.632 188.844 207.622 188.972 207.651 189.095C207.679 189.219 207.744 189.334 207.84 189.43C207.936 189.525 208.06 189.598 208.198 189.64C208.337 189.682 208.486 189.692 208.631 189.67C208.776 189.648 208.911 189.594 209.024 189.513C209.137 189.433 209.224 189.328 209.275 189.21C209.327 189.092 209.341 188.964 209.318 188.84Z" fill="white"/>
<path d="M248.7 178.556C248.666 178.437 248.599 178.326 248.505 178.234C248.411 178.141 248.293 178.07 248.16 178.024C248.027 177.979 247.884 177.962 247.741 177.974C247.599 177.986 247.462 178.027 247.342 178.094L247.293 178.124C247.183 178.208 247.101 178.314 247.054 178.433C247.007 178.553 246.996 178.68 247.024 178.804C247.052 178.928 247.117 179.043 247.212 179.139C247.308 179.234 247.431 179.307 247.569 179.349C247.707 179.392 247.856 179.403 248.001 179.382C248.145 179.36 248.281 179.307 248.394 179.227C248.508 179.147 248.595 179.043 248.647 178.925C248.7 178.808 248.715 178.68 248.693 178.556H248.7Z" fill="white"/>
<path d="M285.233 151.7C285.199 151.581 285.132 151.47 285.038 151.378C284.944 151.286 284.826 151.214 284.693 151.168C284.56 151.123 284.417 151.106 284.274 151.118C284.132 151.13 283.995 151.171 283.875 151.238L283.826 151.274C283.716 151.358 283.634 151.465 283.587 151.584C283.54 151.704 283.53 151.832 283.559 151.955C283.587 152.079 283.652 152.194 283.748 152.29C283.844 152.385 283.968 152.458 284.106 152.5C284.245 152.542 284.394 152.553 284.539 152.53C284.684 152.508 284.819 152.454 284.932 152.373C285.045 152.293 285.132 152.188 285.183 152.07C285.235 151.952 285.249 151.824 285.226 151.7H285.233Z" fill="white"/>
<path d="M270.4 131.366C270.366 131.247 270.299 131.136 270.205 131.044C270.111 130.952 269.993 130.88 269.86 130.834C269.727 130.789 269.584 130.772 269.441 130.784C269.299 130.796 269.162 130.837 269.042 130.904L268.993 130.94C268.883 131.024 268.801 131.131 268.754 131.25C268.707 131.37 268.697 131.498 268.726 131.621C268.754 131.745 268.819 131.86 268.915 131.956C269.011 132.051 269.135 132.124 269.273 132.166C269.412 132.208 269.561 132.219 269.706 132.196C269.851 132.174 269.986 132.12 270.099 132.039C270.212 131.959 270.299 131.854 270.35 131.736C270.402 131.618 270.416 131.49 270.393 131.366H270.4Z" fill="white"/>
<path d="M241.658 133.916C241.624 133.797 241.557 133.687 241.463 133.594C241.369 133.502 241.251 133.43 241.118 133.384C240.985 133.339 240.842 133.322 240.699 133.334C240.557 133.346 240.42 133.387 240.3 133.454L240.251 133.484C240.141 133.568 240.059 133.674 240.012 133.794C239.965 133.913 239.954 134.04 239.982 134.164C240.01 134.288 240.075 134.403 240.17 134.499C240.266 134.594 240.389 134.667 240.527 134.71C240.665 134.752 240.814 134.763 240.959 134.742C241.103 134.72 241.239 134.667 241.352 134.587C241.466 134.507 241.553 134.403 241.605 134.285C241.658 134.168 241.673 134.04 241.651 133.916H241.658Z" fill="white"/>
<path d="M212.335 60.926C206.826 63.926 204.635 70.232 205.671 73.958C206.203 75.836 207.197 77.726 206.763 79.616C206.392 81.254 205.013 82.568 203.963 83.984C202.233 86.3677 201.438 89.1632 201.695 91.9618C201.952 94.7604 203.246 97.4152 205.389 99.5378C207.533 101.661 210.412 103.14 213.606 103.759C216.801 104.378 220.143 104.105 223.143 102.98" fill="#263238"/>
<path d="M209.073 85.5199C195.661 60.2359 227.567 47.5339 244.969 51.7459C261.328 55.7059 268.307 62.6839 271.002 72.0619C273.697 81.4399 273.564 91.6099 269.273 100.544C267.173 104.948 263.351 109.424 257.828 109.976" fill="#263238"/>
<path d="M224.788 147.266C224.557 135.182 224.389 118.592 224.389 118.658C224.389 118.724 212.3 116.936 209.759 103.4C208.513 96.6618 208.912 85.6158 209.57 76.5858C210.172 68.4558 216.451 58.4838 225.901 59.3418L255.406 65.7318C256.791 65.8565 258.071 66.4229 258.992 67.3188C259.912 68.2146 260.406 69.3743 260.376 70.5678L258.458 122.87" fill="#FFBE9D"/>
<path d="M214.848 84.8479C214.836 85.2976 215.031 85.7333 215.389 86.0618C215.748 86.3904 216.242 86.5856 216.766 86.6059C217.022 86.6264 217.281 86.6027 217.526 86.5361C217.771 86.4695 217.999 86.3614 218.195 86.2182C218.39 86.075 218.551 85.8996 218.666 85.7023C218.781 85.5051 218.849 85.2901 218.866 85.0699C218.876 84.62 218.681 84.1845 218.323 83.8554C217.965 83.5262 217.472 83.3292 216.948 83.3059C216.691 83.2862 216.433 83.3108 216.187 83.378C215.942 83.4453 215.715 83.554 215.519 83.6977C215.323 83.8414 215.163 84.0172 215.048 84.2147C214.933 84.4122 214.865 84.6275 214.848 84.8479Z" fill="#263238"/>
<path d="M235.792 84.8479C235.782 85.2966 235.977 85.7308 236.336 86.058C236.694 86.3853 237.187 86.5797 237.71 86.5999C237.966 86.6205 238.225 86.5967 238.47 86.5301C238.715 86.4635 238.943 86.3554 239.139 86.2122C239.334 86.069 239.495 85.8936 239.61 85.6964C239.725 85.4992 239.793 85.2841 239.81 85.0639C239.821 84.6143 239.627 84.1786 239.269 83.85C238.91 83.5215 238.416 83.3262 237.892 83.3059C237.635 83.2854 237.376 83.3094 237.13 83.3763C236.884 83.4433 236.657 83.5519 236.461 83.6958C236.265 83.8396 236.105 84.0157 235.99 84.2136C235.875 84.4116 235.808 84.6273 235.792 84.8479Z" fill="#263238"/>
<path d="M212.664 81.692C212.909 81.926 214.484 80.996 216.661 81.092C218.838 81.188 220.399 82.136 220.651 81.914C220.77 81.818 220.525 81.404 219.846 80.948C218.926 80.3589 217.816 80.0296 216.668 80.006C215.534 79.9719 214.416 80.2471 213.476 80.792C212.79 81.2 212.545 81.584 212.664 81.692Z" fill="#263238"/>
<path d="M233.37 82.1359C233.622 82.3639 235.155 81.3799 237.332 81.3799C239.509 81.3799 241.119 82.3039 241.35 82.0759C241.469 81.9739 241.21 81.5659 240.51 81.1339C239.565 80.5739 238.439 80.2803 237.29 80.2939C236.156 80.2939 235.052 80.6051 234.14 81.1819C233.468 81.6259 233.244 82.0339 233.37 82.1359Z" fill="#263238"/>
<path d="M225.894 96.536C225.894 96.428 224.55 96.23 222.352 95.984C221.792 95.936 221.267 95.84 221.176 95.516C221.126 95.0225 221.256 94.5278 221.547 94.1C222.065 92.948 222.618 91.736 223.192 90.464C225.481 85.292 227.133 81.032 226.888 80.954C226.643 80.876 224.592 85.01 222.31 90.188L220.728 93.848C220.377 94.4233 220.276 95.0865 220.441 95.72C220.522 95.888 220.647 96.0379 220.806 96.1585C220.965 96.2791 221.154 96.3671 221.358 96.416C221.666 96.4902 221.983 96.5285 222.303 96.53C224.515 96.632 225.887 96.638 225.894 96.536Z" fill="#263238"/>
<path d="M224.389 118.658C231.831 118.756 239.159 117.081 245.557 113.822C245.557 113.822 240.209 123.242 224.389 121.976V118.658Z" fill="#EB996E"/>
<path d="M232.831 79.4778C233.041 79.9878 235.225 79.7418 237.78 80.0118C240.335 80.2818 242.407 80.8698 242.75 80.4138C242.904 80.1978 242.54 79.7178 241.707 79.2138C240.593 78.6112 239.333 78.2337 238.023 78.11C236.713 77.9863 235.388 78.1196 234.147 78.4998C233.209 78.8358 232.733 79.2378 232.831 79.4778Z" fill="#263238"/>
<path d="M213.168 77C213.553 77.426 215.058 77 216.864 76.964C218.67 76.928 220.203 77.252 220.553 76.808C220.707 76.592 220.469 76.166 219.797 75.764C218.905 75.2701 217.855 75.0268 216.794 75.068C215.733 75.0857 214.704 75.3832 213.847 75.92C213.21 76.346 213 76.784 213.168 77Z" fill="#263238"/>
<path d="M257.667 88.3999C257.898 88.3039 266.13 85.1839 266.228 93.2959C266.326 101.408 256.799 99.8179 256.778 99.5839C256.757 99.3499 257.667 88.3999 257.667 88.3999Z" fill="#FFBE9D"/>
<path d="M259.634 96.476C259.676 96.476 259.802 96.572 260.082 96.68C260.478 96.815 260.918 96.815 261.314 96.68C262.308 96.356 263.134 94.988 263.162 93.524C263.183 92.8292 263.018 92.1395 262.679 91.508C262.588 91.2549 262.427 91.0246 262.208 90.8374C261.99 90.6501 261.721 90.5116 261.426 90.434C261.236 90.3922 261.036 90.4089 260.859 90.4814C260.682 90.5538 260.541 90.6772 260.46 90.83C260.334 91.058 260.397 91.22 260.348 91.232C260.299 91.244 260.138 91.1 260.215 90.764C260.264 90.5633 260.393 90.3832 260.579 90.254C260.707 90.1685 260.853 90.1054 261.009 90.0683C261.165 90.0313 261.328 90.021 261.489 90.038C261.878 90.1007 262.242 90.2478 262.546 90.4652C262.85 90.6826 263.083 90.9631 263.225 91.28C263.637 91.9787 263.844 92.7532 263.827 93.536C263.785 95.168 262.826 96.71 261.461 97.058C261.208 97.1235 260.94 97.1398 260.679 97.1055C260.417 97.0713 260.168 96.9874 259.949 96.86C259.655 96.674 259.606 96.488 259.634 96.476Z" fill="#EB996E"/>
<path d="M222.751 55.3279C217.487 57.6619 215.317 66.8899 217.494 71.6179C219.671 76.3459 225.544 78.6499 231.333 79.7359C237.122 80.8219 242.799 80.9359 248.511 79.5919C248.903 82.8799 251.206 86.2579 254.93 87.1279C259.865 88.2739 264.835 84.4039 265.934 80.1259C267.033 75.8479 265.381 71.4439 263.757 67.2859" fill="#263238"/>
<path d="M264.506 84.7579C264.506 84.7579 264.268 84.9979 263.771 85.3579C263.076 85.8618 262.349 86.3326 261.594 86.7679C260.465 87.4356 259.223 87.9516 257.912 88.2979C256.274 88.7405 254.514 88.7173 252.893 88.2319C251.297 87.6808 249.96 86.691 249.092 85.4179C248.389 84.401 247.925 83.2757 247.727 82.1059C247.589 81.3278 247.54 80.5401 247.58 79.7539C247.565 79.4662 247.605 79.1783 247.699 78.9019C247.804 78.9019 247.699 80.1319 248.105 82.0459C248.345 83.158 248.819 84.2234 249.505 85.1899C250.336 86.3628 251.585 87.2756 253.068 87.7939C254.585 88.243 256.228 88.2724 257.765 87.8779C259.036 87.5626 260.25 87.0961 261.37 86.4919C263.316 85.4479 264.45 84.6919 264.506 84.7579Z" fill="#263238"/>
<path d="M226.538 101.744C226.816 102.447 227.213 103.112 227.714 103.718C227.966 104.021 228.29 104.275 228.666 104.462C229.041 104.65 229.459 104.766 229.891 104.804C230.353 104.801 230.807 104.701 231.212 104.511C231.618 104.322 231.962 104.049 232.215 103.718C232.703 103.039 232.928 102.245 232.859 101.45C232.824 100.736 232.439 99.8839 231.613 99.7999C231.266 99.7894 230.921 99.8555 230.612 99.9919L226.258 101.504" fill="#EB996E"/>
<path d="M228.274 104.81C228.274 104.696 229.254 105.026 230.598 104.564C231.36 104.312 231.986 103.827 232.355 103.202C232.564 102.821 232.676 102.407 232.686 101.986C232.696 101.565 232.602 101.148 232.411 100.76C232.31 100.562 232.183 100.375 232.033 100.202C231.858 100.046 231.886 100.052 231.704 100.076C231.522 100.1 231.235 100.232 231.004 100.31L230.304 100.562C229.373 100.886 228.526 101.162 227.819 101.396C226.419 101.852 225.488 102.092 225.446 101.996C225.404 101.9 226.23 101.516 227.602 100.952C228.302 100.67 229.107 100.352 230.024 99.986L230.724 99.716C230.983 99.626 231.172 99.53 231.522 99.434C231.731 99.3745 231.957 99.3745 232.166 99.434C232.357 99.504 232.524 99.6157 232.649 99.758C233.116 100.278 233.398 100.903 233.462 101.558C233.525 102.212 233.367 102.869 233.006 103.448C232.774 103.816 232.459 104.14 232.079 104.403C231.699 104.666 231.262 104.861 230.794 104.978C230.186 105.149 229.534 105.172 228.911 105.044C228.463 104.978 228.26 104.852 228.274 104.81Z" fill="#263238"/>
<path d="M268.3 82.8378C267.334 82.7778 259.515 83.6478 260.131 96.0978C260.705 107.732 270.225 105.17 273.263 100.79C276.119 96.6438 277.785 83.4078 268.3 82.8378Z" fill="#455A64"/>
<path d="M273.109 84.3078C273.087 84.2008 273.075 84.0925 273.074 83.9839C273.074 83.7379 273.074 83.4259 273.032 83.0299C273.032 82.1719 272.962 80.9719 272.913 79.4839C272.843 76.4299 272.745 72.1758 272.626 67.2738L272.801 67.4179H268.776L268.958 67.2619C268.958 68.1859 269.014 69.1639 269.049 70.1599C269.182 74.8279 269.308 79.1599 269.413 82.8259V82.9339H269.294C267.641 83.2605 266.173 84.0711 265.143 85.2259C264.363 86.1213 263.799 87.1412 263.484 88.2259C263.274 88.9247 263.131 89.6371 263.057 90.3558C263.057 90.6018 263.022 90.7938 263.015 90.9198C263.008 91.0459 263.015 91.1179 263.015 91.1179C263.006 91.0521 263.006 90.9856 263.015 90.9198C263.015 90.7938 263.015 90.6019 263.015 90.3499C263.049 89.6218 263.166 88.8983 263.365 88.1898C263.657 87.0734 264.212 86.0199 264.996 85.0939C266.052 83.8917 267.565 83.043 269.273 82.6939L269.154 82.8259C269.035 79.1839 268.888 74.8339 268.734 70.1599C268.699 69.1699 268.671 68.1919 268.643 67.2619V67.0999H273.032V67.2499C273.095 72.1579 273.151 76.4059 273.193 79.4659C273.193 80.9539 273.193 82.1539 273.193 83.0119C273.193 83.4079 273.193 83.7199 273.193 83.9599C273.184 84.0786 273.156 84.1957 273.109 84.3078Z" fill="#455A64"/>
<path d="M268.3 67.2679C268.3 67.2679 264.212 59.0719 254.475 55.0219C250.751 53.432 246.839 52.1889 242.806 51.3139C242.806 51.3139 248.49 50.1619 257.681 53.6659C261.881 55.2619 266.081 57.3319 268.881 60.4459C270.645 62.4199 272.857 66.2779 272.85 67.2679H268.3Z" fill="#455A64"/>
<path d="M243.1 166.55C243.1 166.55 243.156 166.49 243.275 166.388C243.394 166.286 243.576 166.13 243.8 165.92C244.472 165.311 245.103 164.67 245.69 164C246.624 162.928 247.478 161.806 248.245 160.64C249.155 159.278 250.107 157.67 251.136 155.876C253.201 152.276 255.588 147.944 258.066 142.964C259.298 140.474 260.558 137.828 261.818 135.038L262.756 132.926C263.052 132.187 263.429 131.474 263.883 130.796C264.368 130.093 265.07 129.52 265.913 129.14C266.342 128.938 266.824 128.833 267.313 128.834C267.58 128.85 267.837 128.929 268.055 129.062C268.262 129.206 268.423 129.391 268.524 129.602V129.644V129.692C268.464 129.978 268.336 130.25 268.146 130.49C267.935 130.74 267.623 130.916 267.271 130.982C266.599 131.062 265.914 130.955 265.318 130.676C264.692 130.426 264.182 130.003 263.869 129.476C263.556 128.949 263.457 128.347 263.589 127.766C263.732 127.169 264.141 126.644 264.73 126.302C265.311 125.955 266.011 125.784 266.718 125.816C267.084 125.818 267.444 125.899 267.764 126.051C268.085 126.203 268.355 126.421 268.552 126.686C268.651 126.838 268.697 127.01 268.685 127.184C268.672 127.357 268.602 127.524 268.482 127.664C268.251 127.915 267.943 128.106 267.593 128.216C267.006 128.407 266.363 128.431 265.759 128.284C265.155 128.137 264.622 127.827 264.24 127.4C263.868 126.965 263.705 126.423 263.785 125.888C263.846 125.366 264.09 124.873 264.485 124.472C264.886 124.067 265.447 123.803 266.06 123.728C266.37 123.693 266.685 123.721 266.98 123.808C267.275 123.896 267.542 124.041 267.761 124.232C267.985 124.439 268.105 124.712 268.097 124.994C268.093 125.134 268.055 125.273 267.985 125.4C267.915 125.527 267.815 125.64 267.691 125.732C267.462 125.908 267.189 126.036 266.892 126.105C266.595 126.173 266.284 126.181 265.983 126.128C265.692 126.063 265.42 125.946 265.184 125.784C264.949 125.623 264.756 125.421 264.618 125.192C264.347 124.762 264.173 124.292 264.107 123.806C263.91 122.863 264.039 121.891 264.478 121.01C264.723 120.561 265.148 120.201 265.675 119.996C266.214 119.825 266.81 119.842 267.334 120.044C267.609 120.129 267.85 120.278 268.032 120.474C268.214 120.67 268.328 120.905 268.363 121.154C268.377 121.408 268.299 121.66 268.14 121.875C267.981 122.089 267.748 122.257 267.474 122.354C267.225 122.464 266.949 122.521 266.669 122.521C266.389 122.521 266.113 122.464 265.864 122.354C265.39 122.119 265.034 121.743 264.863 121.298C264.705 120.876 264.673 120.426 264.772 119.99C264.827 119.565 264.935 119.147 265.094 118.742C265.252 118.326 265.546 117.957 265.941 117.68C266.329 117.413 266.781 117.223 267.264 117.122C267.516 117.06 267.782 117.06 268.034 117.122C268.275 117.194 268.493 117.313 268.671 117.47C268.849 117.62 268.99 117.8 269.084 117.998C269.186 118.211 269.186 118.451 269.084 118.664C268.971 118.861 268.791 119.025 268.567 119.132C268.343 119.239 268.086 119.285 267.831 119.264C267.357 119.258 266.897 119.126 266.515 118.886C265.79 118.428 265.29 117.754 265.115 116.996C264.932 116.248 265.069 115.469 265.5 114.8C265.689 114.479 265.96 114.198 266.291 113.978C266.618 113.765 267 113.623 267.404 113.564C267.808 113.494 268.228 113.545 268.594 113.708C268.775 113.792 268.928 113.913 269.041 114.061C269.153 114.209 269.221 114.378 269.238 114.554C269.236 114.885 269.105 115.206 268.867 115.467C268.629 115.727 268.296 115.913 267.922 115.994C267.571 116.058 267.206 116.036 266.869 115.929C266.532 115.823 266.237 115.638 266.018 115.394C265.598 114.96 265.352 114.421 265.318 113.858C265.379 112.877 265.615 111.91 266.018 110.99C266.305 110.126 266.564 109.334 266.802 108.626C267.271 107.216 267.635 106.118 267.894 105.362C268.013 104.996 268.111 104.714 268.181 104.516C268.251 104.318 268.293 104.228 268.293 104.228C268.293 104.228 268.293 104.33 268.216 104.522C268.139 104.714 268.069 105.014 267.964 105.38C267.726 106.142 267.376 107.246 266.935 108.656L266.186 111.026C265.948 111.896 265.486 112.826 265.535 113.846C265.586 114.374 265.831 114.874 266.235 115.274C266.428 115.489 266.688 115.654 266.985 115.749C267.282 115.845 267.604 115.867 267.915 115.814C268.229 115.745 268.509 115.591 268.713 115.375C268.917 115.159 269.035 114.892 269.049 114.614C269.035 114.473 268.98 114.338 268.889 114.219C268.799 114.101 268.676 114.004 268.531 113.936C268.215 113.802 267.855 113.762 267.509 113.822C267.142 113.876 266.796 114.006 266.501 114.2C266.208 114.404 265.969 114.66 265.801 114.95C265.454 115.565 265.363 116.264 265.542 116.93C265.71 117.626 266.174 118.244 266.844 118.664C267.179 118.871 267.579 118.986 267.992 118.994C268.186 119.014 268.382 118.983 268.555 118.905C268.728 118.826 268.868 118.705 268.958 118.556C269.001 118.389 268.989 118.216 268.924 118.055C268.858 117.894 268.742 117.751 268.587 117.644C268.443 117.519 268.268 117.423 268.076 117.362C267.876 117.317 267.667 117.317 267.467 117.362C267.026 117.444 266.617 117.621 266.278 117.876C265.938 118.131 265.68 118.456 265.528 118.82C265.375 119.209 265.274 119.612 265.227 120.02C265.132 120.419 265.161 120.833 265.311 121.22C265.45 121.598 265.75 121.917 266.151 122.114C266.354 122.201 266.578 122.247 266.805 122.247C267.033 122.247 267.257 122.201 267.46 122.114C267.669 122.044 267.849 121.921 267.974 121.761C268.099 121.601 268.164 121.412 268.16 121.22C268.129 121.026 268.036 120.844 267.891 120.692C267.747 120.541 267.556 120.427 267.341 120.362C266.897 120.196 266.397 120.181 265.941 120.32C265.494 120.499 265.135 120.807 264.926 121.19C264.524 122.019 264.41 122.929 264.597 123.812C264.659 124.259 264.818 124.693 265.066 125.09C265.18 125.281 265.339 125.449 265.533 125.584C265.727 125.72 265.952 125.819 266.193 125.876C266.439 125.921 266.694 125.916 266.937 125.861C267.181 125.806 267.405 125.702 267.593 125.558C267.681 125.491 267.752 125.41 267.802 125.32C267.852 125.229 267.88 125.13 267.885 125.03C267.89 124.93 267.87 124.83 267.829 124.736C267.787 124.642 267.723 124.556 267.642 124.484C267.46 124.33 267.239 124.213 266.997 124.143C266.754 124.074 266.496 124.053 266.242 124.082C265.716 124.148 265.237 124.379 264.898 124.73C264.531 125.068 264.306 125.502 264.261 125.962C264.215 126.422 264.351 126.882 264.646 127.268C264.982 127.638 265.447 127.906 265.974 128.033C266.5 128.16 267.06 128.14 267.572 127.976C267.846 127.879 268.087 127.725 268.272 127.526C268.351 127.433 268.397 127.322 268.404 127.207C268.411 127.092 268.38 126.978 268.314 126.878C268.146 126.662 267.918 126.485 267.65 126.362C267.383 126.24 267.084 126.176 266.781 126.176C266.162 126.135 265.546 126.282 265.043 126.593C264.539 126.904 264.18 127.358 264.03 127.874C263.916 128.375 263.998 128.894 264.264 129.351C264.53 129.808 264.964 130.177 265.5 130.4C266.02 130.653 266.622 130.754 267.215 130.688C267.482 130.617 267.718 130.479 267.893 130.292C268.067 130.105 268.173 129.877 268.195 129.638V129.728C268.127 129.562 268.004 129.417 267.841 129.31C267.678 129.204 267.482 129.14 267.278 129.128C266.844 129.126 266.417 129.221 266.039 129.404C265.25 129.758 264.593 130.294 264.142 130.952C263.698 131.61 263.33 132.303 263.043 133.022L262.091 135.14C260.831 137.924 259.557 140.54 258.311 143.06C255.819 148.04 253.411 152.384 251.311 155.96C250.268 157.76 249.302 159.35 248.371 160.712C247.587 161.874 246.714 162.99 245.76 164.054C244.98 164.965 244.088 165.802 243.1 166.55Z" fill="white"/>
<path d="M276.763 76.9999C276.678 76.2373 276.463 75.4894 276.126 74.7799C275.109 72.8716 273.325 71.3404 271.1 70.4659C269.572 69.8744 267.93 69.5306 266.256 69.4519C264.33 69.367 262.399 69.492 260.509 69.8239C256.498 70.4599 252.284 71.9419 247.566 72.5539C245.266 72.815 242.936 72.815 240.636 72.5539C238.501 72.2783 236.41 71.791 234.406 71.1019C231.003 69.9274 227.909 68.1811 225.306 65.9659C223.554 64.4847 222.072 62.7856 220.91 60.9259C220.714 60.6425 220.541 60.3478 220.392 60.0439L220.056 59.3779C219.972 59.2159 219.909 59.0779 219.853 58.9699C219.826 58.9246 219.807 58.876 219.797 58.8259C219.834 58.8664 219.864 58.9108 219.888 58.9579L220.119 59.3539L220.49 60.0019C220.65 60.3019 220.832 60.5925 221.036 60.8719C222.237 62.6921 223.736 64.355 225.488 65.8099C229.621 69.2793 234.933 71.5337 240.657 72.2479C242.924 72.506 245.222 72.506 247.489 72.2479C252.144 71.6479 256.365 70.1719 260.425 69.5479C262.341 69.2197 264.298 69.1028 266.249 69.1999C267.958 69.2887 269.632 69.6531 271.184 70.2739C273.447 71.1826 275.242 72.7708 276.231 74.7379C276.477 75.2733 276.639 75.8341 276.714 76.4059V76.8499C276.739 76.8975 276.756 76.9481 276.763 76.9999Z" fill="#455A64"/>
<path d="M266.2 64.07C266.034 64.1048 265.866 64.1288 265.696 64.142C265.367 64.184 264.877 64.244 264.254 64.34C263.008 64.514 261.223 64.856 259.025 65.324C256.454 65.9181 253.836 66.3532 251.192 66.626C247.943 66.9112 244.665 66.8488 241.434 66.44C238.202 66.0381 235.037 65.309 232.005 64.268C229.52 63.4246 227.139 62.3693 224.9 61.118C223.962 60.572 223.122 60.068 222.408 59.588C221.694 59.108 221.092 58.694 220.63 58.322L219.566 57.464C219.328 57.266 219.202 57.158 219.216 57.146C219.358 57.2252 219.492 57.3156 219.615 57.416L220.721 58.226C221.197 58.586 221.834 58.97 222.534 59.426C223.234 59.882 224.102 60.38 225.04 60.908C230.03 63.6062 235.624 65.3783 241.462 66.11C244.668 66.5123 247.918 66.5808 251.143 66.314C253.772 66.069 256.377 65.668 258.941 65.114C261.146 64.676 262.952 64.364 264.212 64.22C264.842 64.148 265.332 64.106 265.668 64.088C265.844 64.0663 266.022 64.0602 266.2 64.07Z" fill="#455A64"/>
<path d="M267.236 104.27C267.142 104.254 267.051 104.23 266.963 104.198C266.719 104.11 266.485 104.004 266.263 103.88C265.417 103.403 264.714 102.762 264.212 102.008C263.494 100.881 263.064 99.6349 262.952 98.354C262.791 96.8051 262.791 95.2469 262.952 93.698C263.103 92.1496 263.403 90.6144 263.848 89.108C264.166 87.8638 264.692 86.6655 265.409 85.55C265.925 84.7934 266.645 84.1536 267.509 83.684C267.729 83.5597 267.964 83.4551 268.209 83.372C268.384 83.318 268.482 83.294 268.482 83.306C268.482 83.318 268.125 83.444 267.558 83.786C266.767 84.2825 266.112 84.9214 265.64 85.658C264.967 86.7685 264.477 87.9538 264.184 89.18C263.759 90.6747 263.469 92.1952 263.316 93.728C263.169 95.2574 263.169 96.7946 263.316 98.324C263.405 99.579 263.796 100.805 264.464 101.924C264.926 102.666 265.577 103.31 266.368 103.808C266.9 104.126 267.257 104.24 267.236 104.27Z" fill="#263238"/>
<path d="M235.752 102.416L228.567 103.624C227.486 103.806 226.782 104.705 226.994 105.632L227.046 105.861C227.258 106.788 228.307 107.392 229.388 107.21L236.573 106.002C237.654 105.82 238.359 104.921 238.147 103.995L238.094 103.765C237.882 102.838 236.834 102.234 235.752 102.416Z" fill="#455A64"/>
<path d="M237.129 103.328L270.344 94.3998C270.739 94.2941 271.166 94.3262 271.533 94.4892C271.9 94.6521 272.177 94.9327 272.304 95.2698C272.368 95.4431 272.391 95.6257 272.37 95.8066C272.35 95.9876 272.288 96.1632 272.186 96.3228C272.085 96.4825 271.947 96.623 271.781 96.7359C271.615 96.8488 271.424 96.9318 271.219 96.9798L237.255 104.84L237.129 103.328Z" fill="#455A64"/>
<path d="M261.678 99.4039C262.034 99.2695 262.401 99.1591 262.777 99.0739L265.815 98.2819C267.089 97.9459 268.657 97.5859 270.309 97.1239C270.717 96.9936 271.087 96.7888 271.394 96.5239C271.696 96.2598 271.865 95.904 271.863 95.5339C271.861 95.3521 271.793 95.1753 271.667 95.0288C271.541 94.8823 271.365 94.7735 271.163 94.7179C270.702 94.6173 270.216 94.6297 269.763 94.7539L259.802 97.5019L256.771 98.3059C256.424 98.4286 256.066 98.5269 255.7 98.5999C256.05 98.454 256.413 98.3316 256.785 98.2339L259.781 97.3339C262.322 96.5959 265.808 95.5699 269.728 94.4959C270.249 94.3666 270.803 94.3666 271.324 94.4959C271.59 94.5783 271.821 94.728 271.986 94.925C272.151 95.1221 272.242 95.3574 272.248 95.5999C272.249 96.0491 272.042 96.4804 271.674 96.7999C271.305 97.0772 270.871 97.282 270.4 97.3999C268.685 97.8619 267.152 98.1859 265.857 98.4979L262.819 99.1999C262.447 99.2984 262.065 99.3667 261.678 99.4039Z" fill="#263238"/>
<path d="M207.4 77.5999C208.534 81.0199 204.481 83.9539 203.053 87.2959C201.653 90.5239 202.843 94.1419 204.544 97.2619C206.245 100.382 208.485 103.334 209.353 106.688C211.502 114.968 202.766 123.89 204.453 132.248C205.055 135.296 206.49 138.476 207.729 141.374C208.926 144.107 208.926 147.119 207.729 149.852C205.839 154.652 202.633 156.902 200.379 161.57C199.224 163.97 199.315 166.634 199.371 169.214C199.427 171.794 199.413 174.494 198.069 176.81C196.725 179.126 193.659 180.914 190.747 180.242C192.318 181.751 194.426 182.774 196.745 183.153C199.063 183.531 201.462 183.244 203.571 182.336C207.4 180.584 209.542 177.032 211.376 173.66C220.252 157.334 224.949 155.954 224.676 137.942C224.676 136.784 224.41 118.742 224.41 118.742C222.57 118.319 220.807 117.683 219.167 116.852C209.255 110.984 208.891 100.532 208.968 92.4259" fill="#263238"/>
<path d="M227.21 132.248V139.046C227.21 139.046 221.113 165.716 219.279 180.53C217.445 195.344 217.144 199.256 217.144 199.256C217.144 199.256 221.519 205.106 230.668 195.17C239.817 185.234 241.448 183.668 245.109 183.494C245.109 183.494 240.636 141.836 240.839 140.294C241.066 139.2 241.626 138.178 242.463 137.33L227.21 132.248Z" fill="#FFBE9D"/>
<path d="M239.208 116.912C239.208 116.912 229.247 128.24 228.435 129.8C227.623 131.36 227.21 132.236 227.21 132.236L242.463 137.294L257.31 123.35L262.798 110.972L261.167 96.3318C261.167 96.3318 257.919 96.1578 257.31 98.5998C256.937 100.146 256.798 101.727 256.897 103.304L252.347 100.166L245.004 98.2518C245.004 98.2518 243.275 100.688 246.124 101.912C248.973 103.136 249.785 103.112 249.785 103.112L252.347 106.946L251.227 111.242L246.033 107.042C245.53 106.635 244.877 106.391 244.186 106.354C243.496 106.317 242.812 106.488 242.253 106.838L238.893 108.926L235.75 107.726L229.653 112.4L227.21 114.314C227.21 114.314 228.841 116.93 232.11 115.712L235.365 114.512L239.208 116.912Z" fill="#FFBE9D"/>
<path d="M227.21 134.546C227.201 134.424 227.201 134.302 227.21 134.18C227.21 133.94 227.245 133.58 227.308 133.118C227.39 132.541 227.518 131.97 227.693 131.408C227.911 130.633 228.27 129.891 228.757 129.212C231.039 126.212 234.63 122.012 239.11 116.846V117.002L235.246 114.566H235.379L233.37 115.328C232.68 115.616 231.964 115.855 231.228 116.042C230.427 116.206 229.585 116.123 228.848 115.808C228.099 115.478 227.477 114.969 227.056 114.344L227 114.26L227.091 114.188C229.709 112.076 232.628 109.946 235.624 107.666L235.715 107.6L235.813 107.648L238.522 109.022H238.347L241.511 107.222C242.064 106.916 242.561 106.622 243.156 106.31C243.48 106.172 243.842 106.113 244.203 106.139C244.563 106.166 244.908 106.277 245.2 106.46L251.367 110.93L251.08 111.014C251.416 109.724 251.78 108.326 252.144 106.916V107.024L249.582 103.19L249.743 103.268C249.308 103.217 248.882 103.118 248.476 102.974C248.077 102.848 247.678 102.704 247.279 102.554C246.88 102.404 246.488 102.236 246.096 102.074C245.893 101.99 245.697 101.876 245.501 101.78C245.309 101.663 245.131 101.53 244.969 101.384C244.734 101.17 244.551 100.918 244.431 100.643C244.31 100.368 244.256 100.075 244.269 99.7819C244.291 99.2085 244.476 98.6484 244.808 98.1499L244.878 98.0479L245.018 98.0839L252.354 100.004H252.389L256.939 103.142L256.652 103.274C256.554 101.72 256.683 100.162 257.037 98.6359C257.111 98.2424 257.282 97.8668 257.538 97.5338C257.794 97.2008 258.129 96.918 258.521 96.7039C259.304 96.308 260.203 96.1142 261.111 96.1459H261.3V96.2779C261.874 101.48 262.413 106.388 262.91 110.918V110.948C260.88 115.508 259.032 119.648 257.394 123.314L245.9 134.186L242.778 137.084C242.421 137.402 242.148 137.654 241.959 137.828L241.672 138.074C241.672 138.074 241.756 137.978 241.931 137.804L242.722 137.042L245.802 134.108L257.24 123.308V123.338L262.7 110.954V111.014C262.189 106.484 261.643 101.582 261.055 96.3739L261.216 96.5119C260.381 96.4826 259.554 96.6619 258.836 97.0279C258.483 97.2201 258.183 97.4749 257.954 97.775C257.726 98.0752 257.576 98.4137 257.513 98.7679C257.162 100.266 257.035 101.796 257.135 103.322V103.67L256.82 103.454L252.2 100.298H252.263L244.927 98.3839L245.13 98.3119C244.835 98.7642 244.669 99.2701 244.647 99.7879C244.634 100.042 244.681 100.295 244.784 100.533C244.888 100.771 245.046 100.989 245.249 101.174C245.394 101.301 245.551 101.417 245.718 101.522C245.907 101.612 246.075 101.708 246.271 101.792C246.663 101.954 247.048 102.122 247.44 102.266C248.177 102.574 248.955 102.806 249.757 102.956H249.869L249.911 103.016L252.473 106.85L252.508 106.904V106.964C252.137 108.374 251.808 109.772 251.437 111.062L251.374 111.314L251.143 111.146L244.997 106.688C244.758 106.536 244.475 106.443 244.179 106.419C243.882 106.396 243.584 106.443 243.317 106.556C242.799 106.82 242.239 107.156 241.707 107.45L238.536 109.25L238.452 109.298L238.361 109.256L235.652 107.876H235.848C232.852 110.144 229.926 112.274 227.301 114.374L227.336 114.218C227.723 114.797 228.296 115.268 228.988 115.574C229.662 115.868 230.437 115.945 231.172 115.79C231.893 115.609 232.595 115.378 233.272 115.1L235.281 114.344H235.358L235.421 114.38L239.278 116.828L239.383 116.894L239.306 116.984C234.805 122.15 231.179 126.314 228.869 129.284C228.383 129.951 228.017 130.677 227.784 131.438C227.606 131.994 227.468 132.559 227.371 133.13C227.294 133.592 227.259 133.952 227.238 134.186C227.217 134.42 227.21 134.546 227.21 134.546Z" fill="#EB996E"/>
<path d="M246.082 119.534C246.012 119.534 246.278 118.61 246.39 117.134C246.464 116.273 246.301 115.41 245.914 114.614C245.33 113.681 244.498 112.879 243.485 112.274C241.676 111.085 239.79 109.986 237.836 108.98L236.051 108.08C235.822 107.983 235.606 107.864 235.407 107.726C235.653 107.777 235.889 107.86 236.107 107.972C236.555 108.146 237.192 108.422 237.962 108.788C239.965 109.746 241.884 110.829 243.702 112.028C244.761 112.661 245.622 113.508 246.208 114.494C246.61 115.333 246.759 116.245 246.642 117.146C246.582 117.741 246.468 118.331 246.299 118.91C246.261 119.125 246.188 119.336 246.082 119.534Z" fill="#EB996E"/>
<path d="M256.757 114.098C256.802 113.569 256.888 113.044 257.016 112.526C257.234 111.275 257.34 110.011 257.331 108.746C257.312 107.477 257.181 106.212 256.939 104.96C256.804 104.446 256.708 103.925 256.652 103.4C256.909 103.883 257.091 104.394 257.191 104.918C257.837 107.436 257.863 110.041 257.268 112.568C257.178 113.095 257.006 113.61 256.757 114.098Z" fill="#EB996E"/>
<path d="M188.78 69.6378L181.5 58.6158C186.008 52.3392 187.615 44.8441 186.004 37.6037C184.392 30.3634 179.68 23.9015 172.792 19.4881C165.905 15.0746 157.341 13.0289 148.783 13.753C140.225 14.477 132.293 17.9185 126.545 23.401C120.797 28.8834 117.65 36.0104 117.721 43.381C117.792 50.7516 121.077 57.8329 126.93 63.2329C132.783 68.6329 140.781 71.9611 149.352 72.5634C157.922 73.1657 166.446 70.9986 173.247 66.4878L188.78 69.6378Z" fill="white"/>
<path d="M188.78 69.6379L173.198 66.5779H173.065L173.149 66.4819L173.275 66.5899C171.092 68.0426 168.717 69.2691 166.198 70.2439C163.2 71.394 160.024 72.1698 156.769 72.5479C154.965 72.7633 153.143 72.8416 151.323 72.7819C150.392 72.7399 149.433 72.7159 148.474 72.6499L145.569 72.2719C136.911 70.8029 129.233 66.5584 124.1 60.4039C121.235 57.0037 119.254 53.1162 118.29 49.0039C117.296 44.6617 117.434 40.1848 118.696 35.8939C119.994 31.4089 122.52 27.254 126.067 23.7739L127.467 22.4479C127.929 22.0039 128.482 21.6379 128.979 21.2479C129.475 20.8254 129.996 20.4249 130.54 20.0479L132.192 18.9919C132.736 18.6466 133.306 18.3338 133.9 18.0559L135.643 17.1499L137.47 16.3999C138.064 16.1306 138.68 15.896 139.311 15.6979C144.202 14.0416 149.465 13.3466 154.711 13.6639C159.675 13.9621 164.502 15.1911 168.851 17.2639C176.669 20.9929 182.514 27.1565 185.175 34.4779C186.244 37.5934 186.749 40.8311 186.673 44.0779C186.582 46.8909 186.016 49.6778 184.993 52.3519C184.138 54.577 182.98 56.7078 181.542 58.6999V58.6219L188.759 69.6799C188.451 69.2179 186.113 65.7439 181.388 58.6939V58.6579V58.6219C182.803 56.6343 183.942 54.5119 184.783 52.2979C185.781 49.6365 186.33 46.8665 186.414 44.0719C186.475 40.8541 185.963 37.6472 184.895 34.5619C182.237 27.3132 176.434 21.2158 168.683 17.5279C164.373 15.4876 159.595 14.2814 154.683 13.9939C149.486 13.6801 144.273 14.3711 139.43 16.0159C138.806 16.212 138.197 16.4446 137.61 16.7119L135.804 17.4619L134.075 18.3619C133.484 18.6433 132.92 18.9643 132.388 19.3219L130.75 20.3659C130.197 20.7019 129.728 21.1399 129.21 21.5179C128.692 21.8959 128.174 22.2859 127.712 22.7179L126.312 24.0259C122.803 27.4726 120.303 31.5862 119.018 36.0259C117.769 40.2732 117.628 44.7045 118.605 49.0039C119.559 53.0695 121.516 56.9133 124.345 60.2779C129.441 66.3634 137.041 70.5643 145.611 72.0319L148.488 72.4099C149.44 72.4819 150.392 72.4999 151.288 72.5479C153.093 72.6104 154.901 72.5382 156.692 72.3319C162.676 71.6527 168.345 69.6281 173.121 66.4639L173.667 66.1039L173.247 66.5779L173.191 66.4519L188.78 69.6379Z" fill="#263238"/>
<path d="M144.729 43.1778C144.729 43.6525 144.565 44.1165 144.257 44.5112C143.949 44.9059 143.512 45.2135 143.001 45.3951C142.489 45.5768 141.926 45.6243 141.383 45.5317C140.84 45.4391 140.341 45.2105 139.949 44.8749C139.558 44.5392 139.291 44.1116 139.183 43.646C139.075 43.1805 139.13 42.6979 139.342 42.2594C139.554 41.8209 139.913 41.446 140.373 41.1823C140.834 40.9186 141.375 40.7778 141.929 40.7778C142.672 40.7778 143.384 41.0307 143.909 41.4808C144.434 41.9309 144.729 42.5413 144.729 43.1778Z" fill="#263238"/>
<path d="M155.901 43.1778C155.901 43.6525 155.737 44.1165 155.429 44.5112C155.121 44.9059 154.684 45.2135 154.173 45.3951C153.661 45.5768 153.098 45.6243 152.555 45.5317C152.012 45.4391 151.513 45.2105 151.121 44.8749C150.73 44.5392 150.463 44.1116 150.355 43.646C150.247 43.1805 150.302 42.6979 150.514 42.2594C150.726 41.8209 151.085 41.446 151.545 41.1823C152.006 40.9186 152.547 40.7778 153.101 40.7778C153.844 40.7778 154.556 41.0307 155.081 41.4808C155.606 41.9309 155.901 42.5413 155.901 43.1778Z" fill="#263238"/>
<path d="M167.052 41.978C167.33 42.3889 167.46 42.8614 167.425 43.3356C167.39 43.8099 167.191 44.2645 166.855 44.6419C166.518 45.0193 166.058 45.3025 165.533 45.4555C165.008 45.6086 164.442 45.6247 163.906 45.5017C163.371 45.3787 162.89 45.1223 162.525 44.7648C162.159 44.4073 161.926 43.965 161.854 43.4938C161.783 43.0225 161.876 42.5437 162.122 42.1179C162.368 41.6921 162.756 41.3385 163.237 41.102C163.879 40.7862 164.64 40.701 165.355 40.8652C166.07 41.0293 166.68 41.4294 167.052 41.978Z" fill="#263238"/>
<path d="M326.4 231.284C326.4 231.374 255.238 231.44 167.5 231.44C79.762 231.44 8.59998 231.374 8.59998 231.284C8.59998 231.194 79.741 231.128 167.535 231.128C255.329 231.128 326.4 231.2 326.4 231.284Z" fill="#263238"/>
<path d="M236.485 231.434C238.128 229.292 240.343 227.516 242.947 226.256C245.552 224.995 248.469 224.285 251.458 224.186C261.685 223.886 266.795 231.434 266.795 231.434H236.485Z" fill="#455A64"/>
<path d="M256.085 231.2C255.95 230.77 255.849 230.333 255.784 229.892C255.234 227.811 253.786 225.984 251.731 224.78C251.278 224.563 250.841 224.322 250.422 224.06C250.95 224.129 251.455 224.297 251.899 224.552C253.015 225.11 253.971 225.875 254.697 226.791C255.424 227.706 255.903 228.75 256.099 229.844C256.209 230.292 256.204 230.754 256.085 231.2Z" fill="#263238"/>
<path d="M230.157 231.116V231.056C230.14 230.173 229.719 229.332 228.984 228.713C228.249 228.094 227.26 227.748 226.23 227.75H139.192C138.151 227.75 137.152 228.105 136.415 228.736C135.679 229.367 135.265 230.223 135.265 231.116H230.157Z" fill="#455A64"/>
<path d="M63.5291 100.4C63.5291 101.972 64.9291 195.668 64.9291 195.668L146.129 212.414H152.8L148.53 81.614H142.426L63.5291 100.4Z" fill="#263238"/>
<path d="M80.7 191.774L55.535 231.302H78.537C74.421 230.954 114.937 231.302 114.937 231.302L78.537 223.028L89.926 200.858L88.953 191.774H80.7Z" fill="#263238"/>
<path d="M81.26 199.07L78.537 125.39L103.261 123.362L106.306 202.028L97.479 202.412L81.26 199.07Z" fill="#263238"/>
<path d="M109.764 204.944C109.764 204.944 109.764 204.83 109.764 204.602C109.764 204.374 109.764 204.032 109.764 203.594C109.764 202.694 109.764 201.38 109.764 199.682C109.764 196.256 109.729 191.282 109.708 185.024C109.708 172.502 109.673 154.88 109.645 134.444L109.82 134.594H80.595L80.777 134.438V137.834C80.777 157.766 80.777 176.312 80.742 191.768V191.798C73.168 203.696 66.889 213.572 62.493 220.472C60.295 223.916 58.566 226.616 57.383 228.464C56.795 229.376 56.34 230.072 56.032 230.558C55.724 231.044 55.549 231.266 55.549 231.266C55.549 231.266 55.696 231.014 55.99 230.54C56.284 230.066 56.732 229.34 57.299 228.422C58.468 226.568 60.169 223.856 62.339 220.4L80.469 191.672V191.738C80.469 176.282 80.469 157.736 80.469 137.804V134.252H109.995V134.402C109.995 154.838 109.946 172.46 109.932 184.982C109.932 191.234 109.89 196.214 109.876 199.64C109.876 201.338 109.876 202.64 109.876 203.552C109.876 203.99 109.876 204.326 109.876 204.56C109.876 204.794 109.764 204.944 109.764 204.944Z" fill="#455A64"/>
<path d="M89.926 200.858C90.017 200.888 86.517 207.83 82.107 216.35C77.697 224.87 74.0431 231.758 73.9521 231.722C73.8611 231.686 77.3611 224.75 81.7711 216.224C86.1811 207.698 89.835 200.822 89.926 200.858Z" fill="#455A64"/>
<path d="M146.094 212.438C146.094 212.438 146.094 212.324 146.094 212.102C146.094 211.88 146.094 211.538 146.094 211.112C146.094 210.23 146.059 208.952 146.038 207.308C146.038 204.008 145.919 199.232 145.786 193.328C145.527 181.52 144.904 165.218 144.141 147.212C143.378 129.206 142.797 112.886 142.601 101.078C142.496 95.1739 142.447 90.3919 142.468 87.0919C142.468 85.4479 142.468 84.1699 142.468 83.2879C142.468 82.8619 142.468 82.5379 142.468 82.2979C142.468 82.0579 142.468 81.9619 142.468 81.9619C142.468 81.9619 142.468 82.0759 142.468 82.2979C142.468 82.5199 142.468 82.8619 142.468 83.2879C142.468 84.1699 142.468 85.4479 142.524 87.0919C142.524 90.3919 142.636 95.1679 142.776 101.072C143.077 112.88 143.7 129.2 144.463 147.2C145.226 165.2 145.807 181.514 146.003 193.322C146.108 199.226 146.15 204.008 146.136 207.308C146.136 208.952 146.136 210.23 146.136 211.112C146.136 211.538 146.136 211.868 146.136 212.102C146.136 212.336 146.094 212.438 146.094 212.438Z" fill="#455A64"/>
<path d="M105.333 133.898C105.438 133.898 105.515 149.57 105.515 168.896C105.515 188.222 105.438 203.894 105.333 203.894C105.228 203.894 105.151 188.228 105.151 168.896C105.151 149.564 105.235 133.898 105.333 133.898Z" fill="#455A64"/>
<path d="M61.59 225.134C61.4576 225.004 61.3404 224.864 61.24 224.714C61.121 224.57 60.988 224.396 60.834 224.198C60.6488 223.963 60.4805 223.719 60.33 223.466C59.3036 221.879 58.5559 220.17 58.111 218.396C57.4653 215.759 57.3188 213.051 57.677 210.374C58.1151 207.097 59.1398 203.898 60.715 200.888C61.5484 199.334 62.6144 197.88 63.886 196.562C64.1756 196.235 64.4864 195.923 64.817 195.626C65.139 195.326 65.447 195.026 65.769 194.738C66.469 194.192 67.078 193.634 67.771 193.16C69.0481 192.229 70.4078 191.384 71.838 190.634C72.538 190.31 73.175 189.968 73.833 189.698C74.491 189.428 75.114 189.14 75.744 188.948C77.6895 188.234 79.7456 187.765 81.848 187.556C82.4163 187.49 82.9895 187.459 83.563 187.466C83.7633 187.452 83.9647 187.452 84.165 187.466C83.9682 187.495 83.7695 187.513 83.57 187.52C83.0002 187.543 82.4323 187.593 81.869 187.67C79.7907 187.923 77.7628 188.42 75.842 189.146C75.219 189.344 74.617 189.644 73.959 189.902C73.301 190.16 72.671 190.502 71.992 190.85C70.5836 191.603 69.245 192.447 67.988 193.376C67.288 193.844 66.679 194.402 66.014 194.942C65.699 195.224 65.391 195.542 65.076 195.818C64.754 196.114 64.4503 196.425 64.166 196.748C62.9146 198.048 61.8652 199.482 61.044 201.014C59.484 203.992 58.4619 207.156 58.013 210.398C57.6414 213.045 57.7595 215.726 58.363 218.342C58.786 220.103 59.4928 221.806 60.463 223.4C60.6023 223.657 60.7613 223.905 60.939 224.144L61.31 224.678C61.4151 224.825 61.5086 224.977 61.59 225.134Z" fill="#455A64"/>
</svg>
