<svg width="326" height="232" viewBox="0 0 326 232" fill="none" xmlns="http://www.w3.org/2000/svg">
<path d="M266.453 98.9091C258.325 77.0568 237.182 60.8166 215.098 62.0088C204.624 62.5781 194.055 66.6435 183.88 63.9583C174.089 61.3751 166.653 53.0295 160.547 44.5066C154.441 35.9837 148.861 26.666 140.546 20.6028C125.685 9.76522 101.771 12.0101 87.2794 23.4169C72.7876 34.8237 62.5114 55.4032 61.9352 74.2749C60.8484 108.646 77.2509 137.979 102.449 159.525C114.383 169.713 164.763 189.514 186.715 188.348C213.869 188.461 230.297 186.641 252.568 164.063C270.067 146.346 273.282 117.281 266.453 98.9091Z" fill="#EBEBEB"/>
<path d="M42.0904 197.951C49.9377 197.951 56.2992 191.192 56.2992 182.855C56.2992 174.517 49.9377 167.758 42.0904 167.758C34.2432 167.758 27.8817 174.517 27.8817 182.855C27.8817 191.192 34.2432 197.951 42.0904 197.951Z" fill="#EBEBEB"/>
<path d="M287.841 93.3074C288.737 89.2473 286.366 85.1841 282.545 84.2318C278.723 83.2795 274.899 85.7988 274.003 89.8589C273.106 93.9189 275.478 97.9822 279.299 98.9344C283.12 99.8867 286.945 97.3674 287.841 93.3074Z" fill="#EBEBEB"/>
<path d="M270.836 182.683C270.79 182.742 270.396 182.489 269.956 182.146C269.516 181.802 269.193 181.415 269.243 181.351C269.294 181.286 269.683 181.539 270.128 181.915C270.573 182.291 270.886 182.602 270.836 182.683Z" fill="#263238"/>
<path d="M282.851 163.601C282.927 161.818 282.972 159.987 282.441 158.295C281.911 156.604 280.682 155.046 279.039 154.686C277.164 154.273 275.238 155.53 274.187 157.232C273.136 158.934 272.777 160.991 272.463 163.011C270.323 176.87 269.534 190.927 270.108 204.959L277.791 206.103C281.188 191.463 282.239 178.66 282.851 163.601Z" fill="#455A64"/>
<path d="M277.973 154.622C277.973 154.622 277.973 154.665 277.938 154.751L277.811 155.122C277.685 155.465 277.518 155.938 277.306 156.529C277.2 156.84 277.053 157.173 276.942 157.549C276.831 157.925 276.699 158.344 276.568 158.784C276.436 159.225 276.29 159.703 276.138 160.207C275.986 160.712 275.88 161.282 275.739 161.819C275.101 164.472 274.607 167.161 274.258 169.874C273.843 172.941 273.57 176.319 273.353 179.912C272.964 187.06 272.903 193.552 272.726 198.246C272.645 200.593 272.569 202.489 272.484 203.799C272.443 204.438 272.413 204.943 272.388 205.308C272.388 205.469 272.388 205.598 272.357 205.7C272.362 205.745 272.362 205.79 272.357 205.835C272.353 205.79 272.353 205.745 272.357 205.7C272.357 205.593 272.357 205.464 272.357 205.308C272.357 204.95 272.372 204.445 272.403 203.794C272.458 202.483 272.504 200.572 272.559 198.241C272.681 193.547 272.711 187.054 273.105 179.895C273.323 176.319 273.611 172.914 274.03 169.837C274.393 167.108 274.91 164.406 275.577 161.743L275.997 160.132L276.446 158.714C276.588 158.274 276.719 157.861 276.846 157.479C276.972 157.098 277.114 156.77 277.23 156.47L277.791 155.079L277.943 154.719C277.948 154.676 277.968 154.617 277.973 154.622Z" fill="#263238"/>
<path d="M278.686 154.627C279.086 155.129 279.402 155.699 279.621 156.314C280.211 157.999 280.45 159.8 280.323 161.593C280.121 166.104 279.737 172.334 279.237 179.176C278.736 186.018 278.165 192.237 277.72 196.721C277.493 198.966 277.296 200.776 277.154 202.027C277.078 202.634 277.023 203.101 276.977 203.466C276.977 203.617 276.942 203.74 276.927 203.842C276.931 203.885 276.931 203.928 276.927 203.971C276.921 203.926 276.921 203.881 276.927 203.837C276.927 203.735 276.927 203.611 276.927 203.461C276.957 203.106 277.002 202.623 277.053 202.016C277.169 200.733 277.331 198.928 277.558 196.699C277.963 192.215 278.494 186.012 278.999 179.154C279.504 172.296 279.919 166.083 280.172 161.588C280.312 159.818 280.105 158.037 279.565 156.357C279.321 155.754 279.026 155.175 278.686 154.627Z" fill="#263238"/>
<path d="M284.008 175.744C283.504 175.705 283.011 175.571 282.552 175.347C282.064 175.211 281.603 174.982 281.193 174.67C282.184 174.845 283.138 175.209 284.008 175.744Z" fill="#263238"/>
<path d="M284.933 167.431C284.519 167.784 284.05 168.061 283.548 168.247C283.077 168.52 282.563 168.701 282.032 168.784C282.446 168.429 282.915 168.151 283.417 167.962C283.89 167.693 284.403 167.513 284.933 167.431Z" fill="#263238"/>
<path d="M284.453 160.642C283.695 160.777 282.917 160.72 282.183 160.476C282.556 160.361 282.949 160.339 283.331 160.411C283.717 160.393 284.101 160.472 284.453 160.642Z" fill="#263238"/>
<path d="M276.527 156.287C276.467 156.33 276.128 155.884 275.779 155.293C275.533 154.955 275.36 154.562 275.274 154.144C275.339 154.101 275.673 154.547 276.027 155.137C276.381 155.728 276.593 156.249 276.527 156.287Z" fill="#263238"/>
<path d="M273.909 160.395C273.561 160.529 273.189 160.572 272.822 160.519C272.452 160.555 272.079 160.496 271.735 160.347C272.085 160.213 272.459 160.17 272.827 160.224C273.429 160.24 273.914 160.315 273.909 160.395Z" fill="#263238"/>
<path d="M272.029 168.607C271.627 168.588 271.235 168.475 270.881 168.274C270.275 168.016 269.81 167.737 269.835 167.667C270.237 167.684 270.629 167.8 270.982 168.005C271.584 168.263 272.059 168.531 272.029 168.607Z" fill="#263238"/>
<path d="M271.832 175.513C271.832 175.594 271.407 175.76 270.851 175.884C270.525 175.999 270.178 176.027 269.84 175.964C269.84 175.884 270.26 175.723 270.816 175.599C271.142 175.481 271.491 175.451 271.832 175.513Z" fill="#263238"/>
<path d="M270.942 186.812C270.942 186.893 270.492 187.049 269.906 187.156C269.319 187.264 268.834 187.296 268.819 187.215C268.804 187.135 269.274 186.984 269.86 186.871C270.446 186.759 270.932 186.732 270.942 186.812Z" fill="#263238"/>
<path d="M270.356 193.048C270.391 193.117 270.007 193.413 269.491 193.697C268.976 193.982 268.536 194.165 268.48 194.095C268.425 194.025 268.829 193.73 269.345 193.44C269.86 193.15 270.32 192.978 270.356 193.048Z" fill="#263238"/>
<path d="M275.147 200.126C275.082 200.169 274.748 199.669 274.394 199.019C274.146 198.644 273.973 198.218 273.889 197.768C273.954 197.731 274.293 198.225 274.642 198.874C274.892 199.249 275.065 199.675 275.147 200.126Z" fill="#263238"/>
<path d="M276.532 188.365C276.588 188.424 276.209 188.902 275.693 189.439C275.178 189.976 274.713 190.368 274.682 190.309C274.652 190.25 275.006 189.772 275.521 189.235C276.037 188.697 276.482 188.305 276.532 188.365Z" fill="#263238"/>
<path d="M276.224 182.194C276.168 182.247 275.82 181.941 275.446 181.512C275.072 181.082 274.814 180.69 274.869 180.636C274.925 180.583 275.274 180.883 275.648 181.313C276.022 181.743 276.28 182.14 276.224 182.194Z" fill="#263238"/>
<path d="M277.179 174.305C277.235 174.358 276.922 174.842 276.477 175.379C276.032 175.916 275.628 176.286 275.572 176.233C275.516 176.179 275.83 175.696 276.275 175.159C276.719 174.622 277.144 174.251 277.179 174.305Z" fill="#263238"/>
<path d="M277.71 168.585C277.66 168.639 277.205 168.274 276.735 167.769C276.264 167.264 275.901 166.802 275.951 166.743C276.002 166.684 276.457 167.055 276.927 167.56C277.397 168.064 277.766 168.526 277.71 168.585Z" fill="#263238"/>
<path d="M278.761 160.846C278.827 160.889 278.61 161.384 278.256 162.006C277.902 162.629 277.599 163.081 277.533 163.016C277.467 162.952 277.685 162.479 278.039 161.856C278.392 161.233 278.701 160.803 278.761 160.846Z" fill="#263238"/>
<path d="M280.743 153.677C280.684 154.094 280.535 154.491 280.308 154.837C280 155.438 279.702 155.911 279.631 155.857C279.693 155.441 279.842 155.045 280.066 154.697C280.374 154.096 280.682 153.639 280.743 153.677Z" fill="#263238"/>
<path d="M282.987 156.937C283.018 157.006 282.714 157.237 282.3 157.474C281.885 157.71 281.526 157.791 281.496 157.721C281.466 157.651 281.769 157.42 282.183 157.211C282.598 157.001 282.952 156.861 282.987 156.937Z" fill="#263238"/>
<path d="M283.043 182.683C282.515 182.691 281.993 182.558 281.526 182.296C281.03 182.122 280.583 181.817 280.227 181.41C281.172 181.809 282.108 182.233 283.033 182.683H283.043Z" fill="#263238"/>
<path d="M282.123 188.134C282.123 188.214 281.673 188.375 281.112 188.493C280.551 188.612 280.04 188.649 280.025 188.569C280.01 188.488 280.475 188.327 281.036 188.209C281.388 188.093 281.76 188.067 282.123 188.134Z" fill="#263238"/>
<path d="M280.996 197.484C280.093 196.907 279.418 196.003 279.095 194.938C279.445 195.332 279.761 195.758 280.04 196.211C280.393 196.605 280.713 197.031 280.996 197.484Z" fill="#263238"/>
<path d="M268.652 201.764C268.602 201.699 268.915 201.329 269.345 200.937C269.774 200.545 270.174 200.271 270.224 200.335C270.275 200.4 269.961 200.765 269.527 201.157C269.092 201.549 268.698 201.823 268.652 201.764Z" fill="#263238"/>
<path d="M265.099 181.356C264.593 179.697 263.663 177.763 262.025 177.736C261.538 177.764 261.067 177.931 260.661 178.219C260.256 178.507 259.931 178.906 259.72 179.374C259.271 180.301 259.057 181.335 259.099 182.376C259.307 189.762 260.498 197.08 262.637 204.111H268.637C268.561 196.378 267.368 188.704 265.099 181.356Z" fill="#455A64"/>
<path d="M254.256 170.916C253.417 167.35 250.915 165.427 248.014 165.25C245.36 165.744 244.334 168.515 244.021 171.356C243.707 174.197 244.526 177.022 245.355 179.745C247.983 188.488 250.614 197.231 253.245 205.974L260.706 205.11C258.346 193.397 256.991 182.538 254.256 170.916Z" fill="#455A64"/>
<path d="M262.025 177.736C261.834 178.022 261.665 178.324 261.52 178.639C261.215 179.539 261.12 180.505 261.242 181.453C261.358 182.666 261.485 184.138 261.677 185.722C261.869 187.306 262.147 189.079 262.48 190.905C263.158 194.567 263.926 197.854 264.406 200.244C264.654 201.441 264.841 202.392 264.957 203.085C265.008 203.396 265.048 203.654 265.083 203.863C265.096 203.954 265.096 204.047 265.083 204.137C265.083 204.137 265.043 204.051 265.003 203.874C264.962 203.697 264.896 203.418 264.826 203.112C264.669 202.403 264.452 201.447 264.194 200.292C263.688 197.913 262.87 194.637 262.172 190.964C261.833 189.127 261.57 187.366 261.389 185.754C261.292 184.949 261.227 184.186 261.166 183.467C261.105 182.747 261.04 182.086 261.004 181.469C260.899 180.491 261.03 179.5 261.383 178.59C261.536 178.259 261.755 177.967 262.025 177.736Z" fill="#263238"/>
<path d="M248.12 165.025C247.79 165.428 247.49 165.857 247.22 166.308C246.531 167.574 246.141 168.999 246.083 170.46C246.05 172.626 246.363 174.784 247.008 176.84C247.66 179.197 248.383 181.786 249.136 184.503C250.622 189.938 251.972 194.852 252.952 198.466L254.079 202.698C254.201 203.182 254.302 203.563 254.373 203.858C254.415 203.991 254.443 204.128 254.459 204.266C254.402 204.14 254.357 204.009 254.322 203.874C254.236 203.584 254.12 203.208 253.978 202.73L252.765 198.525C251.754 194.933 250.389 190.024 248.873 184.605L246.765 176.931C246.123 174.844 245.827 172.654 245.891 170.46C245.966 168.973 246.392 167.531 247.129 166.265C247.391 165.795 247.726 165.376 248.12 165.025Z" fill="#263238"/>
<path d="M259.078 204.261C259.013 204.141 258.957 204.015 258.912 203.885C258.816 203.627 258.654 203.262 258.487 202.768C258.133 201.796 257.673 200.362 257.203 198.558C256.733 196.753 256.263 194.589 255.813 192.167C255.363 189.745 254.903 187.076 254.398 184.283C253.892 181.49 253.301 178.854 252.634 176.496C252.053 174.405 251.325 172.364 250.455 170.39C249.866 169.058 249.19 167.772 248.433 166.539C248.181 166.093 247.928 165.771 247.807 165.54C247.727 165.43 247.657 165.311 247.599 165.186C247.691 165.286 247.776 165.394 247.852 165.508C248.004 165.728 248.251 166.045 248.524 166.475C249.316 167.689 250.018 168.968 250.622 170.298C251.528 172.27 252.284 174.315 252.881 176.415C253.607 178.98 254.206 181.583 254.676 184.213C255.181 187.011 255.636 189.675 256.061 192.102C256.485 194.53 256.945 196.694 257.39 198.493C257.835 200.292 258.265 201.715 258.588 202.72C258.74 203.214 258.881 203.59 258.962 203.853C259.014 203.984 259.053 204.121 259.078 204.261Z" fill="#263238"/>
<path d="M245.486 178.435C245.486 178.515 245.097 178.687 244.582 178.821C244.066 178.955 243.626 178.998 243.611 178.918C243.596 178.837 243.995 178.671 244.516 178.537C245.037 178.402 245.471 178.359 245.486 178.435Z" fill="#263238"/>
<path d="M244.698 173.027C244.289 173.149 243.863 173.198 243.439 173.172C243.017 173.235 242.588 173.22 242.171 173.129C242.565 172.938 242.997 172.851 243.429 172.876C243.857 172.813 244.293 172.864 244.698 173.027Z" fill="#263238"/>
<path d="M245.537 168.102C245.486 168.161 245.082 167.882 244.632 167.473C244.182 167.065 243.854 166.689 243.904 166.63C243.955 166.571 244.359 166.845 244.809 167.253C245.259 167.661 245.588 168.021 245.537 168.102Z" fill="#263238"/>
<path d="M247.827 163.51C247.903 163.51 247.882 163.913 247.872 164.38C247.862 164.847 247.872 165.234 247.781 165.245C247.69 165.255 247.584 164.869 247.599 164.369C247.614 163.87 247.741 163.494 247.827 163.51Z" fill="#263238"/>
<path d="M252.462 165.664C252.528 165.712 252.346 166.104 252.058 166.539C251.769 166.974 251.486 167.291 251.426 167.242C251.365 167.194 251.547 166.807 251.83 166.372C252.113 165.937 252.401 165.621 252.462 165.664Z" fill="#263238"/>
<path d="M255.48 171.238C255.51 171.313 255.126 171.55 254.62 171.775C254.115 172.001 253.68 172.108 253.65 172.033C253.619 171.958 254.009 171.722 254.514 171.496C255.02 171.27 255.454 171.163 255.48 171.238Z" fill="#263238"/>
<path d="M257.314 176.969C256.59 177.494 255.704 177.707 254.838 177.565C255.234 177.398 255.648 177.286 256.071 177.232C256.473 177.086 256.891 176.998 257.314 176.969Z" fill="#263238"/>
<path d="M248.908 175.341C248.833 175.314 248.908 174.922 249.025 174.455C249.141 173.988 249.328 173.634 249.404 173.66C249.48 173.687 249.404 174.079 249.282 174.541C249.161 175.003 248.979 175.363 248.908 175.341Z" fill="#263238"/>
<path d="M250.081 182.538C250.104 182.118 250.219 181.71 250.415 181.345C250.673 180.717 250.92 180.239 251.006 180.271C250.982 180.69 250.866 181.096 250.668 181.458C250.41 182.065 250.147 182.57 250.081 182.538Z" fill="#263238"/>
<path d="M247.18 184.503C246.81 184.5 246.446 184.416 246.108 184.256C245.537 184.063 245.072 183.891 245.097 183.811C245.122 183.73 245.603 183.784 246.194 183.977C246.785 184.17 247.21 184.433 247.18 184.503Z" fill="#263238"/>
<path d="M248.838 190.373C248.883 190.437 248.56 190.76 248.125 191.093C247.69 191.426 247.296 191.63 247.25 191.576C247.205 191.522 247.523 191.189 247.963 190.856C248.403 190.523 248.807 190.309 248.838 190.373Z" fill="#263238"/>
<path d="M250.192 196.222C250.192 196.302 249.813 196.469 249.308 196.597C248.802 196.726 248.378 196.775 248.362 196.694C248.347 196.614 248.737 196.447 249.242 196.318C249.747 196.189 250.172 196.141 250.192 196.222Z" fill="#263238"/>
<path d="M257.461 181.856C257.496 181.92 257.158 182.21 256.667 182.393C256.177 182.575 255.742 182.613 255.732 182.538C255.722 182.463 256.101 182.307 256.571 182.119C257.041 181.931 257.431 181.786 257.461 181.856Z" fill="#263238"/>
<path d="M258.497 190.953C258.467 191.028 258.062 190.899 257.597 190.663C257.132 190.427 256.784 190.185 256.814 190.126C256.844 190.067 257.249 190.18 257.714 190.411C258.179 190.642 258.533 190.883 258.497 190.953Z" fill="#263238"/>
<path d="M260.332 197.467C259.918 197.446 259.513 197.331 259.144 197.129C258.517 196.866 258.027 196.592 258.057 196.517C258.471 196.539 258.876 196.654 259.245 196.855C259.645 196.974 260.016 197.182 260.332 197.467Z" fill="#263238"/>
<path d="M250.485 202.569C250.45 202.494 250.935 202.145 251.496 201.672C252.057 201.2 252.507 200.776 252.558 200.835C252.608 200.894 252.255 201.409 251.668 201.909C251.339 202.24 250.929 202.469 250.485 202.569Z" fill="#263238"/>
<path d="M255.333 199.251C255.252 199.251 255.146 198.821 254.959 198.316C254.772 197.811 254.58 197.403 254.64 197.355C254.701 197.306 255.02 197.661 255.217 198.209C255.414 198.756 255.409 199.251 255.333 199.251Z" fill="#263238"/>
<path d="M254.044 191.426C254.004 191.49 253.69 191.329 253.346 191.071C253.003 190.814 252.765 190.534 252.811 190.481C252.856 190.427 253.164 190.572 253.508 190.835C253.852 191.098 254.089 191.361 254.044 191.426Z" fill="#263238"/>
<path d="M265.341 179.149C265.387 179.219 265.083 179.536 264.664 179.869C264.244 180.202 263.865 180.406 263.82 180.347C263.774 180.287 264.078 179.96 264.497 179.632C264.917 179.305 265.296 179.084 265.341 179.149Z" fill="#263238"/>
<path d="M267.035 184.095C267.035 184.176 266.564 184.283 265.973 184.213C265.382 184.143 264.962 183.934 264.962 183.859C264.962 183.784 265.468 183.859 266.003 183.923C266.539 183.988 267.035 184.015 267.035 184.095Z" fill="#263238"/>
<path d="M259.725 185.207C259.725 185.282 259.301 185.448 258.715 185.491C258.128 185.534 257.704 185.427 257.704 185.346C257.704 185.266 258.159 185.239 258.715 185.201C259.271 185.164 259.71 185.126 259.725 185.207Z" fill="#263238"/>
<path d="M260.357 180.529C260.357 180.61 259.902 180.62 259.417 180.379C258.932 180.137 258.644 179.772 258.694 179.718C258.745 179.664 259.084 179.901 259.528 180.116C259.973 180.33 260.367 180.454 260.357 180.529Z" fill="#263238"/>
<path d="M267.671 189.407C267.631 189.471 267.166 189.245 266.661 188.896C266.155 188.547 265.746 188.204 265.786 188.139C265.827 188.075 266.292 188.295 266.797 188.649C267.302 189.004 267.712 189.337 267.671 189.407Z" fill="#263238"/>
<path d="M285.53 203.284H246.487V210.636H285.53V203.284Z" fill="#00274C"/>
<path d="M249.404 209.175L254.15 231.146H277.422L282.613 209.175H249.404Z" fill="#00274C"/>
<path d="M285.509 210.641C285.509 210.722 276.704 210.791 265.842 210.791C254.979 210.791 246.169 210.722 246.169 210.641C246.169 210.561 254.974 210.496 265.842 210.496C276.709 210.496 285.509 210.566 285.509 210.641Z" fill="#263238"/>
<path d="M263.795 185.368C263.729 185.411 263.466 185.078 263.198 184.627C262.93 184.176 262.774 183.778 262.834 183.735C262.895 183.692 263.168 184.025 263.431 184.471C263.693 184.917 263.86 185.325 263.795 185.368Z" fill="#263238"/>
<path d="M263.81 191.281C263.79 190.896 263.859 190.513 264.012 190.164C264.199 189.573 264.406 189.116 264.477 189.143C264.548 189.17 264.477 189.68 264.275 190.255C264.073 190.83 263.88 191.308 263.81 191.281Z" fill="#263238"/>
<path d="M265.715 197.494C265.645 197.526 265.356 197.032 265.063 196.382C264.845 196.007 264.707 195.585 264.659 195.147C264.73 195.115 265.018 195.609 265.311 196.259C265.532 196.633 265.67 197.055 265.715 197.494Z" fill="#263238"/>
<path d="M261.591 202.473C261.535 202.419 261.768 202.032 262.096 201.613C262.425 201.195 262.768 200.894 262.824 200.942C262.88 200.99 262.647 201.382 262.319 201.801C261.99 202.22 261.651 202.543 261.591 202.473Z" fill="#263238"/>
<path d="M260.726 193.418C260.726 193.493 260.337 193.493 259.887 193.418C259.437 193.343 259.083 193.203 259.094 193.123C259.104 193.042 259.483 193.047 259.933 193.123C260.383 193.198 260.741 193.343 260.726 193.418Z" fill="#263238"/>
<path d="M174.741 82.0459L147.951 71.842C149.705 94.0434 151.408 116.798 145.853 138.28C145.252 140.605 144.721 143.516 146.46 145.063C147.501 145.986 148.987 146.019 150.347 145.976C153.124 145.886 155.895 145.669 158.662 145.326C161.604 144.966 164.727 144.354 166.835 142.13C168.589 140.261 169.297 137.587 169.868 135.025C173.871 117.704 175.512 99.8624 174.741 82.0459Z" fill="#263238"/>
<path d="M130.881 173.687L134.056 169.267L136.179 157.452L141.011 128.694C141.011 128.694 143.139 117.878 149.705 114.779L151.095 143.511L137.7 179.616L130.881 173.687Z" fill="#00274C"/>
<path d="M159.673 106.959L155.725 111.922L149.705 114.768C149.705 114.768 136.452 141.663 136.118 141.915C135.784 142.168 133.636 149.837 134.819 156.373C136.002 162.909 136.841 171.458 136.709 177.613C136.578 183.767 129.001 204.014 128.536 208.665C128.071 213.315 126.514 231.29 126.514 231.29L193.479 230.753C192.871 226.235 192.041 221.753 190.992 217.327C190.992 217.327 190.754 199.476 188.272 196.082C188.272 196.082 190.163 191.431 189.93 188.794C189.698 186.157 199.868 172.076 201.88 167.173C203.891 162.269 211.817 151.061 211.933 143.038C212.05 135.014 210.867 128.205 207.081 122.673C203.295 117.142 196.436 113.372 193.595 111.363L188.035 103.818L159.673 106.959Z" fill="#00274C"/>
<path d="M135.799 231.29C135.793 231.219 135.793 231.147 135.799 231.075C135.799 230.92 135.799 230.71 135.799 230.442C135.799 229.872 135.855 229.062 135.895 228.02C135.981 225.904 136.098 222.864 136.244 219.115C136.305 217.236 136.371 215.174 136.396 212.961C136.396 211.887 136.396 210.716 136.396 209.54C136.375 208.316 136.488 207.094 136.735 205.899C137.303 203.36 138.035 200.866 138.923 198.434C139.379 197.151 139.765 195.843 140.081 194.513C140.207 193.829 140.293 193.136 140.339 192.441L140.536 190.292C140.809 187.435 141.071 184.648 141.324 181.952C141.456 180.604 141.577 179.267 141.703 177.983C141.83 176.7 141.981 175.422 142.017 174.181C142.3 169.792 142.863 165.428 143.7 161.12C144.382 157.425 145.009 154.45 145.413 152.388C145.616 151.373 145.772 150.578 145.879 150.019L146.005 149.402C146.016 149.331 146.033 149.261 146.055 149.192C146.053 149.265 146.044 149.336 146.03 149.407C146.005 149.563 145.975 149.767 145.934 150.03C145.833 150.567 145.691 151.389 145.515 152.415C145.141 154.482 144.544 157.457 143.882 161.158C143.07 165.476 142.526 169.846 142.254 174.24C142.224 175.486 142.057 176.748 141.946 178.048C141.835 179.347 141.703 180.669 141.577 182.016L140.793 190.362L140.596 192.51C140.547 193.217 140.458 193.92 140.328 194.616C140.014 195.957 139.624 197.277 139.161 198.568C138.272 200.988 137.539 203.47 136.967 205.995C136.723 207.17 136.606 208.37 136.618 209.572C136.654 210.759 136.649 211.903 136.618 213.009C136.583 215.222 136.507 217.306 136.436 219.164C136.285 222.923 136.123 225.968 136.007 228.068C135.941 229.11 135.89 229.921 135.855 230.49C135.835 230.755 135.82 230.964 135.81 231.118C135.809 231.176 135.805 231.233 135.799 231.29Z" fill="#263238"/>
<path d="M146.227 148.94C146.227 148.365 148.603 138.618 153.567 130.471C158.53 122.324 159.632 115.214 159.632 115.214L159.713 104.698L160.138 106.052L185.31 102.174L186.073 106.041L169.226 122.211C169.226 122.211 161.442 123.823 161.139 124.048C160.835 124.274 146.227 148.94 146.227 148.94Z" fill="#EFBDA8"/>
<path d="M193.595 111.374C193.532 111.504 193.457 111.628 193.372 111.744C193.221 111.986 192.993 112.34 192.695 112.786C192.099 113.683 191.209 114.961 190.082 116.519C188.955 118.076 187.585 119.907 186.109 121.975C185.371 123.012 184.592 124.123 183.834 125.251C183.644 125.553 183.432 125.841 183.202 126.11C182.951 126.406 182.609 126.597 182.237 126.647C181.863 126.65 181.496 126.538 181.181 126.325C180.867 126.132 180.584 125.928 180.286 125.724L176.818 123.361C176.257 122.979 175.711 122.593 175.17 122.244C174.681 121.867 174.086 121.678 173.482 121.706C172.913 121.818 172.381 122.082 171.935 122.474C171.481 122.84 171.031 123.21 170.561 123.516C169.691 124.084 168.742 124.502 167.75 124.757C166.318 125.138 164.825 125.175 163.378 124.864C163.151 124.82 162.927 124.763 162.706 124.692C162.514 124.633 162.352 124.585 162.2 124.531C162.067 124.489 161.938 124.431 161.816 124.359C161.951 124.39 162.085 124.429 162.215 124.478C162.347 124.521 162.508 124.564 162.721 124.612C162.942 124.672 163.167 124.721 163.393 124.757C164.825 125.025 166.294 124.961 167.7 124.569C168.668 124.304 169.592 123.882 170.439 123.318C170.894 123.017 171.329 122.652 171.794 122.276C172.267 121.851 172.837 121.566 173.447 121.449C174.103 121.404 174.753 121.593 175.297 121.986C175.848 122.346 176.389 122.722 176.955 123.103L180.422 125.46C181.014 125.842 181.585 126.373 182.212 126.341C182.521 126.3 182.805 126.139 183.01 125.89C183.233 125.631 183.438 125.354 183.622 125.063C184.395 123.919 185.169 122.824 185.912 121.792C187.398 119.73 188.788 117.915 189.955 116.374C191.123 114.832 192.008 113.57 192.629 112.695L193.352 111.685C193.427 111.576 193.508 111.472 193.595 111.374Z" fill="#263238"/>
<path d="M155.725 142.055C155.826 141.789 155.951 141.533 156.099 141.293C156.352 140.815 156.741 140.127 157.231 139.289C158.242 137.614 159.648 135.342 161.361 132.936C163.075 130.53 164.738 128.452 165.991 126.991C166.618 126.261 167.134 125.681 167.508 125.289C167.687 125.074 167.883 124.877 168.094 124.698C167.944 124.934 167.775 125.155 167.588 125.359C167.219 125.815 166.729 126.406 166.143 127.12C164.935 128.613 163.292 130.708 161.594 133.108C159.895 135.509 158.434 137.754 157.413 139.397C156.908 140.192 156.519 140.847 156.21 141.352C156.067 141.6 155.905 141.835 155.725 142.055Z" fill="#263238"/>
<path d="M157.899 144.117H157.995L158.283 144.182L159.4 144.434C160.38 144.66 161.816 144.971 163.646 145.385C164.561 145.578 165.577 145.788 166.679 145.992C167.235 146.094 167.811 146.18 168.412 146.276C169.014 146.373 169.636 146.534 170.267 146.711C171.531 147.055 172.855 147.506 174.235 148.016C174.928 148.274 175.63 148.553 176.348 148.849C176.707 148.999 177.066 149.15 177.43 149.316L177.971 149.568L178.244 149.708L178.385 149.789L178.456 149.837L178.491 149.869C178.525 149.902 178.548 149.945 178.557 149.993V150.025L173.28 167.93C172.99 168.507 172.651 169.055 172.269 169.568C171.888 170.111 171.439 170.597 170.935 171.013C170.748 171.164 170.54 171.284 170.318 171.367L169.691 171.593L168.448 172.038L166.011 172.935L161.27 174.627L161.199 174.654L161.144 174.6L156.185 169.718L155.012 168.558C154.615 168.186 154.237 167.792 153.88 167.377C153.529 166.948 153.298 166.423 153.213 165.862C153.147 165.327 153.157 164.784 153.243 164.251C153.921 160.137 154.684 156.534 155.376 153.543C156.069 150.551 156.706 148.172 157.156 146.561L157.691 144.708L157.838 144.236C157.852 144.18 157.873 144.126 157.899 144.074C157.899 144.074 157.899 144.134 157.863 144.241C157.828 144.348 157.787 144.52 157.737 144.724L157.231 146.582C156.807 148.194 156.195 150.573 155.523 153.564C154.851 156.555 154.108 160.164 153.456 164.262C153.372 164.771 153.362 165.291 153.425 165.803C153.504 166.321 153.722 166.804 154.052 167.194C154.401 167.6 154.77 167.986 155.159 168.349L156.337 169.552L161.3 174.423H161.174L165.91 172.72L168.367 171.84L169.61 171.394L170.237 171.168C170.432 171.093 170.614 170.986 170.778 170.851C171.262 170.45 171.693 169.982 172.062 169.461C172.427 168.954 172.75 168.415 173.027 167.849L178.34 149.955L178.436 149.993C175.766 148.772 173.024 147.739 170.227 146.899C169.6 146.722 168.984 146.572 168.392 146.459C167.801 146.346 167.209 146.266 166.653 146.158C165.546 145.949 164.53 145.729 163.621 145.524C161.791 145.111 160.36 144.757 159.385 144.509L158.273 144.219L157.99 144.139C157.929 144.134 157.894 144.123 157.899 144.117Z" fill="#263238"/>
<g opacity="0.3">
<path d="M158.45 206.141C152.596 205.201 144.463 202.607 137.791 201.125C135.41 200.587 133.348 199.986 130.967 199.46L130.558 200.861C137.318 202.411 143.86 204.89 150.018 208.235C153.718 210.249 157.388 212.601 161.503 213.24C166.107 213.96 170.732 212.456 175.15 210.969C177.678 210.125 180.281 209.207 182.065 207.166C183.324 205.722 184.041 203.853 184.704 202.016C186.446 197.158 187.971 192.217 189.278 187.194C181.332 196.678 170.262 208.042 158.45 206.141Z" fill="black"/>
</g>
<path d="M186.048 144.934L169.226 177.801C169.226 177.801 165.324 178.633 165.324 183.021C165.324 183.021 163.964 181.866 161.988 183.118C160.719 183.918 157.145 184.987 155.169 186.109C154.696 186.376 154.323 186.806 154.112 187.328C153.901 187.851 153.863 188.434 154.007 188.982L159.228 209.137C159.228 209.137 165.572 209.137 166.133 207.467L174.832 204.573C174.832 204.573 180.448 203.01 182.621 199.025C184.795 195.04 197.745 174.546 197.745 174.546" fill="#00274C"/>
<path d="M197.745 174.546C197.745 174.546 197.709 174.622 197.629 174.756C197.548 174.89 197.421 175.089 197.27 175.347L195.854 177.629L190.557 186.136C189.43 187.962 188.186 189.97 186.847 192.151C185.507 194.331 184.067 196.673 182.621 199.213C181.831 200.519 180.776 201.62 179.533 202.435C178.25 203.311 176.867 204.009 175.418 204.513L166.173 207.596L166.254 207.51C166.116 207.823 165.883 208.076 165.592 208.23C165.322 208.383 165.037 208.505 164.743 208.595C164.158 208.782 163.559 208.916 162.953 208.998C161.718 209.175 160.474 209.269 159.228 209.277H159.127V209.175L156.18 197.8C155.648 195.756 155.124 193.731 154.608 191.726C154.355 190.717 154.102 189.75 153.85 188.73C153.771 188.197 153.847 187.651 154.069 187.165C154.29 186.679 154.646 186.277 155.088 186.012C156.781 185.172 158.516 184.43 160.284 183.789C160.709 183.612 161.129 183.434 161.533 183.252C161.929 183.014 162.339 182.804 162.761 182.624C163.198 182.451 163.666 182.39 164.129 182.445C164.591 182.5 165.035 182.67 165.425 182.94L165.223 183.042C165.201 181.775 165.602 180.54 166.355 179.557C167.106 178.632 168.113 177.982 169.231 177.699L169.15 177.763C174.175 167.989 178.395 159.783 181.357 154.01L184.82 147.318C185.224 146.55 185.533 145.965 185.745 145.551L185.988 145.106C186.012 145.053 186.041 145.003 186.073 144.955C186.073 144.955 186.073 145.009 186.003 145.111L185.775 145.573C185.573 145.986 185.27 146.583 184.886 147.356C184.092 148.919 182.94 151.196 181.484 154.08L169.353 177.881V177.93H169.297C168.232 178.205 167.274 178.826 166.557 179.707C165.842 180.644 165.464 181.821 165.491 183.026V183.279L165.294 183.128C164.937 182.886 164.532 182.736 164.11 182.69C163.689 182.643 163.264 182.701 162.867 182.86C162.456 183.037 162.055 183.243 161.669 183.477C161.255 183.687 160.83 183.87 160.401 184.047C158.644 184.684 156.921 185.423 155.24 186.259C154.844 186.497 154.526 186.857 154.329 187.292C154.131 187.727 154.063 188.215 154.133 188.692C154.35 189.653 154.638 190.663 154.886 191.657C155.402 193.658 155.926 195.684 156.458 197.736C157.469 201.63 158.455 205.448 159.4 209.105L159.279 209.003C160.513 208.998 161.745 208.909 162.968 208.735C163.562 208.652 164.148 208.521 164.722 208.343C164.998 208.258 165.264 208.143 165.516 207.999C165.755 207.878 165.948 207.675 166.067 207.424L166.092 207.365H166.148L175.393 204.304C176.817 203.806 178.176 203.119 179.437 202.258C180.653 201.463 181.689 200.392 182.469 199.122C183.925 196.581 185.376 194.245 186.715 192.065L190.456 186.066L195.763 177.554L197.209 175.293L197.588 174.713C197.694 174.584 197.745 174.546 197.745 174.546Z" fill="#263238"/>
<path d="M188.641 188.257C188.595 188.157 188.562 188.05 188.545 187.94C188.485 187.704 188.414 187.403 188.323 187.027C188.126 186.189 187.863 185.045 187.534 183.638C186.872 180.787 185.937 176.845 184.835 172.511C183.733 168.177 182.672 164.273 181.888 161.448L180.963 158.102L180.715 157.194C180.681 157.088 180.659 156.978 180.65 156.867C180.7 156.965 180.739 157.07 180.766 157.178L181.059 158.07C181.307 158.854 181.651 159.987 182.07 161.389C182.899 164.197 183.986 168.102 185.103 172.436C186.22 176.77 187.125 180.728 187.731 183.595C188.04 185.029 188.282 186.195 188.439 187L188.611 187.929C188.628 188.038 188.638 188.147 188.641 188.257Z" fill="white"/>
<path d="M182.505 198.531C182.434 198.531 181.029 190.76 179.371 181.147C177.713 171.533 176.419 163.72 176.49 163.703C176.561 163.687 177.966 171.474 179.629 181.093C181.292 190.711 182.576 198.52 182.505 198.531Z" fill="white"/>
<path d="M154.82 152.914C154.861 152.979 152.394 154.837 149.316 157.065C146.237 159.294 143.7 161.045 143.66 160.98C143.619 160.916 146.086 159.058 149.164 156.834C152.242 154.611 154.78 152.85 154.82 152.914Z" fill="white"/>
<path d="M153.183 159.928C153.078 160.079 152.955 160.217 152.819 160.336C152.571 160.589 152.212 160.938 151.757 161.362C150.847 162.216 149.574 163.365 148.123 164.584C146.672 165.803 145.333 166.872 144.347 167.618C143.841 167.994 143.452 168.29 143.169 168.488C143.027 168.599 142.874 168.694 142.714 168.773C142.83 168.63 142.962 168.504 143.109 168.397L144.236 167.457C145.196 166.673 146.515 165.588 147.961 164.364C149.407 163.14 150.701 162.022 151.636 161.206L152.753 160.25C152.882 160.123 153.027 160.015 153.183 159.928Z" fill="white"/>
<path d="M142.184 160.691C142.123 160.739 140.364 158.285 138.256 155.218C136.148 152.152 134.48 149.622 134.541 149.574C134.602 149.525 136.355 151.98 138.468 155.052C140.581 158.123 142.249 160.648 142.184 160.691Z" fill="white"/>
<path d="M141.309 170.105C140.98 169.869 140.68 169.591 140.414 169.278C139.909 168.741 139.191 167.957 138.468 167.049C137.746 166.142 137.139 165.282 136.724 164.638C136.479 164.308 136.274 163.947 136.113 163.564C136.398 163.853 136.654 164.173 136.876 164.52C137.326 165.132 137.953 165.964 138.671 166.867C139.388 167.769 140.061 168.569 140.546 169.144C140.83 169.436 141.085 169.758 141.309 170.105Z" fill="white"/>
<path d="M187.282 119.693C186.847 119.428 186.432 119.13 186.038 118.801L183.127 116.546C181.989 115.66 180.973 114.843 180.25 114.231C179.842 113.921 179.463 113.571 179.118 113.184C179.555 113.442 179.971 113.739 180.362 114.07L183.283 116.32C184.421 117.206 185.442 118.023 186.164 118.635C186.57 118.946 186.944 119.301 187.282 119.693Z" fill="white"/>
<path d="M189.587 116.299C188.317 115.361 187.098 114.348 185.937 113.264C184.719 112.249 183.554 111.162 182.449 110.01C183.722 110.947 184.942 111.962 186.104 113.049C187.322 114.061 188.485 115.146 189.587 116.299Z" fill="white"/>
<path d="M165.299 150.379C165.369 150.379 164.47 155.75 163.277 162.296C162.084 168.843 161.073 174.17 161.002 174.159C160.931 174.149 161.836 168.789 163.024 162.242C164.212 155.696 165.228 150.336 165.299 150.379Z" fill="white"/>
<path d="M178.097 190.346C177.944 190.292 177.798 190.218 177.662 190.126C177.384 189.97 177 189.723 176.53 189.401C175.321 188.544 174.193 187.564 173.164 186.474C172.135 185.383 171.212 184.184 170.409 182.897C170.106 182.403 169.873 181.995 169.727 181.7C169.638 181.555 169.57 181.398 169.524 181.232C169.56 181.232 169.919 181.834 170.566 182.784C171.405 184.027 172.336 185.196 173.351 186.281C174.373 187.355 175.471 188.345 176.636 189.24C177.536 189.922 178.122 190.303 178.097 190.346Z" fill="#263238"/>
<path d="M178.653 180.035C178.187 180.188 177.705 180.28 177.218 180.309C174.868 180.566 172.494 180.299 170.247 179.525C169.776 179.389 169.322 179.191 168.898 178.934C168.898 178.896 169.438 179.09 170.303 179.337C171.423 179.663 172.565 179.893 173.72 180.024C174.877 180.151 176.041 180.182 177.203 180.115C177.684 180.058 178.169 180.032 178.653 180.035Z" fill="#263238"/>
<path d="M142.507 128.978C142.501 129.023 142.489 129.066 142.472 129.107L142.335 129.472C142.224 129.795 142.032 130.262 141.774 130.853C141.269 132.039 140.394 133.694 139.272 135.686C137.904 137.992 136.74 140.428 135.794 142.963L135.612 143.5L135.461 144.037C135.365 144.413 135.264 144.8 135.168 145.186C135.06 145.575 134.98 145.972 134.93 146.373C134.869 146.776 134.804 147.184 134.738 147.598C134.647 148.425 134.596 149.273 134.551 150.132C134.551 150.562 134.551 150.997 134.551 151.437C134.551 151.878 134.551 152.313 134.586 152.753C134.832 156.104 135.267 159.436 135.89 162.731C136.385 165.418 136.733 168.133 136.932 170.862C137.033 172.022 136.982 173.086 136.997 174.015C136.927 174.938 136.886 175.739 136.81 176.388C136.735 177.038 136.623 177.511 136.563 177.871L136.492 178.252C136.485 178.296 136.473 178.34 136.457 178.381C136.451 178.336 136.451 178.291 136.457 178.247C136.457 178.146 136.472 178.018 136.502 177.86C136.548 177.5 136.613 177.001 136.699 176.378C136.785 175.755 136.785 174.933 136.841 174.009C136.81 173.086 136.841 172.033 136.735 170.873C136.508 168.156 136.143 165.455 135.643 162.78C135.008 159.495 134.566 156.171 134.318 152.828C134.283 152.383 134.278 151.942 134.283 151.497C134.288 151.051 134.283 150.621 134.283 150.181C134.334 149.316 134.384 148.457 134.475 147.619C134.546 147.206 134.612 146.792 134.677 146.384C134.728 145.977 134.807 145.575 134.915 145.181C135.021 144.789 135.122 144.402 135.223 144.021L135.375 143.452C135.436 143.264 135.501 143.081 135.562 142.915C136.519 140.371 137.704 137.93 139.1 135.627C140.237 133.634 141.122 132.002 141.668 130.831C141.936 130.246 142.143 129.795 142.275 129.478C142.335 129.333 142.386 129.22 142.431 129.123C142.448 129.07 142.474 129.021 142.507 128.978Z" fill="#263238"/>
<path d="M159.673 106.959L159.607 107.072L159.405 107.384C159.228 107.663 158.94 108.055 158.561 108.549C157.797 109.543 156.64 110.928 155.179 112.631C154.456 113.49 153.663 114.424 152.803 115.434C151.944 116.444 151.055 117.55 150.2 118.785C148.454 121.576 147.335 124.757 146.93 128.081L146.682 128.006C147.09 127.184 147.565 126.402 148.103 125.67C148.376 125.278 148.648 124.886 148.901 124.488C149.028 124.29 149.154 124.091 149.265 123.887L149.432 123.581L149.513 123.425L149.548 123.345V123.307L149.579 123.259C149.595 123.238 149.616 123.222 149.64 123.212C149.664 123.203 149.69 123.2 149.715 123.205C149.738 123.209 149.761 123.219 149.78 123.234C149.799 123.249 149.815 123.268 149.826 123.291V123.323V123.366L149.857 123.452L149.917 123.624C149.962 123.735 149.998 123.85 150.023 123.968C150.09 124.199 150.139 124.436 150.17 124.676C150.241 125.145 150.27 125.62 150.256 126.094C150.137 127.874 149.86 129.638 149.427 131.363C148.835 134.714 147.754 137.582 147.112 140.047C146.548 141.98 146.233 143.985 146.177 146.008C146.17 146.557 146.193 147.105 146.247 147.651C146.247 147.823 146.283 147.968 146.293 148.075C146.301 148.125 146.301 148.176 146.293 148.226C146.139 147.498 146.062 146.754 146.066 146.008C146.084 143.969 146.375 141.944 146.93 139.993C147.552 137.506 148.608 134.622 149.184 131.309C149.606 129.599 149.877 127.852 149.993 126.089C150.005 125.63 149.976 125.172 149.907 124.719C149.877 124.49 149.83 124.264 149.766 124.043C149.744 123.93 149.711 123.821 149.67 123.715L149.609 123.554L149.584 123.473V123.43C149.624 123.43 149.482 123.468 149.68 123.377C149.594 123.328 149.801 123.436 149.776 123.43V123.468L149.766 123.527L149.685 123.694L149.513 124.01C149.392 124.22 149.27 124.424 149.139 124.623C148.881 125.025 148.608 125.418 148.335 125.815C147.808 126.531 147.341 127.295 146.94 128.097L146.566 128.935L146.692 128.022C147.103 124.654 148.247 121.434 150.033 118.619C150.898 117.373 151.813 116.282 152.667 115.267C153.521 114.252 154.335 113.329 155.073 112.48C156.549 110.794 157.727 109.43 158.505 108.463C158.894 107.974 159.193 107.598 159.385 107.33L159.607 107.035C159.637 106.986 159.668 106.954 159.673 106.959Z" fill="#263238"/>
<path d="M160.719 183.606C160.786 183.658 160.845 183.72 160.896 183.789L161.366 184.353C161.617 184.646 161.852 184.954 162.069 185.276C162.327 185.652 162.645 186.066 162.933 186.56C163.221 187.054 163.565 187.591 163.868 188.198C164.171 188.805 164.49 189.455 164.808 190.153C165.455 191.687 165.976 193.277 166.365 194.906C166.728 196.541 166.96 198.207 167.058 199.884C167.058 200.657 167.113 201.393 167.058 202.08C167.049 202.72 167.008 203.358 166.936 203.992C166.901 204.578 166.8 205.099 166.734 205.555C166.681 205.948 166.607 206.337 166.512 206.721L166.34 207.451C166.326 207.539 166.301 207.624 166.264 207.703C166.26 207.615 166.268 207.526 166.289 207.44C166.325 207.236 166.365 206.994 166.411 206.699C166.456 206.404 166.542 205.99 166.588 205.528C166.633 205.066 166.729 204.556 166.754 203.971C166.78 203.386 166.845 202.763 166.84 202.075C166.835 201.388 166.84 200.668 166.8 199.9C166.69 198.241 166.453 196.594 166.092 194.975C165.71 193.362 165.202 191.785 164.576 190.26C164.268 189.567 163.989 188.901 163.666 188.311C163.342 187.72 163.059 187.161 162.766 186.673C162.473 186.184 162.185 185.749 161.942 185.373C161.7 184.997 161.467 184.675 161.275 184.423L160.845 183.826C160.796 183.758 160.753 183.685 160.719 183.606Z" fill="#263238"/>
<path d="M176.768 154.353C176.506 154.287 176.25 154.196 176.005 154.08L173.947 153.279C172.203 152.608 169.777 151.754 167.048 150.986C164.318 150.218 161.806 149.676 159.971 149.337L157.808 148.951C157.54 148.918 157.274 148.864 157.014 148.79C157.285 148.781 157.555 148.799 157.823 148.843C158.328 148.897 159.081 148.999 160.001 149.144C162.385 149.533 164.747 150.056 167.078 150.712C169.433 151.374 171.753 152.168 174.028 153.091C174.892 153.451 175.585 153.752 176.05 153.983C176.299 154.084 176.539 154.208 176.768 154.353Z" fill="#263238"/>
<g opacity="0.3">
<path d="M174.028 192.231C173.658 191.505 173.176 190.85 172.603 190.292L165.344 182.441V183.021C166.957 184.186 167.3 186.549 167.765 188.563C168.23 190.577 168.635 192.731 169.954 194.261C170.475 194.906 171.189 195.34 171.976 195.491C172.366 195.562 172.766 195.516 173.133 195.357C173.499 195.199 173.816 194.934 174.048 194.594C174.229 194.229 174.322 193.822 174.319 193.41C174.315 192.998 174.215 192.593 174.028 192.231Z" fill="black"/>
</g>
<g opacity="0.3">
<path d="M164.055 173.606C163.282 173.993 162.421 174.136 161.573 174.02C160.856 173.771 160.21 173.331 159.698 172.742L153.658 166.893C155.386 169.579 156.771 172.328 158.5 175.03C158.965 175.76 159.481 176.528 160.259 176.829C161.038 177.129 161.978 176.866 162.786 176.539C165.692 175.351 168.32 173.508 170.49 171.136L164.055 173.606Z" fill="black"/>
</g>
<g opacity="0.3">
<path d="M156.468 140.439C162.114 137.565 164.146 129.585 169.752 126.615C171.367 125.785 173.162 125.427 174.951 125.58C176.74 125.733 178.457 126.391 179.927 127.485C180.897 128.226 181.974 129.214 183.127 128.865C183.996 128.602 184.496 127.662 184.906 126.808C186.308 123.894 187.71 120.976 189.111 118.055L183.597 124.961C183.244 125.501 182.745 125.913 182.166 126.143C181.054 126.449 180.25 125.122 179.224 124.58C176.03 122.888 173.786 120.756 172.006 122.185C172.006 122.185 168.898 124.456 167.654 124.698L156.468 140.213" fill="black"/>
</g>
<g opacity="0.3">
<path d="M146.854 146.282C146.389 143.639 146.945 140.718 147.971 138.264C148.997 135.809 150.286 133.43 150.918 130.842C151.424 128.758 151.494 126.583 151.125 124.467C150.948 123.479 150.68 122.475 150.883 121.492C151.039 120.87 151.296 120.281 151.641 119.752C152.918 117.579 154.394 115.547 156.049 113.683L159.587 108.044C159.587 108.044 159.739 114.596 159.622 115.214C159.246 117.154 158.739 119.064 158.106 120.928C157.066 123.971 155.724 126.887 154.103 129.628C152.195 132.783 150.533 136.099 149.134 139.542L146.854 146.282Z" fill="black"/>
</g>
<path d="M169.226 122.211C162.064 120.418 159.865 116.632 159.779 109.94L159.673 101.422C159.673 101.422 151.742 100.987 149.892 88.4368C148.972 82.1963 148.173 72.1106 148.689 63.7328C149.149 56.2142 156.509 42.9384 163.56 43.7494L182.94 53.7652C183.973 53.8846 184.927 54.4114 185.613 55.2416C186.299 56.0718 186.667 57.1451 186.645 58.2495L185.128 106.89" fill="#EFBDA8"/>
<path d="M151.717 72.9753C151.716 73.3916 151.868 73.7919 152.139 74.0923C152.411 74.3927 152.781 74.5697 153.172 74.5864C153.365 74.6032 153.559 74.5787 153.743 74.5145C153.927 74.4502 154.096 74.3474 154.242 74.2122C154.388 74.077 154.506 73.9121 154.591 73.7273C154.675 73.5425 154.724 73.3416 154.734 73.1364C154.735 72.7209 154.584 72.3213 154.314 72.0211C154.043 71.7209 153.674 71.5432 153.284 71.5252C153.091 71.5092 152.897 71.5341 152.713 71.5986C152.529 71.6631 152.36 71.7659 152.214 71.9009C152.068 72.0359 151.949 72.2004 151.863 72.3849C151.778 72.5694 151.728 72.7701 151.717 72.9753Z" fill="#263238"/>
<path d="M150.777 69.5113C150.938 69.6617 152.131 69.5113 153.713 69.9033C155.295 70.2954 156.377 71.0633 156.564 70.9774C156.66 70.9774 156.504 70.7089 156.033 70.3706C155.339 69.902 154.575 69.5607 153.774 69.3609C153.004 69.1479 152.204 69.0878 151.413 69.1837C150.893 69.2857 150.696 69.4361 150.777 69.5113Z" fill="#263238"/>
<path d="M166.881 73.4587C166.881 73.8759 167.033 74.277 167.305 74.5775C167.578 74.878 167.949 75.0545 168.342 75.0698C168.534 75.0858 168.728 75.0609 168.911 74.9963C169.095 74.9317 169.264 74.8289 169.41 74.6938C169.555 74.5588 169.674 74.3942 169.759 74.2097C169.843 74.0253 169.893 73.8247 169.904 73.6198C169.904 73.2034 169.752 72.8031 169.481 72.5027C169.21 72.2024 168.839 72.0253 168.448 72.0086C168.255 71.9926 168.061 72.0175 167.877 72.082C167.694 72.1465 167.524 72.2493 167.378 72.3843C167.232 72.5193 167.113 72.6838 167.028 72.8683C166.942 73.0528 166.892 73.2535 166.881 73.4587Z" fill="#263238"/>
<path d="M166.82 70.8593C167.058 70.9183 168.104 70.0698 169.813 69.5865C171.521 69.1031 172.931 69.2374 173.078 69.0494C173.154 68.9689 172.886 68.8131 172.269 68.7379C171.375 68.66 170.474 68.7527 169.61 69.0118C168.768 69.2334 167.975 69.6274 167.275 70.1719C166.82 70.5639 166.709 70.8324 166.82 70.8593Z" fill="#263238"/>
<path d="M160.84 82.2608C160.84 82.1641 159.829 81.9762 158.192 81.7506C157.777 81.7023 157.383 81.6163 157.312 81.3102C157.28 80.8548 157.379 80.3997 157.595 80.0052C157.99 78.9311 158.399 77.8141 158.834 76.638C160.552 71.8529 161.796 67.9164 161.614 67.8412C161.432 67.766 159.89 71.6005 158.172 76.3802L156.989 79.7635C156.723 80.2953 156.644 80.9103 156.766 81.4982C156.824 81.659 156.915 81.8036 157.033 81.921C157.152 82.0383 157.294 82.1251 157.449 82.1749C157.679 82.2415 157.917 82.2758 158.156 82.2769C159.809 82.3521 160.83 82.3628 160.84 82.2608Z" fill="#263238"/>
<path d="M159.673 101.546C165.23 101.65 170.706 100.112 175.489 97.1045C175.489 97.1045 171.501 105.944 159.673 104.731V101.546Z" fill="#D1967C"/>
<path d="M161.098 86.4712C161.907 85.1877 163.12 84.323 164.232 84.2747C164.604 84.2372 164.978 84.3196 165.305 84.5112C165.633 84.7028 165.898 84.9947 166.067 85.3488C166.244 85.8158 166.312 86.3212 166.266 86.8222C166.221 87.3232 166.062 87.8052 165.804 88.2273C165.554 88.6716 165.188 89.0283 164.749 89.2536C164.311 89.4788 163.82 89.5627 163.337 89.4948C162.547 89.2475 161.843 88.7558 161.316 88.0823C161.134 87.9138 160.992 87.7022 160.901 87.4647C160.858 87.3125 160.848 87.1522 160.871 86.9953C160.894 86.8383 160.949 86.6887 161.032 86.5571" fill="#D1967C"/>
<path d="M165.632 83.4692C165.364 83.4692 165.359 85.3327 163.843 86.6914C162.327 88.0502 160.446 87.8085 160.431 88.0716C160.406 88.1898 160.851 88.4368 161.644 88.4637C162.68 88.478 163.689 88.1077 164.495 87.4164C165.268 86.747 165.765 85.7837 165.88 84.7312C165.941 83.9257 165.754 83.4584 165.632 83.4692Z" fill="#263238"/>
<path d="M165.496 63.2924C165.698 63.7435 167.295 63.3515 169.221 63.3945C171.147 63.4374 172.734 63.8295 172.952 63.3945C173.042 63.1796 172.734 62.7661 172.072 62.3794C171.193 61.91 170.225 61.6593 169.242 61.6463C168.258 61.6333 167.285 61.8583 166.396 62.3043C165.723 62.6694 165.405 63.0722 165.496 63.2924Z" fill="#263238"/>
<path d="M150.271 65.6984C150.63 66.0905 152.025 65.6984 153.698 65.6555C155.371 65.6125 156.797 65.9132 157.125 65.5051C157.267 65.301 157.039 64.909 156.423 64.5384C155.56 64.0743 154.599 63.8542 153.632 63.8993C152.673 63.9062 151.732 64.1803 150.903 64.6941C150.317 65.1023 150.119 65.5266 150.271 65.6984Z" fill="#263238"/>
<path d="M203.603 110.557C201.03 106.138 198.928 95.1228 198.043 89.5429C197.158 83.9631 194.363 66.058 189.885 56.649C185.406 47.24 180.134 43.4377 174.963 41.9555C173.002 41.3356 170.923 41.263 168.928 41.7446C166.932 42.2262 165.087 43.2458 163.57 44.7052C161.235 46.9232 160.436 53.3892 160.436 53.3892C160.436 53.3892 172.916 56.3375 177.117 63.8991C181.944 72.5831 183.116 76.9493 183.116 76.9493L184.678 81.7021C184.678 81.7021 183.213 90.8963 182.656 95.4451C182.1 99.9938 182.975 104.21 186.498 106.052L193.575 111.374C193.575 111.374 202.835 118.06 203.259 118.404C205.236 120.015 209.113 126.121 209.113 126.121C209.113 126.121 208.865 119.596 203.603 110.557Z" fill="#263238"/>
<path d="M160.077 53.4699C160.077 53.4699 152.94 52.6374 150.301 61.2301C149.114 65.1022 148.199 76.2674 148.199 76.2674C148.199 76.2674 147.157 67.3847 147.542 62.3042C147.926 57.2238 150.306 50.8222 153.966 47.267C157.504 43.8138 160.537 42.1919 166.881 42.6055C166.881 42.6055 163.919 43.6796 162.291 46.252C161.477 47.557 161.123 48.6472 160.077 53.4699Z" fill="#263238"/>
<path d="M183.026 77.61C183.152 74.8335 185.998 72.986 188.262 74.3877C189.506 75.1557 190.461 76.6916 190.345 79.6346C190.041 87.497 182.677 85.5421 182.672 85.3219C182.672 85.1662 182.869 80.8645 183.026 77.61Z" fill="#EFBDA8"/>
<path d="M185.047 82.4272C185.083 82.4272 185.174 82.5292 185.386 82.6474C185.687 82.7997 186.031 82.8209 186.346 82.7065C187.14 82.438 187.863 81.149 187.944 79.7366C187.987 79.0633 187.889 78.3881 187.656 77.7603C187.594 77.5155 187.478 77.2902 187.317 77.1032C187.156 76.9163 186.955 76.7732 186.731 76.6862C186.584 76.6374 186.425 76.6451 186.283 76.708C186.14 76.7708 186.023 76.8848 185.952 77.0299C185.846 77.2447 185.886 77.4005 185.846 77.4166C185.806 77.4327 185.694 77.277 185.765 76.9547C185.814 76.7612 185.922 76.5909 186.073 76.4714C186.286 76.3209 186.544 76.2614 186.796 76.3049C187.097 76.3833 187.374 76.5418 187.602 76.7654C187.829 76.989 187.999 77.2704 188.095 77.5831C188.384 78.2764 188.507 79.0344 188.454 79.7903C188.348 81.3746 187.529 82.8246 186.432 83.1039C186.232 83.1568 186.023 83.1611 185.821 83.1165C185.619 83.0719 185.429 82.9795 185.265 82.8461C185.052 82.6205 185.022 82.4433 185.047 82.4272Z" fill="#D1967C"/>
<path d="M172.006 41.4616C172.006 41.5207 170.995 41.4616 169.383 41.714C168.446 41.8492 167.536 42.1391 166.684 42.5733C165.653 43.1269 164.733 43.8874 163.974 44.8127C162.566 46.4876 161.54 48.4853 160.977 50.6504C160.547 52.3152 160.497 53.3947 160.441 53.3893C160.427 53.1366 160.436 52.8831 160.466 52.6321C160.53 51.9479 160.64 51.2695 160.795 50.6021C161.317 48.3835 162.341 46.3337 163.777 44.6301C165.183 42.869 167.175 41.7546 169.337 41.5207C169.982 41.4444 170.63 41.4103 171.278 41.4186C171.522 41.4067 171.766 41.4211 172.006 41.4616Z" fill="#455A64"/>
<path d="M189.87 83.2918C189.863 83.2492 189.863 83.2056 189.87 83.1629L189.93 82.7978C189.961 82.6313 190.001 82.4326 190.041 82.2016C190.082 81.9707 190.112 81.6646 190.153 81.3853C190.364 79.6401 190.342 77.8717 190.087 76.133C189.716 73.556 188.845 71.089 187.529 68.8883C185.851 66.2368 183.631 64.0227 181.034 62.4116C179.705 61.5533 178.325 60.7856 176.904 60.113C175.534 59.4417 174.16 58.9208 172.86 58.3086C170.633 57.2009 168.489 55.9136 166.446 54.458C164.692 53.2228 163.327 52.1379 162.402 51.37C161.942 50.9833 161.583 50.6826 161.351 50.4677L161.083 50.2261C161.022 50.167 160.992 50.1401 160.997 50.1348L161.098 50.2046L161.381 50.4248L162.468 51.284C163.413 52.0252 164.793 53.0831 166.552 54.2915C168.609 55.7138 170.763 56.9704 172.997 58.0508C174.256 58.6523 175.641 59.1732 177.041 59.8391C178.472 60.5152 179.861 61.2865 181.201 62.1484C183.834 63.781 186.082 66.0312 187.772 68.7272C189.095 70.9619 189.957 73.4697 190.299 76.0847C190.546 77.8383 190.546 79.621 190.299 81.3746L190.163 82.1963C190.112 82.4218 190.067 82.6205 190.031 82.787L189.94 83.1522C189.89 83.2489 189.875 83.2972 189.87 83.2918Z" fill="#455A64"/>
<path d="M191.583 80.3275C191.58 80.2846 191.58 80.2415 191.583 80.1986C191.583 80.0966 191.583 79.973 191.583 79.8227C191.583 79.4897 191.618 79.0064 191.583 78.378C191.543 73.9797 190.596 69.6441 188.808 65.6769C187.5 62.7864 185.755 60.1432 183.642 57.8522C181.489 55.6019 179.053 53.679 176.404 52.1381C173.988 50.6666 171.708 49.5334 169.833 48.5506C167.957 47.5678 166.401 46.773 165.354 46.1823C164.849 45.8976 164.434 45.6452 164.161 45.4948L163.853 45.3069C163.816 45.2866 163.782 45.2614 163.752 45.2317C163.752 45.2317 163.792 45.2317 163.868 45.28L164.187 45.4411L165.4 46.0856C166.456 46.6226 168.003 47.4228 169.914 48.368C171.824 49.3132 174.109 50.4518 176.545 51.9125C179.221 53.4537 181.68 55.3862 183.849 57.6535C185.98 59.9696 187.737 62.6422 189.051 65.5642C190.106 67.9558 190.864 70.4833 191.305 73.0828C191.596 74.8322 191.73 76.6071 191.704 78.3834C191.704 79.0117 191.649 79.5004 191.634 79.828C191.634 79.9784 191.608 80.1019 191.603 80.204C191.602 80.2459 191.595 80.2874 191.583 80.3275Z" fill="#455A64"/>
<path d="M191.366 109.698C191.319 109.625 191.282 109.545 191.255 109.462L190.977 108.764C190.855 108.458 190.714 108.082 190.582 107.636C190.451 107.19 190.274 106.685 190.143 106.111C190.072 105.821 189.996 105.525 189.92 105.214C189.844 104.902 189.789 104.57 189.718 104.231C189.566 103.549 189.475 102.813 189.354 102.045C189.148 100.364 189.028 98.6713 188.995 96.9757C188.971 93.8994 189.114 90.8241 189.425 87.7654C189.541 86.5947 189.642 85.6495 189.723 84.9943C189.763 84.6935 189.794 84.4572 189.819 84.2424C189.828 84.1532 189.845 84.065 189.87 83.9792C189.881 84.0683 189.881 84.1587 189.87 84.2478L189.819 85.005C189.763 85.7032 189.693 86.6161 189.607 87.7869C189.435 90.1338 189.197 93.3829 189.253 96.9703C189.284 98.6546 189.397 100.336 189.592 102.008C189.703 102.776 189.789 103.512 189.925 104.156C189.991 104.494 190.041 104.822 190.112 105.139L190.319 106.03C190.436 106.605 190.597 107.104 190.719 107.561C190.84 108.017 190.961 108.388 191.068 108.699C191.174 109.011 191.234 109.236 191.3 109.414C191.338 109.503 191.36 109.6 191.366 109.698Z" fill="#455A64"/>
<path d="M97.7932 181.839C97.7932 181.839 105.83 192.795 108.711 193.654C111.593 194.514 122.506 197.387 122.506 197.387L158.318 206.178L154.103 189.868L120.186 189.379L97.7932 181.839Z" fill="#EFBDA8"/>
<path d="M51.7449 126.051C54.429 133.124 67.9553 165.481 71.0892 172.973C71.2929 173.461 71.5921 173.897 71.9669 174.253C72.3417 174.608 72.7834 174.875 73.2628 175.035L115.833 189.396L158.07 192.747V191.27L123.926 180.277L113.139 178.934L97.035 136.508C96.6721 135.551 96.0874 134.708 95.3353 134.056C94.5832 133.405 93.6881 132.966 92.7334 132.781L52.589 124.961C52.456 124.936 52.319 124.95 52.1923 124.999C52.0656 125.049 51.9536 125.134 51.8677 125.245C51.7819 125.356 51.7253 125.489 51.7037 125.63C51.6821 125.772 51.6963 125.917 51.7449 126.051Z" fill="#455A64"/>
<path d="M158.07 191.27H157.934L157.545 191.238L156.028 191.093L150.493 190.502L142.29 189.583L132.236 188.509C128.667 188.133 125.265 187.849 122.167 187.661L117.764 187.371C117.425 187.348 117.087 187.302 116.753 187.231C116.579 187.198 116.409 187.14 116.248 187.059C116.085 186.974 115.95 186.837 115.864 186.667C115.599 186.07 115.366 185.456 115.166 184.831C114.342 182.516 113.65 180.631 113.2 179.304C112.978 178.665 112.806 178.161 112.694 177.795L112.563 177.398C112.547 177.355 112.535 177.31 112.528 177.264C112.528 177.264 112.528 177.301 112.588 177.393L112.74 177.774C112.881 178.134 113.069 178.633 113.311 179.267L115.358 184.766C115.558 185.375 115.789 185.972 116.051 186.555C116.12 186.689 116.226 186.797 116.354 186.866C116.497 186.932 116.646 186.981 116.799 187.011C117.133 187.078 117.47 187.119 117.81 187.135C119.185 187.204 120.666 187.312 122.212 187.408C125.316 187.58 128.728 187.854 132.297 188.23L142.35 189.304L150.554 190.276L156.084 190.953L157.6 191.152L157.99 191.205L158.07 191.27Z" fill="#263238"/>
<path d="M136.244 182.602C136.244 182.602 136.856 178.338 136.244 177.495C135.633 176.652 131.331 172.543 131.331 172.543L128.89 170.105L123.506 169.23C123.188 169.178 122.863 169.226 122.571 169.37C122.279 169.513 122.033 169.744 121.864 170.035L121.313 170.975L119.852 170.717L118.563 168.736H114.974L112.32 171.781V175.894C112.32 175.894 112.679 177.038 113.614 176.2C114.55 175.363 114.625 173.043 114.625 173.043L116.218 174.6L114.524 180.089C114.524 180.089 115.712 181.238 116.576 180.089C117.441 178.939 118.654 177.269 118.654 177.269C118.654 177.269 120.089 181.383 122.526 182.602C124.962 183.821 130.846 184.933 132.069 184.643C133.292 184.353 136.012 184.885 136.244 182.602Z" fill="#EFBDA8"/>
<path d="M127.727 173.247C127.727 173.247 127.727 173.311 127.631 173.402C127.513 173.532 127.367 173.63 127.206 173.687C126.955 173.779 126.689 173.819 126.423 173.805C126.115 173.805 125.776 173.725 125.412 173.687C125.025 173.616 124.628 173.682 124.28 173.875C123.921 174.186 123.603 174.547 123.335 174.949C122.982 175.413 122.546 175.799 122.052 176.084C121.559 176.369 121.017 176.547 120.458 176.608C119.996 176.645 119.533 176.555 119.113 176.347C118.692 176.139 118.329 175.821 118.057 175.422L118.002 175.336L118.073 175.26C119.016 174.205 119.886 173.078 120.676 171.888C121.257 171.002 121.571 170.459 121.601 170.475C121.557 170.622 121.494 170.761 121.414 170.889C121.282 171.147 121.08 171.523 120.802 171.963C120.058 173.195 119.212 174.354 118.275 175.427V175.26C118.524 175.621 118.854 175.909 119.236 176.097C119.618 176.285 120.039 176.366 120.458 176.335C121.516 176.212 122.487 175.655 123.163 174.783C123.451 174.367 123.791 173.994 124.174 173.676C124.566 173.464 125.015 173.397 125.447 173.488C125.827 173.542 126.16 173.628 126.458 173.649C126.708 173.673 126.959 173.651 127.201 173.585C127.397 173.511 127.575 173.396 127.727 173.247Z" fill="#D1967C"/>
<path d="M131.953 182.376C131.923 182.376 131.892 182.135 131.73 181.732C131.495 181.165 131.182 180.638 130.8 180.169C130.335 179.557 129.693 178.891 129.112 178.021C128.802 177.559 128.576 177.04 128.445 176.49C128.309 175.893 128.318 175.268 128.47 174.675C128.621 174.087 128.884 173.539 129.244 173.064C129.414 172.822 129.636 172.625 129.891 172.489C130.023 172.426 130.168 172.395 130.313 172.4C130.458 172.404 130.601 172.444 130.73 172.516C131.156 172.798 131.462 173.245 131.584 173.762C131.711 174.173 131.88 174.567 132.089 174.938C132.386 175.47 132.773 175.938 133.232 176.318C133.555 176.592 133.762 176.711 133.737 176.732C133.528 176.658 133.332 176.549 133.156 176.41C132.659 176.047 132.236 175.581 131.912 175.04C131.701 174.663 131.532 174.261 131.407 173.843C131.291 173.396 131.02 173.012 130.649 172.769C130.551 172.717 130.442 172.69 130.333 172.69C130.223 172.69 130.115 172.717 130.017 172.769C129.8 172.889 129.613 173.062 129.471 173.273C129.137 173.723 128.893 174.24 128.753 174.793C128.608 175.343 128.596 175.923 128.718 176.48C128.843 176.997 129.053 177.486 129.34 177.924C129.891 178.778 130.517 179.46 130.972 180.099C131.35 180.593 131.647 181.15 131.852 181.748C131.905 181.912 131.943 182.081 131.963 182.253C131.966 182.335 131.963 182.376 131.953 182.376Z" fill="#D1967C"/>
<path d="M118.275 171.861C117.984 171.864 117.706 171.985 117.496 172.199C117.048 172.797 116.721 173.486 116.536 174.224C116.243 175.083 115.99 175.867 115.783 176.426C115.694 176.74 115.556 177.036 115.373 177.301C115.415 176.979 115.493 176.664 115.606 176.361C115.768 175.787 115.995 174.992 116.288 174.127C116.484 173.352 116.858 172.64 117.375 172.054C117.555 171.883 117.786 171.786 118.027 171.78C118.199 171.759 118.28 171.818 118.275 171.861Z" fill="#D1967C"/>
<path d="M118.659 171.765C118.659 171.797 118.437 171.845 118.068 171.797C117.57 171.722 117.103 171.501 116.718 171.158H116.91L116.581 171.464C115.985 172.061 115.331 172.59 114.63 173.043C115.161 172.378 115.757 171.777 116.41 171.249L116.743 170.948L116.829 170.873L116.91 170.948C117.262 171.268 117.679 171.498 118.128 171.62C118.309 171.652 118.486 171.701 118.659 171.765Z" fill="#D1967C"/>
<path d="M124.356 181.587C124.433 181.243 124.563 180.915 124.74 180.615C125.118 179.867 125.576 179.168 126.105 178.531C126.632 177.892 127.226 177.317 127.874 176.818C128.13 176.59 128.421 176.408 128.733 176.281C127.883 177.042 127.071 177.851 126.302 178.703C125.603 179.625 124.953 180.588 124.356 181.587Z" fill="#D1967C"/>
<path d="M94.0073 133.457C94.0369 133.499 94.0592 133.547 94.073 133.597L94.2448 134.016L94.8716 135.627L97.126 141.588C99.0165 146.647 101.61 153.607 104.481 161.292C107.352 168.977 109.894 175.964 111.759 181.029C112.674 183.547 113.417 185.588 113.943 187.022L114.519 188.633C114.58 188.81 114.625 188.95 114.666 189.063C114.685 189.111 114.699 189.161 114.706 189.213C114.68 189.169 114.658 189.122 114.641 189.074C114.597 188.966 114.541 188.826 114.474 188.655C114.322 188.268 114.11 187.726 113.847 187.043L111.587 181.082C109.702 176.023 107.104 169.063 104.233 161.373C101.362 153.682 98.8244 146.706 96.9542 141.642L94.7756 135.648C94.5279 134.95 94.3358 134.402 94.1943 134.01L94.0477 133.586C94.0323 133.544 94.0188 133.501 94.0073 133.457Z" fill="#263238"/>
<path d="M84.8877 157.845C85.9758 157.009 85.988 155.053 84.9149 153.477C83.8419 151.9 82.0899 151.299 81.0018 152.135C79.9137 152.971 79.9015 154.927 80.9745 156.504C82.0476 158.08 83.7996 158.681 84.8877 157.845Z" fill="white"/>
<path d="M325.76 231.29C325.76 231.365 252.831 231.43 162.888 231.43C72.9443 231.43 0 231.365 0 231.29C0 231.215 72.9342 231.151 162.908 231.151C252.881 231.151 325.76 231.21 325.76 231.29Z" fill="#263238"/>
<path d="M118.502 44.0933H19.0966C16.8996 44.0933 15.1186 45.9856 15.1186 48.3198V110.563C15.1186 112.897 16.8996 114.79 19.0966 114.79H118.502C120.699 114.79 122.48 112.897 122.48 110.563V48.3198C122.48 45.9856 120.699 44.0933 118.502 44.0933Z" fill="#263238"/>
<path d="M68.7995 89.0921C73.3163 89.0921 76.978 85.2017 76.978 80.4027C76.978 75.6037 73.3163 71.7134 68.7995 71.7134C64.2826 71.7134 60.621 75.6037 60.621 80.4027C60.621 85.2017 64.2826 89.0921 68.7995 89.0921Z" fill="#00274C"/>
<path d="M66.8281 82.9428V77.8141C66.8282 77.7569 66.8424 77.7007 66.8693 77.6511C66.8962 77.6016 66.9348 77.5604 66.9813 77.5316C67.0278 77.5028 67.0806 77.4874 67.1344 77.4871C67.1883 77.4867 67.2412 77.5013 67.2881 77.5294L71.5998 80.1126C71.6471 80.1412 71.6864 80.1826 71.7137 80.2326C71.7411 80.2826 71.7555 80.3394 71.7555 80.3972C71.7555 80.455 71.7411 80.5118 71.7137 80.5618C71.6864 80.6118 71.6471 80.6532 71.5998 80.6819L67.2881 83.2489C67.2397 83.2781 67.1848 83.2929 67.1292 83.2916C67.0736 83.2903 67.0193 83.2731 66.9721 83.2417C66.925 83.2103 66.8867 83.166 66.8614 83.1134C66.836 83.0607 66.8245 83.0018 66.8281 82.9428Z" fill="white"/>
<path d="M21.255 106.664V106.879H20.4463V106.734L20.886 106.293C20.9222 106.266 20.952 106.229 20.973 106.187C20.994 106.146 21.0058 106.099 21.0073 106.052C21.0073 105.944 20.9416 105.885 20.8051 105.885C20.7565 105.883 20.708 105.892 20.6633 105.912C20.6186 105.933 20.579 105.964 20.5474 106.003L20.4058 105.891C20.456 105.826 20.5196 105.775 20.5916 105.742C20.6635 105.708 20.7418 105.693 20.8203 105.697C21.0629 105.697 21.2146 105.821 21.2146 106.03C21.213 106.102 21.1958 106.172 21.1642 106.236C21.1326 106.299 21.0875 106.354 21.0326 106.395L20.7394 106.691L21.255 106.664Z" fill="white"/>
<path d="M21.3763 106.089C21.3756 106.071 21.3784 106.053 21.3845 106.036C21.3905 106.019 21.3997 106.004 21.4115 105.991C21.4233 105.978 21.4375 105.967 21.4531 105.96C21.4688 105.953 21.4857 105.95 21.5027 105.95C21.5375 105.95 21.571 105.964 21.5956 105.991C21.6203 106.017 21.6341 106.052 21.6341 106.089C21.6341 106.126 21.6203 106.162 21.5956 106.188C21.571 106.214 21.5375 106.229 21.5027 106.229C21.4857 106.229 21.4688 106.225 21.4531 106.218C21.4375 106.211 21.4233 106.201 21.4115 106.188C21.3997 106.175 21.3905 106.159 21.3845 106.142C21.3784 106.125 21.3756 106.107 21.3763 106.089ZM21.3763 106.723C21.3756 106.705 21.3784 106.687 21.3845 106.67C21.3905 106.653 21.3997 106.638 21.4115 106.625C21.4233 106.612 21.4375 106.601 21.4531 106.594C21.4688 106.587 21.4857 106.583 21.5027 106.583C21.5375 106.583 21.571 106.598 21.5956 106.624C21.6203 106.65 21.6341 106.686 21.6341 106.723C21.6341 106.76 21.6203 106.796 21.5956 106.822C21.571 106.848 21.5375 106.863 21.5027 106.863C21.4857 106.863 21.4688 106.859 21.4531 106.852C21.4375 106.845 21.4233 106.835 21.4115 106.821C21.3997 106.808 21.3905 106.793 21.3845 106.776C21.3784 106.759 21.3756 106.741 21.3763 106.723Z" fill="white"/>
<path d="M22.1345 105.687V106.879H21.9273V105.896H21.6998V105.714L22.1345 105.687Z" fill="white"/>
<path d="M23.3274 106.584H23.1353V106.852H22.9382V106.584H22.3367V106.433L22.8927 105.687H23.1101L22.6046 106.401H22.9635V106.17H23.1556V106.401H23.3476L23.3274 106.584Z" fill="white"/>
<path d="M108.267 106.122H25.1168V106.524H108.267V106.122Z" fill="white"/>
<path d="M51.0423 105.687H25.0562V106.761H51.0423V105.687Z" fill="#00274C"/>
<path d="M51.8763 106.342C51.8763 106.607 51.8022 106.867 51.6634 107.088C51.5245 107.309 51.3272 107.481 51.0963 107.582C50.8654 107.684 50.6113 107.71 50.3661 107.659C50.121 107.607 49.8959 107.479 49.7191 107.291C49.5424 107.103 49.422 106.864 49.3733 106.604C49.3245 106.343 49.3495 106.073 49.4452 105.828C49.5408 105.583 49.7028 105.373 49.9106 105.226C50.1184 105.078 50.3627 104.999 50.6127 104.999C50.9478 104.999 51.2692 105.141 51.5062 105.393C51.7432 105.644 51.8763 105.986 51.8763 106.342Z" fill="#00274C"/>
<path d="M110.339 106.31C110.338 106.363 110.326 106.415 110.305 106.463C110.284 106.512 110.254 106.555 110.216 106.59C110.179 106.625 110.135 106.652 110.087 106.668C110.04 106.685 109.989 106.691 109.94 106.685C109.641 106.685 109.464 106.481 109.464 106.105C109.453 106.025 109.458 105.943 109.481 105.866C109.503 105.788 109.542 105.717 109.594 105.657C109.646 105.598 109.71 105.552 109.781 105.522C109.853 105.493 109.929 105.481 110.005 105.488C110.104 105.485 110.202 105.511 110.288 105.563L110.218 105.724C110.153 105.686 110.079 105.668 110.005 105.67C109.803 105.67 109.672 105.805 109.672 106.068C109.709 106.026 109.755 105.994 109.806 105.972C109.856 105.951 109.911 105.941 109.965 105.944C110.013 105.939 110.061 105.945 110.107 105.961C110.152 105.977 110.194 106.003 110.229 106.037C110.265 106.072 110.293 106.114 110.312 106.161C110.331 106.208 110.34 106.259 110.339 106.31ZM110.142 106.31C110.142 106.186 110.056 106.111 109.924 106.111C109.897 106.108 109.87 106.111 109.844 106.119C109.818 106.128 109.794 106.142 109.774 106.16C109.753 106.179 109.736 106.201 109.724 106.227C109.711 106.253 109.704 106.281 109.702 106.31C109.702 106.417 109.783 106.503 109.93 106.503C109.955 106.51 109.981 106.511 110.007 106.507C110.033 106.503 110.058 106.492 110.079 106.477C110.101 106.462 110.12 106.442 110.134 106.419C110.148 106.395 110.158 106.369 110.162 106.342L110.142 106.31Z" fill="white"/>
<path d="M110.46 105.907C110.46 105.889 110.462 105.871 110.468 105.855C110.475 105.838 110.484 105.823 110.496 105.81C110.508 105.798 110.522 105.788 110.537 105.781C110.553 105.775 110.57 105.772 110.587 105.773C110.604 105.772 110.621 105.775 110.637 105.781C110.652 105.788 110.667 105.797 110.679 105.81C110.692 105.822 110.701 105.838 110.708 105.854C110.715 105.871 110.718 105.889 110.718 105.907C110.718 105.944 110.704 105.979 110.68 106.006C110.655 106.032 110.621 106.046 110.587 106.046C110.57 106.046 110.553 106.043 110.537 106.036C110.521 106.029 110.507 106.018 110.495 106.005C110.484 105.992 110.474 105.977 110.468 105.96C110.462 105.943 110.46 105.925 110.46 105.907ZM110.46 106.541C110.46 106.523 110.462 106.505 110.468 106.488C110.475 106.472 110.484 106.457 110.496 106.444C110.508 106.431 110.522 106.421 110.537 106.415C110.553 106.408 110.57 106.406 110.587 106.406C110.604 106.406 110.621 106.409 110.637 106.415C110.652 106.421 110.667 106.431 110.679 106.444C110.692 106.456 110.701 106.471 110.708 106.488C110.715 106.505 110.718 106.522 110.718 106.541C110.718 106.578 110.704 106.613 110.68 106.639C110.655 106.665 110.621 106.68 110.587 106.68C110.57 106.68 110.553 106.677 110.537 106.669C110.521 106.662 110.507 106.652 110.495 106.639C110.484 106.626 110.474 106.61 110.468 106.594C110.462 106.577 110.46 106.559 110.46 106.541Z" fill="white"/>
<path d="M110.844 106.089C110.844 105.703 111.042 105.488 111.299 105.488C111.557 105.488 111.759 105.703 111.759 106.089C111.759 106.476 111.562 106.685 111.299 106.685C111.036 106.685 110.844 106.471 110.844 106.089ZM111.552 106.089C111.552 105.805 111.451 105.676 111.299 105.676C111.148 105.676 111.047 105.805 111.047 106.089C111.047 106.374 111.153 106.497 111.299 106.497C111.446 106.497 111.557 106.369 111.557 106.089H111.552Z" fill="white"/>
<path d="M111.901 106.089C111.901 105.703 112.098 105.488 112.356 105.488C112.614 105.488 112.816 105.703 112.816 106.089C112.816 106.476 112.619 106.685 112.356 106.685C112.093 106.685 111.901 106.471 111.901 106.089ZM112.614 106.089C112.614 105.805 112.507 105.676 112.356 105.676C112.204 105.676 112.103 105.805 112.103 106.089C112.103 106.374 112.209 106.497 112.356 106.497C112.502 106.497 112.614 106.369 112.614 106.089Z" fill="white"/>
<path d="M114.585 106.014H114.206V104.854H115.298V105.257H114.585V106.014Z" fill="white"/>
<path d="M115.298 107.529H114.206V106.374H114.585V107.126H115.298V107.529Z" fill="white"/>
<path d="M117.042 107.529H115.95V107.126H116.662V106.369H117.042V107.529Z" fill="white"/>
<path d="M117.042 106.014H116.662V105.257H115.95V104.854H117.042V106.014Z" fill="white"/>
<path d="M102.893 50.9619C103.085 50.9223 103.28 50.9043 103.475 50.9082C103.864 50.9082 104.445 50.8652 105.153 50.8491H105.284V50.9619C105.284 51.8641 105.284 52.8953 105.31 54.0177V54.356L105.082 54.1143L104.779 53.7921L104.01 52.9758H104.187L102.989 54.1036L102.792 54.2862V54.0123C102.792 53.0725 102.828 52.2884 102.848 51.7621C102.844 51.4921 102.864 51.2224 102.909 50.9565C102.909 50.9565 102.939 51.3002 102.964 51.8373C102.989 52.3743 103.01 53.1262 103.02 53.9855L102.828 53.8942L104.01 52.7449L104.101 52.659L104.187 52.7503L104.961 53.5666L105.259 53.8834L105.037 53.9855C105.037 52.863 105.037 51.8373 105.037 50.9297L105.143 51.0425C104.481 51.0425 103.93 51.0049 103.53 50.9834C103.318 50.992 103.105 50.9849 102.893 50.9619Z" fill="white"/>
<path d="M111.208 51.3432C111.034 51.6021 110.846 51.8513 110.647 52.0897C110.273 52.5731 109.717 53.2981 109.04 54.1036L108.823 54.3668V54.0177C108.823 53.5398 108.823 53.0296 108.823 52.5033V52.3529L108.863 52.4549L107.852 51.4184L107.63 51.1875H107.938C108.949 51.1875 109.778 51.2466 110.344 51.2788C110.91 51.311 111.234 51.3271 111.208 51.3379C111.183 51.3486 110.814 51.3379 110.228 51.3862C109.641 51.4345 108.858 51.4506 107.938 51.4506L108.024 51.2251L109.035 52.2455L109.075 52.2884V52.4979C109.075 53.0349 109.075 53.5344 109.075 54.0123L108.858 53.9211C109.495 53.1799 110.071 52.5623 110.496 52.1005C110.92 51.6386 111.183 51.3594 111.208 51.3432Z" fill="white"/>
<path d="M111.208 51.3433C111.239 51.4184 110.753 51.6977 110.127 51.977C109.763 52.1879 109.362 52.3159 108.949 52.3529C109.625 51.8474 110.396 51.5029 111.208 51.3433Z" fill="white"/>
<path d="M115.262 50.9618C115.395 50.9232 115.534 50.9232 115.667 50.9618C116.037 51.0372 116.371 51.2504 116.607 51.5633C116.786 51.8004 116.905 52.0823 116.953 52.3822C117.001 52.682 116.976 52.9899 116.88 53.2765C116.762 53.6329 116.544 53.9417 116.254 54.1602C115.964 54.3787 115.618 54.4961 115.262 54.4961C114.907 54.4961 114.56 54.3787 114.271 54.1602C113.981 53.9417 113.762 53.6329 113.645 53.2765C113.549 52.9902 113.524 52.6828 113.571 52.3832C113.617 52.0835 113.735 51.8014 113.913 51.5633C114.15 51.2471 114.485 51.0303 114.858 50.9511C114.99 50.9125 115.13 50.9125 115.262 50.9511C115.262 50.9779 115.121 50.9833 114.883 51.0585C114.553 51.1669 114.265 51.3877 114.064 51.6868C113.902 51.9221 113.804 52.2006 113.781 52.4915C113.759 52.7823 113.812 53.0741 113.937 53.3345C114.061 53.5949 114.25 53.8136 114.484 53.9664C114.718 54.1192 114.988 54.2001 115.262 54.2001C115.537 54.2001 115.806 54.1192 116.04 53.9664C116.274 53.8136 116.464 53.5949 116.588 53.3345C116.712 53.0741 116.766 52.7823 116.743 52.4915C116.721 52.2006 116.623 51.9221 116.46 51.6868C116.259 51.3877 115.972 51.1669 115.641 51.0585C115.394 50.9941 115.262 50.9887 115.262 50.9618Z" fill="white"/>
<path d="M115.808 53.3894C115.758 53.4431 115.409 53.1639 115.03 52.7665L114.994 52.7235V52.6376C114.994 52.0683 115.05 51.6064 115.126 51.6064C115.202 51.6064 115.257 52.0683 115.257 52.6376L115.217 52.5409C115.596 52.9652 115.859 53.3357 115.808 53.3894Z" fill="white"/>
<path d="M76.3765 53.2766C76.3765 53.3572 65.3421 53.4162 51.7348 53.4162C38.1276 53.4162 27.0881 53.3572 27.0881 53.2766C27.0881 53.196 38.1225 53.137 51.7348 53.137C65.3471 53.137 76.3765 53.2014 76.3765 53.2766Z" fill="white"/>
<path d="M22.8169 55.3442C23.8917 55.3442 24.763 54.4185 24.763 53.2766C24.763 52.1347 23.8917 51.209 22.8169 51.209C21.7421 51.209 20.8708 52.1347 20.8708 53.2766C20.8708 54.4185 21.7421 55.3442 22.8169 55.3442Z" fill="white"/>
<path d="M280.03 10.7695H206.302C204.105 10.7695 202.324 12.6618 202.324 14.9961V60.3333C202.324 62.6675 204.105 64.5598 206.302 64.5598H280.03C282.227 64.5598 284.008 62.6675 284.008 60.3333V14.9961C284.008 12.6618 282.227 10.7695 280.03 10.7695Z" fill="#F5F5F5"/>
<path d="M271.043 34.2973C269.092 33.0299 266.908 31.9504 264.618 32.0417C261.368 32.1706 258.659 34.5927 256.223 36.8751L244.849 47.616C244.415 48.0295 243.894 48.4699 243.333 48.3786C242.882 48.2484 242.487 47.9561 242.216 47.5515L232.142 35.6829C230.054 33.2178 227.669 30.5917 224.56 30.2695C222.033 30.0117 219.637 31.3436 217.519 32.8258C211.455 37.0385 206.317 42.5906 202.456 49.1036L202.334 60.3278C203.002 62.7499 205.039 64.5597 207.197 64.5597H279.166C280.385 64.5482 281.557 64.0571 282.455 63.1813C283.353 62.3054 283.913 61.107 284.028 59.8176V49.2379C281.119 43.0518 276.616 37.8707 271.043 34.2973Z" fill="#455A64"/>
<path d="M206.99 58.3784V58.5449H206.378V58.4321L206.707 58.0991C206.788 58.0186 206.803 57.9703 206.803 57.9165C206.803 57.8628 206.752 57.793 206.651 57.793C206.614 57.7903 206.576 57.7971 206.542 57.813C206.508 57.8289 206.477 57.8534 206.454 57.8843L206.348 57.793C206.385 57.7441 206.434 57.7055 206.488 57.6803C206.543 57.655 206.602 57.644 206.661 57.648C206.843 57.648 206.959 57.7447 206.959 57.9004C206.958 57.9549 206.945 58.0082 206.921 58.0565C206.897 58.1048 206.864 58.1469 206.823 58.1797L206.601 58.4053L206.99 58.3784Z" fill="#263238"/>
<path d="M207.076 57.9435C207.075 57.9297 207.077 57.9158 207.082 57.9028C207.086 57.8898 207.093 57.8779 207.102 57.8678C207.111 57.8578 207.122 57.8498 207.134 57.8443C207.146 57.8389 207.159 57.8361 207.172 57.8361C207.185 57.8353 207.199 57.8376 207.211 57.8427C207.224 57.8478 207.235 57.8557 207.245 57.8658C207.254 57.876 207.262 57.8881 207.267 57.9015C207.272 57.9149 207.274 57.9292 207.273 57.9435C207.273 57.9574 207.27 57.9711 207.265 57.9838C207.26 57.9966 207.252 58.0081 207.243 58.0176C207.234 58.0272 207.222 58.0346 207.21 58.0394C207.198 58.0442 207.185 58.0463 207.172 58.0455C207.146 58.0455 207.122 58.0348 207.104 58.0156C207.086 57.9965 207.076 57.9706 207.076 57.9435ZM207.076 58.4215C207.075 58.4079 207.077 58.3942 207.082 58.3815C207.086 58.3688 207.093 58.3572 207.102 58.3476C207.111 58.338 207.122 58.3305 207.134 58.3256C207.146 58.3208 207.159 58.3187 207.172 58.3194C207.185 58.3187 207.198 58.3208 207.21 58.3256C207.222 58.3304 207.234 58.3378 207.243 58.3474C207.252 58.3569 207.26 58.3684 207.265 58.3811C207.27 58.3939 207.273 58.4076 207.273 58.4215C207.276 58.4372 207.276 58.4535 207.273 58.4693C207.27 58.485 207.263 58.4997 207.253 58.5123C207.244 58.5249 207.232 58.5351 207.218 58.5421C207.205 58.5491 207.19 58.5527 207.174 58.5527C207.159 58.5527 207.144 58.5491 207.13 58.5421C207.117 58.5351 207.105 58.5249 207.095 58.5123C207.086 58.4997 207.079 58.485 207.076 58.4693C207.072 58.4535 207.072 58.4372 207.076 58.4215Z" fill="#263238"/>
<path d="M207.657 57.6321V58.5451H207.505V57.7986H207.328V57.6589L207.657 57.6321Z" fill="#263238"/>
<path d="M208.567 58.3193H208.4V58.5448H208.248V58.3461H207.794V58.228L208.203 57.6587H208.4L208.011 58.1957H208.284V58.0078H208.4V58.185H208.547L208.567 58.3193Z" fill="#263238"/>
<path d="M273.196 57.9167H209.932V58.3195H273.196V57.9167Z" fill="#263238"/>
<path d="M229.65 57.5032H209.881V58.5773H229.65V57.5032Z" fill="#00274C"/>
<path d="M230.292 58.1154C230.293 58.3185 230.237 58.5173 230.132 58.6867C230.026 58.8561 229.876 58.9884 229.699 59.0668C229.523 59.1453 229.329 59.1664 229.141 59.1274C228.954 59.0885 228.781 58.9912 228.646 58.8479C228.51 58.7047 228.418 58.5219 228.38 58.3228C228.342 58.1237 228.361 57.9172 228.434 57.7294C228.507 57.5417 228.631 57.3812 228.79 57.2682C228.948 57.1553 229.135 57.095 229.327 57.095C229.582 57.095 229.826 57.2023 230.007 57.3935C230.188 57.5847 230.291 57.8442 230.292 58.1154Z" fill="#00274C"/>
<path d="M274.783 58.1047C274.783 58.1454 274.774 58.1856 274.759 58.2226C274.743 58.2597 274.72 58.2929 274.691 58.3201C274.663 58.3473 274.629 58.368 274.593 58.3809C274.557 58.3937 274.518 58.3984 274.48 58.3947C274.253 58.3947 274.121 58.239 274.121 57.9543C274.115 57.8945 274.12 57.8338 274.138 57.7765C274.155 57.7192 274.184 57.6666 274.223 57.6222C274.261 57.5779 274.308 57.5429 274.36 57.5195C274.413 57.4962 274.469 57.4852 274.526 57.4871C274.603 57.4831 274.68 57.5017 274.748 57.5408L274.687 57.6643C274.641 57.6325 274.586 57.6174 274.531 57.6214C274.374 57.6214 274.278 57.7234 274.278 57.9275C274.306 57.8954 274.341 57.8705 274.379 57.8547C274.418 57.8388 274.459 57.8325 274.5 57.8362C274.536 57.8325 274.572 57.8366 274.606 57.8484C274.639 57.8601 274.671 57.8792 274.697 57.9044C274.724 57.9297 274.745 57.9605 274.76 57.995C274.775 58.0295 274.783 58.0668 274.783 58.1047ZM274.637 58.1047C274.637 58.0134 274.571 57.9543 274.47 57.9543C274.449 57.9513 274.428 57.9529 274.408 57.959C274.388 57.9651 274.369 57.9755 274.353 57.9896C274.337 58.0037 274.324 58.0212 274.314 58.041C274.305 58.0609 274.299 58.0825 274.298 58.1047C274.298 58.1906 274.364 58.2551 274.47 58.2551C274.506 58.2553 274.542 58.2411 274.569 58.2153C274.596 58.1895 274.613 58.1539 274.617 58.1154L274.637 58.1047Z" fill="#263238"/>
<path d="M274.859 57.8038C274.858 57.7895 274.861 57.7752 274.865 57.7618C274.87 57.7485 274.878 57.7363 274.887 57.7262C274.897 57.716 274.908 57.7082 274.921 57.703C274.933 57.6979 274.947 57.6957 274.96 57.6964C274.973 57.6964 274.986 57.6992 274.998 57.7047C275.01 57.7102 275.021 57.7181 275.03 57.7282C275.039 57.7383 275.046 57.7501 275.051 57.7632C275.055 57.7762 275.057 57.79 275.056 57.8038C275.056 57.8309 275.046 57.8569 275.028 57.876C275.01 57.8951 274.986 57.9059 274.96 57.9059C274.947 57.9066 274.934 57.9045 274.922 57.8997C274.91 57.8949 274.899 57.8875 274.889 57.878C274.88 57.8684 274.872 57.8569 274.867 57.8442C274.862 57.8314 274.859 57.8177 274.859 57.8038ZM274.859 58.2872C274.858 58.2729 274.861 58.2586 274.865 58.2452C274.87 58.2318 274.878 58.2196 274.887 58.2095C274.897 58.1994 274.908 58.1915 274.921 58.1864C274.933 58.1812 274.947 58.179 274.96 58.1798C274.973 58.1798 274.986 58.1826 274.998 58.188C275.01 58.1935 275.021 58.2015 275.03 58.2115C275.039 58.2216 275.046 58.2335 275.051 58.2465C275.055 58.2595 275.057 58.2733 275.056 58.2872C275.056 58.3143 275.046 58.3402 275.028 58.3593C275.01 58.3785 274.986 58.3892 274.96 58.3892C274.947 58.39 274.934 58.3879 274.922 58.3831C274.91 58.3783 274.899 58.3709 274.889 58.3613C274.88 58.3518 274.872 58.3403 274.867 58.3275C274.862 58.3148 274.859 58.3011 274.859 58.2872Z" fill="#263238"/>
<path d="M275.157 57.9382C275.157 57.6482 275.304 57.4871 275.501 57.4871C275.698 57.4871 275.85 57.6482 275.85 57.9382C275.85 58.2282 275.703 58.3947 275.501 58.3947C275.299 58.3947 275.157 58.2282 275.157 57.9382ZM275.698 57.9382C275.698 57.7234 275.617 57.6267 275.501 57.6267C275.385 57.6267 275.314 57.7234 275.314 57.9382C275.314 58.153 275.39 58.2497 275.501 58.2497C275.612 58.2497 275.698 58.153 275.698 57.9382Z" fill="#263238"/>
<path d="M275.956 57.9382C275.956 57.6482 276.108 57.4871 276.305 57.4871C276.502 57.4871 276.654 57.6482 276.654 57.9382C276.654 58.2282 276.502 58.3947 276.305 58.3947C276.108 58.3947 275.956 58.2282 275.956 57.9382ZM276.497 57.9382C276.497 57.7234 276.421 57.6267 276.305 57.6267C276.189 57.6267 276.113 57.7234 276.113 57.9382C276.113 58.153 276.194 58.2497 276.305 58.2497C276.416 58.2497 276.497 58.153 276.497 57.9382Z" fill="#263238"/>
<path d="M278.049 57.8844H277.67V56.95H278.544V57.3527H278.049V57.8844Z" fill="#263238"/>
<path d="M278.544 59.0819H277.67V58.1528H278.049V58.6791H278.544V59.0819Z" fill="#263238"/>
<path d="M279.914 59.0819H279.039V58.6791H279.535V58.1528H279.914V59.0819Z" fill="#263238"/>
<path d="M279.914 57.879H279.535V57.3527H279.039V56.95H279.914V57.879Z" fill="#263238"/>
<path d="M269.102 15.9949C269.673 15.9167 270.249 15.8808 270.826 15.8875H270.927V16.0057C270.927 16.6609 270.927 17.461 270.927 18.3257V18.664L270.699 18.4224L270.472 18.1807L269.89 17.5577H270.067L269.152 18.4116L268.955 18.5942V18.3203C268.946 17.5435 268.984 16.7668 269.067 15.9949C269.147 16.7671 269.186 17.5435 269.183 18.3203L268.991 18.229L269.89 17.3536L269.981 17.2677L270.067 17.359L270.654 17.9766L270.881 18.2236L270.659 18.3203C270.659 17.4557 270.659 16.6555 270.659 16.0003L270.765 16.1077C270.209 16.1051 269.654 16.0675 269.102 15.9949Z" fill="#263238"/>
<path d="M275.43 16.2905C275.308 16.4881 275.173 16.6765 275.026 16.8544C274.743 17.225 274.323 17.7889 273.803 18.4118L273.585 18.6696V18.3205C273.585 17.9553 273.585 17.5687 273.585 17.1659V17.0531L273.626 17.1551L272.863 16.3657L272.64 16.1348H272.949C273.712 16.1348 274.364 16.1938 274.793 16.2261C275.009 16.2276 275.223 16.2473 275.435 16.2851C275.41 16.2851 275.127 16.2851 274.677 16.3335C274.227 16.3818 273.636 16.3979 272.949 16.3979L273.034 16.1724L273.808 16.9511L273.848 16.9887V17.1927C273.848 17.5955 273.848 17.9822 273.848 18.3474L273.626 18.2561C274.131 17.719 274.546 17.2464 274.879 16.8974C275.213 16.5483 275.405 16.3012 275.43 16.2905Z" fill="#263238"/>
<path d="M275.43 16.2904C275.461 16.3602 275.097 16.5911 274.622 16.8274C274.147 17.0637 273.737 17.155 273.712 17.0798C273.687 17.0046 274.045 16.7791 274.521 16.5696C274.996 16.3602 275.405 16.2152 275.43 16.2904Z" fill="#263238"/>
<path d="M278.514 15.9949C278.616 15.9626 278.725 15.9626 278.827 15.9949C279.117 16.05 279.378 16.2163 279.56 16.4621C279.699 16.6454 279.792 16.8636 279.829 17.0959C279.867 17.3282 279.847 17.5667 279.772 17.7886C279.685 18.0718 279.516 18.3184 279.289 18.4934C279.062 18.6683 278.789 18.7625 278.509 18.7625C278.228 18.7625 277.955 18.6683 277.728 18.4934C277.501 18.3184 277.332 18.0718 277.245 17.7886C277.17 17.5667 277.151 17.3282 277.188 17.0959C277.225 16.8636 277.318 16.6454 277.457 16.4621C277.64 16.2163 277.9 16.05 278.19 15.9949C278.392 15.9627 278.504 15.9949 278.499 15.9949C278.494 15.9949 278.392 16.0271 278.216 16.0915C277.97 16.1772 277.757 16.3449 277.609 16.5695C277.49 16.7442 277.418 16.9506 277.403 17.1657C277.387 17.3809 277.427 17.5965 277.52 17.7887C277.612 17.981 277.752 18.1424 277.926 18.2551C278.099 18.3678 278.298 18.4274 278.501 18.4274C278.704 18.4274 278.903 18.3678 279.077 18.2551C279.25 18.1424 279.39 17.981 279.483 17.7887C279.575 17.5965 279.615 17.3809 279.6 17.1657C279.584 16.9506 279.512 16.7442 279.393 16.5695C279.245 16.3449 279.032 16.1772 278.787 16.0915C278.625 16.0271 278.514 16.0217 278.514 15.9949Z" fill="#263238"/>
<path d="M278.933 17.8424C278.878 17.8961 278.605 17.6974 278.317 17.3913L278.281 17.3483V17.2838C278.281 16.8488 278.337 16.4998 278.413 16.4998C278.488 16.4998 278.544 16.8488 278.544 17.2838L278.504 17.1818C278.792 17.4987 278.984 17.7887 278.933 17.8424Z" fill="#263238"/>
<path d="M248.929 17.7566C248.929 17.8371 240.533 17.8962 230.181 17.8962C219.829 17.8962 211.433 17.8371 211.433 17.7566C211.433 17.676 219.829 17.6169 230.186 17.6169C240.543 17.6169 248.929 17.6814 248.929 17.7566Z" fill="#263238"/>
<path d="M209.659 17.7564C209.66 18.0681 209.574 18.373 209.411 18.6326C209.249 18.8922 209.018 19.0947 208.747 19.2145C208.476 19.3343 208.178 19.3659 207.89 19.3053C207.602 19.2448 207.338 19.0948 207.13 18.8744C206.923 18.654 206.782 18.3732 206.725 18.0674C206.668 17.7617 206.698 17.4449 206.81 17.1571C206.923 16.8694 207.114 16.6237 207.358 16.4512C207.602 16.2787 207.889 16.1872 208.183 16.1882C208.574 16.1897 208.948 16.3553 209.225 16.6491C209.501 16.9429 209.657 17.3409 209.659 17.7564Z" fill="#263238"/>
<path d="M280.03 64.5599C280.03 64.5599 280.263 64.5599 280.692 64.4794C281.334 64.3628 281.937 64.0765 282.446 63.6469C282.865 63.3054 283.215 62.878 283.476 62.3899C283.736 61.9019 283.902 61.3633 283.963 60.806C284.013 59.4849 283.963 57.9382 283.963 56.2035C283.963 49.2703 283.937 39.2437 283.922 26.8541C283.922 23.7607 283.922 20.5116 283.922 17.1336C283.922 16.2904 283.922 15.4204 283.922 14.5826C283.837 13.7254 283.501 12.918 282.963 12.273C282.425 11.628 281.71 11.1775 280.92 10.9844C280.512 10.9014 280.096 10.8672 279.681 10.8824H278.403H256.506H206.343C205.804 10.8809 205.272 11.0002 204.779 11.2325C204.287 11.4648 203.847 11.8048 203.487 12.2304C203.127 12.6539 202.851 13.1508 202.678 13.6909C202.504 14.231 202.435 14.803 202.476 15.3721V22.3537C202.476 26.9543 202.476 31.487 202.476 35.9516V49.0769C202.476 51.2251 202.476 53.3464 202.476 55.4409V60.1186C202.461 60.6206 202.526 61.1218 202.668 61.6008C202.958 62.5484 203.564 63.3506 204.371 63.8564C204.77 64.103 205.206 64.2738 205.66 64.3612C206.121 64.4262 206.586 64.4478 207.05 64.4256H223.225L242.267 64.4525L269.89 64.5008H277.397H279.353H280.015C280.015 64.5008 279.793 64.5008 279.353 64.5008H277.397L269.89 64.5277L242.267 64.5707H223.19H212.575H207.015C206.537 64.5952 206.058 64.5718 205.585 64.5008C204.853 64.3669 204.169 64.0229 203.608 63.5061C203.047 62.9893 202.629 62.3193 202.4 61.5686C202.252 61.0648 202.184 60.5386 202.198 60.0112V58.4645C202.198 57.4226 202.198 56.3807 202.198 55.3335V49.0823C202.198 44.786 202.198 40.4108 202.198 35.957V15.3989C202.167 14.7998 202.237 14.1995 202.405 13.6267C202.677 12.7542 203.201 11.995 203.903 11.457C204.604 10.919 205.447 10.6296 206.312 10.63H256.475H278.372H279.671C280.102 10.6141 280.533 10.652 280.955 10.7428C281.798 10.9458 282.559 11.4271 283.129 12.1176C283.691 12.7957 284.044 13.6413 284.14 14.5397C284.18 15.4204 284.14 16.2582 284.14 17.1121C284.14 20.4901 284.14 23.7392 284.14 26.8326C284.14 39.2222 284.104 49.2488 284.094 56.182C284.094 57.9167 284.094 59.4526 284.059 60.7952C283.994 61.3596 283.824 61.9046 283.559 62.3987C283.295 62.8928 282.941 63.3262 282.517 63.6738C281.995 64.099 281.382 64.3795 280.733 64.4901C280.566 64.5194 280.397 64.5338 280.227 64.5331L280.03 64.5599Z" fill="#263238"/>
<path d="M244.536 35.3714C247.534 35.3714 249.965 32.789 249.965 29.6035C249.965 26.418 247.534 23.8357 244.536 23.8357C241.538 23.8357 239.107 26.418 239.107 29.6035C239.107 32.789 241.538 35.3714 244.536 35.3714Z" fill="#455A64"/>
<path d="M160.744 31.6176C161.205 31.5714 161.647 31.4013 162.028 31.1235C162.478 30.7727 162.801 30.2684 162.943 29.695C163.016 29.3244 163.042 28.945 163.019 28.5672C163.019 28.159 163.019 27.7186 163.019 27.2568C163.019 23.5243 163.054 18.17 163.085 11.559C163.085 9.9049 163.085 8.16489 163.115 6.36042C163.115 5.45282 163.115 4.53447 163.115 3.59464C163.139 3.13405 163.123 2.67215 163.07 2.21444C162.99 1.78787 162.797 1.39451 162.514 1.08128C162.215 0.74132 161.822 0.511743 161.391 0.426085C160.936 0.386983 160.478 0.378015 160.022 0.399234H157.135L151.11 0.436827L124.28 0.59257C123.739 0.608302 123.223 0.836737 122.832 1.23361C122.44 1.63049 122.202 2.16755 122.162 2.74074C122.162 3.97952 122.147 5.21293 122.116 6.44097C122.096 8.90063 122.074 11.3245 122.051 13.7125C122 18.4815 121.955 23.0786 121.914 27.4609C121.914 27.9979 121.914 28.5349 121.914 29.072C121.888 29.5713 122.004 30.0673 122.248 30.4952C122.485 30.9044 122.839 31.2224 123.259 31.4028C123.708 31.5438 124.178 31.5912 124.644 31.5424H130.33H140.531H155.326H159.344H160.386C160.505 31.5307 160.625 31.5307 160.744 31.5424C160.625 31.5518 160.505 31.5518 160.386 31.5424L159.37 31.6928L155.351 31.7572L140.581 31.913L130.376 31.9935L124.694 32.0365C124.183 32.0836 123.669 32.0271 123.178 31.87C122.667 31.6638 122.232 31.2869 121.94 30.7959C121.654 30.2994 121.515 29.7232 121.54 29.1418C121.54 28.6048 121.54 28.0677 121.54 27.5307C121.576 23.1484 121.616 18.5459 121.651 13.777C121.672 11.3925 121.692 8.96866 121.712 6.50542C121.712 5.27022 121.727 4.01712 121.758 2.74611C121.809 2.05368 122.099 1.4059 122.573 0.927845C123.048 0.449788 123.672 0.175364 124.325 0.157564L151.125 0.00719214H157.151H160.042C160.522 -0.0109347 161.004 0.00521288 161.482 0.0555261C161.978 0.154705 162.434 0.413425 162.787 0.796647C163.128 1.17313 163.362 1.64395 163.464 2.15537C163.52 2.63993 163.533 3.12892 163.504 3.61613C163.504 4.55595 163.504 5.47967 163.474 6.3819C163.454 8.19353 163.433 9.92818 163.413 11.5859C163.322 18.1915 163.252 23.5512 163.201 27.2783C163.201 27.7455 163.201 28.1805 163.176 28.594C163.193 28.9841 163.157 29.3748 163.07 29.754C162.911 30.3507 162.563 30.8707 162.084 31.2255C161.791 31.4388 161.455 31.5767 161.103 31.6283C160.984 31.6414 160.863 31.6378 160.744 31.6176Z" fill="#00274C"/>
<path d="M144.064 13.315L149.048 16.4943L143.983 19.6897L138.918 22.8798L138.994 16.5051L139.075 10.1304L144.064 13.315Z" fill="#00274C"/>
</svg>
