<svg width="326" height="232" viewBox="0 0 326 232" fill="none" xmlns="http://www.w3.org/2000/svg">
<path d="M254.993 57.2662L253.584 55.1897C241.744 37.7882 220.34 27.2964 197.766 28.5683C194.862 28.7248 191.974 29.0719 189.127 29.6065C168.602 33.526 150.749 47.3663 143.344 65.0896C138.99 75.5139 137.774 87.5164 129.514 95.7915C118.768 106.558 100.513 106.901 84.4641 106.455C68.4154 106.008 50.1546 106.387 39.4554 117.201C32.7554 123.95 30.6248 133.6 31.1662 142.638C32.5982 166.649 51.3538 188.11 75.2086 198.783C99.0634 209.457 127.15 210.407 153.258 205.714C189.861 199.199 224.613 181.143 245.522 153.265C266.431 125.388 271.717 87.371 254.993 57.2662Z" fill="#F5F5F5"/>
<path d="M211.504 153.784C211.504 153.784 212.837 148.442 212.755 148.074C212.674 147.705 212.755 139.768 212.755 139.768V131.648C212.755 131.648 212.645 129.759 211.667 129.468C211.113 129.291 210.508 129.291 209.955 129.468L209.327 136.076C209.327 136.076 207.697 135.64 207.615 136.596C207.534 137.551 205.409 143.215 205.735 145.25C206.061 147.285 206.23 150.41 206.23 150.41L205.706 152.533L211.504 153.784Z" fill="#FFBE9D"/>
<path d="M209.111 135.978C209.311 136.045 209.486 136.16 209.618 136.31C209.985 136.711 210.222 137.194 210.305 137.707C210.438 138.35 210.374 139.119 210.485 139.929C210.691 140.81 211.019 141.664 211.463 142.472C211.885 143.326 212.075 144.256 212.016 145.188C211.966 145.946 211.751 146.688 211.381 147.373C211.141 147.836 210.823 148.263 210.438 148.64C210.31 148.787 210.155 148.914 209.979 149.014C210.454 148.485 210.859 147.908 211.184 147.295C211.511 146.625 211.698 145.907 211.737 145.177C211.774 144.286 211.585 143.398 211.184 142.581C210.729 141.76 210.402 140.886 210.211 139.986C210.107 139.129 210.211 138.376 210.089 137.764C210.028 137.274 209.828 136.806 209.507 136.404C209.292 136.103 209.1 135.999 209.111 135.978Z" fill="#EB996E"/>
<path d="M176.868 113.977C177.002 114.008 181.845 115.685 178.614 119.199C175.384 122.714 172.095 119.096 172.182 118.992C172.269 118.888 176.868 113.977 176.868 113.977Z" fill="#FFBE9D"/>
<path d="M174.61 118.54C174.639 118.54 174.639 118.633 174.709 118.763C174.814 118.946 174.996 119.084 175.215 119.147C175.756 119.319 176.647 118.987 177.252 118.364C177.542 118.064 177.751 117.708 177.864 117.325C177.927 117.189 177.952 117.041 177.938 116.893C177.924 116.746 177.871 116.604 177.782 116.479C177.719 116.398 177.626 116.34 177.518 116.316C177.411 116.292 177.298 116.304 177.2 116.349C177.054 116.412 177.014 116.5 176.99 116.489C176.967 116.479 176.955 116.37 177.124 116.245C177.227 116.177 177.351 116.14 177.479 116.142C177.656 116.148 177.823 116.215 177.945 116.329C178.079 116.476 178.169 116.652 178.207 116.839C178.245 117.026 178.229 117.218 178.16 117.398C178.048 117.825 177.82 118.22 177.497 118.55C176.822 119.241 175.803 119.589 175.099 119.334C174.967 119.286 174.85 119.211 174.756 119.116C174.662 119.02 174.594 118.907 174.557 118.784C174.54 118.628 174.586 118.535 174.61 118.54Z" fill="#EB996E"/>
<path d="M181.129 93.7875L180.547 93.393C177.781 91.4968 174.316 90.5994 170.841 90.8793C167.366 91.1593 164.137 92.5961 161.797 94.9037C157.28 99.3527 152.355 104.321 150.196 106.891C145.731 112.207 150.935 117.076 150.935 117.076L145.003 122.532L158.724 132.302L180.71 110.405C185.955 105.297 186.991 98.3196 181.129 93.7875Z" fill="#FFBE9D"/>
<path d="M159.981 100.188C159.808 100.383 159.727 100.63 159.757 100.876C159.786 101.123 159.923 101.35 160.138 101.507C160.239 101.589 160.357 101.652 160.485 101.692C160.614 101.732 160.75 101.749 160.886 101.741C161.022 101.734 161.154 101.701 161.276 101.647C161.398 101.592 161.506 101.517 161.594 101.424C161.764 101.23 161.842 100.984 161.813 100.739C161.784 100.494 161.649 100.269 161.436 100.111C161.336 100.029 161.218 99.9664 161.09 99.9262C160.962 99.8859 160.826 99.8689 160.69 99.8761C160.555 99.8834 160.422 99.9148 160.3 99.9684C160.179 100.022 160.07 100.097 159.981 100.188Z" fill="#263238"/>
<path d="M168.212 105.67C168.042 105.865 167.964 106.11 167.993 106.355C168.022 106.601 168.157 106.826 168.369 106.984C168.47 107.066 168.588 107.129 168.716 107.169C168.845 107.209 168.981 107.226 169.117 107.218C169.253 107.21 169.385 107.178 169.507 107.124C169.629 107.069 169.737 106.993 169.825 106.901C169.997 106.707 170.078 106.461 170.048 106.215C170.019 105.969 169.882 105.744 169.667 105.587C169.567 105.506 169.449 105.443 169.32 105.402C169.192 105.362 169.056 105.345 168.92 105.353C168.784 105.361 168.652 105.393 168.53 105.448C168.408 105.502 168.3 105.578 168.212 105.67Z" fill="#263238"/>
<path d="M160.592 98.5428C160.592 98.7141 161.617 98.7297 162.519 99.3526C163.421 99.9756 163.742 100.837 163.928 100.806C164.015 100.806 164.062 100.547 163.928 100.157C163.743 99.6456 163.385 99.1975 162.903 98.875C162.431 98.5523 161.857 98.3707 161.262 98.3559C160.825 98.3507 160.581 98.4649 160.592 98.5428Z" fill="#263238"/>
<path d="M169.423 104.212C169.458 104.383 170.459 104.342 171.408 104.913C172.357 105.484 172.735 106.325 172.916 106.283C173.003 106.283 173.032 106.018 172.875 105.639C172.656 105.138 172.267 104.71 171.763 104.414C171.269 104.116 170.682 103.965 170.087 103.983C169.644 104.009 169.406 104.134 169.423 104.212Z" fill="#263238"/>
<path d="M161.169 108.365C160.808 107.902 160.382 107.483 159.9 107.119C159.684 106.937 159.504 106.745 159.585 106.6C159.667 106.454 159.946 106.257 160.266 106.081L162.31 104.975C165.191 103.386 167.473 102.016 167.397 101.912C167.322 101.808 164.929 103.013 162.048 104.606L160.022 105.738C159.737 105.915 159.352 106.075 159.207 106.465C159.178 106.561 159.173 106.662 159.193 106.76C159.213 106.858 159.258 106.95 159.323 107.031C159.427 107.149 159.546 107.255 159.678 107.347C160.126 107.74 160.627 108.082 161.169 108.365Z" fill="#263238"/>
<path d="M173.346 100.495C173.271 100.78 174.313 101.222 175.355 101.995C176.397 102.769 177.101 103.553 177.415 103.438C177.555 103.376 177.555 103.065 177.346 102.629C177.062 102.064 176.631 101.569 176.088 101.185C174.196 100.401 174.394 100.376 174.249 100.386C173.725 100.313 173.387 100.36 173.346 100.495Z" fill="#263238"/>
<path d="M164.009 95.6096C164.009 95.9055 164.801 96.1288 165.564 96.6479C166.326 97.167 166.844 97.7225 167.159 97.6291C167.298 97.5823 167.362 97.328 167.228 96.9646C167.043 96.4957 166.697 96.0908 166.239 95.8069C165.791 95.5126 165.253 95.3478 164.696 95.3345C164.248 95.3449 164.015 95.4746 164.009 95.6096Z" fill="#263238"/>
<path d="M186.863 105.946C187.697 105.536 188.316 104.849 188.586 104.035C188.856 103.22 188.756 102.344 188.307 101.595C189.139 101.398 189.302 100.355 188.941 99.659C188.58 98.9633 187.911 98.413 187.585 97.7018C187.407 97.178 187.271 96.6437 187.177 96.1029C186.959 95.3491 186.521 94.6604 185.908 94.1068C185.294 93.5533 184.527 93.1547 183.685 92.9517C184.185 91.9653 183.626 90.7505 182.695 90.0445C181.708 89.3974 180.576 88.9477 179.377 88.7259C178.997 87.5891 178.32 86.5486 177.404 85.689C176.941 85.2642 176.38 84.9346 175.759 84.723C175.139 84.5115 174.475 84.423 173.812 84.4638C173.151 84.5236 172.529 84.7681 172.033 85.1625C171.537 85.5569 171.194 86.081 171.053 86.6597C170.522 86.2517 169.858 86.0076 169.159 85.964C168.46 85.9203 167.764 86.0794 167.174 86.4175C166.585 86.7556 166.134 87.2546 165.889 87.8399C165.644 88.4253 165.617 89.0657 165.814 89.6656C165.275 89.8316 164.805 90.139 164.465 90.5476C164.125 90.9561 163.932 91.4467 163.91 91.9549C163.91 92.9673 164.789 92.661 164.789 92.661L167.968 91.9446C168.468 92.3997 169.013 92.8133 169.598 93.1801C170.506 93.8509 171.566 94.338 172.706 94.6077C173.453 94.7083 174.209 94.7465 174.965 94.722C175.756 94.733 176.545 94.7885 177.328 94.8881C178.435 95.2248 179.445 95.774 180.288 96.497C181.131 97.2199 181.786 98.0991 182.206 99.0723C183.091 101.014 182.398 104.051 180.984 105.972C179.124 108.563 177.06 111.034 174.807 113.364C174.132 114.055 173.387 114.994 173.899 115.789C173.993 115.944 174.127 116.077 174.29 116.177C174.452 116.277 174.639 116.341 174.835 116.365C175.031 116.388 175.23 116.37 175.417 116.311C175.603 116.252 175.771 116.155 175.908 116.027C176.526 115.492 177.109 114.925 177.654 114.33L178.3 114.714C181.036 112.741 182.794 110.374 184.762 107.768C185.146 107.261 185.485 106.729 185.774 106.174C186.152 106.171 186.523 106.093 186.863 105.946Z" fill="#263238"/>
<path d="M184.47 99.5032C184.23 97.8644 183.396 96.3404 182.095 95.1632C181.051 94.1379 179.687 93.4147 178.178 93.0866C177.426 92.927 176.643 92.9163 175.886 93.0554C175.129 93.1944 174.415 93.4797 173.795 93.8913L168.788 91.6538C169.326 92.9718 170.386 94.0688 171.768 94.7381C173.151 95.4075 174.759 95.603 176.292 95.2878C176.622 96.1145 177.178 96.8551 177.908 97.4432C178.639 98.0312 179.521 98.4483 180.477 98.657C180.314 99.6525 180.443 100.669 180.851 101.607C181.259 102.545 181.932 103.372 182.806 104.009C183.437 103.413 183.913 102.7 184.201 101.922C184.489 101.143 184.581 100.317 184.47 99.5032Z" fill="#263238"/>
<path d="M169.9 93.2892C169.774 93.2011 169.671 93.0895 169.598 92.9621C169.371 92.6209 169.248 92.2324 169.242 91.8356C169.231 91.5304 169.287 91.2263 169.409 90.941C169.531 90.6557 169.716 90.395 169.953 90.1743C170.256 89.8967 170.627 89.6856 171.037 89.5576C171.447 89.4297 171.885 89.3885 172.316 89.4372L172.165 89.6604C171.759 89.1382 171.597 88.4963 171.711 87.8694C171.793 87.3498 172.07 86.8703 172.497 86.5092C172.896 86.1786 173.4 85.9664 173.94 85.9018C174.392 85.8308 174.857 85.8694 175.286 86.0138C175.715 86.1581 176.093 86.4027 176.379 86.7221C176.599 86.9717 176.723 87.2772 176.734 87.5942C176.734 87.8318 176.657 88.0643 176.513 88.2639C176.269 88.5962 175.995 88.6377 176.001 88.6221C176.165 88.5078 176.303 88.3669 176.408 88.2068C176.53 87.9874 176.575 87.7405 176.537 87.4981C176.5 87.2557 176.382 87.0288 176.199 86.8467C175.901 86.5382 175.51 86.3124 175.072 86.1961C174.635 86.0797 174.169 86.0777 173.731 86.1903C173.292 86.3028 172.898 86.5253 172.597 86.8312C172.296 87.137 172.099 87.5136 172.031 87.9161C171.937 88.4605 172.076 89.0166 172.421 89.4735L172.636 89.7487L172.269 89.6967C171.885 89.6488 171.493 89.6806 171.125 89.7895C170.756 89.8984 170.421 90.0816 170.145 90.3249C169.704 90.7221 169.451 91.2558 169.44 91.8148C169.443 92.3341 169.602 92.8433 169.9 93.2892Z" fill="white"/>
<path d="M184.855 107.581C184.116 107.558 183.403 107.333 182.811 106.937C182.161 106.621 181.638 106.131 181.315 105.536C181.391 105.484 182.008 106.138 182.986 106.693C183.964 107.249 184.878 107.519 184.855 107.581Z" fill="white"/>
<path d="M184.214 108.926C183.456 109.029 182.682 108.897 182.02 108.552C181.307 108.297 180.716 107.829 180.349 107.228C180.931 107.611 181.535 107.967 182.159 108.292C183.231 108.77 184.22 108.837 184.214 108.926Z" fill="white"/>
<path d="M150.929 117.071C153.618 118.985 156.884 120.141 160.313 120.393C160.313 120.393 154.882 122.989 149.398 118.488L150.929 117.071Z" fill="#EB996E"/>
<path d="M125.247 87.0543C125.247 87.0543 131.947 85.5955 132.354 85.6682C132.762 85.7408 141.668 85.6682 141.668 85.6682H152.105C152.105 85.6682 154.224 85.7668 154.556 86.6389C154.755 87.1323 154.755 87.6719 154.556 88.1652L145.824 88.7259C145.824 88.7259 146.313 90.1795 145.242 90.2521C144.171 90.3248 137.82 92.2145 135.538 91.9238C133.257 91.6331 129.746 91.4877 129.746 91.4877L127.371 91.9549L125.247 87.0543Z" fill="#FFBE9D"/>
<path d="M145.941 88.892C145.941 88.892 145.801 88.7362 145.487 88.5234C145.037 88.2388 144.515 88.0602 143.967 88.0043C143.275 87.9108 142.431 88.0043 141.47 87.9004C140.461 87.7277 139.482 87.4361 138.559 87.0335C137.646 86.6654 136.651 86.4879 135.649 86.5143C134.83 86.5461 134.026 86.7115 133.274 87.0023C132.588 87.2945 131.942 87.655 131.347 88.0769C131.461 87.9205 131.602 87.782 131.766 87.6668C132.189 87.327 132.665 87.0453 133.181 86.831C134.036 86.4797 134.965 86.2964 135.906 86.2937C136.847 86.291 137.778 86.469 138.635 86.8154C139.539 87.2109 140.495 87.5022 141.482 87.6824C142.396 87.7862 143.257 87.7291 143.979 87.8485C144.553 87.9186 145.093 88.1308 145.539 88.4611C145.715 88.5692 145.854 88.7182 145.941 88.892Z" fill="#EB996E"/>
<path d="M179.488 208.751L178.632 222.767C178.632 222.767 194.308 228.255 194.43 230.856L163.916 230.336L164.254 208.46L179.488 208.751Z" fill="#455A64"/>
<path d="M169.219 221.423C168.923 221.496 168.668 221.664 168.502 221.895C168.337 222.126 168.273 222.404 168.323 222.674C168.396 222.939 168.58 223.17 168.838 223.318C169.095 223.467 169.406 223.522 169.708 223.473C170.022 223.394 170.292 223.214 170.465 222.967C170.638 222.721 170.702 222.426 170.645 222.139C170.537 221.869 170.315 221.646 170.026 221.518C169.737 221.39 169.404 221.367 169.097 221.454" fill="#E0E0E0"/>
<path d="M163.916 230.336L164.044 228.13L193.254 229.443C193.254 229.443 194.599 229.994 194.419 230.845L163.916 230.336Z" fill="#263238"/>
<path d="M179.127 222.627C179.127 222.762 178.376 222.809 177.631 223.224C176.886 223.64 176.466 224.19 176.35 224.138C176.234 224.086 176.455 223.318 177.363 222.83C178.271 222.342 179.162 222.508 179.127 222.627Z" fill="#263238"/>
<path d="M182.293 223.868C182.322 223.998 181.671 224.216 181.129 224.766C180.588 225.316 180.454 225.913 180.308 225.903C180.163 225.892 180.081 225.145 180.739 224.465C181.397 223.785 182.293 223.738 182.293 223.868Z" fill="#263238"/>
<path d="M184.04 227.31C183.9 227.336 183.708 226.671 184.104 225.95C184.5 225.228 185.204 224.948 185.268 225.062C185.332 225.176 184.89 225.555 184.569 226.152C184.249 226.749 184.197 227.299 184.04 227.31Z" fill="#263238"/>
<path d="M178.929 219.419C178.859 219.538 178.184 219.341 177.34 219.377C176.496 219.414 175.832 219.642 175.756 219.528C175.681 219.414 176.338 218.947 177.316 218.915C178.294 218.884 178.999 219.315 178.929 219.419Z" fill="#263238"/>
<path d="M97.6781 178.796C97.6781 178.796 93.9875 197.979 98.8423 205.127L103.01 212.66V215.562C103.01 215.562 109.832 230.882 117.511 231.318C125.189 231.754 133.635 231.406 136.01 221.122C137.721 213.75 134.38 203.217 134.38 203.217L129.426 188.567L97.6781 178.796Z" fill="#263238"/>
<path d="M154.177 173.345C154.177 173.345 170.901 164.151 175.133 163.549C179.365 162.947 189.104 165.538 190.361 171.336C191.083 174.654 184.494 218.183 184.895 219.274C185.297 220.364 160.965 218.889 160.965 218.889L163.695 194.698C163.695 194.698 151.331 204.758 144.008 207.479C136.685 210.199 133.222 210.111 133.222 210.111L120.415 188.276L154.177 173.345Z" fill="#263238"/>
<path d="M170.651 180.78C170.692 180.811 170.017 181.475 169.068 182.648C166.585 185.7 164.894 189.206 164.12 192.912C163.823 194.334 163.747 195.227 163.695 195.222C163.671 195.013 163.671 194.803 163.695 194.594C163.731 194.02 163.801 193.448 163.905 192.881C164.235 191.005 164.821 189.173 165.651 187.425C166.493 185.682 167.575 184.039 168.87 182.534C169.261 182.076 169.679 181.636 170.121 181.216C170.283 181.056 170.46 180.91 170.651 180.78Z" fill="#455A64"/>
<path d="M116.928 229.828C116.848 229.814 116.77 229.791 116.695 229.76C116.476 229.685 116.262 229.596 116.055 229.495C115.287 229.132 114.579 228.675 113.954 228.135C113.034 227.335 112.204 226.457 111.474 225.514C110.636 224.475 109.792 223.261 108.878 222.025C107.262 219.937 105.777 217.771 104.43 215.536C103.93 214.669 103.563 213.953 103.324 213.459C103.187 213.204 103.074 212.938 102.987 212.665C103.158 212.902 103.306 213.153 103.429 213.413C103.703 213.901 104.099 214.601 104.623 215.453C105.659 217.161 107.277 219.419 109.128 221.88C110.048 223.12 110.874 224.325 111.701 225.374C112.412 226.312 113.216 227.191 114.105 228C114.944 228.726 115.895 229.342 116.928 229.828Z" fill="#455A64"/>
<path d="M147.995 182.669C147.808 182.859 147.601 183.032 147.378 183.188C146.965 183.505 146.389 183.983 145.69 184.59C142.049 187.764 139.18 191.572 137.261 195.777C136.895 196.582 136.615 197.241 136.441 197.703C136.36 197.946 136.257 198.182 136.132 198.409C136.17 198.158 136.237 197.912 136.33 197.672C136.47 197.2 136.714 196.525 137.063 195.705C137.466 194.746 137.929 193.809 138.449 192.896C139.717 190.653 141.295 188.56 143.146 186.667C143.901 185.895 144.699 185.158 145.539 184.46C146.261 183.868 146.866 183.422 147.285 183.116C147.508 182.95 147.746 182.801 147.995 182.669Z" fill="#455A64"/>
<path d="M126.591 190.544C126.808 190.77 127.003 191.011 127.173 191.266C127.54 191.744 128.047 192.45 128.64 193.343C131.716 197.981 133.999 203.003 135.416 208.242C135.684 209.249 135.876 210.064 135.998 210.635C136.069 210.928 136.118 211.224 136.144 211.523C136.031 211.241 135.945 210.951 135.888 210.656C135.742 210.095 135.521 209.285 135.23 208.289C133.706 203.1 131.434 198.109 128.472 193.441C127.889 192.543 127.43 191.827 127.092 191.334C126.902 191.083 126.734 190.819 126.591 190.544Z" fill="#455A64"/>
<path d="M157.955 109.564C158.636 109.357 159.073 109.611 159.643 109.865C159.919 109.98 160.155 110.159 160.325 110.384C160.496 110.609 160.594 110.871 160.61 111.142C160.63 111.439 160.535 111.734 160.34 111.975C160.144 112.216 159.861 112.39 159.539 112.466C159.079 112.592 158.587 112.582 158.134 112.439C157.682 112.296 157.292 112.027 157.024 111.672C156.923 111.48 156.867 111.271 156.859 111.059C156.852 110.847 156.893 110.636 156.98 110.439C157.067 110.242 157.199 110.062 157.366 109.912C157.534 109.761 157.735 109.643 157.955 109.564Z" fill="#EB996E"/>
<path d="M157.432 112.191C157.812 112.297 158.202 112.379 158.596 112.435C159.009 112.454 159.418 112.352 159.76 112.144C159.964 112.017 160.126 111.842 160.229 111.639C160.331 111.436 160.37 111.213 160.342 110.992C160.308 110.767 160.223 110.552 160.09 110.359C159.958 110.166 159.782 109.999 159.574 109.87C159.245 109.636 158.829 109.521 158.41 109.548C158.121 109.573 157.843 109.654 157.595 109.787C157.414 109.875 157.309 109.933 157.298 109.917C157.286 109.901 157.362 109.818 157.531 109.699C157.776 109.519 158.072 109.402 158.386 109.362C158.866 109.3 159.354 109.41 159.743 109.668C159.988 109.814 160.195 110.006 160.351 110.23C160.507 110.454 160.607 110.704 160.645 110.966C160.679 111.234 160.629 111.505 160.502 111.749C160.375 111.993 160.174 112.202 159.923 112.352C159.52 112.584 159.036 112.68 158.561 112.622C158.25 112.589 157.95 112.502 157.676 112.367C157.513 112.253 157.42 112.201 157.432 112.191Z" fill="#263238"/>
<path d="M204.454 149.33L197.108 159.536L182.922 146.418C182.922 146.418 179.977 142.389 177.45 139.534C175.583 137.435 173.544 135.462 171.35 133.631L171.035 133.875L160.592 143.313L163.084 152.788C163.084 152.788 185.006 169.701 187.602 171.321C190.198 172.94 198.173 177.867 202.068 176.943C205.962 176.019 212.778 153.037 212.778 153.037L204.454 149.33Z" fill="#455A64"/>
<path d="M116.579 124.91L109.687 143.713C109.687 143.713 95.3088 173.776 97.3462 180.78C101.572 182.337 121.213 192.31 133.437 188.743C137.598 187.55 141.451 185.629 144.769 183.092C148.088 180.556 150.805 177.454 152.763 173.968V170.615L174.359 139.088L171.326 133.631L162.595 128.793L158.409 128.43C156.21 128.236 154.124 127.467 152.415 126.218C150.706 124.969 149.449 123.296 148.805 121.411L148.188 119.599L137.535 112.124L116.579 124.91Z" fill="#455A64"/>
<path d="M125.544 86.6648C125.544 86.6648 96.1704 94.4519 92.9455 96.7828C89.7206 99.1137 86.5423 102.229 88.0034 106.896C89.4644 111.563 116.381 127.012 116.381 127.012L139.217 113.458C139.217 113.458 134.898 109.528 129.636 107.934C126.318 106.932 110.746 103.604 110.746 103.604L129.88 96.5959L125.544 86.6648Z" fill="#455A64"/>
<path d="M152.716 169.877C152.61 169.954 152.495 170.021 152.373 170.075L151.354 170.594C150.912 170.822 150.37 171.087 149.724 171.367C149.078 171.648 148.351 172.001 147.518 172.328C146.686 172.655 145.772 173.034 144.794 173.366C143.816 173.698 142.739 174.077 141.61 174.446C136.688 175.989 131.581 177.017 126.393 177.509C125.194 177.607 124.065 177.711 122.994 177.748C121.923 177.784 120.933 177.831 120.025 177.841C119.117 177.851 118.279 177.841 117.574 177.841C116.87 177.841 116.236 177.799 115.729 177.763L114.565 177.69C114.428 177.688 114.291 177.672 114.157 177.644C114.293 177.629 114.43 177.629 114.565 177.644L115.729 177.67C116.236 177.67 116.853 177.706 117.574 177.701C118.296 177.696 119.111 177.701 120.013 177.701C120.916 177.701 121.911 177.654 122.971 177.576C124.03 177.498 125.165 177.415 126.358 177.312C128.939 177.026 131.502 176.624 134.036 176.107C136.726 175.557 139.275 174.892 141.517 174.212C142.646 173.854 143.717 173.522 144.701 173.174C145.685 172.826 146.604 172.478 147.431 172.136C148.257 171.793 148.997 171.492 149.649 171.217C150.301 170.942 150.854 170.698 151.302 170.485L152.344 170.018C152.463 169.96 152.587 169.913 152.716 169.877Z" fill="#263238"/>
<path d="M167.63 147.238C167.569 147.358 167.492 147.471 167.403 147.575L166.693 148.51C166.384 148.92 166 149.408 165.529 149.958C165.057 150.509 164.533 151.158 163.893 151.827C163.253 152.497 162.583 153.244 161.797 154.002C161.011 154.76 160.162 155.56 159.253 156.396C155.239 159.952 150.741 163.046 145.865 165.605C144.736 166.176 143.665 166.737 142.628 167.194C141.592 167.651 140.632 168.087 139.718 168.455C138.804 168.824 138.001 169.12 137.279 169.39C136.557 169.66 135.928 169.872 135.41 170.039L134.217 170.412C134.08 170.463 133.938 170.501 133.792 170.527C133.918 170.458 134.053 170.402 134.194 170.36L135.358 169.94C135.87 169.763 136.493 169.54 137.203 169.255C137.913 168.969 138.74 168.673 139.613 168.279C140.486 167.884 141.47 167.49 142.483 166.996C143.496 166.503 144.573 165.958 145.696 165.387C150.531 162.813 155.004 159.734 159.021 156.214C159.929 155.394 160.808 154.625 161.576 153.852C162.344 153.078 163.06 152.372 163.695 151.703C164.329 151.033 164.859 150.41 165.36 149.87C165.86 149.33 166.25 148.832 166.571 148.448C166.891 148.063 167.153 147.773 167.327 147.544C167.42 147.436 167.521 147.333 167.63 147.238Z" fill="#263238"/>
<path d="M112.231 118.353C112.62 118.709 112.957 119.109 113.232 119.542C113.95 120.559 114.535 121.646 114.978 122.781C115.422 123.917 115.717 125.095 115.857 126.291C115.943 126.782 115.957 127.281 115.898 127.775C115.787 127.293 115.704 126.806 115.648 126.317C115.443 125.144 115.121 123.991 114.687 122.87C114.246 121.753 113.696 120.673 113.046 119.64C112.745 119.226 112.473 118.796 112.231 118.353Z" fill="#263238"/>
<path d="M173.62 148.842C173.62 148.884 172.956 149.07 171.874 149.46C169.127 150.473 166.632 151.96 164.533 153.836C163.73 154.553 163.276 155.041 163.235 155.009C163.194 154.978 163.317 154.869 163.509 154.636C163.779 154.312 164.068 154.002 164.376 153.706C166.426 151.726 168.977 150.209 171.815 149.283C172.24 149.141 172.674 149.02 173.114 148.92C173.276 148.868 173.447 148.842 173.62 148.842Z" fill="#263238"/>
<path d="M199.588 156.235C199.375 156.699 199.116 157.146 198.814 157.569C198.301 158.373 197.574 159.479 196.759 160.684C195.944 161.888 195.187 162.989 194.628 163.767C194.353 164.205 194.031 164.619 193.668 165.003C193.883 164.538 194.144 164.092 194.448 163.669C194.96 162.859 195.682 161.758 196.497 160.554C197.312 159.349 198.069 158.254 198.627 157.47C198.905 157.033 199.227 156.62 199.588 156.235Z" fill="#263238"/>
<path d="M215.671 228.39H188.05C187.686 228.391 187.336 228.521 187.079 228.752C186.821 228.982 186.677 229.295 186.677 229.62C186.677 229.945 186.821 230.257 187.079 230.486C187.337 230.716 187.686 230.845 188.05 230.845H215.671C216.036 230.845 216.386 230.716 216.645 230.487C216.904 230.257 217.05 229.945 217.051 229.62C217.051 229.294 216.906 228.981 216.647 228.75C216.388 228.519 216.037 228.39 215.671 228.39Z" fill="#E0E0E0"/>
<path d="M211.265 230.845H263.515L268.673 199.375C268.737 198.993 268.708 198.603 268.589 198.232C268.469 197.861 268.26 197.518 267.978 197.225C267.696 196.932 267.346 196.697 266.952 196.536C266.559 196.375 266.131 196.291 265.698 196.291L219.828 196.623C218.338 196.623 216.917 197.262 216.696 198.57L211.265 230.845Z" fill="#E0E0E0"/>
<path d="M240.819 215.749C242.404 215.749 243.688 214.603 243.688 213.189C243.688 211.776 242.404 210.63 240.819 210.63C239.234 210.63 237.949 211.776 237.949 213.189C237.949 214.603 239.234 215.749 240.819 215.749Z" fill="white"/>
<path d="M213.541 230.57C213.605 230.57 215.066 222.985 216.801 213.615C218.536 204.244 219.892 196.634 219.828 196.623C219.764 196.613 218.303 204.203 216.562 213.578C214.822 222.954 213.477 230.559 213.541 230.57Z" fill="#263238"/>
<path d="M320.346 230.845C320.346 230.923 248.63 230.98 160.179 230.98C71.7275 230.98 0 230.923 0 230.845C0 230.767 71.6926 230.71 160.173 230.71C248.654 230.71 320.346 230.772 320.346 230.845Z" fill="#263238"/>
<path d="M317.587 110.275H212.761V160.175H224.211V173.999L239.718 160.175H317.587V110.275Z" fill="white"/>
<path d="M317.587 110.275C317.587 110.275 317.587 110.566 317.587 111.148C317.587 111.729 317.587 112.596 317.587 113.743C317.587 116.022 317.587 119.371 317.587 123.68C317.587 132.323 317.622 144.803 317.651 160.191V160.289H317.535L239.666 160.32L239.771 160.284L224.322 174.098L224.066 174.327V174C224.066 169.597 224.066 164.909 224.066 160.175L224.217 160.31H212.61V160.175C212.61 142.561 212.61 125.766 212.61 110.275V110.177H212.749L288.313 110.239L309.892 110.27H315.614H317.087H315.602H309.851L288.237 110.301L212.767 110.364L212.906 110.239C212.906 125.73 212.906 142.524 212.906 160.139L212.755 160.004H224.357V173.963L224.1 173.87L239.608 160.045L239.649 160.004H239.713L317.581 160.04L317.471 160.139C317.471 144.777 317.517 132.318 317.535 123.69C317.535 119.371 317.535 116.012 317.535 113.733C317.535 112.591 317.535 111.724 317.535 111.137C317.535 110.551 317.587 110.275 317.587 110.275Z" fill="#263238"/>
<path d="M316.522 117.756C316.522 117.834 293.29 117.891 264.644 117.891C235.999 117.891 212.761 117.834 212.761 117.756C212.761 117.678 235.987 117.621 264.644 117.621C293.302 117.621 316.522 117.683 316.522 117.756Z" fill="#263238"/>
<path d="M218.448 114.408C218.448 114.652 218.367 114.891 218.215 115.094C218.062 115.297 217.846 115.456 217.593 115.549C217.34 115.643 217.061 115.667 216.792 115.619C216.524 115.572 216.277 115.454 216.083 115.281C215.889 115.109 215.757 114.888 215.704 114.649C215.65 114.409 215.678 114.161 215.783 113.935C215.888 113.709 216.065 113.516 216.293 113.38C216.521 113.245 216.789 113.172 217.063 113.172C217.43 113.173 217.781 113.304 218.041 113.536C218.3 113.767 218.447 114.08 218.448 114.408Z" fill="#E0E0E0"/>
<path d="M222.552 114.408C222.553 114.654 222.472 114.894 222.32 115.099C222.168 115.304 221.95 115.464 221.696 115.558C221.441 115.653 221.161 115.678 220.891 115.63C220.62 115.582 220.372 115.464 220.177 115.29C219.982 115.116 219.849 114.895 219.796 114.654C219.742 114.412 219.771 114.163 219.877 113.936C219.983 113.709 220.162 113.515 220.391 113.379C220.621 113.243 220.891 113.171 221.167 113.172C221.534 113.173 221.885 113.304 222.144 113.536C222.404 113.767 222.55 114.08 222.552 114.408Z" fill="#E0E0E0"/>
<path d="M226.65 114.408C226.65 114.652 226.569 114.891 226.416 115.094C226.264 115.297 226.048 115.456 225.795 115.549C225.542 115.643 225.263 115.667 224.994 115.619C224.726 115.572 224.479 115.454 224.285 115.281C224.091 115.109 223.959 114.888 223.906 114.649C223.852 114.409 223.88 114.161 223.985 113.935C224.089 113.709 224.267 113.516 224.495 113.38C224.723 113.245 224.991 113.172 225.265 113.172C225.632 113.172 225.984 113.302 226.244 113.534C226.504 113.766 226.65 114.08 226.65 114.408Z" fill="#E0E0E0"/>
<path d="M292.463 143.858C292.114 141.995 293.086 140.562 294.862 140.292C296.637 140.022 298.057 141.091 298.412 142.965C298.767 144.839 297.83 146.262 296.037 146.527C294.245 146.791 292.818 145.717 292.463 143.858ZM297.242 143.142C296.98 141.771 296.154 141.065 295.036 141.226C293.919 141.387 293.4 142.327 293.657 143.677C293.913 145.026 294.763 145.753 295.857 145.597C296.951 145.442 297.498 144.512 297.242 143.142ZM302.598 139.233L304.007 139.025L297.417 151.754L296.008 151.967L302.598 139.233ZM301.626 148.027C301.276 146.163 302.208 144.73 304.001 144.466C305.794 144.201 307.22 145.276 307.575 147.134C307.93 148.993 306.952 150.431 305.177 150.695C303.401 150.96 301.952 149.886 301.626 148.027ZM306.381 147.311C306.125 145.956 305.276 145.234 304.181 145.395C303.087 145.556 302.54 146.48 302.796 147.85C303.052 149.221 303.884 149.927 305.002 149.766C306.12 149.605 306.614 148.666 306.358 147.311H306.381Z" fill="#00274C"/>
<path d="M225.626 123.264C225.963 122.293 226.819 121.811 227.75 122.065C228.682 122.319 229.078 123.14 228.74 124.142C228.402 125.143 227.576 125.606 226.621 125.346C225.666 125.086 225.288 124.24 225.626 123.264ZM228.123 123.955C228.373 123.238 228.164 122.714 227.582 122.553C226.999 122.392 226.493 122.729 226.248 123.436C226.004 124.142 226.214 124.681 226.79 124.842C227.366 125.003 227.878 124.671 228.123 123.955ZM231.773 123.228L232.512 123.43L225.864 128.149L225.131 127.947L231.773 123.228ZM228.903 127.256C229.241 126.28 230.067 125.792 231.016 126.052C231.965 126.312 232.355 127.137 232.017 128.129C231.68 129.12 230.818 129.582 229.892 129.328C228.967 129.073 228.565 128.227 228.903 127.256ZM231.394 127.942C231.639 127.23 231.394 126.696 230.847 126.535C230.3 126.374 229.764 126.706 229.514 127.422C229.264 128.139 229.473 128.663 230.055 128.824C230.638 128.985 231.15 128.648 231.394 127.942Z" fill="#00274C"/>
<path d="M309.967 127.542L314.968 129.977L309.967 132.417L307.231 136.876L304.496 132.417L299.501 129.977L304.496 127.542L307.231 123.083L309.967 127.542Z" fill="#00274C"/>
<path d="M294.71 121.385L296.416 122.215L294.71 123.046L293.779 124.567L292.848 123.046L291.148 122.215L292.848 121.385L293.779 119.869L294.71 121.385Z" fill="#00274C"/>
<path d="M234.625 146.532L236.773 147.581L234.625 148.629L233.449 150.54L232.279 148.629L230.131 147.581L232.279 146.532L233.449 144.622L234.625 146.532Z" fill="#00274C"/>
<path d="M223.984 139.176L225.305 139.814L223.984 140.458L223.262 141.636L222.546 140.458L221.225 139.814L222.546 139.176L223.262 137.997L223.984 139.176Z" fill="#00274C"/>
<path d="M280.641 133.335L282.055 134.026L280.641 134.716L279.866 135.978L279.092 134.716L277.678 134.026L279.092 133.335L279.866 132.074L280.641 133.335Z" fill="#00274C"/>
<path d="M279.139 142.104L279.75 142.4L279.139 142.701L278.801 143.246L278.469 142.701L277.858 142.4L278.469 142.104L278.801 141.559L279.139 142.104Z" fill="#00274C"/>
<path d="M237.407 128.539L238.577 129.104L237.407 129.675L236.773 130.714L236.133 129.675L234.968 129.104L236.133 128.539L236.773 127.5L237.407 128.539Z" fill="#00274C"/>
<path d="M268.882 110.618L271.117 112.694C271.599 113.138 272.201 113.463 272.865 113.638C273.529 113.812 274.233 113.831 274.907 113.691L278.033 113.037C278.556 112.928 279.098 112.914 279.627 112.996C280.156 113.077 280.662 113.253 281.113 113.512C281.565 113.771 281.954 114.108 282.257 114.504C282.559 114.899 282.77 115.345 282.876 115.814L283.511 118.618C283.648 119.223 283.959 119.787 284.413 120.253C284.867 120.72 285.448 121.074 286.101 121.281L289.122 122.241C289.629 122.401 290.094 122.65 290.491 122.974C290.887 123.298 291.206 123.689 291.43 124.125C291.653 124.561 291.775 125.032 291.79 125.512C291.805 125.991 291.711 126.467 291.515 126.914L290.35 129.577C290.101 130.154 290.024 130.778 290.126 131.39C290.228 132.001 290.506 132.578 290.932 133.065L292.894 135.329C293.223 135.708 293.463 136.141 293.6 136.604C293.737 137.067 293.768 137.55 293.692 138.024C293.616 138.498 293.434 138.953 293.157 139.363C292.88 139.773 292.514 140.13 292.079 140.411L289.477 142.093C288.917 142.455 288.471 142.94 288.183 143.502C287.895 144.063 287.776 144.681 287.836 145.296L288.115 148.152C288.161 148.629 288.099 149.109 287.933 149.564C287.767 150.019 287.501 150.44 287.149 150.802C286.797 151.164 286.367 151.459 285.885 151.67C285.403 151.88 284.879 152.003 284.343 152.03L281.141 152.19C280.45 152.225 279.781 152.419 279.198 152.753C278.616 153.087 278.14 153.549 277.818 154.096L276.322 156.629C276.072 157.053 275.729 157.428 275.313 157.731C274.898 158.035 274.418 158.261 273.903 158.396C273.388 158.531 272.847 158.572 272.314 158.518C271.78 158.463 271.265 158.313 270.797 158.077L268.003 156.665C267.4 156.362 266.719 156.202 266.027 156.202C265.334 156.202 264.654 156.362 264.051 156.665L261.262 158.077C260.795 158.313 260.279 158.463 259.746 158.518C259.212 158.572 258.672 158.531 258.157 158.396C257.641 158.261 257.162 158.035 256.746 157.731C256.331 157.428 255.988 157.053 255.738 156.629L254.242 154.096C253.919 153.55 253.443 153.088 252.861 152.754C252.278 152.42 251.609 152.226 250.918 152.19L247.711 152.03C247.175 152.003 246.651 151.88 246.169 151.669C245.687 151.459 245.258 151.164 244.907 150.802C244.556 150.44 244.289 150.019 244.124 149.564C243.959 149.109 243.898 148.628 243.945 148.152L244.218 145.296C244.278 144.681 244.159 144.063 243.871 143.502C243.583 142.94 243.137 142.455 242.577 142.093L239.98 140.411C239.545 140.131 239.177 139.775 238.899 139.365C238.621 138.955 238.438 138.499 238.362 138.025C238.285 137.551 238.316 137.068 238.453 136.605C238.591 136.142 238.831 135.708 239.16 135.329L241.121 133.065C241.548 132.578 241.826 132.001 241.928 131.39C242.03 130.778 241.953 130.154 241.703 129.577L240.539 126.914C240.345 126.467 240.252 125.991 240.268 125.512C240.283 125.033 240.406 124.562 240.629 124.127C240.852 123.691 241.171 123.3 241.566 122.976C241.962 122.652 242.426 122.402 242.932 122.241L245.959 121.281C246.611 121.074 247.191 120.719 247.644 120.253C248.097 119.786 248.407 119.223 248.543 118.618L249.178 115.814C249.285 115.345 249.496 114.9 249.799 114.505C250.102 114.11 250.49 113.773 250.942 113.514C251.393 113.255 251.898 113.079 252.427 112.997C252.956 112.915 253.498 112.929 254.021 113.037L257.147 113.691C257.821 113.831 258.525 113.813 259.189 113.639C259.853 113.464 260.455 113.139 260.936 112.694L263.172 110.618C263.545 110.281 263.989 110.013 264.479 109.83C264.97 109.647 265.496 109.553 266.027 109.553C266.558 109.553 267.084 109.647 267.574 109.83C268.065 110.013 268.509 110.281 268.882 110.618Z" fill="#00274C"/>
<g opacity="0.3">
<path d="M262.089 124.78V126.919C262.089 129.551 260.709 130.984 257.904 130.984H256.576V137.172H253.765V120.715H257.904C260.709 120.715 262.089 122.148 262.089 124.78ZM256.576 123.067V128.637H257.904C258.794 128.637 259.277 128.258 259.277 127.08V124.614C259.277 123.435 258.794 123.056 257.904 123.056L256.576 123.067Z" fill="black"/>
<path d="M263.16 124.666C263.16 122.034 264.668 120.513 267.421 120.513C270.174 120.513 271.688 122.018 271.688 124.666V133.216C271.688 135.848 270.18 137.369 267.421 137.369C264.662 137.369 263.16 135.864 263.16 133.216V124.666ZM265.966 133.382C265.966 134.555 266.548 135.002 267.421 135.002C268.294 135.002 268.876 134.555 268.876 133.382V124.5C268.876 123.326 268.294 122.88 267.421 122.88C266.548 122.88 265.966 123.326 265.966 124.5V133.382Z" fill="black"/>
<path d="M281.834 124.78V126.919C281.834 129.551 280.454 130.984 277.649 130.984H276.321V137.172H273.51V120.715H277.649C280.443 120.715 281.834 122.148 281.834 124.78ZM276.321 123.067V128.637H277.649C278.539 128.637 279.022 128.258 279.022 127.08V124.614C279.022 123.435 278.539 123.056 277.649 123.056L276.321 123.067Z" fill="black"/>
<path d="M262.968 139.248V149.346C262.968 150.28 263.434 150.617 264.167 150.617C264.9 150.617 265.36 150.28 265.36 149.346V139.248H267.537V149.216C267.537 151.292 266.373 152.502 264.103 152.502C261.833 152.502 260.663 151.308 260.663 149.216V139.248H262.968Z" fill="black"/>
<path d="M275.943 142.467V144.17C275.943 146.246 274.814 147.404 272.509 147.404H271.42V152.32H269.092V139.248H272.52C274.814 139.248 275.943 140.375 275.943 142.467ZM271.42 141.102V145.535H272.52C273.254 145.535 273.65 145.234 273.65 144.3V142.363C273.65 141.429 273.254 141.128 272.52 141.128L271.42 141.102Z" fill="black"/>
</g>
<path d="M260.814 124.78V126.919C260.814 129.551 259.435 130.984 256.629 130.984H255.302V137.172H252.49V120.715H256.629C259.435 120.715 260.814 122.148 260.814 124.78ZM255.302 123.067V128.637H256.629C257.519 128.637 258.008 128.258 258.008 127.08V124.614C258.008 123.435 257.519 123.056 256.629 123.056L255.302 123.067Z" fill="white"/>
<path d="M261.885 124.666C261.885 122.034 263.393 120.513 266.152 120.513C268.911 120.513 270.413 122.018 270.413 124.666V133.216C270.413 135.848 268.905 137.369 266.152 137.369C263.399 137.369 261.885 135.864 261.885 133.216V124.666ZM264.697 133.382C264.697 134.555 265.279 135.002 266.152 135.002C267.025 135.002 267.607 134.555 267.607 133.382V124.5C267.607 123.326 267.025 122.88 266.152 122.88C265.279 122.88 264.697 123.326 264.697 124.5V133.382Z" fill="white"/>
<path d="M280.548 124.78V126.919C280.548 129.551 279.168 130.984 276.362 130.984H275.035V137.172H272.223V120.715H276.362C279.168 120.715 280.548 122.148 280.548 124.78ZM275.035 123.067V128.637H276.362C277.253 128.637 277.742 128.258 277.742 127.08V124.614C277.742 123.435 277.253 123.056 276.362 123.056L275.035 123.067Z" fill="white"/>
<path d="M261.699 139.248V149.346C261.699 150.28 262.159 150.617 262.892 150.617C263.626 150.617 264.056 150.28 264.056 149.346V139.248H266.239V149.216C266.239 151.292 265.075 152.502 262.799 152.502C260.523 152.502 259.365 151.308 259.365 149.216V139.248H261.699Z" fill="white"/>
<path d="M274.674 142.467V144.17C274.674 146.246 273.51 147.404 271.234 147.404H270.145V152.32H267.817V139.248H271.211C273.539 139.248 274.674 140.375 274.674 142.467ZM270.145 141.102V145.535H271.234C271.967 145.535 272.398 145.234 272.398 144.3V142.363C272.398 141.429 271.996 141.128 271.234 141.128L270.145 141.102Z" fill="white"/>
<path d="M317.017 120.731C321.845 120.731 325.76 117.24 325.76 112.933C325.76 108.627 321.845 105.136 317.017 105.136C312.188 105.136 308.273 108.627 308.273 112.933C308.273 117.24 312.188 120.731 317.017 120.731Z" fill="#00274C"/>
<path d="M320.426 111.005L319.183 109.896L313.609 114.866L314.853 115.975L320.426 111.005Z" fill="white"/>
<path d="M314.848 109.888L313.605 110.996L319.178 115.967L320.421 114.858L314.848 109.888Z" fill="white"/>
<path d="M4.55209 107.913V157.813H73.6252L87.4677 170.158V157.813V157.159V107.913H4.55209Z" fill="#FAFAFA"/>
<path d="M4.55212 107.913H4.93631H6.10053H10.5711L27.5105 107.877L87.4678 107.82H87.6016V107.939C87.6016 125.408 87.6016 145.405 87.6016 166.56V170.511L87.3397 170.277L73.4971 157.932L73.6077 157.974L4.55212 157.937H4.4357V157.834C4.4648 142.529 4.48227 130.049 4.49973 121.385C4.49973 117.066 4.49973 113.702 4.52884 111.412C4.52884 110.275 4.52884 109.403 4.52884 108.817C4.52884 108.23 4.52884 107.939 4.52884 107.939C4.52884 107.939 4.52884 108.251 4.52884 108.843C4.52884 109.434 4.52884 110.312 4.52884 111.438C4.52884 113.733 4.52884 117.107 4.55794 121.432C4.55794 130.08 4.59287 142.545 4.62197 157.818L4.49973 157.714L73.5728 157.683H73.631L73.6776 157.725L87.5202 170.07L87.264 170.163V166.529C87.264 145.374 87.264 125.377 87.264 107.908L87.4037 108.027L27.5163 107.97L10.5478 107.939H6.04814H4.88393L4.55212 107.913Z" fill="#263238"/>
<path d="M67.5305 126.639L58.0829 119.552C57.7099 119.274 57.2759 119.069 56.8088 118.949C56.3418 118.829 55.8518 118.798 55.3702 118.857L28.5932 122.148C28.1391 122.206 27.7023 122.343 27.3076 122.551C26.9129 122.76 26.5682 123.036 26.293 123.363C26.0179 123.69 25.8178 124.063 25.704 124.459C25.5903 124.856 25.5652 125.268 25.6303 125.673L28.4302 142.55C28.5738 143.358 29.0683 144.084 29.8069 144.57C30.5454 145.055 31.4686 145.262 32.3769 145.146L59.0084 141.59C59.5005 141.525 59.9712 141.366 60.3882 141.124C60.8051 140.883 61.1585 140.563 61.4242 140.188L68.1999 130.667C68.6491 130.036 68.8286 129.281 68.7057 128.542C68.5828 127.802 68.1657 127.127 67.5305 126.639ZM63.4848 130.153C63.3447 130.641 63.0457 131.082 62.6256 131.419C62.2055 131.756 61.683 131.974 61.1239 132.047C60.5647 132.12 59.9939 132.043 59.4834 131.827C58.9728 131.612 58.5452 131.266 58.2545 130.834C57.9638 130.402 57.8229 129.902 57.8496 129.399C57.8762 128.896 58.0693 128.411 58.4044 128.005C58.7395 127.599 59.2017 127.291 59.7328 127.119C60.264 126.947 60.8403 126.919 61.3892 127.038C61.7577 127.118 62.1047 127.262 62.4101 127.462C62.7155 127.662 62.9733 127.914 63.1683 128.204C63.3633 128.494 63.4917 128.816 63.5461 129.15C63.6004 129.485 63.5796 129.826 63.4848 130.153Z" fill="#455A64"/>
<g opacity="0.4">
<path d="M67.5305 126.639L58.0829 119.552C57.7099 119.274 57.2759 119.069 56.8088 118.949C56.3418 118.829 55.8518 118.798 55.3702 118.857L28.5932 122.148C28.1391 122.206 27.7023 122.343 27.3076 122.551C26.9129 122.76 26.5682 123.036 26.293 123.363C26.0179 123.69 25.8178 124.063 25.704 124.459C25.5903 124.856 25.5652 125.268 25.6303 125.673L28.4302 142.55C28.5738 143.358 29.0683 144.084 29.8069 144.57C30.5454 145.055 31.4686 145.262 32.3769 145.146L59.0084 141.59C59.5005 141.525 59.9712 141.366 60.3882 141.124C60.8051 140.883 61.1585 140.563 61.4242 140.188L68.1999 130.667C68.6491 130.036 68.8286 129.281 68.7057 128.542C68.5828 127.802 68.1657 127.127 67.5305 126.639ZM63.4848 130.153C63.3447 130.641 63.0457 131.082 62.6256 131.419C62.2055 131.756 61.683 131.974 61.1239 132.047C60.5647 132.12 59.9939 132.043 59.4834 131.827C58.9728 131.612 58.5452 131.266 58.2545 130.834C57.9638 130.402 57.8229 129.902 57.8496 129.399C57.8762 128.896 58.0693 128.411 58.4044 128.005C58.7395 127.599 59.2017 127.291 59.7328 127.119C60.264 126.947 60.8403 126.919 61.3892 127.038C61.7577 127.118 62.1047 127.262 62.4101 127.462C62.7155 127.662 62.9733 127.914 63.1683 128.204C63.3633 128.494 63.4917 128.816 63.5461 129.15C63.6004 129.485 63.5796 129.826 63.4848 130.153Z" fill="black"/>
</g>
<path d="M68.9334 126.452L59.4683 119.371C59.0979 119.091 58.6651 118.884 58.1985 118.764C57.7319 118.644 57.2421 118.614 56.7615 118.675L29.9844 121.966C29.5303 122.024 29.0935 122.161 28.6988 122.37C28.3042 122.578 27.9594 122.854 27.6843 123.181C27.4091 123.509 27.209 123.881 27.0953 124.277C26.9816 124.674 26.9565 125.086 27.0215 125.491L29.8156 142.368C29.9592 143.178 30.4545 143.904 31.1944 144.39C31.9342 144.876 32.8589 145.082 33.7681 144.964L60.3996 141.408C60.891 141.341 61.3606 141.181 61.7772 140.94C62.1938 140.698 62.5477 140.38 62.8154 140.006L69.6028 130.47C70.0487 129.839 70.2264 129.087 70.1036 128.35C69.9808 127.613 69.5656 126.939 68.9334 126.452ZM64.8935 129.971C64.7534 130.46 64.4544 130.9 64.0343 131.237C63.6142 131.574 63.0917 131.792 62.5326 131.865C61.9734 131.938 61.4026 131.862 60.8921 131.646C60.3815 131.43 59.9539 131.084 59.6632 130.652C59.3725 130.22 59.2316 129.721 59.2582 129.217C59.2849 128.714 59.478 128.229 59.8131 127.823C60.1482 127.417 60.6104 127.109 61.1415 126.937C61.6727 126.765 62.249 126.737 62.7979 126.856C63.166 126.937 63.5125 127.081 63.8175 127.281C64.1226 127.482 64.38 127.734 64.5749 128.024C64.7698 128.313 64.8983 128.635 64.953 128.969C65.0077 129.303 64.9875 129.644 64.8935 129.971Z" fill="#00274C"/>
<path d="M36.8708 130.034C36.5564 127.983 37.7614 126.514 39.7464 126.27C41.7314 126.026 43.3147 127.147 43.6291 129.214C43.9434 131.28 42.7559 132.733 40.7709 132.977C38.7859 133.221 37.1851 132.084 36.8708 130.034ZM41.679 129.452C41.4811 128.149 40.8233 127.594 39.9676 127.698C39.1119 127.802 38.6404 128.513 38.8383 129.774C39.0362 131.036 39.7173 131.633 40.5555 131.529C41.3938 131.425 41.8769 130.755 41.679 129.452ZM47.8901 125.424L50.2185 125.144L42.7617 138.433L40.4333 138.714L47.8901 125.424ZM47.0169 134.644C46.7026 132.593 47.9076 131.119 49.8751 130.88C51.8426 130.641 53.4609 131.773 53.7694 133.824C54.0779 135.874 52.8788 137.343 50.8938 137.587C48.9088 137.831 47.3254 136.689 47.0169 134.644ZM51.8077 134.062C51.6098 132.775 50.9462 132.204 50.0614 132.308C49.1766 132.411 48.7342 133.102 48.9321 134.384C49.13 135.666 49.8111 136.243 50.6784 136.139C51.5457 136.035 51.9998 135.345 51.8077 134.057V134.062Z" fill="white"/>
<path d="M68.8635 131.591C68.9678 131.626 69.0673 131.671 69.1604 131.726L69.9637 132.167C70.313 132.365 70.7321 132.609 71.2153 132.904C71.6984 133.2 72.234 133.548 72.7986 133.969C73.428 134.425 74.0122 134.929 74.5449 135.474L74.7603 135.697L74.964 135.931C75.1078 136.097 75.24 136.27 75.3599 136.45C75.6408 136.816 75.8386 137.227 75.942 137.66C75.9886 137.89 75.9886 138.125 75.942 138.355C75.8942 138.595 75.7912 138.823 75.6393 139.025C75.3309 139.435 74.8846 139.748 74.3645 139.918C73.8342 140.083 73.2702 140.143 72.7113 140.095C72.1487 140.047 71.594 139.943 71.0581 139.783C70.0066 139.465 69.0227 138.991 68.1476 138.381C67.7362 138.099 67.3472 137.792 66.9833 137.463C66.6185 137.148 66.2693 136.831 65.9355 136.513C64.7353 135.402 63.6825 134.173 62.798 132.847C62.6156 132.56 62.4526 132.285 62.309 132.022C62.2333 131.887 62.1693 131.757 62.1053 131.622C62.0427 131.496 61.9921 131.366 61.9539 131.233C61.8704 130.982 61.8996 130.712 62.0354 130.48C62.1554 130.292 62.3359 130.14 62.5535 130.044C62.644 130.007 62.7374 129.976 62.8329 129.951C62.9181 129.928 63.006 129.914 63.0948 129.909C63.2297 129.889 63.3674 129.889 63.5023 129.909C63.5845 129.928 63.663 129.957 63.7352 129.997C63.7817 130.028 63.805 130.044 63.7992 130.049L63.7177 130.023C63.6442 129.998 63.5682 129.979 63.4907 129.966C63.3632 129.95 63.2339 129.95 63.1065 129.966C63.0258 129.979 62.9461 129.996 62.8678 130.018C62.7798 130.045 62.6942 130.078 62.6117 130.117C62.4247 130.21 62.2713 130.348 62.1693 130.516C62.0613 130.72 62.0466 130.953 62.1285 131.165C62.1656 131.291 62.2183 131.413 62.2857 131.529C62.3439 131.659 62.4138 131.783 62.4895 131.913C62.6408 132.173 62.8096 132.442 62.9959 132.723C63.9006 134.014 64.9583 135.215 66.1509 136.305C66.4827 136.616 66.832 136.928 67.1929 137.244C67.5597 137.562 67.9485 137.858 68.3571 138.132C69.2025 138.721 70.1529 139.179 71.1687 139.487C71.6797 139.641 72.2092 139.74 72.7462 139.783C73.2593 139.832 73.7782 139.779 74.2655 139.627C74.7241 139.48 75.1191 139.207 75.3948 138.849C75.6511 138.503 75.7471 138.083 75.6626 137.675C75.575 137.278 75.4031 136.899 75.1561 136.559C75.0421 136.389 74.9157 136.226 74.7778 136.071L74.5857 135.838L74.3761 135.614C73.8669 135.074 73.308 134.572 72.7055 134.114C72.1234 133.688 71.6286 133.33 71.1629 133.024C70.6972 132.718 70.2839 132.458 69.9463 132.25L69.1779 131.768C69.0644 131.722 68.9586 131.663 68.8635 131.591Z" fill="#263238"/>
<path d="M87.8112 116.853C87.8112 116.925 69.1546 116.988 46.1438 116.988C23.133 116.988 4.47061 116.925 4.47061 116.853C4.47061 116.78 23.0981 116.718 46.1438 116.718C69.1895 116.718 87.8112 116.78 87.8112 116.853Z" fill="#263238"/>
<path d="M10.1578 113.504C10.159 113.75 10.0782 113.991 9.92577 114.196C9.77334 114.4 9.55612 114.56 9.30167 114.655C9.04721 114.749 8.767 114.774 8.49659 114.727C8.22617 114.679 7.97774 114.561 7.78282 114.387C7.5879 114.213 7.45528 113.991 7.40179 113.75C7.34829 113.509 7.37633 113.259 7.48235 113.032C7.58837 112.805 7.76759 112.612 7.99727 112.476C8.22695 112.34 8.49673 112.268 8.77239 112.269C9.13935 112.27 9.49085 112.401 9.75033 112.632C10.0098 112.864 10.1563 113.177 10.1578 113.504Z" fill="#E0E0E0"/>
<path d="M14.2617 113.504C14.2593 113.75 14.175 113.99 14.0194 114.193C13.8638 114.397 13.644 114.554 13.3879 114.645C13.1318 114.737 12.851 114.758 12.5811 114.707C12.3113 114.656 12.0646 114.535 11.8724 114.358C11.6802 114.181 11.5512 113.958 11.5018 113.716C11.4524 113.474 11.4848 113.224 11.5949 112.999C11.705 112.773 11.8878 112.582 12.1201 112.449C12.3524 112.316 12.6237 112.248 12.8996 112.253C13.2655 112.26 13.6137 112.395 13.8687 112.629C14.1236 112.864 14.2649 113.178 14.2617 113.504Z" fill="#E0E0E0"/>
<path d="M18.3598 113.504C18.3563 113.748 18.2721 113.985 18.1178 114.186C17.9635 114.388 17.746 114.543 17.4925 114.635C17.2391 114.726 16.9611 114.748 16.6935 114.699C16.4259 114.649 16.1807 114.53 15.9887 114.357C15.7967 114.183 15.6664 113.963 15.6144 113.724C15.5623 113.485 15.5908 113.237 15.6961 113.012C15.8015 112.788 15.979 112.595 16.2065 112.46C16.4339 112.325 16.7011 112.253 16.9743 112.253C17.1577 112.253 17.3393 112.286 17.5086 112.349C17.6778 112.412 17.8313 112.504 17.9602 112.621C18.0891 112.737 18.1908 112.875 18.2593 113.027C18.3279 113.178 18.3621 113.341 18.3598 113.504Z" fill="#E0E0E0"/>
<path d="M92.4074 116.239C95.8218 113.194 95.8218 108.257 92.4074 105.211C88.9929 102.166 83.457 102.166 80.0425 105.211C76.628 108.257 76.628 113.194 80.0425 116.239C83.457 119.284 88.9929 119.284 92.4074 116.239Z" fill="#00274C"/>
<path d="M89.6321 108.793L88.389 107.685L82.8158 112.655L84.0588 113.764L89.6321 108.793Z" fill="white"/>
<path d="M84.0599 107.686L82.8169 108.794L88.3901 113.765L89.6332 112.656L84.0599 107.686Z" fill="white"/>
<path d="M55.8185 146.35H36.2072C34.2043 146.35 32.5807 147.798 32.5807 149.584V152.04C32.5807 153.826 34.2043 155.274 36.2072 155.274H55.8185C57.8213 155.274 59.445 153.826 59.445 152.04V149.584C59.445 147.798 57.8213 146.35 55.8185 146.35Z" fill="#455A64"/>
<path d="M40.3024 156.018C39.8848 156.018 39.5251 155.919 39.2235 155.722C38.9219 155.525 38.6899 155.253 38.5274 154.907C38.365 154.561 38.2838 154.165 38.2838 153.721C38.2838 153.268 38.367 152.869 38.5332 152.523C38.7015 152.175 38.9354 151.903 39.2351 151.708C39.5367 151.511 39.8886 151.412 40.2908 151.412C40.604 151.412 40.8863 151.47 41.1377 151.586C41.389 151.702 41.5949 151.864 41.7554 152.073C41.9159 152.282 42.0155 152.526 42.0541 152.804H41.3697C41.3175 152.601 41.2015 152.421 41.0217 152.265C40.8438 152.106 40.604 152.027 40.3024 152.027C40.0356 152.027 39.8016 152.096 39.6005 152.236C39.4014 152.373 39.2457 152.567 39.1336 152.819C39.0234 153.068 38.9683 153.361 38.9683 153.697C38.9683 154.042 39.0224 154.341 39.1307 154.596C39.2409 154.852 39.3956 155.05 39.5947 155.191C39.7958 155.332 40.0317 155.403 40.3024 155.403C40.4803 155.403 40.6417 155.372 40.7867 155.31C40.9318 155.248 41.0545 155.159 41.1551 155.043C41.2556 154.927 41.3272 154.788 41.3697 154.625H42.0541C42.0155 154.888 41.9198 155.125 41.767 155.336C41.6162 155.545 41.4161 155.711 41.1667 155.835C40.9192 155.957 40.6311 156.018 40.3024 156.018ZM43.7392 149.985V155.925H43.0547V149.985H43.7392ZM44.9928 155.925V151.47H45.6773V155.925H44.9928ZM45.3409 150.728C45.2075 150.728 45.0924 150.682 44.9957 150.591C44.901 150.5 44.8536 150.391 44.8536 150.264C44.8536 150.136 44.901 150.027 44.9957 149.936C45.0924 149.845 45.2075 149.799 45.3409 149.799C45.4743 149.799 45.5884 149.845 45.6831 149.936C45.7798 150.027 45.8281 150.136 45.8281 150.264C45.8281 150.391 45.7798 150.5 45.6831 150.591C45.5884 150.682 45.4743 150.728 45.3409 150.728ZM48.7407 156.018C48.3231 156.018 47.9634 155.919 47.6618 155.722C47.3602 155.525 47.1281 155.253 46.9657 154.907C46.8033 154.561 46.7221 154.165 46.7221 153.721C46.7221 153.268 46.8053 152.869 46.9715 152.523C47.1397 152.175 47.3737 151.903 47.6734 151.708C47.975 151.511 48.3269 151.412 48.7291 151.412C49.0423 151.412 49.3246 151.47 49.576 151.586C49.8273 151.702 50.0332 151.864 50.1937 152.073C50.3542 152.282 50.4538 152.526 50.4924 152.804H49.808C49.7558 152.601 49.6398 152.421 49.46 152.265C49.2821 152.106 49.0423 152.027 48.7407 152.027C48.4739 152.027 48.2399 152.096 48.0388 152.236C47.8397 152.373 47.684 152.567 47.5719 152.819C47.4617 153.068 47.4066 153.361 47.4066 153.697C47.4066 154.042 47.4607 154.341 47.569 154.596C47.6792 154.852 47.8339 155.05 48.033 155.191C48.2341 155.332 48.47 155.403 48.7407 155.403C48.9186 155.403 49.08 155.372 49.225 155.31C49.37 155.248 49.4928 155.159 49.5934 155.043C49.6939 154.927 49.7654 154.788 49.808 154.625H50.4924C50.4538 154.888 50.3581 155.125 50.2053 155.336C50.0545 155.545 49.8544 155.711 49.605 155.835C49.3575 155.957 49.0694 156.018 48.7407 156.018ZM52.1311 154.301L52.1195 153.454H52.2587L54.2077 151.47H55.0545L52.978 153.57H52.92L52.1311 154.301ZM51.493 155.925V149.985H52.1775V155.925H51.493ZM54.3237 155.925L52.5835 153.721L53.0708 153.245L55.1938 155.925H54.3237ZM39.1771 163.245V165.925H38.4926V159.985H39.1771V162.166H39.2351C39.3395 161.936 39.4961 161.753 39.7049 161.618C39.9157 161.481 40.1961 161.412 40.546 161.412C40.8496 161.412 41.1154 161.473 41.3436 161.595C41.5717 161.715 41.7487 161.899 41.8743 162.149C42.0019 162.396 42.0658 162.711 42.0658 163.094V165.925H41.3813V163.141C41.3813 162.787 41.2894 162.513 41.1058 162.32C40.924 162.125 40.6717 162.027 40.3488 162.027C40.1245 162.027 39.9234 162.074 39.7455 162.169C39.5696 162.264 39.4304 162.402 39.3279 162.584C39.2274 162.765 39.1771 162.986 39.1771 163.245ZM45.1857 166.018C44.7565 166.018 44.3862 165.923 44.0749 165.733C43.7655 165.542 43.5268 165.275 43.3585 164.933C43.1923 164.589 43.1091 164.189 43.1091 163.732C43.1091 163.276 43.1923 162.874 43.3585 162.526C43.5268 162.176 43.7607 161.903 44.0604 161.708C44.362 161.511 44.7139 161.412 45.1161 161.412C45.3481 161.412 45.5772 161.451 45.8035 161.528C46.0297 161.605 46.2356 161.731 46.4212 161.905C46.6068 162.077 46.7547 162.305 46.8649 162.59C46.9752 162.874 47.0303 163.224 47.0303 163.639V163.929H43.5964V163.338H46.3342C46.3342 163.086 46.2839 162.862 46.1834 162.665C46.0848 162.468 45.9436 162.312 45.76 162.198C45.5782 162.084 45.3636 162.027 45.1161 162.027C44.8435 162.027 44.6076 162.095 44.4084 162.23C44.2112 162.363 44.0594 162.537 43.9531 162.752C43.8467 162.967 43.7936 163.197 43.7936 163.442V163.837C43.7936 164.173 43.8516 164.458 43.9676 164.692C44.0855 164.924 44.2489 165.101 44.4577 165.223C44.6666 165.343 44.9092 165.403 45.1857 165.403C45.3655 165.403 45.5279 165.378 45.6729 165.327C45.8199 165.275 45.9465 165.198 46.0529 165.095C46.1592 164.991 46.2414 164.861 46.2994 164.707L46.9607 164.892C46.8911 165.117 46.7741 165.314 46.6097 165.484C46.4454 165.652 46.2424 165.784 46.0007 165.878C45.759 165.971 45.4873 166.018 45.1857 166.018ZM48.0715 165.925V161.47H48.7327V162.143H48.7791C48.8603 161.922 49.0073 161.744 49.22 161.606C49.4326 161.469 49.6724 161.4 49.9392 161.4C49.9895 161.4 50.0523 161.401 50.1277 161.403C50.2031 161.405 50.2602 161.408 50.2989 161.412V162.108C50.2756 162.102 50.2225 162.094 50.1393 162.082C50.0581 162.068 49.9721 162.062 49.8812 162.062C49.6647 162.062 49.4713 162.107 49.3012 162.198C49.1329 162.287 48.9995 162.411 48.9009 162.569C48.8043 162.726 48.7559 162.905 48.7559 163.106V165.925H48.0715ZM52.8424 166.018C52.4131 166.018 52.0429 165.923 51.7316 165.733C51.4222 165.542 51.1834 165.275 51.0152 164.933C50.8489 164.589 50.7658 164.189 50.7658 163.732C50.7658 163.276 50.8489 162.874 51.0152 162.526C51.1834 162.176 51.4174 161.903 51.7171 161.708C52.0187 161.511 52.3706 161.412 52.7728 161.412C53.0048 161.412 53.2339 161.451 53.4601 161.528C53.6864 161.605 53.8923 161.731 54.0779 161.905C54.2635 162.077 54.4114 162.305 54.5216 162.59C54.6318 162.874 54.6869 163.224 54.6869 163.639V163.929H51.253V163.338H53.9909C53.9909 163.086 53.9406 162.862 53.8401 162.665C53.7415 162.468 53.6003 162.312 53.4166 162.198C53.2349 162.084 53.0203 162.027 52.7728 162.027C52.5001 162.027 52.2643 162.095 52.0651 162.23C51.8679 162.363 51.7161 162.537 51.6098 162.752C51.5034 162.967 51.4503 163.197 51.4503 163.442V163.837C51.4503 164.173 51.5083 164.458 51.6243 164.692C51.7422 164.924 51.9056 165.101 52.1144 165.223C52.3232 165.343 52.5659 165.403 52.8424 165.403C53.0222 165.403 53.1846 165.378 53.3296 165.327C53.4766 165.275 53.6032 165.198 53.7096 165.095C53.8159 164.991 53.8981 164.861 53.9561 164.707L54.6173 164.892C54.5477 165.117 54.4307 165.314 54.2664 165.484C54.1021 165.652 53.899 165.784 53.6573 165.878C53.4157 165.971 53.144 166.018 52.8424 166.018Z" fill="white"/>
<path d="M209.233 85.4501H209.158V6.80591H99.1041V85.663H194.896L209.233 98.4493V85.4501Z" fill="white"/>
<path d="M209.233 85.4503C209.233 85.4503 209.233 85.7306 209.233 86.2913C209.233 86.852 209.233 87.6826 209.233 88.7779C209.233 90.9843 209.233 94.2393 209.268 98.4495V98.5689L209.169 98.4858L194.814 85.715H194.873L99.0808 85.7669H98.9353V85.6424C98.9353 64.2279 98.9353 40.7006 98.9353 16.0779V6.67627H99.0866H209.14H209.262V6.79048C209.262 30.5618 209.222 50.1697 209.21 63.8957C209.21 70.7379 209.21 76.1058 209.21 79.7761C209.21 81.6087 209.21 83.0155 209.21 83.9707C209.21 84.4483 209.21 84.8117 209.21 85.0661C209.21 85.3205 209.21 85.4451 209.21 85.4555C209.21 85.4555 209.21 85.3101 209.21 85.0661C209.21 84.8221 209.21 84.4483 209.21 83.9707C209.21 83.0155 209.21 81.6087 209.21 79.7761C209.21 76.1058 209.21 70.7379 209.175 63.8957C209.175 50.1956 209.175 30.5878 209.123 6.81644L209.245 6.92546H99.1914L99.3428 6.79048V16.0727C99.3428 40.7213 99.3428 64.2487 99.3428 85.6631L99.2031 85.5385L194.995 85.5904H195.03L209.35 98.3924L209.257 98.4287C209.216 90.0758 209.233 85.7773 209.233 85.4503Z" fill="#263238"/>
<path d="M113.43 63.8489L115.578 64.8976L113.43 65.9462L112.26 67.8618L111.084 65.9462L108.942 64.8976L111.084 63.8489L112.26 61.9385L113.43 63.8489Z" fill="#00274C"/>
<path d="M192.183 64.8976L194.331 65.9462L192.183 66.9897L191.008 68.9053L189.838 66.9897L187.69 65.9462L189.838 64.8976L191.008 62.9819L192.183 64.8976Z" fill="#00274C"/>
<path d="M196.089 31.7453L197.166 32.2696L196.089 32.7939L195.501 33.7491L194.919 32.7939L193.842 32.2696L194.919 31.7453L195.501 30.79L196.089 31.7453Z" fill="#00274C"/>
<path d="M185.099 76.7389L186.17 77.2632L185.099 77.7876L184.511 78.7428L183.923 77.7876L182.852 77.2632L183.923 76.7389L184.511 75.7837L185.099 76.7389Z" fill="#00274C"/>
<path d="M106.817 50.0139L107.894 50.533L106.817 51.0573L106.229 52.0177L105.647 51.0573L104.57 50.533L105.647 50.0139L106.229 49.0535L106.817 50.0139Z" fill="#00274C"/>
<path d="M209.158 15.5793C209.158 15.652 184.517 15.7143 154.131 15.7143C123.745 15.7143 99.1041 15.652 99.1041 15.5793C99.1041 15.5066 123.733 15.4443 154.131 15.4443C184.529 15.4443 209.158 15.5014 209.158 15.5793Z" fill="#263238"/>
<path d="M105.49 11.3223C105.489 11.5664 105.406 11.8048 105.253 12.0073C105.101 12.2098 104.884 12.3674 104.631 12.4601C104.377 12.5528 104.099 12.5765 103.831 12.5283C103.562 12.48 103.316 12.3619 103.123 12.1889C102.93 12.0159 102.798 11.7958 102.745 11.5562C102.692 11.3167 102.72 11.0685 102.825 10.8431C102.93 10.6176 103.108 10.425 103.335 10.2894C103.563 10.1539 103.831 10.0815 104.104 10.0815C104.287 10.0815 104.467 10.1137 104.636 10.1761C104.804 10.2385 104.957 10.33 105.086 10.4453C105.215 10.5605 105.317 10.6974 105.386 10.8479C105.455 10.9984 105.491 11.1596 105.49 11.3223Z" fill="#E0E0E0"/>
<path d="M109.594 11.3223C109.594 11.5679 109.512 11.808 109.359 12.0121C109.206 12.2163 108.988 12.3753 108.734 12.4691C108.479 12.5628 108.199 12.5871 107.929 12.5388C107.659 12.4905 107.411 12.3718 107.217 12.1978C107.022 12.0237 106.89 11.8022 106.837 11.5612C106.784 11.3201 106.813 11.0705 106.919 10.8439C107.025 10.6173 107.204 10.4238 107.434 10.2881C107.663 10.1524 107.933 10.0805 108.208 10.0816C108.576 10.0829 108.929 10.2143 109.188 10.4468C109.448 10.6793 109.594 10.9941 109.594 11.3223Z" fill="#E0E0E0"/>
<path d="M113.698 11.3223C113.698 11.5677 113.616 11.8076 113.463 12.0116C113.31 12.2156 113.093 12.3747 112.839 12.4686C112.585 12.5625 112.305 12.5871 112.035 12.5392C111.765 12.4913 111.517 12.3731 111.323 12.1996C111.128 12.0261 110.996 11.805 110.942 11.5643C110.888 11.3237 110.916 11.0742 111.021 10.8475C111.126 10.6208 111.305 10.427 111.533 10.2906C111.762 10.1543 112.031 10.0815 112.306 10.0815C112.675 10.0815 113.029 10.2123 113.29 10.4449C113.551 10.6776 113.698 10.9932 113.698 11.3223Z" fill="#E0E0E0"/>
<path d="M154.858 19.4885L162.729 26.7253L173.742 24.4307L175.977 34.3203L186.636 37.6999L182.52 47.0963L189.436 55.0754L180.279 60.9988L181.257 71.0441L169.964 71.61L164.696 80.534L154.858 75.5658L145.015 80.534L139.747 71.61L128.454 71.0441L129.432 60.9988L120.275 55.0754L127.191 47.0963L123.081 37.6999L133.734 34.3203L135.969 24.4307L146.983 26.7253L154.858 19.4885Z" fill="#00274C"/>
<g opacity="0.3">
<path d="M146.406 51.867V53.9851C146.406 55.61 147.21 56.1966 148.484 56.1966C149.759 56.1966 150.568 55.61 150.568 53.9851V48.9702C150.568 47.3453 149.765 46.7275 148.484 46.7275C147.204 46.7275 146.406 47.3453 146.406 48.9702V49.6555H142.617L143.344 36.459H153.921V39.7088H146.936L146.61 45.1442C146.967 44.6099 147.482 44.1728 148.097 43.88C148.713 43.5872 149.406 43.4499 150.103 43.4829C153.054 43.4829 154.55 45.3414 154.55 48.6743V53.7515C154.55 57.3854 152.507 59.462 148.566 59.462C144.625 59.462 142.588 57.3854 142.588 53.7515V51.8618L146.406 51.867Z" fill="black"/>
<path d="M156.913 41.9151C156.913 38.2811 159.067 36.2046 163.008 36.2046C166.949 36.2046 169.097 38.2811 169.097 41.9151V53.7566C169.097 57.3906 166.949 59.4672 163.008 59.4672C159.067 59.4672 156.913 57.3906 156.913 53.7566V41.9151ZM160.93 53.9851C160.93 55.61 161.733 56.2277 163.008 56.2277C164.283 56.2277 165.086 55.61 165.086 53.9851V41.6867C165.086 40.0566 164.283 39.4388 163.008 39.4388C161.733 39.4388 160.93 40.0566 160.93 41.6867V53.9851Z" fill="black"/>
</g>
<g opacity="0.3">
<path d="M170.162 36.2617C170.162 36.0084 170.275 35.7654 170.476 35.5863C170.677 35.4072 170.949 35.3065 171.233 35.3065C171.517 35.3065 171.79 35.4072 171.991 35.5863C172.192 35.7654 172.304 36.0084 172.304 36.2617V38.3383C172.304 38.5916 172.192 38.8346 171.991 39.0137C171.79 39.1929 171.517 39.2935 171.233 39.2935C170.949 39.2935 170.677 39.1929 170.476 39.0137C170.275 38.8346 170.162 38.5916 170.162 38.3383V36.2617ZM170.867 38.3798C170.867 38.6602 171 38.7796 171.233 38.7796C171.466 38.7796 171.594 38.6602 171.594 38.3798V36.215C171.594 35.9347 171.454 35.8205 171.233 35.8205C171.012 35.8205 170.867 35.9347 170.867 36.215V38.3798ZM174.027 35.2961H174.685L171.891 41.6141H171.233L174.027 35.2961ZM173.672 38.5719C173.672 38.3186 173.785 38.0756 173.986 37.8965C174.187 37.7173 174.459 37.6167 174.743 37.6167C175.027 37.6167 175.3 37.7173 175.501 37.8965C175.702 38.0756 175.814 38.3186 175.814 38.5719V40.6485C175.814 40.9018 175.702 41.1448 175.501 41.3239C175.3 41.503 175.027 41.6037 174.743 41.6037C174.459 41.6037 174.187 41.503 173.986 41.3239C173.785 41.1448 173.672 40.9018 173.672 40.6485V38.5719ZM174.377 40.69C174.377 40.9703 174.511 41.0897 174.743 41.0897C174.976 41.0897 175.11 40.9703 175.11 40.69V38.5356C175.11 38.2552 174.965 38.141 174.743 38.141C174.522 38.141 174.377 38.2552 174.377 38.5356V40.69Z" fill="black"/>
</g>
<g opacity="0.3">
<path d="M147.6 60.6199C149.2 60.6199 150.021 61.4713 150.021 62.9612V63.2519H148.467V62.8677C148.467 62.2032 148.17 61.9489 147.646 61.9489C147.122 61.9489 146.825 62.2032 146.825 62.8677C146.825 64.7834 150.033 65.1416 150.033 67.7996C150.033 69.2895 149.2 70.1409 147.588 70.1409C145.976 70.1409 145.143 69.2895 145.143 67.7996V67.2285H146.692V67.893C146.692 68.5575 147.023 68.7963 147.541 68.7963C148.06 68.7963 148.391 68.5575 148.391 67.893C148.391 65.9774 145.184 65.6192 145.184 62.9612C145.184 61.4713 146.005 60.6199 147.6 60.6199Z" fill="black"/>
<path d="M156.279 70.037H154.626L154.34 68.3446H152.326L152.047 70.037H150.539L152.21 60.7236H154.608L156.279 70.037ZM152.536 67.0883H154.119L153.328 62.3797L152.536 67.0883Z" fill="black"/>
<path d="M157.041 60.7236H158.683V68.708H161.378V70.037H157.041V60.7236Z" fill="black"/>
<path d="M163.736 64.6483H165.994V65.9773H163.742V68.708H166.576V70.037H162.094V60.7236H166.576V62.0578H163.742L163.736 64.6483Z" fill="black"/>
</g>
<path d="M144.91 51.867V53.9851C144.91 55.61 145.714 56.1966 146.988 56.1966C148.263 56.1966 149.067 55.61 149.067 53.9851V48.9702C149.067 47.3453 148.269 46.7275 146.988 46.7275C145.708 46.7275 144.91 47.3453 144.91 48.9702V49.6555H141.115L141.848 36.459H152.425V39.7088H145.44L145.114 45.1442C145.47 44.6091 145.984 44.1713 146.6 43.8784C147.216 43.5856 147.91 43.4488 148.607 43.4829C151.564 43.4829 153.06 45.3414 153.06 48.6743V53.7515C153.06 57.3854 151.017 59.462 147.076 59.462C143.135 59.462 141.092 57.3854 141.092 53.7515V51.8618L144.91 51.867Z" fill="white"/>
<path d="M155.417 41.9151C155.417 38.2811 157.571 36.2046 161.512 36.2046C165.453 36.2046 167.601 38.2811 167.601 41.9151V53.7566C167.601 57.3906 165.447 59.4672 161.512 59.4672C157.577 59.4672 155.417 57.3906 155.417 53.7566V41.9151ZM159.428 53.9851C159.428 55.61 160.231 56.2277 161.512 56.2277C162.793 56.2277 163.59 55.61 163.59 53.9851V41.6867C163.59 40.0566 162.787 39.4388 161.512 39.4388C160.237 39.4388 159.428 40.0566 159.428 41.6867V53.9851Z" fill="white"/>
<path d="M168.66 36.2617C168.649 36.13 168.669 35.9977 168.718 35.8731C168.767 35.7484 168.844 35.6342 168.945 35.5374C169.046 35.4407 169.168 35.3635 169.304 35.3107C169.44 35.2579 169.586 35.2307 169.734 35.2307C169.882 35.2307 170.029 35.2579 170.165 35.3107C170.3 35.3635 170.422 35.4407 170.523 35.5374C170.624 35.6342 170.701 35.7484 170.75 35.8731C170.799 35.9977 170.819 36.13 170.808 36.2617V38.3382C170.819 38.4699 170.799 38.6022 170.75 38.7269C170.701 38.8515 170.624 38.9657 170.523 39.0625C170.422 39.1592 170.3 39.2364 170.165 39.2892C170.029 39.342 169.882 39.3692 169.734 39.3692C169.586 39.3692 169.44 39.342 169.304 39.2892C169.168 39.2364 169.046 39.1592 168.945 39.0625C168.844 38.9657 168.767 38.8515 168.718 38.7269C168.669 38.6022 168.649 38.4699 168.66 38.3382V36.2617ZM169.37 38.3798C169.37 38.6601 169.504 38.7795 169.737 38.7795C169.97 38.7795 170.098 38.6601 170.098 38.3798V36.215C170.098 35.9346 169.958 35.8204 169.737 35.8204C169.516 35.8204 169.37 35.9346 169.37 36.215V38.3798ZM172.525 35.2961H173.183L170.395 41.614H169.737L172.525 35.2961ZM172.176 38.5718C172.176 38.3185 172.289 38.0755 172.49 37.8964C172.691 37.7173 172.963 37.6166 173.247 37.6166C173.531 37.6166 173.804 37.7173 174.005 37.8964C174.205 38.0755 174.318 38.3185 174.318 38.5718V40.6484C174.318 40.9017 174.205 41.1447 174.005 41.3238C173.804 41.503 173.531 41.6036 173.247 41.6036C172.963 41.6036 172.691 41.503 172.49 41.3238C172.289 41.1447 172.176 40.9017 172.176 40.6484V38.5718ZM172.881 40.6899C172.881 40.9703 173.014 41.0897 173.247 41.0897C173.48 41.0897 173.608 40.9703 173.608 40.6899V38.5355C173.608 38.2552 173.468 38.141 173.247 38.141C173.026 38.141 172.881 38.2552 172.881 38.5355V40.6899Z" fill="white"/>
<path d="M146.104 60.6199C147.699 60.6199 148.519 61.4713 148.519 62.9612V63.2519H146.971V62.8677C146.971 62.2032 146.674 61.9489 146.15 61.9489C145.626 61.9489 145.329 62.2032 145.329 62.8677C145.329 64.7834 148.537 65.1416 148.537 67.7996C148.537 69.2895 147.699 70.1409 146.092 70.1409C144.485 70.1409 143.641 69.2895 143.641 67.7996V67.2285H145.196V67.893C145.196 68.5575 145.522 68.7963 146.045 68.7963C146.569 68.7963 146.895 68.5575 146.895 67.893C146.895 65.9774 143.688 65.6192 143.688 62.9612C143.688 61.4713 144.509 60.6199 146.104 60.6199Z" fill="white"/>
<path d="M154.783 70.037H153.13L152.844 68.3446H150.859L150.574 70.037H149.072L150.743 60.7236H153.141L154.783 70.037ZM151.04 67.0883H152.606L151.82 62.3797L151.04 67.0883Z" fill="white"/>
<path d="M155.516 60.7236H157.158V68.708H159.859V70.037H155.516V60.7236Z" fill="white"/>
<path d="M162.234 64.6483H164.487V65.9773H162.234V68.708H165.069V70.037H160.598V60.7236H165.069V62.0578H162.234V64.6483Z" fill="white"/>
<path d="M209.233 15.5949C214.062 15.5949 217.977 12.1039 217.977 7.79745C217.977 3.49104 214.062 0 209.233 0C204.405 0 200.49 3.49104 200.49 7.79745C200.49 12.1039 204.405 15.5949 209.233 15.5949Z" fill="#00274C"/>
<path d="M212.646 5.86813L211.403 4.75952L205.829 9.72987L207.073 10.8385L212.646 5.86813Z" fill="white"/>
<path d="M207.064 4.75419L205.821 5.86279L211.394 10.8331L212.637 9.72453L207.064 4.75419Z" fill="white"/>
<path d="M163.026 24.4824H145.312C142.785 24.4824 140.737 26.3093 140.737 28.5628V29.326C140.737 31.5795 142.785 33.4064 145.312 33.4064H163.026C165.552 33.4064 167.601 31.5795 167.601 29.326V28.5628C167.601 26.3093 165.552 24.4824 163.026 24.4824Z" fill="#455A64"/>
<path d="M147.728 29.191V29.5856C147.728 30.0632 147.46 30.3331 146.948 30.3331C146.435 30.3331 146.168 30.0632 146.168 29.5856V28.0282C146.168 27.8437 146.25 27.6667 146.396 27.5363C146.542 27.4058 146.741 27.3325 146.948 27.3325C147.155 27.3325 147.353 27.4058 147.499 27.5363C147.646 27.6667 147.728 27.8437 147.728 28.0282V28.3189H147.233V28.0022C147.233 27.7894 147.128 27.7063 146.965 27.7063C146.802 27.7063 146.692 27.7894 146.692 28.0022V29.6012C146.692 29.814 146.796 29.8919 146.965 29.8919C147.134 29.8919 147.233 29.814 147.233 29.6012V29.191H147.728Z" fill="white"/>
<path d="M148.048 27.3274H148.572V29.8712H149.427V30.2969H148.048V27.3274Z" fill="white"/>
<path d="M149.66 27.3274H150.178V30.2969H149.66V27.3274Z" fill="white"/>
<path d="M152.076 29.1912V29.5857C152.076 30.0633 151.814 30.3333 151.296 30.3333C150.778 30.3333 150.516 30.0633 150.516 29.5857V28.0283C150.5 27.9315 150.508 27.8327 150.541 27.7393C150.574 27.6459 150.63 27.5603 150.705 27.4889C150.78 27.4175 150.872 27.3622 150.974 27.327C151.077 27.2919 151.187 27.2778 151.296 27.2859C151.814 27.2859 152.076 27.5559 152.076 28.0283V28.319H151.581V28.0023C151.581 27.7895 151.476 27.7064 151.313 27.7064C151.15 27.7064 151.04 27.7895 151.04 28.0023V29.6013C151.04 29.8141 151.145 29.892 151.313 29.892C151.482 29.892 151.581 29.8141 151.581 29.6013V29.1912H152.076Z" fill="white"/>
<path d="M153.083 29.1132L152.92 29.3832V30.2969H152.396V27.3274H152.92V28.62L153.601 27.3274H154.125L153.397 28.672L154.125 30.3176H153.59L153.083 29.1132Z" fill="white"/>
<path d="M155.627 30.2969H155.103V27.3274H155.627V28.5993H156.209V27.3274H156.739V30.2969H156.209V29.025H155.627V30.2969Z" fill="white"/>
<path d="M157.653 28.5785H158.374V29.0042H157.653V29.8712H158.555V30.2969H157.129V27.3274H158.555V27.7531H157.653V28.5785Z" fill="white"/>
<path d="M159.975 30.2969C159.932 30.178 159.916 30.0527 159.929 29.9283V29.4662C159.929 29.1859 159.824 29.0873 159.585 29.0873H159.405V30.2969H158.881V27.3274H159.673C160.214 27.3274 160.447 27.5506 160.447 28.0127V28.2411C160.466 28.3608 160.444 28.4829 160.382 28.5907C160.321 28.6985 160.223 28.7867 160.103 28.8433C160.365 28.9419 160.447 29.1651 160.447 29.4766V29.9335C160.438 30.0569 160.458 30.1806 160.505 30.2969H159.975ZM159.393 27.7531V28.672H159.591C159.783 28.672 159.905 28.5993 159.905 28.3605V28.0698C159.905 27.8569 159.824 27.7635 159.638 27.7635L159.393 27.7531Z" fill="white"/>
<path d="M161.337 28.5785H162.053V29.0042H161.337V29.8712H162.24V30.2969H160.814V27.3274H162.24V27.7531H161.337V28.5785Z" fill="white"/>
<path d="M82.904 52.6301H26.9516V97.5563H82.904V52.6301Z" fill="#FAFAFA"/>
<path d="M82.904 97.5565C82.904 97.5565 82.904 97.2657 82.904 96.7207C82.904 96.1756 82.904 95.3657 82.904 94.3119C82.904 92.2042 82.904 89.1205 82.869 85.1958C82.869 77.3412 82.8341 66.1279 82.805 52.6303L82.9331 52.7445H26.9866L27.1379 52.6095C27.1379 68.9623 27.1379 84.3444 27.1379 97.5357L27.0098 97.4163L67.4781 97.4786L78.8874 97.5097H81.9086H82.6886H81.9202H78.9282L67.5479 97.5409L26.9924 97.6032H26.8585V97.4838C26.8585 84.2925 26.8585 68.9312 26.8585 52.5576V52.4226H27.0157H82.9622H83.0902V52.5368C83.0902 66.0656 83.0437 77.3049 83.0262 85.175C83.0262 89.0893 83.0262 92.1626 82.9913 94.2703C82.9913 95.3086 82.9913 96.1081 82.9913 96.6532C82.9913 97.1983 82.904 97.5565 82.904 97.5565Z" fill="#263238"/>
<path d="M69.9055 73.0479H40.2004C35.96 73.0479 32.5224 76.1136 32.5224 79.8953V81.1724C32.5224 84.9541 35.96 88.0198 40.2004 88.0198H69.9055C74.1459 88.0198 77.5835 84.9541 77.5835 81.1724V79.8953C77.5835 76.1136 74.1459 73.0479 69.9055 73.0479Z" fill="#455A64"/>
<path d="M44.2461 80.9441V81.6242C44.2461 82.4184 43.8037 82.8753 42.9422 82.8753C42.7581 82.8889 42.5729 82.8652 42.4006 82.8059C42.2283 82.7466 42.0733 82.6532 41.9473 82.5328C41.8212 82.4124 41.7274 82.2681 41.6729 82.1107C41.6183 81.9533 41.6045 81.787 41.6324 81.6242V79.0285C41.6324 78.229 42.0806 77.7773 42.9422 77.7773C43.8037 77.7773 44.2461 78.229 44.2461 79.0285V79.5113H43.4195V78.9921C43.4195 78.6391 43.2448 78.5041 42.9654 78.5041C42.686 78.5041 42.5114 78.6391 42.5114 78.9921V81.6813C42.5114 82.0395 42.686 82.1641 42.9654 82.1641C43.2448 82.1641 43.4195 82.0395 43.4195 81.6813V80.97L44.2461 80.9441Z" fill="white"/>
<path d="M44.7817 77.824H45.6607V82.0913H47.1043V82.8025H44.7758L44.7817 77.824Z" fill="white"/>
<path d="M47.4885 77.824H48.3617V82.8025H47.4885V77.824Z" fill="white"/>
<path d="M51.5458 80.9441V81.6242C51.563 81.7868 51.542 81.9509 51.484 82.1058C51.426 82.2608 51.3323 82.4033 51.209 82.5241C51.0857 82.6449 50.9355 82.7414 50.768 82.8075C50.6004 82.8735 50.4193 82.9077 50.2361 82.9077C50.0529 82.9077 49.8717 82.8735 49.7042 82.8075C49.5366 82.7414 49.3864 82.6449 49.2631 82.5241C49.1398 82.4033 49.0462 82.2608 48.9882 82.1058C48.9302 81.9509 48.9091 81.7868 48.9263 81.6242V79.0285C48.9263 78.229 49.3745 77.7773 50.2361 77.7773C51.0976 77.7773 51.5458 78.229 51.5458 79.0285V79.5113H50.7367V78.9921C50.7367 78.6391 50.5621 78.5041 50.2826 78.5041C50.0032 78.5041 49.8286 78.6391 49.8286 78.9921V81.6813C49.8286 82.0395 50.0032 82.1641 50.2826 82.1641C50.5621 82.1641 50.7367 82.0395 50.7367 81.6813V80.97L51.5458 80.9441Z" fill="white"/>
<path d="M53.2281 80.8141L52.9546 81.271V82.8284H52.0814V77.8499H52.9546V80.0147L54.1188 77.8499H54.9919L53.7637 80.0666L54.9803 82.8284H54.0838L53.2281 80.8141Z" fill="white"/>
<path d="M57.4949 82.8025H56.6159V77.824H57.4949V79.9576H58.4903V77.824H59.3868V82.8025H58.4903V80.6689H57.4949V82.8025Z" fill="white"/>
<path d="M60.9003 79.9213H62.1052V80.6325H60.9003V82.0913H62.4137V82.8025H60.0504V77.824H62.4429V78.5352H60.9294L60.9003 79.9213Z" fill="white"/>
<path d="M64.7887 82.8025C64.7192 82.6046 64.6935 82.3966 64.7131 82.1899V81.406C64.7131 80.944 64.5384 80.7727 64.1309 80.7727H63.8283V82.8025H62.9609V77.824H64.2881C65.1962 77.824 65.5862 78.1978 65.5862 78.9661V79.3606C65.6179 79.5616 65.5789 79.7663 65.4746 79.9467C65.3704 80.1271 65.206 80.2742 65.0041 80.3678C65.4465 80.5339 65.5862 80.8869 65.5862 81.406V82.1744C65.5714 82.3808 65.6051 82.5876 65.6852 82.7817L64.7887 82.8025ZM63.8341 78.5352V80.0667H64.1775C64.5035 80.0667 64.7014 79.9421 64.7014 79.5475V79.0284C64.7014 78.6754 64.5675 78.5092 64.259 78.5092L63.8341 78.5352Z" fill="white"/>
<path d="M67.0357 79.9213H68.2407V80.6325H67.0357V82.0913H68.5492V82.8025H66.1626V77.824H68.555V78.5352H67.0357V79.9213Z" fill="white"/>
<path d="M82.5955 61.1596C82.5955 61.2323 70.2606 61.2946 55.0559 61.2946C39.8512 61.2946 27.5105 61.2323 27.5105 61.1596C27.5105 61.087 39.8395 61.0247 55.0559 61.0247C70.2722 61.0247 82.5955 61.0818 82.5955 61.1596Z" fill="#263238"/>
<path d="M33.1977 57.8112C33.1977 58.0556 33.1164 58.2945 32.9642 58.4977C32.812 58.7009 32.5956 58.8592 32.3424 58.9527C32.0893 59.0462 31.8107 59.0707 31.542 59.023C31.2732 58.9754 31.0264 58.8577 30.8326 58.6849C30.6389 58.5121 30.5069 58.2919 30.4535 58.0523C30.4 57.8126 30.4275 57.5642 30.5323 57.3384C30.6372 57.1126 30.8147 56.9197 31.0426 56.7839C31.2704 56.6482 31.5383 56.5757 31.8123 56.5757C32.1797 56.5757 32.5321 56.7059 32.7919 56.9376C33.0517 57.1693 33.1977 57.4835 33.1977 57.8112Z" fill="#E0E0E0"/>
<path d="M37.3016 57.8112C37.3028 58.0571 37.222 58.2977 37.0696 58.5025C36.9171 58.7073 36.6999 58.8672 36.4455 58.9617C36.191 59.0563 35.9108 59.0813 35.6404 59.0336C35.37 58.9859 35.1215 58.8676 34.9266 58.6938C34.7317 58.5199 34.5991 58.2984 34.5456 58.0572C34.4921 57.8161 34.5201 57.5662 34.6262 57.3392C34.7322 57.1123 34.9114 56.9186 35.1411 56.7826C35.3707 56.6467 35.6405 56.5747 35.9162 56.5757C36.2836 56.5757 36.636 56.7059 36.8958 56.9376C37.1556 57.1693 37.3016 57.4836 37.3016 57.8112Z" fill="#E0E0E0"/>
<path d="M41.4229 57.8112C41.4229 58.0556 41.3416 58.2945 41.1894 58.4977C41.0372 58.7009 40.8208 58.8592 40.5677 58.9527C40.3145 59.0463 40.0359 59.0707 39.7672 59.023C39.4985 58.9754 39.2516 58.8577 39.0578 58.6849C38.8641 58.5121 38.7321 58.292 38.6787 58.0523C38.6252 57.8126 38.6527 57.5642 38.7575 57.3384C38.8624 57.1126 39.04 56.9197 39.2678 56.7839C39.4956 56.6482 39.7635 56.5757 40.0375 56.5757C40.2196 56.575 40.4001 56.6065 40.5686 56.6683C40.737 56.7302 40.89 56.8212 41.0188 56.936C41.1476 57.0509 41.2497 57.1874 41.319 57.3376C41.3884 57.4878 41.4237 57.6488 41.4229 57.8112Z" fill="#E0E0E0"/>
<path d="M256.832 33.5571L261.21 37.5804L267.339 36.3034L268.579 41.8062L274.505 43.6855L272.218 48.9132L276.065 53.3519L270.972 56.6432L271.519 62.2343L265.238 62.551L262.304 67.514L256.832 64.7521L251.355 67.514L248.427 62.551L242.146 62.2343L242.687 56.6432L237.594 53.3519L241.441 48.9132L239.154 43.6855L245.08 41.8062L246.325 36.3034L252.449 37.5804L256.832 33.5571Z" fill="#00274C"/>
<path d="M260.504 71.904C258.87 71.904 257.413 71.6234 256.133 71.0621C254.862 70.5009 253.851 69.7209 253.1 68.7221C252.357 67.7152 251.953 66.5472 251.887 65.2184H255.007C255.073 66.0355 255.353 66.7412 255.849 67.3355C256.344 67.9215 256.992 68.3755 257.793 68.6974C258.593 69.0193 259.48 69.1802 260.454 69.1802C261.544 69.1802 262.51 68.9904 263.352 68.6107C264.193 68.231 264.854 67.7028 265.332 67.026C265.811 66.3491 266.051 65.565 266.051 64.6736C266.051 63.7409 265.819 62.9196 265.357 62.2098C264.895 61.4917 264.218 60.9304 263.327 60.526C262.435 60.1216 261.346 59.9193 260.058 59.9193H258.028V57.1955H260.058C261.065 57.1955 261.948 57.014 262.708 56.6508C263.475 56.2876 264.074 55.7759 264.503 55.1155C264.94 54.4552 265.159 53.6794 265.159 52.7879C265.159 51.9295 264.969 51.1826 264.59 50.547C264.21 49.9114 263.673 49.4162 262.98 49.0613C262.295 48.7064 261.486 48.5289 260.553 48.5289C259.679 48.5289 258.853 48.6899 258.077 49.0118C257.31 49.3254 256.682 49.7835 256.195 50.386C255.708 50.9803 255.444 51.6984 255.403 52.5403H252.432C252.481 51.2114 252.881 50.0476 253.633 49.0489C254.384 48.0419 255.366 47.2578 256.579 46.6965C257.801 46.1353 259.142 45.8546 260.603 45.8546C262.171 45.8546 263.517 46.1724 264.639 46.808C265.762 47.4353 266.624 48.2648 267.227 49.2965C267.829 50.3283 268.131 51.4426 268.131 52.6394C268.131 54.0673 267.755 55.2848 267.004 56.2917C266.261 57.2987 265.25 57.9962 263.971 58.3841V58.5822C265.572 58.8463 266.822 59.5273 267.722 60.625C268.622 61.7146 269.072 63.0641 269.072 64.6736C269.072 66.052 268.696 67.2901 267.945 68.3879C267.202 69.4774 266.187 70.3358 264.899 70.9631C263.612 71.5904 262.146 71.904 260.504 71.904ZM260.207 113.904C258.341 113.904 256.753 113.396 255.44 112.381C254.128 111.358 253.125 109.876 252.432 107.936C251.738 105.989 251.392 103.636 251.392 100.879C251.392 98.139 251.738 95.799 252.432 93.8594C253.133 91.9114 254.14 90.4257 255.453 89.4023C256.773 88.3705 258.358 87.8546 260.207 87.8546C262.056 87.8546 263.636 88.3705 264.949 89.4023C266.269 90.4257 267.276 91.9114 267.97 93.8594C268.671 95.799 269.022 98.139 269.022 100.879C269.022 103.636 268.675 105.989 267.982 107.936C267.289 109.876 266.286 111.358 264.973 112.381C263.661 113.396 262.072 113.904 260.207 113.904ZM260.207 111.18C262.056 111.18 263.492 110.289 264.515 108.506C265.539 106.723 266.051 104.181 266.051 100.879C266.051 98.6838 265.815 96.8143 265.345 95.2708C264.883 93.7273 264.214 92.5511 263.339 91.7422C262.473 90.9334 261.428 90.5289 260.207 90.5289C258.374 90.5289 256.942 91.4327 255.911 93.2403C254.879 95.0397 254.363 97.586 254.363 100.879C254.363 103.075 254.594 104.94 255.056 106.476C255.519 108.011 256.183 109.179 257.05 109.979C257.925 110.78 258.977 111.18 260.207 111.18Z" fill="black"/>
<path d="M269.462 49.5253V49.1546C269.462 48.8984 269.514 48.6638 269.619 48.451C269.727 48.236 269.883 48.0643 270.086 47.9362C270.292 47.8058 270.542 47.7406 270.834 47.7406C271.132 47.7406 271.381 47.8058 271.583 47.9362C271.784 48.0643 271.936 48.236 272.039 48.451C272.142 48.6638 272.194 48.8984 272.194 49.1546V49.5253C272.194 49.7816 272.141 50.0173 272.036 50.2323C271.933 50.4451 271.779 50.6167 271.576 50.7472C271.374 50.8753 271.127 50.9394 270.834 50.9394C270.537 50.9394 270.286 50.8753 270.083 50.7472C269.879 50.6167 269.725 50.4451 269.619 50.2323C269.514 50.0173 269.462 49.7816 269.462 49.5253ZM270.162 49.1546V49.5253C270.162 49.7381 270.212 49.9292 270.313 50.0985C270.413 50.2655 270.587 50.349 270.834 50.349C271.075 50.349 271.244 50.2655 271.342 50.0985C271.443 49.9292 271.493 49.7381 271.493 49.5253V49.1546C271.493 48.9418 271.445 48.7519 271.349 48.5849C271.253 48.4156 271.082 48.3309 270.834 48.3309C270.594 48.3309 270.421 48.4156 270.316 48.5849C270.213 48.7519 270.162 48.9418 270.162 49.1546ZM265.961 45.5028V45.1321C265.961 44.8759 266.013 44.6413 266.119 44.4285C266.226 44.2135 266.382 44.0418 266.585 43.9137C266.791 43.7833 267.041 43.7181 267.334 43.7181C267.631 43.7181 267.88 43.7833 268.082 43.9137C268.283 44.0418 268.435 44.2135 268.538 44.4285C268.641 44.6413 268.693 44.8759 268.693 45.1321V45.5028C268.693 45.7591 268.64 45.9947 268.535 46.2098C268.432 46.4226 268.279 46.5942 268.075 46.7247C267.874 46.8528 267.626 46.9169 267.334 46.9169C267.036 46.9169 266.786 46.8528 266.582 46.7247C266.378 46.5942 266.224 46.4226 266.119 46.2098C266.013 45.9947 265.961 45.7591 265.961 45.5028ZM266.661 45.1321V45.5028C266.661 45.7156 266.711 45.9067 266.812 46.076C266.913 46.243 267.086 46.3265 267.334 46.3265C267.574 46.3265 267.743 46.243 267.842 46.076C267.942 45.9067 267.993 45.7156 267.993 45.5028V45.1321C267.993 44.9193 267.945 44.7294 267.848 44.5624C267.752 44.3931 267.581 44.3084 267.334 44.3084C267.093 44.3084 266.921 44.3931 266.815 44.5624C266.712 44.7294 266.661 44.9193 266.661 45.1321ZM266.222 50.8433L271.054 43.8142H271.837L267.004 50.8433H266.222Z" fill="black"/>
<path d="M258.154 60.5046C258.094 59.9919 257.847 59.5938 257.416 59.3105C256.984 59.0271 256.454 58.8854 255.827 58.8854C255.368 58.8854 254.967 58.9596 254.623 59.1081C254.282 59.2565 254.015 59.4606 253.823 59.7203C253.634 59.9801 253.54 60.2752 253.54 60.6058C253.54 60.8824 253.606 61.1202 253.737 61.3192C253.872 61.5149 254.044 61.6785 254.253 61.8101C254.462 61.9382 254.682 62.0445 254.911 62.1288C255.14 62.2098 255.351 62.2756 255.544 62.3262L256.596 62.6095C256.866 62.6804 257.166 62.7782 257.497 62.903C257.831 63.0278 258.149 63.1982 258.453 63.414C258.76 63.6266 259.013 63.8998 259.212 64.2338C259.411 64.5677 259.511 64.9776 259.511 65.4633C259.511 66.0233 259.364 66.5293 259.07 66.9813C258.78 67.4333 258.355 67.7925 257.795 68.059C257.239 68.3255 256.562 68.4588 255.766 68.4588C255.024 68.4588 254.381 68.339 253.838 68.0995C253.299 67.86 252.874 67.5261 252.563 67.0977C252.256 66.6692 252.083 66.1717 252.042 65.605H253.337C253.371 65.9963 253.503 66.3201 253.732 66.5765C253.965 66.8295 254.258 67.0184 254.613 67.1432C254.97 67.2646 255.355 67.3253 255.766 67.3253C256.245 67.3253 256.675 67.2478 257.056 67.0926C257.438 66.9341 257.74 66.7148 257.962 66.4348C258.185 66.1515 258.296 65.8209 258.296 65.4431C258.296 65.099 258.2 64.819 258.008 64.6031C257.815 64.3872 257.562 64.2118 257.249 64.0769C256.935 63.942 256.596 63.8239 256.232 63.7227L254.957 63.3584C254.147 63.1256 253.506 62.7934 253.034 62.3616C252.562 61.9298 252.325 61.3648 252.325 60.6665C252.325 60.0863 252.482 59.5803 252.796 59.1486C253.113 58.7134 253.538 58.3761 254.071 58.1366C254.607 57.8937 255.206 57.7723 255.867 57.7723C256.535 57.7723 257.129 57.892 257.648 58.1315C258.168 58.3676 258.579 58.6915 258.883 59.103C259.19 59.5145 259.352 59.9817 259.369 60.5046H258.154ZM261.999 68.2766H260.683L264.488 57.9139H265.784L269.589 68.2766H268.273L265.176 59.5533H265.095L261.999 68.2766ZM262.484 64.2287H267.787V65.3419H262.484V64.2287ZM252.487 85.2766V74.9139H253.742V84.1634H258.559V85.2766H252.487ZM260.502 85.2766V74.9139H266.756V76.0271H261.757V79.5286H266.432V80.6417H261.757V84.1634H266.837V85.2766H260.502Z" fill="black"/>
<path d="M259.672 72.2724C258.037 72.2724 256.58 71.9918 255.301 71.4305C254.03 70.8693 253.019 70.0893 252.268 69.0906C251.525 68.0836 251.12 66.9156 251.054 65.5868H254.174C254.24 66.4039 254.521 67.1096 255.016 67.7039C255.512 68.2899 256.159 68.7439 256.96 69.0658C257.761 69.3877 258.648 69.5487 259.622 69.5487C260.712 69.5487 261.677 69.3588 262.519 68.9791C263.361 68.5994 264.021 68.0712 264.5 67.3944C264.979 66.7176 265.218 65.9334 265.218 65.042C265.218 64.1093 264.987 63.288 264.525 62.5782C264.063 61.8601 263.386 61.2988 262.494 60.8944C261.603 60.49 260.513 60.2877 259.226 60.2877H257.195V57.5639H259.226C260.233 57.5639 261.116 57.3824 261.875 57.0192C262.643 56.656 263.241 56.1443 263.671 55.484C264.108 54.8236 264.327 54.0478 264.327 53.1563C264.327 52.2979 264.137 51.551 263.757 50.9154C263.378 50.2799 262.841 49.7846 262.148 49.4297C261.463 49.0748 260.654 48.8973 259.721 48.8973C258.846 48.8973 258.021 49.0583 257.245 49.3802C256.477 49.6938 255.85 50.1519 255.363 50.7545C254.876 51.3487 254.612 52.0668 254.571 52.9087H251.599C251.649 51.5798 252.049 50.416 252.8 49.4173C253.551 48.4103 254.533 47.6262 255.747 47.065C256.968 46.5037 258.31 46.2231 259.771 46.2231C261.339 46.2231 262.684 46.5408 263.807 47.1764C264.929 47.8037 265.792 48.6332 266.394 49.6649C266.997 50.6967 267.298 51.811 267.298 53.0078C267.298 54.4357 266.923 55.6532 266.172 56.6601C265.429 57.6671 264.418 58.3646 263.138 58.7525V58.9506C264.739 59.2147 265.99 59.8957 266.89 60.9935C267.789 62.083 268.239 63.4325 268.239 65.042C268.239 66.4204 267.864 67.6585 267.112 68.7563C266.37 69.8458 265.354 70.7042 264.067 71.3315C262.779 71.9588 261.314 72.2724 259.672 72.2724ZM259.374 114.272C257.509 114.272 255.92 113.765 254.608 112.75C253.295 111.726 252.293 110.245 251.599 108.305C250.906 106.357 250.559 104.005 250.559 101.248C250.559 98.5074 250.906 96.1675 251.599 94.2278C252.301 92.2799 253.308 90.7941 254.62 89.7707C255.941 88.7389 257.526 88.2231 259.374 88.2231C261.223 88.2231 262.804 88.7389 264.116 89.7707C265.437 90.7941 266.444 92.2799 267.137 94.2278C267.839 96.1675 268.19 98.5074 268.19 101.248C268.19 104.005 267.843 106.357 267.15 108.305C266.456 110.245 265.453 111.726 264.141 112.75C262.829 113.765 261.24 114.272 259.374 114.272ZM259.374 111.549C261.223 111.549 262.659 110.657 263.683 108.874C264.706 107.092 265.218 104.549 265.218 101.248C265.218 99.0522 264.983 97.1827 264.512 95.6392C264.05 94.0957 263.382 92.9195 262.507 92.1107C261.64 91.3018 260.596 90.8973 259.374 90.8973C257.542 90.8973 256.11 91.8011 255.078 93.6087C254.046 95.4081 253.531 97.9544 253.531 101.248C253.531 103.443 253.762 105.309 254.224 106.844C254.686 108.379 255.351 109.547 256.217 110.348C257.092 111.148 258.145 111.549 259.374 111.549Z" fill="white"/>
<path d="M268.629 49.5253V49.1546C268.629 48.8984 268.682 48.6638 268.787 48.451C268.895 48.236 269.05 48.0643 269.254 47.9362C269.46 47.8058 269.709 47.7406 270.002 47.7406C270.299 47.7406 270.549 47.8058 270.75 47.9362C270.952 48.0643 271.104 48.236 271.207 48.451C271.31 48.6638 271.361 48.8984 271.361 49.1546V49.5253C271.361 49.7816 271.309 50.0173 271.203 50.2323C271.1 50.4451 270.947 50.6167 270.743 50.7472C270.542 50.8753 270.295 50.9394 270.002 50.9394C269.705 50.9394 269.454 50.8753 269.25 50.7472C269.047 50.6167 268.892 50.4451 268.787 50.2323C268.682 50.0173 268.629 49.7816 268.629 49.5253ZM269.329 49.1546V49.5253C269.329 49.7381 269.38 49.9292 269.48 50.0985C269.581 50.2655 269.755 50.349 270.002 50.349C270.242 50.349 270.412 50.2655 270.51 50.0985C270.611 49.9292 270.661 49.7381 270.661 49.5253V49.1546C270.661 48.9418 270.613 48.7519 270.517 48.5849C270.421 48.4156 270.249 48.3309 270.002 48.3309C269.762 48.3309 269.589 48.4156 269.484 48.5849C269.381 48.7519 269.329 48.9418 269.329 49.1546ZM265.128 45.5028V45.1321C265.128 44.8759 265.181 44.6413 265.286 44.4285C265.394 44.2135 265.549 44.0418 265.753 43.9137C265.959 43.7833 266.208 43.7181 266.501 43.7181C266.799 43.7181 267.048 43.7833 267.249 43.9137C267.451 44.0418 267.603 44.2135 267.706 44.4285C267.809 44.6413 267.86 44.8759 267.86 45.1321V45.5028C267.86 45.7591 267.808 45.9947 267.702 46.2098C267.599 46.4226 267.446 46.5942 267.243 46.7247C267.041 46.8528 266.794 46.9169 266.501 46.9169C266.204 46.9169 265.953 46.8528 265.75 46.7247C265.546 46.5942 265.391 46.4226 265.286 46.2098C265.181 45.9947 265.128 45.7591 265.128 45.5028ZM265.828 45.1321V45.5028C265.828 45.7156 265.879 45.9067 265.979 46.076C266.08 46.243 266.254 46.3265 266.501 46.3265C266.741 46.3265 266.911 46.243 267.009 46.076C267.11 45.9067 267.16 45.7156 267.16 45.5028V45.1321C267.16 44.9193 267.112 44.7294 267.016 44.5624C266.92 44.3931 266.748 44.3084 266.501 44.3084C266.261 44.3084 266.088 44.3931 265.983 44.5624C265.88 44.7294 265.828 44.9193 265.828 45.1321ZM265.389 50.8433L270.222 43.8142H271.004L266.172 50.8433H265.389Z" fill="white"/>
<path d="M257.322 60.5046C257.261 59.9919 257.015 59.5938 256.583 59.3105C256.152 59.0271 255.622 58.8854 254.995 58.8854C254.536 58.8854 254.134 58.9596 253.79 59.1081C253.45 59.2565 253.183 59.4606 252.991 59.7203C252.802 59.9801 252.707 60.2752 252.707 60.6058C252.707 60.8824 252.773 61.1202 252.905 61.3192C253.04 61.5149 253.212 61.6785 253.421 61.8101C253.63 61.9382 253.849 62.0445 254.079 62.1288C254.308 62.2098 254.519 62.2756 254.711 62.3262L255.764 62.6095C256.033 62.6804 256.334 62.7782 256.664 62.903C256.998 63.0278 257.317 63.1982 257.621 63.414C257.928 63.6266 258.181 63.8998 258.38 64.2338C258.579 64.5677 258.678 64.9776 258.678 65.4633C258.678 66.0233 258.531 66.5293 258.238 66.9813C257.948 67.4333 257.523 67.7925 256.963 68.059C256.406 68.3255 255.73 68.4588 254.934 68.4588C254.192 68.4588 253.549 68.339 253.006 68.0995C252.466 67.86 252.041 67.5261 251.731 67.0977C251.424 66.6692 251.25 66.1717 251.21 65.605H252.505C252.539 65.9963 252.67 66.3201 252.9 66.5765C253.132 66.8295 253.426 67.0184 253.78 67.1432C254.138 67.2646 254.522 67.3253 254.934 67.3253C255.413 67.3253 255.843 67.2478 256.224 67.0926C256.605 66.9341 256.907 66.7148 257.13 66.4348C257.352 66.1515 257.464 65.8209 257.464 65.4431C257.464 65.099 257.368 64.819 257.175 64.6031C256.983 64.3872 256.73 64.2118 256.416 64.0769C256.103 63.942 255.764 63.8239 255.399 63.7227L254.124 63.3584C253.315 63.1256 252.674 62.7934 252.201 62.3616C251.729 61.9298 251.493 61.3648 251.493 60.6665C251.493 60.0863 251.65 59.5803 251.964 59.1486C252.281 58.7134 252.706 58.3761 253.239 58.1366C253.775 57.8937 254.374 57.7723 255.035 57.7723C255.703 57.7723 256.297 57.892 256.816 58.1315C257.336 58.3676 257.747 58.6915 258.051 59.103C258.358 59.5145 258.52 59.9817 258.536 60.5046H257.322ZM261.166 68.2766H259.851L263.656 57.9139H264.951L268.756 68.2766H267.441L264.344 59.5533H264.263L261.166 68.2766ZM261.652 64.2287H266.955V65.3419H261.652V64.2287ZM251.655 85.2766V74.9139H252.91V84.1634H257.727V85.2766H251.655ZM259.67 85.2766V74.9139H265.924V76.0271H260.925V79.5286H265.6V80.6417H260.925V84.1634H266.005V85.2766H259.67Z" fill="white"/>
</svg>
