<svg width="35" height="35" viewBox="0 0 35 35" fill="none" xmlns="http://www.w3.org/2000/svg">
<path d="M5.38271 9.17575C7.42875 6.95763 10.5248 5.83325 14.5833 5.83325H16.0417V9.94429L14.8692 10.1791C12.8713 10.5787 11.4815 11.3647 10.7377 12.5183C10.3496 13.1397 10.1295 13.8512 10.099 14.5833H14.5833C14.9701 14.5833 15.341 14.7369 15.6145 15.0104C15.888 15.2839 16.0417 15.6548 16.0417 16.0416V26.2499C16.0417 27.8585 14.7335 29.1666 13.125 29.1666H4.375C3.98823 29.1666 3.6173 29.0129 3.34381 28.7395C3.07032 28.466 2.91667 28.095 2.91667 27.7083V20.4166L2.92105 16.1597C2.90792 15.9978 2.63084 12.1624 5.38271 9.17575ZM29.1667 29.1666H20.4167C20.0299 29.1666 19.659 29.0129 19.3855 28.7395C19.112 28.466 18.9583 28.095 18.9583 27.7083V20.4166L18.9627 16.1597C18.9496 15.9978 18.6725 12.1624 21.4244 9.17575C23.4704 6.95763 26.5665 5.83325 30.625 5.83325H32.0833V9.94429L30.9108 10.1791C28.9129 10.5787 27.5231 11.3647 26.7794 12.5183C26.3913 13.1397 26.1712 13.8512 26.1406 14.5833H30.625C31.0118 14.5833 31.3827 14.7369 31.6562 15.0104C31.9297 15.2839 32.0833 15.6548 32.0833 16.0416V26.2499C32.0833 27.8585 30.7752 29.1666 29.1667 29.1666Z" fill="#888888"/>
</svg>
