<svg width="420" height="386" viewBox="0 0 420 386" fill="none" xmlns="http://www.w3.org/2000/svg">
<path d="M420 295.213H0V295.406H420V295.213Z" fill="#E6E6E6"/>
<path d="M65.705 303.828H43.3862V304.021H65.705V303.828Z" fill="#E6E6E6"/>
<path d="M73.777 299.968H54.541V300.161H73.777V299.968Z" fill="#E6E6E6"/>
<path d="M273.345 300.54H221.727V300.733H273.345V300.54Z" fill="#E6E6E6"/>
<path d="M290.564 300.54H278.183V300.733H290.564V300.54Z" fill="#E6E6E6"/>
<path d="M360.965 301.86H320.09V302.053H360.965V301.86Z" fill="#E6E6E6"/>
<path d="M162.263 304.94H89.4937V305.133H162.263V304.94Z" fill="#E6E6E6"/>
<path d="M374.295 301.86H368.34V302.053H374.295V301.86Z" fill="#E6E6E6"/>
<path d="M199.08 260.782H36.8842C35.6136 260.78 34.3957 260.314 33.4981 259.488C32.6004 258.661 32.0962 257.541 32.0962 256.373V46.8295C32.1073 45.6684 32.6163 44.5583 33.5128 43.7401C34.4093 42.922 35.6208 42.462 36.8842 42.46H199.08C200.352 42.46 201.572 42.9244 202.471 43.7511C203.371 44.5778 203.876 45.699 203.876 46.8681V256.373C203.876 257.543 203.371 258.664 202.471 259.49C201.572 260.317 200.352 260.782 199.08 260.782ZM36.8842 42.6144C35.6693 42.6164 34.5048 43.0614 33.6465 43.8517C32.7882 44.642 32.3062 45.7129 32.3062 46.8295V256.373C32.3062 257.49 32.7882 258.561 33.6465 259.351C34.5048 260.142 35.6693 260.587 36.8842 260.589H199.08C200.296 260.587 201.461 260.142 202.32 259.352C203.18 258.562 203.664 257.491 203.666 256.373V46.8295C203.664 45.7122 203.18 44.6413 202.32 43.8512C201.461 43.0612 200.296 42.6164 199.08 42.6144H36.8842Z" fill="#E6E6E6"/>
<path d="M380.78 260.782H218.576C217.305 260.78 216.086 260.314 215.187 259.488C214.288 258.662 213.782 257.542 213.78 256.373V46.8295C213.793 45.6677 214.304 44.5576 215.202 43.7397C216.1 42.9217 217.312 42.462 218.576 42.46H380.78C382.042 42.464 383.251 42.9249 384.146 43.7428C385.041 44.5608 385.549 45.6698 385.56 46.8295V256.373C385.56 257.54 385.057 258.659 384.161 259.485C383.265 260.311 382.049 260.777 380.78 260.782ZM218.576 42.6144C217.36 42.6164 216.195 43.0612 215.336 43.8512C214.476 44.6413 213.992 45.7122 213.99 46.8295V256.373C213.992 257.491 214.476 258.562 215.336 259.352C216.195 260.142 217.36 260.587 218.576 260.589H380.78C381.996 260.587 383.161 260.142 384.021 259.352C384.88 258.562 385.364 257.491 385.367 256.373V46.8295C385.364 45.7122 384.88 44.6413 384.021 43.8512C383.161 43.0612 381.996 42.6164 380.78 42.6144H218.576Z" fill="#E6E6E6"/>
<path d="M128.88 162.446C131.218 153.123 124.89 143.823 114.746 141.674C104.601 139.525 94.4823 145.341 92.144 154.664C89.8057 163.987 96.1338 173.287 106.278 175.436C116.422 177.585 126.542 171.769 128.88 162.446Z" fill="#F0F0F0"/>
<path d="M239.047 154.971C236.704 150.339 238.569 146.981 244.314 146.981C247.909 146.981 252.378 148.293 256.729 150.416C257.225 149.204 258.603 148.479 260.829 148.479C264.751 148.479 270.153 150.725 274.386 153.883C275.693 153.079 277.233 152.657 278.805 152.671C282.559 152.532 287.095 153.821 291.043 155.921C291.275 155.719 291.548 155.562 291.847 155.458C292.145 155.355 292.463 155.307 292.782 155.319C294.034 155.357 295.262 155.636 296.389 156.137C297.516 156.639 298.516 157.351 299.326 158.229C299.418 158.329 299.494 158.438 299.578 158.538H236.133C234.125 156.894 236.343 155.056 239.047 154.971Z" fill="#F5F5F5"/>
<path d="M115.45 190.815L167.429 179.876V295.213H115.45V190.815Z" fill="#FAFAFA"/>
<path d="M194.401 179.876H167.429V295.213H194.401V179.876Z" fill="#EBEBEB"/>
<path d="M185.59 295.213H229.833L229.833 152.292H185.59L185.59 295.213Z" fill="#FAFAFA"/>
<path d="M252.79 152.292H229.833V295.213H252.79V152.292Z" fill="#EBEBEB"/>
<path d="M191.545 152.292H229.833V141.67H191.545V152.292Z" fill="#FAFAFA"/>
<path d="M191.545 152.292H229.833V149.907H191.545V152.292Z" fill="#EBEBEB"/>
<path d="M246.843 141.67H229.833V152.292H246.843V141.67Z" fill="#EBEBEB"/>
<path d="M197.493 141.67H229.824V131.047H197.493V141.67Z" fill="#FAFAFA"/>
<path d="M197.493 141.67H229.824V139.284H197.493V141.67Z" fill="#EBEBEB"/>
<path d="M240.887 131.055H229.833V141.677H240.887V131.055Z" fill="#EBEBEB"/>
<path d="M220.265 116.217H218.114V131.055H220.265V116.217Z" fill="#EBEBEB"/>
<path d="M245.456 295.213H277.763V170.867H245.456V295.213Z" fill="#FAFAFA"/>
<path d="M294.537 170.867H277.771V295.213H294.537V170.867Z" fill="#EBEBEB"/>
<path d="M286.154 196.088L310.649 215.388V295.213H286.154V196.088Z" fill="#FAFAFA"/>
<path d="M323.367 215.388H310.649V295.213H323.367V215.388Z" fill="#EBEBEB"/>
<path d="M323.366 215.388H310.649L286.154 196.088H298.863L323.366 215.388Z" fill="#EBEBEB"/>
<path d="M369.516 295.213C369.876 293.358 370.734 291.616 372.012 290.142C373.289 288.669 374.946 287.512 376.833 286.775C375.176 289.313 374.424 292.263 374.682 295.213H369.516Z" fill="#EBEBEB"/>
<path d="M156.492 295.213C156.132 293.358 155.274 291.616 153.997 290.142C152.719 288.669 151.062 287.512 149.176 286.775C150.832 289.313 151.584 292.263 151.326 295.213H156.492Z" fill="#EBEBEB"/>
<path d="M49.451 295.213C49.451 295.213 49.0394 285.331 44.5454 282.459C46.385 286.497 45.9902 295.213 45.9902 295.213H49.451Z" fill="#EBEBEB"/>
<path d="M47.7622 295.213C47.7622 295.213 48.1822 289.539 52.6762 287.894C50.8282 290.21 51.2314 295.213 51.2314 295.213H47.7622Z" fill="#EBEBEB"/>
<path d="M160.339 295.213C160.339 295.213 159.886 285.856 151.738 282.459C155.383 287.261 155.173 295.213 155.173 295.213H160.339Z" fill="#EBEBEB"/>
<path d="M78.6914 232.225L84.6218 270.671L85.2098 274.515H89.015L88.4186 270.671L82.4882 232.225H78.6914Z" fill="#E0E0E0"/>
<path d="M241.643 232.225L247.573 270.671L248.161 274.515H251.966L251.37 270.671L245.439 232.225H241.643Z" fill="#E0E0E0"/>
<path d="M103.043 270.671L103.639 274.515L106.84 295.244H110.645L107.445 274.515L106.857 270.671H103.043Z" fill="#E6E6E6"/>
<path d="M266.003 270.671L266.599 274.515L269.791 295.244H273.588L270.396 274.515L269.808 270.671H266.003Z" fill="#E6E6E6"/>
<path d="M246.8 270.671L246.204 274.515L243.003 295.244H239.198L242.399 274.515L242.987 270.671H246.8Z" fill="#E6E6E6"/>
<path d="M83.8406 270.671L83.2442 274.515L80.0522 295.244H76.2554L79.4474 274.515L80.0438 270.671H83.8406Z" fill="#E6E6E6"/>
<path d="M73.2228 237.575H247.38L244.146 226.868H69.9888L73.2228 237.575Z" fill="#F5F5F5"/>
<path d="M77.1959 237.575H251.361L248.128 226.868H73.9619L77.1959 237.575Z" fill="#E6E6E6"/>
<path d="M75.6506 250.923H249.808L246.574 240.223H72.4082L75.6506 250.923Z" fill="#F5F5F5"/>
<path d="M79.6236 250.923H253.781L250.547 240.223H76.3896L79.6236 250.923Z" fill="#E6E6E6"/>
<path d="M78.0695 264.294H252.235L249.001 253.594H74.8354L78.0695 264.294Z" fill="#F5F5F5"/>
<path d="M82.0514 264.294H256.209L252.975 253.594H78.8174L82.0514 264.294Z" fill="#E6E6E6"/>
<path d="M272.059 270.671H98.6665V274.515H272.059V270.671Z" fill="#E6E6E6"/>
<path d="M98.6663 270.671H74.8354V274.515H98.6663V270.671Z" fill="#F5F5F5"/>
<path d="M61.7399 113.847C58.4891 107.393 61.0763 102.799 69.0227 102.799C74.0039 102.799 80.1779 104.606 86.2007 107.547C86.8811 105.872 88.7963 104.868 91.8707 104.868C97.2971 104.868 104.765 107.956 110.628 112.365C112.433 111.252 114.562 110.668 116.735 110.689C121.926 110.489 128.209 112.28 133.669 115.182C134.318 114.623 135.182 114.323 136.072 114.349C139.062 114.233 143.111 116.039 145.118 118.371C145.244 118.517 145.354 118.656 145.463 118.803H57.7079C54.9359 116.51 58.0019 113.963 61.7399 113.847Z" fill="#F5F5F5"/>
<path d="M292.244 127.156C292.465 127.144 292.687 127.144 292.908 127.156C292.706 125.049 293.891 123.698 296.436 123.698C298.698 123.838 300.887 124.488 302.811 125.589C302.156 121.497 304.265 118.834 309.019 118.834C312.858 118.834 317.721 120.563 322.526 123.389C322.946 121.783 324.357 120.818 326.726 120.818C330.926 120.818 336.806 123.798 341.594 127.998C342.852 126.946 344.497 126.373 346.197 126.392C350.171 126.199 355.11 127.936 359.486 130.7C359.697 130.446 359.971 130.243 360.286 130.109C360.6 129.974 360.946 129.912 361.292 129.928C363.468 129.827 366.458 131.364 368.205 133.417H288.75C286.877 130.236 288.363 127.511 292.244 127.156Z" fill="#F5F5F5"/>
<path d="M158.575 80.4656C158.794 80.4538 159.012 80.4538 159.231 80.4656C159.029 78.3503 160.222 77.007 162.759 77.007C165.023 77.1463 167.216 77.7959 169.143 78.8984C168.487 74.7991 170.587 72.1357 175.342 72.1357C179.189 72.1357 184.044 73.8727 188.849 76.6982C189.269 75.0924 190.68 74.1274 193.049 74.1274C197.249 74.1274 203.129 77.0996 207.917 81.307C209.178 80.259 210.82 79.6833 212.52 79.6936C216.493 79.5083 221.433 81.2376 225.809 84.0013C226.02 83.7483 226.294 83.546 226.609 83.4116C226.923 83.2771 227.269 83.2146 227.615 83.2293C229.791 83.1212 232.789 84.6575 234.528 86.7188H155.073C153.208 83.5458 154.695 80.8207 158.575 80.4656Z" fill="#F5F5F5"/>
<path d="M356.807 281.857L341.88 268.139H330.254L343.157 279.997H339.612V295.213H353.262V281.857H356.807Z" fill="#EBEBEB"/>
<path d="M345.181 281.857L330.254 268.139L315.328 281.857H320.897V295.213H339.612V281.857H345.181Z" fill="#FAFAFA"/>
<path d="M336.974 83.1599L314.588 62.5861H297.15L316.504 80.3729H311.178V103.186H331.649V83.1599H336.974Z" fill="#407BFF"/>
<path opacity="0.4" d="M336.974 83.1599L314.588 62.5861H297.15L316.504 80.3729H311.178V103.186H331.649V83.1599H336.974Z" fill="white"/>
<path d="M319.536 83.1599L297.15 62.5861L274.764 83.1599H283.122V103.186H311.178V83.1599H319.536Z" fill="#407BFF"/>
<path opacity="0.7" d="M319.536 83.1599L297.15 62.5861L274.764 83.1599H283.122V103.186H311.178V83.1599H319.536Z" fill="white"/>
<path d="M351.389 165.285L329.003 144.704H311.564L330.918 162.491H325.592V185.303H346.063V165.285H351.389Z" fill="#407BFF"/>
<path opacity="0.4" d="M351.389 165.285L329.003 144.704H311.564L330.918 162.491H325.592V185.303H346.063V165.285H351.389Z" fill="white"/>
<path d="M333.95 165.285L311.564 144.704L289.178 165.285H297.528V185.303H325.592V165.285H333.95Z" fill="#407BFF"/>
<path opacity="0.7" d="M333.95 165.285L311.564 144.704L289.178 165.285H297.528V185.303H325.592V165.285H333.95Z" fill="white"/>
<path d="M250.639 186.677L228.245 166.104H210.815L230.169 183.883H224.843V206.703H245.314V186.677H250.639Z" fill="#407BFF"/>
<path opacity="0.4" d="M250.639 186.677L228.245 166.104H210.815L230.169 183.883H224.843V206.703H245.314V186.677H250.639Z" fill="white"/>
<path d="M233.201 186.677L210.815 166.104L188.429 186.677H196.778V206.695H224.843V186.677H233.201Z" fill="#407BFF"/>
<path opacity="0.7" d="M233.201 186.677L210.815 166.104L188.429 186.677H196.778V206.695H224.843V186.677H233.201Z" fill="white"/>
<path d="M249.303 117.545H237.258L235.536 115.97L221.55 92.0378L249.303 117.545Z" fill="#2F54C6"/>
<path d="M237.216 140.79H262.592V112.504H237.216V140.79Z" fill="#407BFF"/>
<path opacity="0.3" d="M237.216 140.79H262.592V112.504H237.216V140.79Z" fill="black"/>
<path d="M247.582 115.97H269.203L241.441 90.4553H219.828L247.582 115.97Z" fill="#407BFF"/>
<path opacity="0.3" d="M247.582 115.97H269.203L241.441 90.4553H219.828L247.582 115.97Z" fill="black"/>
<path d="M237.216 108.813V140.79H202.432V108.813L219.828 93.2885L220.004 93.4506L221.55 94.8248L237.216 108.813Z" fill="#407BFF"/>
<path opacity="0.3" d="M221.55 92.0378V103.108L205.834 117.545H202.432V109.609L220.004 93.4506L221.55 92.0378Z" fill="black"/>
<path d="M247.582 115.97H235.536L219.828 101.526V90.4553L247.582 115.97Z" fill="#407BFF"/>
<path d="M192.066 115.97H204.112L219.828 101.526V90.4553L192.066 115.97Z" fill="#407BFF"/>
<path d="M188.16 148.517C180.995 153.86 173.603 158.885 166.169 163.826C158.735 168.767 151.2 173.569 143.64 178.332C136.08 183.095 128.394 187.681 120.675 192.228C116.836 194.544 112.938 196.736 109.066 198.991C107.156 200.201 105.045 201.118 102.816 201.708C101.608 202.008 100.369 202.194 99.1201 202.264C97.7163 202.371 96.3033 202.301 94.9201 202.056C93.8372 201.853 92.8085 201.456 91.8928 200.888C90.9771 200.319 90.1924 199.59 89.5838 198.743C88.9751 197.895 88.5545 196.945 88.3459 195.948C88.1372 194.951 88.1448 193.925 88.3681 192.931C88.3681 192.815 88.4269 192.668 88.4605 192.545C88.8374 191.295 89.4029 190.099 90.1405 188.993C90.7611 188.009 91.4901 187.085 92.3161 186.237C93.8721 184.656 95.696 183.316 97.7173 182.269C101.623 180.061 105.496 177.815 109.419 175.653C117.239 171.26 125.135 166.991 133.073 162.776C141.011 158.561 149.033 154.477 157.122 150.494C165.211 146.51 173.368 142.627 181.734 139.045C183.084 138.507 184.599 138.432 186.004 138.835C187.408 139.237 188.609 140.089 189.388 141.237C190.166 142.384 190.47 143.75 190.245 145.087C190.02 146.423 189.28 147.64 188.16 148.517Z" fill="#407BFF"/>
<path d="M188.16 148.517C180.995 153.86 173.603 158.885 166.169 163.826C158.735 168.767 151.2 173.569 143.64 178.332C136.08 183.095 128.394 187.681 120.675 192.228C116.836 194.544 112.938 196.736 109.066 198.991C107.156 200.201 105.045 201.118 102.816 201.708C101.608 202.008 100.369 202.194 99.1201 202.264C97.7163 202.371 96.3033 202.301 94.9201 202.056C93.8372 201.853 92.8085 201.456 91.8928 200.888C90.9771 200.319 90.1924 199.59 89.5838 198.743C88.9751 197.895 88.5545 196.945 88.3459 195.948C88.1372 194.951 88.1448 193.925 88.3681 192.931C88.3681 192.815 88.4269 192.668 88.4605 192.545C88.8374 191.295 89.4029 190.099 90.1405 188.993C90.7611 188.009 91.4901 187.085 92.3161 186.237C93.8721 184.656 95.696 183.316 97.7173 182.269C101.623 180.061 105.496 177.815 109.419 175.653C117.239 171.26 125.135 166.991 133.073 162.776C141.011 158.561 149.033 154.477 157.122 150.494C165.211 146.51 173.368 142.627 181.734 139.045C183.084 138.507 184.599 138.432 186.004 138.835C187.408 139.237 188.609 140.089 189.388 141.237C190.166 142.384 190.47 143.75 190.245 145.087C190.02 146.423 189.28 147.64 188.16 148.517Z" fill="#407BFF"/>
<path opacity="0.5" d="M188.16 148.517C180.995 153.86 173.603 158.885 166.169 163.826C158.735 168.767 151.2 173.569 143.64 178.332C136.08 183.095 128.394 187.681 120.675 192.228C116.836 194.544 112.938 196.736 109.066 198.991C107.156 200.201 105.045 201.118 102.816 201.708C101.608 202.008 100.369 202.194 99.1201 202.264C97.7163 202.371 96.3033 202.301 94.9201 202.056C93.8372 201.853 92.8085 201.456 91.8928 200.888C90.9771 200.319 90.1924 199.59 89.5838 198.743C88.9751 197.895 88.5545 196.945 88.3459 195.948C88.1372 194.951 88.1448 193.925 88.3681 192.931C88.3681 192.815 88.4269 192.668 88.4605 192.545C88.8374 191.295 89.4029 190.099 90.1405 188.993C90.7611 188.009 91.4901 187.085 92.3161 186.237C93.8721 184.656 95.696 183.316 97.7173 182.269C101.623 180.061 105.496 177.815 109.419 175.653C117.239 171.26 125.135 166.991 133.073 162.776C141.011 158.561 149.033 154.477 157.122 150.494C165.211 146.51 173.368 142.627 181.734 139.045C183.084 138.507 184.599 138.432 186.004 138.835C187.408 139.237 188.609 140.089 189.388 141.237C190.166 142.384 190.47 143.75 190.245 145.087C190.02 146.423 189.28 147.64 188.16 148.517Z" fill="white"/>
<path d="M157.164 314.69L164.018 313.231L160.809 298.54L153.955 299.999L157.164 314.69Z" fill="#EBB376"/>
<path d="M110.947 139.138C109.998 142.226 109.083 145.476 108.209 148.656C107.335 151.837 106.529 155.064 105.857 158.275C105.487 159.873 105.168 161.51 104.891 163.016C104.614 164.521 104.454 166.104 104.353 167.686C104.265 169.26 104.265 170.837 104.353 172.411C104.353 173.183 104.463 173.955 104.547 174.773C104.631 175.591 104.782 176.371 104.899 177.043L101.539 178.208C101.099 177.379 100.72 176.522 100.405 175.645C100.077 174.803 99.7965 173.944 99.5655 173.075C99.1058 171.339 98.7913 169.574 98.6247 167.794C98.4692 165.996 98.4411 164.191 98.5407 162.39C98.6751 160.568 98.9103 158.893 99.1707 157.195C99.6999 153.806 100.38 150.447 101.187 147.159C101.993 143.87 102.867 140.558 104.001 137.231L110.947 139.138Z" fill="#EBB376"/>
<path d="M101.061 140.203L108.125 145.375L112.367 148.463C112.367 148.463 112.812 147.375 113.35 145.815C114.375 142.805 115.71 138.034 114.786 135.841C113.333 132.367 110.586 129.233 107.109 129.928C104.16 130.538 101.061 140.203 101.061 140.203Z" fill="#263238"/>
<path d="M110.821 314.737H117.852L117.306 299.76H110.267L110.821 314.737Z" fill="#EBB376"/>
<path d="M160.81 298.548L162.532 306.415L155.61 307.573L153.947 300.007L160.81 298.548Z" fill="#DA9D62"/>
<path d="M110.267 299.76H117.306L117.583 307.48H110.544L110.267 299.76Z" fill="#DA9D62"/>
<path d="M133.199 169.161C133.199 169.161 129.117 213.543 124.883 238.556C121.464 258.759 118.759 305.99 118.759 305.99H109.2C109.2 305.99 104.631 260.38 106.369 240.37C110.763 189.812 103.009 180.856 112.207 169.137L133.199 169.161Z" fill="#407BFF"/>
<path opacity="0.6" d="M133.199 169.161C133.199 169.161 129.117 213.543 124.883 238.556C121.464 258.759 118.759 305.99 118.759 305.99H109.2C109.2 305.99 104.631 260.38 106.369 240.37C110.763 189.812 103.009 180.856 112.207 169.137L133.199 169.161Z" fill="black"/>
<path d="M102.001 177.707L97.8516 180.301L98.4396 182.516C98.4396 182.516 107.083 178.394 104.773 176.742L102.001 177.707Z" fill="#EBB376"/>
<path d="M120.817 315.115C120.191 315.101 119.569 315.023 118.961 314.883C118.93 314.875 118.902 314.859 118.88 314.837C118.858 314.815 118.842 314.789 118.835 314.76C118.83 314.73 118.834 314.7 118.848 314.672C118.861 314.645 118.883 314.622 118.911 314.605C119.154 314.459 121.279 313.193 122.103 313.532C122.196 313.57 122.277 313.63 122.336 313.706C122.395 313.782 122.43 313.871 122.439 313.965C122.471 314.11 122.463 314.261 122.415 314.403C122.366 314.545 122.279 314.673 122.161 314.775C121.772 315.033 121.295 315.154 120.817 315.115ZM119.431 314.66C120.658 314.891 121.582 314.845 121.951 314.551C122.029 314.481 122.085 314.394 122.116 314.298C122.147 314.202 122.151 314.101 122.128 314.003C122.125 313.962 122.11 313.923 122.085 313.889C122.06 313.855 122.025 313.828 121.985 313.81C121.54 313.633 120.305 314.204 119.431 314.66Z" fill="#407BFF"/>
<path d="M119.003 314.883C118.976 314.892 118.946 314.892 118.919 314.883C118.894 314.87 118.874 314.85 118.859 314.827C118.845 314.805 118.836 314.779 118.835 314.752C118.835 314.667 118.835 312.807 119.608 312.181C119.701 312.101 119.813 312.041 119.935 312.006C120.058 311.971 120.187 311.962 120.313 311.981C120.446 311.982 120.574 312.024 120.676 312.102C120.779 312.179 120.849 312.286 120.876 312.405C121.036 313.177 119.751 314.536 119.087 314.883C119.06 314.891 119.03 314.891 119.003 314.883ZM120.196 312.266C120.06 312.269 119.929 312.316 119.826 312.398C119.385 312.999 119.159 313.711 119.179 314.436C119.843 313.942 120.649 312.892 120.549 312.452C120.549 312.382 120.49 312.289 120.271 312.266H120.196Z" fill="#407BFF"/>
<path d="M164.64 312.259C164.609 312.257 164.579 312.248 164.553 312.232C164.526 312.216 164.505 312.193 164.492 312.167C164.478 312.141 164.472 312.113 164.475 312.084C164.477 312.055 164.488 312.027 164.506 312.004C164.733 311.757 166.69 309.641 167.69 309.641H167.757C167.848 309.647 167.936 309.675 168.011 309.723C168.086 309.77 168.146 309.836 168.185 309.912C168.253 310.031 168.288 310.163 168.288 310.298C168.288 310.432 168.253 310.565 168.185 310.684C167.748 311.533 165.774 312.012 164.632 312.228L164.64 312.259ZM167.681 309.943C167.135 309.943 165.926 310.992 165.094 311.849C166.631 311.517 167.673 311.077 167.916 310.576C167.966 310.497 167.992 310.408 167.992 310.317C167.992 310.226 167.966 310.137 167.916 310.058C167.902 310.027 167.879 310 167.849 309.98C167.82 309.959 167.785 309.947 167.748 309.943H167.681Z" fill="#407BFF"/>
<path d="M164.64 312.259C164.612 312.255 164.585 312.243 164.564 312.225C164.543 312.207 164.529 312.184 164.522 312.158C164.522 312.089 163.917 310.421 164.455 309.487C164.529 309.35 164.633 309.229 164.76 309.131C164.887 309.032 165.035 308.959 165.194 308.916C165.64 308.792 165.858 308.916 165.95 309.093C166.379 309.726 165.429 311.595 164.799 312.181C164.783 312.206 164.759 312.227 164.731 312.24C164.703 312.254 164.672 312.26 164.64 312.259ZM165.48 309.171C165.416 309.161 165.351 309.161 165.287 309.171C165.169 309.202 165.06 309.255 164.966 309.326C164.872 309.398 164.795 309.487 164.741 309.587C164.497 310.291 164.497 311.046 164.741 311.749C165.337 310.977 165.917 309.595 165.665 309.217C165.637 309.186 165.599 309.164 165.556 309.156C165.513 309.148 165.469 309.153 165.429 309.171H165.48Z" fill="#407BFF"/>
<path d="M119.616 114.31C120.456 118.17 122.136 125.89 119.238 128.476C119.238 128.476 120.381 132.336 128.142 132.336C136.668 132.336 132.216 128.476 132.216 128.476C127.563 127.457 127.68 124.284 128.495 121.297L119.616 114.31Z" fill="#EBB376"/>
<path d="M136.567 106.081C136.498 106.082 136.431 106.063 136.374 106.026C136.338 106.003 136.308 105.973 136.285 105.938C136.261 105.903 136.246 105.865 136.239 105.825C136.232 105.785 136.233 105.744 136.244 105.704C136.254 105.664 136.273 105.627 136.299 105.594C136.602 105.197 137.002 104.872 137.468 104.644C137.933 104.416 138.451 104.292 138.978 104.282C139.057 104.293 139.129 104.33 139.181 104.386C139.233 104.442 139.261 104.513 139.261 104.587C139.261 104.66 139.233 104.731 139.181 104.787C139.129 104.843 139.057 104.88 138.978 104.892C138.559 104.902 138.148 105.004 137.78 105.19C137.412 105.375 137.097 105.638 136.861 105.957C136.828 105.999 136.784 106.033 136.732 106.054C136.681 106.076 136.624 106.085 136.567 106.081Z" fill="#263238"/>
<path d="M138.432 109.763C138.885 110.972 139.518 112.118 140.314 113.167C140.015 113.346 139.678 113.462 139.325 113.509C138.973 113.555 138.614 113.531 138.272 113.438L138.432 109.763Z" fill="#DE5753"/>
<path d="M137.962 108.852C137.962 109.377 138.222 109.809 138.592 109.817C138.962 109.825 139.281 109.423 139.306 108.898C139.331 108.373 139.046 107.949 138.676 107.933C138.306 107.918 137.987 108.335 137.962 108.852Z" fill="#263238"/>
<path d="M138.508 107.957L139.885 107.648C139.885 107.648 139.146 108.597 138.508 107.957Z" fill="#263238"/>
<path d="M118.44 313.988H110.536C110.399 313.983 110.265 314.026 110.161 314.107C110.057 314.189 109.99 314.303 109.973 314.428L109.074 320.172C109.055 320.317 109.07 320.465 109.118 320.604C109.166 320.744 109.246 320.873 109.352 320.982C109.459 321.091 109.59 321.177 109.736 321.236C109.882 321.295 110.04 321.324 110.2 321.322C112.955 321.283 114.282 321.129 117.76 321.129C119.902 321.129 123.018 321.337 125.975 321.337C128.932 321.337 129.083 318.651 127.856 318.411C122.346 317.315 121.472 315.818 119.616 314.382C119.285 314.129 118.87 313.99 118.44 313.988Z" fill="#263238"/>
<path d="M163.884 311.572L156.585 314.358C156.458 314.404 156.354 314.49 156.292 314.601C156.23 314.712 156.215 314.84 156.249 314.961L157.811 320.588C157.855 320.729 157.931 320.859 158.035 320.97C158.138 321.082 158.265 321.172 158.409 321.234C158.552 321.297 158.709 321.331 158.868 321.334C159.027 321.337 159.185 321.309 159.331 321.252C161.851 320.241 163.027 319.639 166.236 318.411C168.21 317.639 172.385 316.288 175.115 315.246C177.845 314.204 176.862 311.672 175.627 311.88C170.083 312.822 167.446 312.197 165.136 311.525C164.726 311.405 164.282 311.421 163.884 311.572Z" fill="#263238"/>
<path d="M147.991 136.482C149.361 139.446 150.839 142.48 152.334 145.429C153.09 146.912 153.877 148.368 154.695 149.799C155.535 151.235 156.375 152.64 157.215 153.983C157.66 154.647 158.105 155.311 158.567 155.921L159.256 156.801C159.397 156.985 159.558 157.155 159.735 157.31C160.651 158.042 161.794 158.49 163.002 158.592C165.867 158.97 169.462 158.438 172.679 157.642L174.174 160.615C173.324 161.084 172.443 161.504 171.537 161.873C170.644 162.255 169.727 162.585 168.79 162.861C166.814 163.479 164.745 163.805 162.658 163.826C161.494 163.836 160.335 163.695 159.214 163.409C157.969 163.094 156.799 162.571 155.761 161.865C155.23 161.494 154.738 161.078 154.291 160.622C153.913 160.229 153.636 159.897 153.3 159.526C152.67 158.8 152.107 158.067 151.545 157.334C149.452 154.439 147.566 151.422 145.9 148.301C144.22 145.213 142.708 142.125 141.313 138.929L147.991 136.482Z" fill="#EBB376"/>
<path d="M171.957 160.977L179.634 159.866L177.593 155.867C177.593 155.867 171.646 156.816 170.503 159.287L171.957 160.977Z" fill="#EBB376"/>
<path d="M179.626 156.747L178.786 155.041L177.593 155.867L179.626 159.866V156.747Z" fill="#EBB376"/>
<path d="M118.978 106.374C119.129 112.789 119.045 115.507 122.422 118.919C127.462 124.053 136.046 122.478 137.978 116.147C139.717 110.45 139.171 100.916 132.468 98.1212C130.992 97.4993 129.368 97.2344 127.749 97.3517C126.13 97.469 124.571 97.9646 123.22 98.7914C121.868 99.6183 120.769 100.749 120.026 102.076C119.284 103.403 118.923 104.883 118.978 106.374Z" fill="#EBB376"/>
<path d="M113.35 94.7862C120.524 90.0075 128.537 92.7172 132.922 96.0214C137.508 99.4799 136.778 106.127 133.972 108.875C134.263 109.282 134.456 109.741 134.537 110.222C134.618 110.702 134.586 111.194 134.442 111.662C134.796 113.719 134.304 115.823 133.062 117.564C131.819 119.306 129.916 120.559 127.722 121.08L127.328 121.173C118.365 123.134 108.008 117.56 106.445 109.223C105.496 104.135 107.008 99.0013 113.35 94.7862Z" fill="#263238"/>
<path d="M132.367 109.346C132.482 110.556 133.045 111.692 133.963 112.565C135.206 113.746 136.483 113.067 136.71 111.67C136.903 110.411 136.492 108.281 134.98 107.609C133.468 106.937 132.258 107.918 132.367 109.346Z" fill="#EBB376"/>
<path opacity="0.3" d="M123.48 189.912C122.682 203.175 126.16 213.188 127.747 219.047C128.873 210.385 129.906 201.345 130.771 193.371C127.806 184.338 124.06 179.93 123.48 189.912Z" fill="black"/>
<path d="M120.078 306.16H107.856L107.209 302.223L120.145 301.821L120.078 306.16Z" fill="#407BFF"/>
<path opacity="0.3" d="M108.125 145.375L112.367 148.463C112.367 148.463 112.812 147.375 113.35 145.815L110.83 134.351L108.125 145.375Z" fill="black"/>
<path d="M117.348 95.8592C119.541 93.6282 126.991 90.2236 133.384 92.8948C135.207 93.6581 136.752 94.8885 137.834 96.4385C138.916 97.9885 139.488 99.7924 139.482 101.634L133.72 105.185L117.348 95.8592Z" fill="#263238"/>
<path d="M111.468 101.719C114.635 99.3332 118.188 90.6869 111.468 93.6977C104.748 96.7085 102.707 108.319 111.468 101.719Z" fill="#407BFF"/>
<path d="M112.182 96.1758C113.551 92.5011 104.521 85.1902 98.4312 92.1382C92.3412 99.0862 108.242 106.752 112.182 96.1758Z" fill="#263238"/>
<path d="M126.311 101.302C121.061 99.2483 118.449 91.4666 127.462 91.6905C136.475 91.9143 136.215 105.185 126.311 101.302Z" fill="#407BFF"/>
<path d="M124.614 97.272C121.43 93.6205 124.95 84.2329 134.081 87.236C143.212 90.2391 131.922 105.617 124.614 97.272Z" fill="#263238"/>
<path d="M140.751 169.161C140.751 169.161 148.68 218.955 151.469 238.548C154.367 258.89 162.834 304.5 162.834 304.5L153.426 305.82C153.426 305.82 138.558 262.318 134.417 242.516C129.898 220.939 120.977 169.176 120.977 169.176L140.751 169.161Z" fill="#407BFF"/>
<path opacity="0.6" d="M140.751 169.161C140.751 169.161 148.68 218.955 151.469 238.548C154.367 258.89 162.834 304.5 162.834 304.5L153.426 305.82C153.426 305.82 138.558 262.318 134.417 242.516C129.898 220.939 120.977 169.176 120.977 169.176L140.751 169.161Z" fill="black"/>
<path d="M144.11 130.136C147.605 130.908 151.914 139.74 151.914 139.74L143.589 149.544C143.589 149.544 134.988 138.358 136.139 134.946C137.331 131.387 139.868 129.186 144.11 130.136Z" fill="#263238"/>
<path d="M132.72 129.735C133.871 129.889 132.804 127.473 132.326 127.218C131.225 126.616 117.206 125.404 117.365 126.762C117.45 127.573 117.829 128.335 118.44 128.924C119.07 129.31 122.64 128.245 132.72 129.735Z" fill="#407BFF"/>
<path opacity="0.6" d="M132.72 129.735C133.871 129.889 132.804 127.473 132.326 127.218C131.225 126.616 117.206 125.404 117.365 126.762C117.45 127.573 117.829 128.335 118.44 128.924C119.07 129.31 122.64 128.245 132.72 129.735Z" fill="white"/>
<path d="M144.11 130.136C144.11 130.136 147.47 131.217 140.75 169.161H112.19C112.669 158.476 112.686 151.883 107.15 129.943C111.15 129.185 115.203 128.694 119.28 128.476C123.6 128.19 127.938 128.19 132.258 128.476C137.76 128.924 144.11 130.136 144.11 130.136Z" fill="#263238"/>
<path d="M111.72 167.624L110.435 169.94C110.334 170.126 110.569 170.311 110.897 170.311H140.868C141.12 170.311 141.338 170.195 141.355 170.041L141.607 167.725C141.607 167.563 141.406 167.424 141.12 167.424H112.207C112.114 167.412 112.018 167.424 111.932 167.46C111.846 167.495 111.773 167.552 111.72 167.624Z" fill="#407BFF"/>
<path opacity="0.6" d="M111.72 167.624L110.435 169.94C110.334 170.126 110.569 170.311 110.897 170.311H140.868C141.12 170.311 141.338 170.195 141.355 170.041L141.607 167.725C141.607 167.563 141.406 167.424 141.12 167.424H112.207C112.114 167.412 112.018 167.424 111.932 167.46C111.846 167.495 111.773 167.552 111.72 167.624Z" fill="white"/>
<path d="M115.634 170.612H114.853C114.702 170.612 114.584 170.535 114.593 170.45L114.962 167.362C114.962 167.269 115.105 167.2 115.256 167.2H116.038C116.189 167.2 116.306 167.269 116.298 167.362L115.928 170.45C115.92 170.519 115.786 170.612 115.634 170.612Z" fill="#407BFF"/>
<path d="M134.4 170.612H133.627C133.468 170.612 133.35 170.535 133.367 170.45L133.728 167.362C133.728 167.269 133.871 167.2 134.03 167.2H134.803C134.954 167.2 135.072 167.269 135.064 167.362L134.702 170.45C134.702 170.519 134.568 170.612 134.4 170.612Z" fill="#407BFF"/>
<path opacity="0.6" d="M115.634 170.612H114.853C114.702 170.612 114.584 170.535 114.593 170.45L114.962 167.362C114.962 167.269 115.105 167.2 115.256 167.2H116.038C116.189 167.2 116.306 167.269 116.298 167.362L115.928 170.45C115.92 170.519 115.786 170.612 115.634 170.612Z" fill="black"/>
<path opacity="0.6" d="M134.4 170.612H133.627C133.468 170.612 133.35 170.535 133.367 170.45L133.728 167.362C133.728 167.269 133.871 167.2 134.03 167.2H134.803C134.954 167.2 135.072 167.269 135.064 167.362L134.702 170.45C134.702 170.519 134.568 170.612 134.4 170.612Z" fill="black"/>
<path d="M164.22 304.5L152.174 306.384L150.805 302.207L163.699 300.177L164.22 304.5Z" fill="#407BFF"/>
<path d="M284.265 88.9807C277.857 79.5516 268.552 72.0803 257.525 67.5115C246.498 62.9427 234.244 61.4817 222.313 63.3131C210.382 65.1445 199.311 70.1861 190.498 77.8005C181.684 85.4148 175.526 95.2599 172.801 106.091C170.076 116.922 170.906 128.252 175.188 138.649C179.469 149.047 187.009 158.043 196.853 164.503C206.698 170.962 218.406 174.593 230.496 174.937C242.586 175.281 254.516 172.322 264.777 166.435C271.59 162.526 277.5 157.422 282.167 151.413C286.834 145.405 290.167 138.61 291.977 131.418C293.787 124.225 294.037 116.776 292.714 109.494C291.39 102.213 288.519 95.2423 284.265 88.9807ZM191.453 142.249C186.399 134.808 183.859 126.157 184.155 117.389C184.451 108.622 187.568 100.132 193.114 92.9925C198.66 85.8536 206.385 80.3863 215.311 77.282C224.238 74.1777 233.966 73.5759 243.265 75.5527C252.564 77.5294 261.016 81.9959 267.553 88.3874C274.09 94.7789 278.417 102.808 279.989 111.46C281.561 120.112 280.305 128.998 276.382 136.995C272.459 144.991 266.043 151.739 257.947 156.384C252.571 159.468 246.586 161.549 240.335 162.508C234.083 163.466 227.687 163.284 221.513 161.97C215.338 160.657 209.505 158.239 204.348 154.854C199.19 151.468 194.808 147.183 191.453 142.241V142.249Z" fill="#407BFF"/>
<path d="M284.265 88.9807C277.857 79.5516 268.552 72.0803 257.525 67.5115C246.498 62.9427 234.244 61.4817 222.313 63.3131C210.382 65.1445 199.311 70.1861 190.498 77.8005C181.684 85.4148 175.526 95.2599 172.801 106.091C170.076 116.922 170.906 128.252 175.188 138.649C179.469 149.047 187.009 158.043 196.853 164.503C206.698 170.962 218.406 174.593 230.496 174.937C242.586 175.281 254.516 172.322 264.777 166.435C271.59 162.526 277.5 157.422 282.167 151.413C286.834 145.405 290.167 138.61 291.977 131.418C293.787 124.225 294.037 116.776 292.714 109.494C291.39 102.213 288.519 95.2423 284.265 88.9807ZM191.453 142.249C186.399 134.808 183.859 126.157 184.155 117.389C184.451 108.622 187.568 100.132 193.114 92.9925C198.66 85.8536 206.385 80.3863 215.311 77.282C224.238 74.1777 233.966 73.5759 243.265 75.5527C252.564 77.5294 261.016 81.9959 267.553 88.3874C274.09 94.7789 278.417 102.808 279.989 111.46C281.561 120.112 280.305 128.998 276.382 136.995C272.459 144.991 266.043 151.739 257.947 156.384C252.571 159.468 246.586 161.549 240.335 162.508C234.083 163.466 227.687 163.284 221.513 161.97C215.338 160.657 209.505 158.239 204.348 154.854C199.19 151.468 194.808 147.183 191.453 142.241V142.249Z" fill="#407BFF"/>
<path opacity="0.5" d="M284.265 88.9807C277.857 79.5516 268.552 72.0803 257.525 67.5115C246.498 62.9427 234.244 61.4817 222.313 63.3131C210.382 65.1445 199.311 70.1861 190.498 77.8005C181.684 85.4148 175.526 95.2599 172.801 106.091C170.076 116.922 170.906 128.252 175.188 138.649C179.469 149.047 187.009 158.043 196.853 164.503C206.698 170.962 218.406 174.593 230.496 174.937C242.586 175.281 254.516 172.322 264.777 166.435C271.59 162.526 277.5 157.422 282.167 151.413C286.834 145.405 290.167 138.61 291.977 131.418C293.787 124.225 294.037 116.776 292.714 109.494C291.39 102.213 288.519 95.2423 284.265 88.9807ZM191.453 142.249C186.399 134.808 183.859 126.157 184.155 117.389C184.451 108.622 187.568 100.132 193.114 92.9925C198.66 85.8536 206.385 80.3863 215.311 77.282C224.238 74.1777 233.966 73.5759 243.265 75.5527C252.564 77.5294 261.016 81.9959 267.553 88.3874C274.09 94.7789 278.417 102.808 279.989 111.46C281.561 120.112 280.305 128.998 276.382 136.995C272.459 144.991 266.043 151.739 257.947 156.384C252.571 159.468 246.586 161.549 240.335 162.508C234.083 163.466 227.687 163.284 221.513 161.97C215.338 160.657 209.505 158.239 204.348 154.854C199.19 151.468 194.808 147.183 191.453 142.241V142.249Z" fill="white"/>
<path opacity="0.2" d="M277.368 92.9411C282.92 101.118 285.71 110.624 285.384 120.258C285.059 129.891 281.632 139.22 275.538 147.064C269.444 154.908 260.956 160.915 251.148 164.326C241.339 167.737 230.65 168.399 220.432 166.227C210.215 164.055 200.927 159.148 193.744 152.126C186.561 145.103 181.804 136.281 180.076 126.774C178.348 117.268 179.726 107.504 184.036 98.7167C188.345 89.9298 195.393 82.5145 204.288 77.4085C210.196 74.0171 216.773 71.7286 223.643 70.6738C230.514 69.619 237.543 69.8185 244.329 71.2609C251.116 72.7033 257.526 75.3604 263.195 79.0804C268.864 82.8003 273.68 87.5102 277.368 92.9411Z" fill="#FAFAFA"/>
<path opacity="0.1" d="M284.903 111.855L202.583 159.086C195.87 154.9 190.292 149.353 186.278 142.874L276.158 91.2968C280.745 97.4451 283.736 104.478 284.903 111.855Z" fill="#E6E6E6"/>
</svg>
