<svg width="136" height="50" viewBox="0 0 136 50" fill="none" xmlns="http://www.w3.org/2000/svg">
<path d="M55.8803 26.32C55.147 26.32 54.5203 26.1533 54.0003 25.82C53.4803 25.4867 53.167 24.9133 53.0603 24.1C53.047 24.0467 53.0403 23.9933 53.0403 23.94C53.0403 23.8867 53.0403 23.8333 53.0403 23.78C53.0403 23.3267 53.1203 22.8667 53.2803 22.4C53.4536 21.92 53.6536 21.4533 53.8803 21C54.1203 20.5467 54.327 20.1333 54.5003 19.76C54.3803 19.7467 54.2203 19.7333 54.0203 19.72C53.8336 19.7067 53.6603 19.66 53.5003 19.58C53.3536 19.4867 53.2803 19.3467 53.2803 19.16C53.2803 19.0933 53.307 19.0467 53.3603 19.02C53.427 18.9933 53.4936 18.98 53.5603 18.98C53.6403 18.98 53.7203 18.9867 53.8003 19C53.8803 19.0133 53.9403 19.02 53.9803 19.02C54.3536 19.02 54.6936 18.9 55.0003 18.66C55.3203 18.4067 55.6136 18.1 55.8803 17.74C56.147 17.38 56.3936 17.02 56.6203 16.66C56.847 16.2867 57.0603 15.9733 57.2603 15.72C57.2203 15.6267 57.167 15.58 57.1003 15.58C57.0336 15.5667 56.9736 15.5467 56.9203 15.52C56.867 15.48 56.827 15.38 56.8003 15.22C56.7736 15.0067 56.887 14.8333 57.1403 14.7C57.3936 14.5667 57.727 14.46 58.1403 14.38C58.5536 14.3 58.9936 14.24 59.4603 14.2C59.9403 14.16 60.387 14.14 60.8003 14.14C61.227 14.1267 61.567 14.12 61.8203 14.12C62.327 14.12 62.8403 14.1267 63.3603 14.14C63.8803 14.1533 64.4003 14.2067 64.9203 14.3C65.1336 14.3533 65.2803 14.44 65.3603 14.56C65.4536 14.68 65.5003 14.7933 65.5003 14.9C65.5003 14.9933 65.467 15.08 65.4003 15.16C65.347 15.2267 65.2803 15.26 65.2003 15.26C65.067 15.26 64.9536 15.1667 64.8603 14.98C64.647 14.8867 64.3803 14.84 64.0603 14.84C63.7536 14.8267 63.4936 14.82 63.2803 14.82C63.0803 14.82 62.787 14.8333 62.4003 14.86C62.0136 14.8733 61.6003 14.9 61.1603 14.94C60.7336 14.9667 60.3403 15.0133 59.9803 15.08C59.6336 15.1467 59.387 15.2333 59.2403 15.34C59.107 15.42 58.907 15.6067 58.6403 15.9C58.387 16.18 58.1136 16.5 57.8203 16.86C57.527 17.22 57.2536 17.56 57.0003 17.88C56.747 18.2 56.5603 18.44 56.4403 18.6C57.2136 18.6133 57.9803 18.5867 58.7403 18.52C59.5003 18.4533 60.267 18.42 61.0403 18.42H61.7803C62.0203 18.42 62.2603 18.4267 62.5003 18.44C62.7536 18.44 63.0003 18.4533 63.2403 18.48C63.4003 18.4933 63.4803 18.5267 63.4803 18.58C63.4803 18.62 63.427 18.6667 63.3203 18.72C63.2136 18.7733 63.1003 18.82 62.9803 18.86C62.8736 18.9 62.7936 18.9267 62.7403 18.94C61.9803 19.06 61.187 19.1267 60.3603 19.14C59.5336 19.1533 58.7136 19.1933 57.9003 19.26C57.1003 19.3133 56.3403 19.4933 55.6203 19.8C55.567 19.92 55.4536 20.1333 55.2803 20.44C55.1203 20.7467 54.947 21.1 54.7603 21.5C54.5736 21.9 54.407 22.3133 54.2603 22.74C54.127 23.1667 54.0603 23.5733 54.0603 23.96C54.0603 24.4133 54.1936 24.7933 54.4603 25.1C54.7403 25.3933 55.2336 25.54 55.9403 25.54C56.5403 25.54 57.2203 25.4467 57.9803 25.26C58.7403 25.0733 59.5136 24.84 60.3003 24.56C61.087 24.2667 61.827 23.96 62.5203 23.64C63.227 23.32 63.827 23.02 64.3203 22.74C64.4003 22.7 64.4536 22.68 64.4803 22.68C64.5203 22.68 64.5403 22.7067 64.5403 22.76C64.5403 22.8267 64.5136 22.8933 64.4603 22.96C64.247 23.2667 63.8803 23.58 63.3603 23.9C62.8536 24.22 62.2603 24.5267 61.5803 24.82C60.9003 25.1 60.2003 25.3533 59.4803 25.58C58.7736 25.8067 58.1003 25.9867 57.4603 26.12C56.8203 26.2533 56.2936 26.32 55.8803 26.32ZM65.4777 26.2C65.251 26.2 64.9777 26.1133 64.6577 25.94C64.3377 25.7667 64.1177 25.58 63.9977 25.38C63.9177 25.2467 63.8777 25.0867 63.8777 24.9C63.8777 24.4733 64.031 23.9067 64.3377 23.2C64.6577 22.48 65.0577 21.7067 65.5377 20.88C65.751 20.5067 66.0243 20.0733 66.3577 19.58C66.7043 19.0867 67.091 18.58 67.5177 18.06C67.9443 17.5267 68.391 17.02 68.8577 16.54C69.3377 16.06 69.811 15.64 70.2777 15.28C70.7577 14.92 71.211 14.6667 71.6377 14.52C71.811 14.4533 71.9643 14.42 72.0977 14.42C72.351 14.42 72.5243 14.5067 72.6177 14.68C72.7243 14.84 72.8643 14.9733 73.0377 15.08C73.1443 15.1467 73.1977 15.2533 73.1977 15.4C73.1977 15.7067 73.031 16.0733 72.6977 16.5C72.3643 16.9267 71.931 17.38 71.3977 17.86C70.8643 18.34 70.291 18.82 69.6777 19.3C69.0643 19.7667 68.471 20.2 67.8977 20.6C67.3377 21 66.8577 21.3333 66.4577 21.6C66.0577 21.8667 65.8043 22.0333 65.6977 22.1C65.4977 22.4733 65.311 22.9 65.1377 23.38C64.9643 23.86 64.8777 24.3133 64.8777 24.74C64.8777 24.9 64.8977 25.08 64.9377 25.28C64.991 25.4667 65.1243 25.56 65.3377 25.56C65.5377 25.56 65.771 25.4867 66.0377 25.34C66.3043 25.1933 66.5643 25.0333 66.8177 24.86C67.071 24.6733 67.271 24.52 67.4177 24.4C67.7643 24.12 68.071 23.8333 68.3377 23.54C68.6043 23.2467 68.9177 22.9133 69.2777 22.54C69.3043 22.5133 69.331 22.4933 69.3577 22.48C69.3843 22.4533 69.4177 22.44 69.4577 22.44C69.5377 22.44 69.5777 22.4867 69.5777 22.58C69.5777 22.66 69.5443 22.7333 69.4777 22.8C68.9443 23.3867 68.3843 23.9933 67.7977 24.62C67.2243 25.2467 66.5843 25.74 65.8777 26.1C65.7443 26.1667 65.611 26.2 65.4777 26.2ZM66.3377 21.06C66.5377 20.9933 66.8177 20.8333 67.1777 20.58C67.5377 20.3133 67.9377 20 68.3777 19.64C68.831 19.28 69.2843 18.9 69.7377 18.5C70.2043 18.0867 70.631 17.6933 71.0177 17.32C71.4177 16.9333 71.7443 16.6067 71.9977 16.34C72.2643 16.06 72.4177 15.8667 72.4577 15.76C72.4843 15.68 72.4977 15.6267 72.4977 15.6C72.4977 15.4933 72.4443 15.42 72.3377 15.38C72.2443 15.34 72.1377 15.32 72.0177 15.32C71.951 15.32 71.8843 15.3267 71.8177 15.34C71.751 15.3533 71.691 15.3667 71.6377 15.38C71.411 15.46 71.111 15.66 70.7377 15.98C70.3643 16.2867 69.9643 16.6667 69.5377 17.12C69.111 17.56 68.6843 18.0267 68.2577 18.52C67.8443 19.0133 67.4643 19.4867 67.1177 19.94C66.7843 20.38 66.5243 20.7533 66.3377 21.06ZM73.1656 18.46C72.859 18.46 72.7056 18.3467 72.7056 18.12C72.7056 17.96 72.7923 17.7867 72.9656 17.6C73.139 17.4133 73.3923 17.28 73.7256 17.2C73.9256 17.1467 74.0856 17.12 74.2056 17.12C74.339 17.1067 74.4656 17.08 74.5856 17.04C74.5323 17.2933 74.419 17.5667 74.2456 17.86C74.0856 18.1533 73.8723 18.3333 73.6056 18.4C73.4723 18.44 73.3256 18.46 73.1656 18.46ZM69.9656 26.42C69.7523 26.42 69.5523 26.3333 69.3656 26.16C69.1923 25.9867 69.0856 25.8 69.0456 25.6C69.0856 25.3467 69.1723 25.04 69.3056 24.68C69.4523 24.3067 69.619 23.92 69.8056 23.52C69.9923 23.12 70.179 22.7467 70.3656 22.4C70.5523 22.04 70.7123 21.7533 70.8456 21.54C70.5923 21.7667 70.319 22.02 70.0256 22.3C69.7456 22.58 69.479 22.84 69.2256 23.08C69.2123 23.0933 69.179 23.12 69.1256 23.16C69.0856 23.2 69.0456 23.22 69.0056 23.22C68.9123 23.22 68.8656 23.18 68.8656 23.1C68.8656 23.0333 68.8923 22.9733 68.9456 22.92C69.3056 22.52 69.679 22.12 70.0656 21.72C70.4656 21.32 70.8523 20.9067 71.2256 20.48C71.3456 20.3333 71.4456 20.22 71.5256 20.14C71.619 20.0467 71.759 20 71.9456 20C72.0256 20 72.1456 20.02 72.3056 20.06C72.479 20.0867 72.619 20.14 72.7256 20.22C72.8456 20.3 72.8656 20.4 72.7856 20.52C72.6923 20.6667 72.5323 20.9067 72.3056 21.24C72.079 21.5733 71.819 21.9533 71.5256 22.38C71.2456 22.8067 70.9656 23.24 70.6856 23.68C70.419 24.1067 70.199 24.4933 70.0256 24.84C69.8523 25.1867 69.7656 25.4467 69.7656 25.62C69.7656 25.7 69.7923 25.74 69.8456 25.74C69.9256 25.74 70.059 25.6667 70.2456 25.52C70.4456 25.3733 70.639 25.22 70.8256 25.06C71.0256 24.8867 71.159 24.7733 71.2256 24.72C71.6123 24.3867 71.9923 24.0467 72.3656 23.7C72.739 23.34 73.0923 22.9667 73.4256 22.58C73.4523 22.5533 73.4856 22.5133 73.5256 22.46C73.579 22.4067 73.6323 22.38 73.6856 22.38C73.7523 22.38 73.7856 22.42 73.7856 22.5C73.7856 22.5933 73.7523 22.6867 73.6856 22.78C73.5123 22.9933 73.319 23.2067 73.1056 23.42C72.8923 23.62 72.6923 23.82 72.5056 24.02C72.159 24.3667 71.819 24.7133 71.4856 25.06C71.1656 25.3933 70.8456 25.74 70.5256 26.1C70.459 26.18 70.3723 26.2533 70.2656 26.32C70.1723 26.3867 70.0723 26.42 69.9656 26.42ZM74.3853 26.52C74.1453 26.52 73.9386 26.44 73.7653 26.28C73.6053 26.12 73.4786 25.9267 73.3853 25.7C73.3053 25.46 73.2653 25.2333 73.2653 25.02C73.2653 24.8067 73.292 24.6 73.3453 24.4C73.3986 24.1867 73.472 23.98 73.5653 23.78C73.7386 23.3933 73.9453 22.9667 74.1853 22.5C74.4386 22.02 74.7053 21.5333 74.9853 21.04C75.2786 20.5333 75.572 20.0733 75.8653 19.66C75.6386 19.7533 75.372 19.86 75.0653 19.98C74.772 20.0867 74.5786 20.14 74.4853 20.14C74.432 20.1267 74.392 20.0867 74.3653 20.02C74.352 19.9533 74.3453 19.8867 74.3453 19.82C74.3453 19.54 74.4786 19.3533 74.7453 19.26C75.1586 19.1267 75.712 19.0067 76.4053 18.9C76.912 18.2333 77.4586 17.5667 78.0453 16.9C78.6453 16.2333 79.252 15.7067 79.8653 15.32C79.9853 15.24 80.1186 15.28 80.2653 15.44C80.412 15.5867 80.492 15.74 80.5053 15.9C80.5053 16.0467 80.452 16.1467 80.3453 16.2C79.812 16.5333 79.3186 16.9133 78.8653 17.34C78.412 17.7533 77.9453 18.2267 77.4653 18.76C77.732 18.72 77.9653 18.6933 78.1653 18.68C78.3653 18.6667 78.492 18.66 78.5453 18.66C78.5853 18.66 78.652 18.66 78.7453 18.66C78.8386 18.6467 78.9386 18.64 79.0453 18.64C79.2053 18.64 79.352 18.6533 79.4853 18.68C79.632 18.7067 79.7053 18.7533 79.7053 18.82C79.7053 18.8733 79.6453 18.92 79.5253 18.96C79.4186 18.9867 79.2986 19.0067 79.1653 19.02C79.032 19.02 78.932 19.0267 78.8653 19.04C78.4653 19.0933 78.1053 19.1467 77.7853 19.2C77.4786 19.2533 77.192 19.32 76.9253 19.4C76.6186 19.7733 76.3786 20.0867 76.2053 20.34C76.0453 20.5933 75.9053 20.8267 75.7853 21.04C75.6786 21.24 75.5453 21.4667 75.3853 21.72C75.0386 22.3867 74.7386 23.0667 74.4853 23.76C74.2453 24.4533 74.1253 25.0133 74.1253 25.44C74.1253 25.5067 74.132 25.56 74.1453 25.6C74.1586 25.64 74.1986 25.66 74.2653 25.66C74.3453 25.66 74.4186 25.64 74.4853 25.6C74.5653 25.5467 74.632 25.4933 74.6853 25.44C74.872 25.2933 75.0453 25.1267 75.2053 24.94C75.3786 24.74 75.5453 24.5533 75.7053 24.38C75.9986 24.06 76.2986 23.7467 76.6053 23.44C76.912 23.1333 77.212 22.8267 77.5053 22.52C77.532 22.4933 77.5586 22.4733 77.5853 22.46C77.612 22.4333 77.6386 22.42 77.6653 22.42C77.7586 22.42 77.8053 22.4733 77.8053 22.58C77.8053 22.62 77.7786 22.68 77.7253 22.76C77.5653 22.9733 77.392 23.1867 77.2053 23.4C77.0186 23.6 76.8386 23.8067 76.6653 24.02C76.3186 24.4333 75.972 24.84 75.6253 25.24C75.292 25.64 74.9586 26.0533 74.6253 26.48C74.5853 26.4933 74.5453 26.5 74.5053 26.5C74.4653 26.5133 74.4253 26.52 74.3853 26.52ZM77.9288 25.82C77.1288 25.82 76.7288 25.4267 76.7288 24.64C76.7288 24.3333 76.8088 23.98 76.9688 23.58C77.1421 23.1667 77.3688 22.7533 77.6488 22.34C77.9288 21.9267 78.2421 21.5467 78.5888 21.2C78.9354 20.84 79.2888 20.5533 79.6488 20.34C80.0221 20.1133 80.3688 20 80.6888 20C80.7954 20 80.8688 20.0267 80.9088 20.08C80.9621 20.12 81.0021 20.1933 81.0288 20.3C81.0554 20.3533 81.0754 20.4133 81.0888 20.48C81.1021 20.5467 81.1221 20.6133 81.1488 20.68C81.2021 20.7733 81.2488 20.8667 81.2888 20.96C81.3288 21.0533 81.3488 21.1533 81.3488 21.26C81.3488 21.3933 81.3154 21.5133 81.2487 21.62C81.1821 21.7133 81.1021 21.8 81.0088 21.88C80.8754 22 80.6754 22.1533 80.4088 22.34C80.1421 22.5133 79.8488 22.6933 79.5288 22.88C79.2221 23.0533 78.9221 23.2067 78.6288 23.34C78.3488 23.4733 78.1221 23.5533 77.9488 23.58C77.8288 23.7667 77.7021 24 77.5688 24.28C77.4488 24.5467 77.3888 24.7933 77.3888 25.02C77.3888 25.14 77.4154 25.2467 77.4688 25.34C77.5354 25.4333 77.6354 25.48 77.7688 25.48C77.9821 25.48 78.2621 25.38 78.6087 25.18C78.9688 24.9667 79.3421 24.7133 79.7288 24.42C80.1154 24.1133 80.4688 23.82 80.7888 23.54C81.1221 23.2467 81.3688 23.02 81.5288 22.86L82.1688 22.18C82.2488 22.1 82.3354 22.06 82.4288 22.06C82.5088 22.06 82.5488 22.0933 82.5488 22.16C82.5488 22.24 82.4354 22.4067 82.2088 22.66C81.9821 22.9 81.7088 23.1733 81.3888 23.48C81.0821 23.7733 80.7954 24.0467 80.5288 24.3C80.2621 24.54 80.0888 24.6933 80.0088 24.76C79.7288 25 79.4088 25.24 79.0488 25.48C78.6888 25.7067 78.3154 25.82 77.9288 25.82ZM78.2888 23.06C78.4221 22.98 78.6221 22.8533 78.8888 22.68C79.1688 22.5067 79.4554 22.3133 79.7488 22.1C80.0421 21.8867 80.2888 21.6733 80.4888 21.46C80.7021 21.2467 80.8088 21.06 80.8088 20.9C80.8088 20.86 80.8021 20.8267 80.7888 20.8C80.7754 20.7867 80.7488 20.78 80.7088 20.78C80.5354 20.78 80.3288 20.8733 80.0888 21.06C79.8488 21.2467 79.6088 21.4733 79.3688 21.74C79.1288 21.9933 78.9088 22.2467 78.7088 22.5C78.5221 22.74 78.3821 22.9267 78.2888 23.06ZM90.9584 26.32C90.2251 26.32 89.5984 26.1533 89.0784 25.82C88.5584 25.4867 88.2451 24.9133 88.1384 24.1C88.1251 24.0467 88.1184 23.9933 88.1184 23.94C88.1184 23.8867 88.1184 23.8333 88.1184 23.78C88.1184 23.3267 88.1984 22.8667 88.3584 22.4C88.5318 21.92 88.7318 21.4533 88.9584 21C89.1984 20.5467 89.4051 20.1333 89.5784 19.76C89.4584 19.7467 89.2984 19.7333 89.0984 19.72C88.9118 19.7067 88.7384 19.66 88.5784 19.58C88.4318 19.4867 88.3584 19.3467 88.3584 19.16C88.3584 19.0933 88.3851 19.0467 88.4384 19.02C88.5051 18.9933 88.5718 18.98 88.6384 18.98C88.7184 18.98 88.7984 18.9867 88.8784 19C88.9584 19.0133 89.0184 19.02 89.0584 19.02C89.4318 19.02 89.7718 18.9 90.0784 18.66C90.3984 18.4067 90.6918 18.1 90.9584 17.74C91.2251 17.38 91.4718 17.02 91.6984 16.66C91.9251 16.2867 92.1384 15.9733 92.3384 15.72C92.2984 15.6267 92.2451 15.58 92.1784 15.58C92.1118 15.5667 92.0518 15.5467 91.9984 15.52C91.9451 15.48 91.9051 15.38 91.8784 15.22C91.8518 15.0067 91.9651 14.8333 92.2184 14.7C92.4718 14.5667 92.8051 14.46 93.2184 14.38C93.6318 14.3 94.0718 14.24 94.5384 14.2C95.0184 14.16 95.4651 14.14 95.8784 14.14C96.3051 14.1267 96.6451 14.12 96.8984 14.12C97.4051 14.12 97.9184 14.1267 98.4384 14.14C98.9584 14.1533 99.4784 14.2067 99.9984 14.3C100.212 14.3533 100.358 14.44 100.438 14.56C100.532 14.68 100.578 14.7933 100.578 14.9C100.578 14.9933 100.545 15.08 100.478 15.16C100.425 15.2267 100.358 15.26 100.278 15.26C100.145 15.26 100.032 15.1667 99.9384 14.98C99.7251 14.8867 99.4584 14.84 99.1384 14.84C98.8318 14.8267 98.5718 14.82 98.3584 14.82C98.1584 14.82 97.8651 14.8333 97.4784 14.86C97.0918 14.8733 96.6784 14.9 96.2384 14.94C95.8118 14.9667 95.4184 15.0133 95.0584 15.08C94.7118 15.1467 94.4651 15.2333 94.3184 15.34C94.1851 15.42 93.9851 15.6067 93.7184 15.9C93.4651 16.18 93.1918 16.5 92.8984 16.86C92.6051 17.22 92.3318 17.56 92.0784 17.88C91.8251 18.2 91.6384 18.44 91.5184 18.6C92.2918 18.6133 93.0584 18.5867 93.8184 18.52C94.5784 18.4533 95.3451 18.42 96.1184 18.42H96.8584C97.0984 18.42 97.3384 18.4267 97.5784 18.44C97.8318 18.44 98.0784 18.4533 98.3184 18.48C98.4784 18.4933 98.5584 18.5267 98.5584 18.58C98.5584 18.62 98.5051 18.6667 98.3984 18.72C98.2918 18.7733 98.1784 18.82 98.0584 18.86C97.9518 18.9 97.8718 18.9267 97.8184 18.94C97.0584 19.06 96.2651 19.1267 95.4384 19.14C94.6118 19.1533 93.7918 19.1933 92.9784 19.26C92.1784 19.3133 91.4184 19.4933 90.6984 19.8C90.6451 19.92 90.5318 20.1333 90.3584 20.44C90.1984 20.7467 90.0251 21.1 89.8384 21.5C89.6518 21.9 89.4851 22.3133 89.3384 22.74C89.2051 23.1667 89.1384 23.5733 89.1384 23.96C89.1384 24.4133 89.2718 24.7933 89.5384 25.1C89.8184 25.3933 90.3118 25.54 91.0184 25.54C91.6184 25.54 92.2984 25.4467 93.0584 25.26C93.8184 25.0733 94.5918 24.84 95.3784 24.56C96.1651 24.2667 96.9051 23.96 97.5984 23.64C98.3051 23.32 98.9051 23.02 99.3984 22.74C99.4784 22.7 99.5318 22.68 99.5584 22.68C99.5984 22.68 99.6184 22.7067 99.6184 22.76C99.6184 22.8267 99.5918 22.8933 99.5384 22.96C99.3251 23.2667 98.9584 23.58 98.4384 23.9C97.9318 24.22 97.3384 24.5267 96.6584 24.82C95.9784 25.1 95.2784 25.3533 94.5584 25.58C93.8518 25.8067 93.1784 25.9867 92.5384 26.12C91.8984 26.2533 91.3718 26.32 90.9584 26.32ZM101.876 26.84C101.716 26.84 101.549 26.8 101.376 26.72C101.216 26.6533 101.056 26.56 100.896 26.44C100.722 26.2933 100.556 26.0867 100.396 25.82C100.236 25.5533 100.102 25.2733 99.9958 24.98L98.4558 26.66C98.4158 26.7 98.3891 26.72 98.3758 26.72C98.3224 26.72 98.2958 26.68 98.2958 26.6C98.2958 26.48 98.3358 26.38 98.4158 26.3L99.8958 24.62C99.8558 24.46 99.8358 24.3067 99.8358 24.16C99.7424 24.0933 99.6158 24.0133 99.4558 23.92C99.3091 23.8133 99.2358 23.64 99.2358 23.4C99.2358 23.12 99.3224 22.8467 99.4958 22.58C99.6691 22.3133 99.8158 22.18 99.9358 22.18C100.029 22.18 100.076 22.26 100.076 22.42C100.076 22.4733 100.076 22.6133 100.076 22.84C100.089 23.0667 100.102 23.3 100.116 23.54C100.129 23.7667 100.142 23.92 100.156 24C100.236 24.0533 100.302 24.0867 100.356 24.1C100.876 23.5 101.422 22.88 101.996 22.24C102.569 21.6 103.082 21.0533 103.536 20.6C103.762 20.2533 104.009 19.96 104.276 19.72C104.556 19.48 104.876 19.36 105.236 19.36C105.489 19.36 105.669 19.4067 105.776 19.5C105.882 19.5933 105.936 19.7 105.936 19.82C105.936 19.94 105.882 20.0533 105.776 20.16C105.682 20.2533 105.542 20.3 105.356 20.3C105.062 20.2867 104.809 20.3 104.596 20.34C104.382 20.3667 104.229 20.46 104.136 20.62C104.042 20.7933 103.936 21.08 103.816 21.48C103.696 21.88 103.576 22.3333 103.456 22.84C103.349 23.3467 103.256 23.84 103.176 24.32C103.456 24.2667 103.722 24.2 103.976 24.12C104.242 24.0267 104.529 23.8733 104.836 23.66C105.142 23.4467 105.496 23.1333 105.896 22.72C105.962 22.64 106.029 22.6 106.096 22.6C106.136 22.6 106.156 22.6267 106.156 22.68C106.156 22.7067 106.142 22.7533 106.116 22.82C106.089 22.8867 106.036 22.9733 105.956 23.08C105.796 23.2933 105.596 23.5067 105.356 23.72C105.129 23.92 104.929 24.0733 104.756 24.18C104.396 24.3933 104.056 24.5267 103.736 24.58C103.416 24.62 103.209 24.6467 103.116 24.66C103.062 24.94 103.016 25.1733 102.976 25.36C102.936 25.5333 102.909 25.66 102.896 25.74C102.829 26.1267 102.696 26.4067 102.496 26.58C102.309 26.7533 102.102 26.84 101.876 26.84ZM102.336 24.32C102.402 24.0133 102.489 23.6067 102.596 23.1C102.716 22.5933 102.876 22.0867 103.076 21.58C102.729 21.9667 102.342 22.3867 101.916 22.84C101.502 23.2933 101.096 23.7467 100.696 24.2C100.949 24.2533 101.222 24.2933 101.516 24.32C101.809 24.3333 102.082 24.3333 102.336 24.32ZM101.576 25.88C101.682 25.88 101.789 25.8067 101.896 25.66C102.016 25.5 102.129 25.2067 102.236 24.78C102.236 24.74 102.242 24.7133 102.256 24.7C101.936 24.6867 101.622 24.6667 101.316 24.64C101.022 24.6 100.742 24.5333 100.476 24.44L100.316 24.62C100.422 24.8333 100.549 25.0533 100.696 25.28C100.842 25.4933 101.009 25.6467 101.196 25.74C101.262 25.78 101.329 25.8133 101.396 25.84C101.462 25.8667 101.522 25.88 101.576 25.88ZM106.983 26.52C106.743 26.52 106.536 26.44 106.363 26.28C106.203 26.12 106.076 25.9267 105.983 25.7C105.903 25.46 105.863 25.2333 105.863 25.02C105.863 24.8067 105.89 24.6 105.943 24.4C105.996 24.1867 106.07 23.98 106.163 23.78C106.336 23.3933 106.543 22.9667 106.783 22.5C107.036 22.02 107.303 21.5333 107.583 21.04C107.876 20.5333 108.17 20.0733 108.463 19.66C108.236 19.7533 107.97 19.86 107.663 19.98C107.37 20.0867 107.176 20.14 107.083 20.14C107.03 20.1267 106.99 20.0867 106.963 20.02C106.95 19.9533 106.943 19.8867 106.943 19.82C106.943 19.54 107.076 19.3533 107.343 19.26C107.756 19.1267 108.31 19.0067 109.003 18.9C109.51 18.2333 110.056 17.5667 110.643 16.9C111.243 16.2333 111.85 15.7067 112.463 15.32C112.583 15.24 112.716 15.28 112.863 15.44C113.01 15.5867 113.09 15.74 113.103 15.9C113.103 16.0467 113.05 16.1467 112.943 16.2C112.41 16.5333 111.916 16.9133 111.463 17.34C111.01 17.7533 110.543 18.2267 110.063 18.76C110.33 18.72 110.563 18.6933 110.763 18.68C110.963 18.6667 111.09 18.66 111.143 18.66C111.183 18.66 111.25 18.66 111.343 18.66C111.436 18.6467 111.536 18.64 111.643 18.64C111.803 18.64 111.95 18.6533 112.083 18.68C112.23 18.7067 112.303 18.7533 112.303 18.82C112.303 18.8733 112.243 18.92 112.123 18.96C112.016 18.9867 111.896 19.0067 111.763 19.02C111.63 19.02 111.53 19.0267 111.463 19.04C111.063 19.0933 110.703 19.1467 110.383 19.2C110.076 19.2533 109.79 19.32 109.523 19.4C109.216 19.7733 108.976 20.0867 108.803 20.34C108.643 20.5933 108.503 20.8267 108.383 21.04C108.276 21.24 108.143 21.4667 107.983 21.72C107.636 22.3867 107.336 23.0667 107.083 23.76C106.843 24.4533 106.723 25.0133 106.723 25.44C106.723 25.5067 106.73 25.56 106.743 25.6C106.756 25.64 106.796 25.66 106.863 25.66C106.943 25.66 107.016 25.64 107.083 25.6C107.163 25.5467 107.23 25.4933 107.283 25.44C107.47 25.2933 107.643 25.1267 107.803 24.94C107.976 24.74 108.143 24.5533 108.303 24.38C108.596 24.06 108.896 23.7467 109.203 23.44C109.51 23.1333 109.81 22.8267 110.103 22.52C110.13 22.4933 110.156 22.4733 110.183 22.46C110.21 22.4333 110.236 22.42 110.263 22.42C110.356 22.42 110.403 22.4733 110.403 22.58C110.403 22.62 110.376 22.68 110.323 22.76C110.163 22.9733 109.99 23.1867 109.803 23.4C109.616 23.6 109.436 23.8067 109.263 24.02C108.916 24.4333 108.57 24.84 108.223 25.24C107.89 25.64 107.556 26.0533 107.223 26.48C107.183 26.4933 107.143 26.5 107.103 26.5C107.063 26.5133 107.023 26.52 106.983 26.52ZM113.166 26.18C113.046 26.18 112.906 26.1267 112.746 26.02C112.6 25.9133 112.473 25.7933 112.366 25.66C112.26 25.5133 112.206 25.38 112.206 25.26C112.206 25.06 112.28 24.7933 112.426 24.46C112.573 24.1133 112.74 23.7733 112.926 23.44C113.126 23.1067 113.28 22.86 113.386 22.7C113.2 22.86 112.96 23.12 112.666 23.48C112.386 23.8267 112.08 24.2 111.746 24.6C111.426 24.9867 111.113 25.32 110.806 25.6C110.513 25.88 110.26 26.02 110.046 26.02C109.753 26.02 109.513 25.92 109.326 25.72C109.153 25.5067 109.066 25.2533 109.066 24.96C109.066 24.56 109.18 24.1333 109.406 23.68C109.633 23.2133 109.926 22.7667 110.286 22.34C110.66 21.9 111.06 21.5 111.486 21.14C111.926 20.78 112.353 20.4933 112.766 20.28C113.193 20.0667 113.573 19.96 113.906 19.96C114.266 19.96 114.56 20.0467 114.786 20.22C115.013 20.38 115.126 20.6267 115.126 20.96C115.126 21.0133 115.113 21.1133 115.086 21.26C115.073 21.4067 115.026 21.48 114.946 21.48C114.906 21.48 114.84 21.42 114.746 21.3C114.666 21.18 114.553 21.06 114.406 20.94C114.26 20.82 114.073 20.76 113.846 20.76C113.473 20.76 113.08 20.9 112.666 21.18C112.266 21.4467 111.88 21.7933 111.506 22.22C111.133 22.6333 110.806 23.06 110.526 23.5C110.246 23.94 110.033 24.32 109.886 24.64C109.846 24.7333 109.806 24.8333 109.766 24.94C109.74 25.0467 109.726 25.1533 109.726 25.26C109.726 25.38 109.76 25.44 109.826 25.44C109.893 25.44 110.033 25.3667 110.246 25.22C110.473 25.0733 110.633 24.9667 110.726 24.9C111.193 24.5667 111.633 24.1867 112.046 23.76C112.473 23.3333 112.853 22.8933 113.186 22.44C113.293 22.2933 113.393 22.1467 113.486 22C113.58 21.8533 113.673 21.7133 113.766 21.58C113.833 21.4867 113.9 21.44 113.966 21.44C114.113 21.44 114.253 21.54 114.386 21.74C114.533 21.94 114.606 22.1133 114.606 22.26C114.606 22.3267 114.593 22.3667 114.566 22.38C114.553 22.3933 114.513 22.4333 114.446 22.5C114.246 22.7 114.046 22.98 113.846 23.34C113.66 23.7 113.493 24.0667 113.346 24.44C113.213 24.8 113.113 25.1067 113.046 25.36C113.033 25.4 113.02 25.4533 113.006 25.52C113.006 25.5733 113.04 25.5933 113.106 25.58C113.24 25.54 113.453 25.3933 113.746 25.14C114.053 24.8733 114.38 24.5733 114.726 24.24C115.086 23.8933 115.406 23.5733 115.686 23.28C115.98 22.9867 116.173 22.78 116.266 22.66C116.293 22.6333 116.32 22.6067 116.346 22.58C116.386 22.54 116.426 22.52 116.466 22.52C116.56 22.52 116.606 22.5667 116.606 22.66C116.606 22.7133 116.5 22.8733 116.286 23.14C116.073 23.3933 115.806 23.6933 115.486 24.04C115.166 24.3733 114.84 24.7067 114.506 25.04C114.173 25.36 113.88 25.6333 113.626 25.86C113.386 26.0733 113.233 26.18 113.166 26.18ZM117.295 26.52C117.055 26.52 116.849 26.44 116.675 26.28C116.515 26.12 116.389 25.9267 116.295 25.7C116.215 25.46 116.175 25.2333 116.175 25.02C116.175 24.8067 116.202 24.6 116.255 24.4C116.309 24.1867 116.382 23.98 116.475 23.78C116.649 23.3933 116.855 22.9667 117.095 22.5C117.349 22.02 117.615 21.5333 117.895 21.04C118.189 20.5333 118.482 20.0733 118.775 19.66C118.549 19.7533 118.282 19.86 117.975 19.98C117.682 20.0867 117.489 20.14 117.395 20.14C117.342 20.1267 117.302 20.0867 117.275 20.02C117.262 19.9533 117.255 19.8867 117.255 19.82C117.255 19.54 117.389 19.3533 117.655 19.26C118.069 19.1267 118.622 19.0067 119.315 18.9C119.822 18.2333 120.369 17.5667 120.955 16.9C121.555 16.2333 122.162 15.7067 122.775 15.32C122.895 15.24 123.029 15.28 123.175 15.44C123.322 15.5867 123.402 15.74 123.415 15.9C123.415 16.0467 123.362 16.1467 123.255 16.2C122.722 16.5333 122.229 16.9133 121.775 17.34C121.322 17.7533 120.855 18.2267 120.375 18.76C120.642 18.72 120.875 18.6933 121.075 18.68C121.275 18.6667 121.402 18.66 121.455 18.66C121.495 18.66 121.562 18.66 121.655 18.66C121.749 18.6467 121.849 18.64 121.955 18.64C122.115 18.64 122.262 18.6533 122.395 18.68C122.542 18.7067 122.615 18.7533 122.615 18.82C122.615 18.8733 122.555 18.92 122.435 18.96C122.329 18.9867 122.209 19.0067 122.075 19.02C121.942 19.02 121.842 19.0267 121.775 19.04C121.375 19.0933 121.015 19.1467 120.695 19.2C120.389 19.2533 120.102 19.32 119.835 19.4C119.529 19.7733 119.289 20.0867 119.115 20.34C118.955 20.5933 118.815 20.8267 118.695 21.04C118.589 21.24 118.455 21.4667 118.295 21.72C117.949 22.3867 117.649 23.0667 117.395 23.76C117.155 24.4533 117.035 25.0133 117.035 25.44C117.035 25.5067 117.042 25.56 117.055 25.6C117.069 25.64 117.109 25.66 117.175 25.66C117.255 25.66 117.329 25.64 117.395 25.6C117.475 25.5467 117.542 25.4933 117.595 25.44C117.782 25.2933 117.955 25.1267 118.115 24.94C118.289 24.74 118.455 24.5533 118.615 24.38C118.909 24.06 119.209 23.7467 119.515 23.44C119.822 23.1333 120.122 22.8267 120.415 22.52C120.442 22.4933 120.469 22.4733 120.495 22.46C120.522 22.4333 120.549 22.42 120.575 22.42C120.669 22.42 120.715 22.4733 120.715 22.58C120.715 22.62 120.689 22.68 120.635 22.76C120.475 22.9733 120.302 23.1867 120.115 23.4C119.929 23.6 119.749 23.8067 119.575 24.02C119.229 24.4333 118.882 24.84 118.535 25.24C118.202 25.64 117.869 26.0533 117.535 26.48C117.495 26.4933 117.455 26.5 117.415 26.5C117.375 26.5133 117.335 26.52 117.295 26.52ZM127.019 26.84C126.859 26.84 126.692 26.8 126.519 26.72C126.359 26.6533 126.199 26.56 126.039 26.44C125.866 26.2933 125.699 26.0867 125.539 25.82C125.379 25.5533 125.246 25.2733 125.139 24.98L125.039 24.64C124.506 25.0533 123.912 25.4133 123.259 25.72C122.619 26.0133 121.926 26.16 121.179 26.16C120.699 26.16 120.332 26.0067 120.079 25.7C119.839 25.38 119.719 25.0267 119.719 24.64C119.719 24.3333 119.799 23.98 119.959 23.58C120.132 23.1667 120.359 22.7533 120.639 22.34C120.919 21.9267 121.232 21.5467 121.579 21.2C121.926 20.84 122.279 20.5533 122.639 20.34C123.012 20.1133 123.359 20 123.679 20C123.786 20 123.859 20.0267 123.899 20.08C123.952 20.12 123.992 20.1933 124.019 20.3C124.046 20.3533 124.066 20.4133 124.079 20.48C124.092 20.5467 124.112 20.6133 124.139 20.68C124.192 20.7733 124.239 20.8667 124.279 20.96C124.319 21.0533 124.339 21.1533 124.339 21.26C124.339 21.3933 124.306 21.5133 124.239 21.62C124.172 21.7133 124.092 21.8 123.999 21.88C123.866 22 123.666 22.1533 123.399 22.34C123.132 22.5133 122.839 22.6933 122.519 22.88C122.212 23.0533 121.912 23.2067 121.619 23.34C121.339 23.4733 121.112 23.5533 120.939 23.58C120.886 23.6333 120.806 23.8067 120.699 24.1C120.592 24.3933 120.539 24.6867 120.539 24.98C120.539 25.1933 120.592 25.38 120.699 25.54C120.806 25.7 121.006 25.78 121.299 25.78C121.939 25.78 122.559 25.64 123.159 25.36C123.759 25.08 124.366 24.6933 124.979 24.2V24.16C124.886 24.0933 124.759 24.0133 124.599 23.92C124.452 23.8133 124.379 23.64 124.379 23.4C124.379 23.12 124.466 22.8467 124.639 22.58C124.812 22.3133 124.959 22.18 125.079 22.18C125.172 22.18 125.219 22.26 125.219 22.42C125.219 22.4733 125.219 22.6067 125.219 22.82C125.232 23.02 125.239 23.2267 125.239 23.44C125.252 23.6533 125.266 23.82 125.279 23.94C125.572 23.7 125.859 23.44 126.139 23.16C126.432 22.88 126.732 22.5933 127.039 22.3L128.359 20.96C128.426 20.8133 128.492 20.6867 128.559 20.58C128.772 20.2067 129.032 19.9133 129.339 19.7C129.659 19.4733 129.999 19.36 130.359 19.36C130.626 19.36 130.812 19.4067 130.919 19.5C131.026 19.5933 131.079 19.7 131.079 19.82C131.079 19.94 131.026 20.0533 130.919 20.16C130.826 20.2533 130.686 20.3 130.499 20.3C130.206 20.2867 129.932 20.2933 129.679 20.32C129.439 20.3467 129.266 20.44 129.159 20.6C129.052 20.7733 128.946 21.0667 128.839 21.48C128.746 21.88 128.652 22.3333 128.559 22.84C128.479 23.3467 128.399 23.84 128.319 24.32C128.599 24.2667 128.866 24.2 129.119 24.12C129.386 24.0267 129.672 23.8733 129.979 23.66C130.286 23.4467 130.639 23.1333 131.039 22.72C131.106 22.64 131.172 22.6 131.239 22.6C131.279 22.6 131.299 22.6267 131.299 22.68C131.299 22.7067 131.286 22.7533 131.259 22.82C131.232 22.8867 131.179 22.9733 131.099 23.08C130.939 23.2933 130.739 23.5067 130.499 23.72C130.272 23.92 130.072 24.0733 129.899 24.18C129.539 24.3933 129.199 24.5267 128.879 24.58C128.559 24.62 128.352 24.6467 128.259 24.66C128.206 24.94 128.159 25.1733 128.119 25.36C128.079 25.5333 128.052 25.66 128.039 25.74C127.972 26.1267 127.839 26.4067 127.639 26.58C127.452 26.7533 127.246 26.84 127.019 26.84ZM121.279 23.06C121.412 22.98 121.612 22.8533 121.879 22.68C122.159 22.5067 122.446 22.3133 122.739 22.1C123.032 21.8867 123.279 21.6733 123.479 21.46C123.692 21.2467 123.799 21.06 123.799 20.9C123.799 20.82 123.766 20.78 123.699 20.78C123.526 20.78 123.319 20.8733 123.079 21.06C122.839 21.2467 122.599 21.4733 122.359 21.74C122.119 21.9933 121.899 22.2467 121.699 22.5C121.512 22.74 121.372 22.9267 121.279 23.06ZM127.479 24.32C127.506 24.2 127.559 23.8867 127.639 23.38C127.732 22.86 127.872 22.3133 128.059 21.74L127.299 22.5C127.086 22.7133 126.846 22.96 126.579 23.24C126.312 23.52 126.006 23.8133 125.659 24.12C126.072 24.2267 126.419 24.2933 126.699 24.32C126.992 24.3333 127.252 24.3333 127.479 24.32ZM126.719 25.88C126.826 25.88 126.932 25.8067 127.039 25.66C127.159 25.5 127.272 25.2067 127.379 24.78C127.379 24.74 127.386 24.7133 127.399 24.7C127.079 24.6867 126.766 24.6667 126.459 24.64C126.166 24.6 125.886 24.5333 125.619 24.44C125.566 24.4 125.519 24.38 125.479 24.38C125.439 24.38 125.419 24.4 125.419 24.44C125.419 24.4533 125.419 24.48 125.419 24.52C125.432 24.5467 125.446 24.58 125.459 24.62C125.566 24.8333 125.692 25.0533 125.839 25.28C125.986 25.4933 126.152 25.6467 126.339 25.74C126.406 25.78 126.472 25.8133 126.539 25.84C126.606 25.8667 126.666 25.88 126.719 25.88Z" fill="#00274C"/>
<path d="M67.268 38V31.66H65.868V31H69.548V31.66H68.148V38H67.268ZM70.35 31.95V31.15H71.15V31.95H70.35ZM70.35 38V32.8H71.15V38H70.35ZM72.352 32.8H72.972L73.062 33.09L73.472 32.97C73.752 32.8833 73.972 32.8233 74.132 32.79C74.2986 32.75 74.4553 32.73 74.602 32.73C74.8886 32.73 75.0886 32.8567 75.202 33.11C75.3886 33.0433 75.652 32.9633 75.992 32.87C76.332 32.7767 76.582 32.73 76.742 32.73C76.982 32.73 77.1586 32.8133 77.272 32.98C77.392 33.1467 77.452 33.3633 77.452 33.63V38H76.652V33.89C76.652 33.6967 76.6386 33.5633 76.612 33.49C76.5853 33.41 76.5186 33.37 76.412 33.37C76.3586 33.37 75.992 33.4767 75.312 33.69V38H74.512V33.89C74.512 33.6967 74.4986 33.5633 74.472 33.49C74.4453 33.41 74.3786 33.37 74.272 33.37C74.2186 33.37 73.8453 33.4767 73.152 33.69V38H72.352V32.8ZM79.5931 38C79.2265 38 78.9331 37.89 78.7131 37.67C78.4998 37.45 78.3931 37.1533 78.3931 36.78V34.12C78.3931 33.6867 78.5131 33.3467 78.7531 33.1C78.9931 32.8533 79.3498 32.73 79.8231 32.73C80.2965 32.73 80.6498 32.8533 80.8831 33.1C81.1231 33.3467 81.2431 33.6867 81.2431 34.12V34.58C81.2431 34.86 81.1631 35.0733 81.0031 35.22C80.8431 35.36 80.6331 35.4667 80.3731 35.54L79.1931 35.87V36.85C79.1931 37.01 79.2398 37.1433 79.3331 37.25C79.4331 37.35 79.5598 37.4 79.7131 37.4H80.7931V38H79.5931ZM79.8031 35.07C80.0231 35.01 80.1698 34.9667 80.2431 34.94C80.3231 34.9067 80.3765 34.86 80.4031 34.8C80.4298 34.74 80.4431 34.64 80.4431 34.5V33.95C80.4431 33.7367 80.3865 33.58 80.2731 33.48C80.1665 33.38 80.0165 33.33 79.8231 33.33C79.6365 33.33 79.4831 33.3833 79.3631 33.49C79.2498 33.5967 79.1931 33.75 79.1931 33.95V35.24L79.8031 35.07ZM82.0495 38V31H82.8495V38H82.0495ZM85.0814 38C84.7147 38 84.4214 37.89 84.2014 37.67C83.9881 37.45 83.8814 37.1533 83.8814 36.78V34.12C83.8814 33.6867 84.0014 33.3467 84.2414 33.1C84.4814 32.8533 84.8381 32.73 85.3114 32.73C85.7847 32.73 86.1381 32.8533 86.3714 33.1C86.6114 33.3467 86.7314 33.6867 86.7314 34.12V34.58C86.7314 34.86 86.6514 35.0733 86.4914 35.22C86.3314 35.36 86.1214 35.4667 85.8614 35.54L84.6814 35.87V36.85C84.6814 37.01 84.7281 37.1433 84.8214 37.25C84.9214 37.35 85.0481 37.4 85.2014 37.4H86.2814V38H85.0814ZM85.2914 35.07C85.5114 35.01 85.6581 34.9667 85.7314 34.94C85.8114 34.9067 85.8647 34.86 85.8914 34.8C85.9181 34.74 85.9314 34.64 85.9314 34.5V33.95C85.9314 33.7367 85.8747 33.58 85.7614 33.48C85.6547 33.38 85.5047 33.33 85.3114 33.33C85.1247 33.33 84.9714 33.3833 84.8514 33.49C84.7381 33.5967 84.6814 33.75 84.6814 33.95V35.24L85.2914 35.07ZM87.2277 37.4H88.0777C88.3644 37.4 88.5711 37.3233 88.6977 37.17C88.8311 37.01 88.8977 36.8033 88.8977 36.55C88.8977 36.35 88.8377 36.18 88.7177 36.04C88.5977 35.9 88.4177 35.7367 88.1777 35.55C87.9711 35.3833 87.8044 35.24 87.6777 35.12C87.5577 34.9933 87.4511 34.84 87.3577 34.66C87.2711 34.4733 87.2277 34.26 87.2277 34.02C87.2277 33.6667 87.3444 33.3767 87.5777 33.15C87.8177 32.9167 88.1377 32.8 88.5377 32.8H89.4077V33.4H88.6877C88.2144 33.4 87.9777 33.6233 87.9777 34.07C87.9777 34.2433 88.0311 34.3933 88.1377 34.52C88.2444 34.6467 88.4111 34.7967 88.6377 34.97C88.8444 35.13 89.0144 35.2767 89.1477 35.41C89.2811 35.5367 89.3944 35.7 89.4877 35.9C89.5811 36.0933 89.6277 36.3233 89.6277 36.59C89.6277 37.0633 89.5011 37.4167 89.2477 37.65C89.0011 37.8833 88.6511 38 88.1977 38H87.2277V37.4ZM90.2258 37.4H91.0758C91.3624 37.4 91.5691 37.3233 91.6958 37.17C91.8291 37.01 91.8958 36.8033 91.8958 36.55C91.8958 36.35 91.8358 36.18 91.7158 36.04C91.5958 35.9 91.4158 35.7367 91.1758 35.55C90.9691 35.3833 90.8024 35.24 90.6758 35.12C90.5558 34.9933 90.4491 34.84 90.3558 34.66C90.2691 34.4733 90.2258 34.26 90.2258 34.02C90.2258 33.6667 90.3424 33.3767 90.5758 33.15C90.8158 32.9167 91.1358 32.8 91.5358 32.8H92.4058V33.4H91.6858C91.2124 33.4 90.9758 33.6233 90.9758 34.07C90.9758 34.2433 91.0291 34.3933 91.1358 34.52C91.2424 34.6467 91.4091 34.7967 91.6358 34.97C91.8424 35.13 92.0124 35.2767 92.1458 35.41C92.2791 35.5367 92.3924 35.7 92.4858 35.9C92.5791 36.0933 92.6258 36.3233 92.6258 36.59C92.6258 37.0633 92.4991 37.4167 92.2458 37.65C91.9991 37.8833 91.6491 38 91.1958 38H90.2258V37.4ZM95.1577 38V31H96.0377V37.34H98.0877V38H95.1577ZM99.4268 38.07C99.1868 38.07 99.0068 37.9867 98.8868 37.82C98.7735 37.6533 98.7168 37.4367 98.7168 37.17V32.8H99.5168V36.91C99.5168 37.0967 99.5301 37.23 99.5568 37.31C99.5835 37.39 99.6468 37.43 99.7468 37.43C99.7935 37.43 100.17 37.33 100.877 37.13V32.8H101.677V38H101.107L100.957 37.66C100.85 37.7 100.77 37.7267 100.717 37.74C100.403 37.8533 100.15 37.9367 99.9568 37.99C99.7635 38.0433 99.5868 38.07 99.4268 38.07ZM102.379 38L103.819 35.39L102.479 32.8H103.249L104.189 34.64L105.139 32.8H105.909L104.569 35.39L106.009 38H105.169L104.189 36.1L103.219 38H102.379ZM107.269 38.07C107.029 38.07 106.849 37.9867 106.729 37.82C106.615 37.6533 106.559 37.4367 106.559 37.17V32.8H107.359V36.91C107.359 37.0967 107.372 37.23 107.399 37.31C107.425 37.39 107.489 37.43 107.589 37.43C107.635 37.43 108.012 37.33 108.719 37.13V32.8H109.519V38H108.949L108.799 37.66C108.692 37.7 108.612 37.7267 108.559 37.74C108.245 37.8533 107.992 37.9367 107.799 37.99C107.605 38.0433 107.429 38.07 107.269 38.07ZM110.721 32.8H111.341L111.431 33.17L111.681 33.05C111.894 32.9433 112.071 32.8633 112.211 32.81C112.358 32.7567 112.504 32.73 112.651 32.73V33.32C112.564 33.32 112.448 33.3467 112.301 33.4C112.154 33.4467 111.894 33.56 111.521 33.74V38H110.721V32.8ZM113.367 39H113.677C113.857 39 114.02 38.9133 114.167 38.74C114.314 38.5733 114.387 38.3233 114.387 37.99L112.997 32.8H113.827L114.697 37.02L115.397 32.8H116.187L114.967 38.6C114.827 39.2667 114.44 39.6 113.807 39.6H113.367V39Z" fill="#202020"/>
<rect x="37.7235" y="19.6899" width="3.83635" height="5.29614" fill="#00274C"/>
<path d="M27.5567 17.6106L34.2915 22.8739L27.561 18.6894L20.8644 22.9395L27.5567 17.6106Z" fill="#00274C"/>
<rect x="25.2552" y="24.1384" width="1.91818" height="2.11846" rx="0.959088" fill="#FFA500"/>
<rect x="27.9409" y="24.1384" width="1.91818" height="2.11846" rx="0.959088" fill="#FFA500"/>
<rect x="25.2552" y="27.1045" width="1.91818" height="2.11846" rx="0.959088" fill="#FFA500"/>
<rect x="27.9408" y="27.1045" width="1.91818" height="2.11846" rx="0.959088" fill="#FFA500"/>
<path d="M27.5563 11.4276L43.4761 26.7071L50.0001 32.6122H39.2414V31.9479L43.1601 30.2501L27.5563 15.4874L13.6626 28.8477L11.6366 26.7071L27.5563 11.4276Z" fill="#00274C"/>
<path d="M10.0059 24.9268C6.07367 12.5338 22.666 3.90725 33.7914 13.9699C24.776 -0.647428 0.415049 11.1568 10.0059 24.9268Z" fill="#00274C"/>
<path d="M38.6822 34.7306C18.7331 42.7808 1.62149 26.373 8.37498 13.3342C-4.51005 23.8366 16.9108 50.831 38.6822 34.7306Z" fill="#00274C"/>
</svg>
