<svg width="35" height="35" viewBox="0 0 35 35" fill="none" xmlns="http://www.w3.org/2000/svg">
<path d="M29.6173 25.8241C32.3692 22.8374 32.0921 19.002 32.0833 18.9583V7.29159C32.0833 6.90481 31.9297 6.53388 31.6562 6.26039C31.3827 5.9869 31.0118 5.83325 30.625 5.83325H21.875C20.2665 5.83325 18.9583 7.14138 18.9583 8.74992V18.9583C18.9583 19.345 19.112 19.716 19.3855 19.9894C19.659 20.2629 20.0299 20.4166 20.4167 20.4166H24.9054C24.8746 21.1376 24.6592 21.8386 24.2798 22.4524C23.539 23.6205 22.1433 24.4183 20.1294 24.8208L18.9583 25.0541V29.1666H20.4167C24.4752 29.1666 27.5713 28.0422 29.6173 25.8241ZM13.5654 25.8241C16.3188 22.8374 16.0402 19.002 16.0315 18.9583V7.29159C16.0315 6.90481 15.8778 6.53388 15.6043 6.26039C15.3308 5.9869 14.9599 5.83325 14.5731 5.83325H5.82313C4.21459 5.83325 2.90646 7.14138 2.90646 8.74992V18.9583C2.90646 19.345 3.06011 19.716 3.3336 19.9894C3.60709 20.2629 3.97802 20.4166 4.3648 20.4166H8.85355C8.82274 21.1376 8.60732 21.8386 8.22792 22.4524C7.48709 23.6205 6.09146 24.4183 4.07751 24.8208L2.90646 25.0541V29.1666H4.3648C8.42334 29.1666 11.5194 28.0422 13.5654 25.8241Z" fill="#888888"/>
</svg>
